<?xml version="1.0" encoding="UTF-8" standalone="no"?>
<!-- Created with Inkscape (http://www.inkscape.org/) -->

<svg
   width="45.269146mm"
   height="27.161415mm"
   viewBox="0 0 45.269146 27.161415"
   version="1.1"
   id="svg5"
   xml:space="preserve"
   xmlns="http://www.w3.org/2000/svg"
   xmlns:svg="http://www.w3.org/2000/svg"><defs
     id="defs2"><clipPath
       clipPathUnits="userSpaceOnUse"
       id="clipPath1683"><path
         d="m 1545.48,276.002 h 122.91 v -36.551 h -122.91 z"
         id="path1681" /></clipPath><clipPath
       clipPathUnits="userSpaceOnUse"
       id="clipPath25202"><path
         d="M -2.2440947e-6,2048 H 2048 V -1.1811023e-5 H -2.2440947e-6 Z"
         id="path25204"
         style="stroke-width:0.999998" /></clipPath><clipPath
       clipPathUnits="userSpaceOnUse"
       id="clipPath25208"><path
         d="M -1649.7791,1756.6553 H 398.22089 V -291.34472 H -1649.7791 Z"
         id="path25210"
         style="stroke-width:0.999998" /></clipPath><clipPath
       clipPathUnits="userSpaceOnUse"
       id="clipPath25230"><path
         d="M -1582.923,1770.9761 H 465.07701 V -277.02392 H -1582.923 Z"
         id="path25232"
         style="stroke-width:0.999998" /></clipPath><clipPath
       clipPathUnits="userSpaceOnUse"
       id="clipPath25304"><path
         d="M -1649.7791,1752.9853 H 398.22089 V -295.01471 H -1649.7791 Z"
         id="path25306"
         style="stroke-width:0.999998" /></clipPath></defs><g
     id="g27108"
     transform="translate(-764.82119,-611.94999)"><path
       d="m 0,0 c -3.08,0 -6.031,-0.642 -8.726,-1.745 -6.057,11.857 -18.273,20.069 -32.517,20.069 -14.244,0 -26.46,-8.212 -32.517,-20.069 -2.695,1.103 -5.62,1.745 -8.726,1.745 -12.652,0 -22.918,-10.266 -22.918,-22.918 0,-12.653 10.266,-22.919 22.918,-22.919 4.902,0 9.445,1.566 13.166,4.209 6.724,-8.11 16.733,-13.371 28.077,-13.371 11.344,0 21.353,5.261 28.077,13.371 3.721,-2.618 8.264,-4.209 13.166,-4.209 12.653,0 22.918,10.266 22.918,22.919 C 22.918,-10.266 12.653,0 0,0"
       style="fill:#bbbbbc;fill-opacity:1;fill-rule:nonzero;stroke:none"
       id="path1675"
       transform="matrix(0.35277776,0,0,-0.35277778,802.00538,618.41429)"
       clip-path="url(#clipPath25304)" /><g
       id="g1691"
       transform="matrix(0.35277776,0,0,-0.35277778,220,722.48892)"
       clip-path="url(#clipPath25202)"><g
         clip-path="url(#clipPath1683)"
         opacity="0.0500031"
         id="g1689"><g
           transform="translate(1611.5646,275.2017)"
           id="g1687"><path
             d="m 0,0 c -24.689,2.489 -47.813,-0.95 -66.086,-8.649 2.284,-10.266 11.42,-17.939 22.354,-17.939 4.902,0 9.444,1.565 13.165,4.209 6.725,-8.11 16.734,-13.372 28.077,-13.372 11.344,0 21.353,5.262 28.078,13.372 3.721,-2.618 8.263,-4.209 13.165,-4.209 7.34,0 13.859,3.464 18.068,8.854 C 41.269,-8.649 21.687,-2.181 0,0"
             style="fill:#a8a9ad;fill-opacity:1;fill-rule:nonzero;stroke:none"
             id="path1685" /></g></g></g><path
       d="m 0,0 c -3.08,0 -6.031,-0.642 -8.726,-1.745 -6.082,11.857 -18.273,20.069 -32.517,20.069 -14.244,0 -26.46,-8.212 -32.517,-20.069 -2.695,1.103 -5.62,1.745 -8.726,1.745 -12.652,0 -22.918,-10.266 -22.918,-22.918 0,-12.653 10.266,-22.919 22.918,-22.919 4.902,0 9.445,1.566 13.166,4.209 6.724,-8.11 16.733,-13.371 28.077,-13.371 11.344,0 21.353,5.261 28.077,13.371 3.721,-2.618 8.264,-4.209 13.166,-4.209 12.653,0 22.918,10.266 22.918,22.919 C 22.918,-10.266 12.653,0 0,0"
       style="fill:#989898;fill-opacity:1;fill-rule:nonzero;stroke:none"
       id="path1695"
       transform="matrix(0.35277776,0,0,-0.35277778,802.00538,619.70898)"
       clip-path="url(#clipPath25208)" /><path
       d="m 0,0 c 1.925,0 3.721,-0.385 5.39,-1.078 3.746,7.34 11.292,12.396 20.095,12.396 8.803,0 16.348,-5.082 20.095,-12.396 1.668,0.693 3.491,1.078 5.39,1.078 7.16,0 13.063,-5.313 14.013,-12.216 0.077,0.641 0.153,1.283 0.153,1.924 0,7.828 -6.339,14.167 -14.166,14.167 -1.899,0 -3.722,-0.385 -5.39,-1.078 C 41.833,10.137 34.288,15.193 25.485,15.193 16.682,15.193 9.136,10.112 5.39,2.797 3.721,3.49 1.925,3.875 0,3.875 c -7.828,0 -14.167,-6.339 -14.167,-14.167 0,-0.667 0.052,-1.308 0.154,-1.924 C -13.089,-5.313 -7.186,0 0,0"
       style="fill:#bbbbbc;fill-opacity:1;fill-rule:nonzero;stroke:none"
       id="path1699"
       transform="matrix(0.35277776,0,0,-0.35277778,778.42003,624.76104)"
       clip-path="url(#clipPath25230)" /></g></svg>
