<?xml version="1.0" encoding="UTF-8" standalone="no"?>
<!-- Created with Inkscape (http://www.inkscape.org/) -->

<svg
   width="45.269146mm"
   height="27.161455mm"
   viewBox="0 0 45.269146 27.161455"
   version="1.1"
   id="svg5"
   xml:space="preserve"
   xmlns="http://www.w3.org/2000/svg"
   xmlns:svg="http://www.w3.org/2000/svg"><defs
     id="defs2"><clipPath
       clipPathUnits="userSpaceOnUse"
       id="clipPath203"><path
         d="M 415.679,498.88 H 538.586 V 462.329 H 415.679 Z"
         id="path201" /></clipPath><clipPath
       clipPathUnits="userSpaceOnUse"
       id="clipPath24557"><path
         d="M -519.97921,1530.1068 H 1528.0208 v -2048 H -519.97921 Z"
         id="path24559"
         style="stroke-width:0.999998" /></clipPath><clipPath
       clipPathUnits="userSpaceOnUse"
       id="clipPath24612"><path
         d="M -519.97921,1533.7769 H 1528.0208 v -2048 H -519.97921 Z"
         id="path24614"
         style="stroke-width:0.999998" /></clipPath><clipPath
       clipPathUnits="userSpaceOnUse"
       id="clipPath24654"><path
         d="m -453.1231,1548.0977 h 2048 v -2048 h -2048 z"
         id="path24656"
         style="stroke-width:0.999998" /></clipPath></defs><g
     id="g27181"
     transform="translate(-366.25291,-533.32341)"><path
       d="m 0,0 c -3.08,0 -6.031,-0.642 -8.726,-1.745 -6.057,11.857 -18.273,20.069 -32.517,20.069 -14.244,0 -26.46,-8.212 -32.517,-20.069 -2.695,1.103 -5.62,1.745 -8.726,1.745 -12.652,0 -22.918,-10.266 -22.918,-22.918 0,-12.653 10.266,-22.919 22.918,-22.919 4.902,0 9.445,1.566 13.166,4.209 6.724,-8.11 16.733,-13.371 28.077,-13.371 11.344,0 21.353,5.261 28.077,13.371 3.721,-2.618 8.264,-4.209 13.166,-4.209 12.653,0 22.918,10.266 22.918,22.919 C 22.918,-10.266 12.653,0 0,0"
       style="fill:#bdc5d2;fill-opacity:1;fill-rule:nonzero;stroke:none"
       id="path195"
       transform="matrix(0.35277776,0,0,-0.35277778,403.4371,539.78771)"
       clip-path="url(#clipPath24557)" /><g
       id="g211"
       transform="matrix(0.35277776,0,0,-0.35277778,220,722.48892)"><g
         clip-path="url(#clipPath203)"
         opacity="0.0500031"
         id="g209"><g
           transform="translate(481.7647,498.0802)"
           id="g207"><path
             d="m 0,0 c -24.689,2.489 -47.813,-0.95 -66.086,-8.649 2.284,-10.266 11.421,-17.939 22.354,-17.939 4.902,0 9.444,1.565 13.166,4.209 6.724,-8.11 16.733,-13.372 28.077,-13.372 11.343,0 21.352,5.262 28.077,13.372 3.721,-2.618 8.264,-4.209 13.165,-4.209 7.341,0 13.859,3.464 18.068,8.854 C 41.269,-8.649 21.687,-2.181 0,0"
             style="fill:#a8a9ad;fill-opacity:1;fill-rule:nonzero;stroke:none"
             id="path205" /></g></g></g><path
       d="m 0,0 c -3.08,0 -6.031,-0.642 -8.726,-1.745 -6.082,11.857 -18.273,20.069 -32.517,20.069 -14.244,0 -26.46,-8.212 -32.517,-20.069 -2.695,1.103 -5.62,1.745 -8.726,1.745 -12.652,0 -22.918,-10.266 -22.918,-22.918 0,-12.653 10.266,-22.919 22.918,-22.919 4.902,0 9.445,1.566 13.166,4.209 6.724,-8.11 16.733,-13.371 28.077,-13.371 11.344,0 21.353,5.261 28.077,13.371 3.721,-2.618 8.264,-4.209 13.166,-4.209 12.653,0 22.918,10.266 22.918,22.919 C 22.918,-10.266 12.653,0 0,0"
       style="fill:#d3dee2;fill-opacity:1;fill-rule:nonzero;stroke:none"
       id="path215"
       transform="matrix(0.35277776,0,0,-0.35277778,403.4371,541.08244)"
       clip-path="url(#clipPath24612)" /><path
       d="m 0,0 c 1.925,0 3.721,-0.385 5.39,-1.078 3.747,7.34 11.292,12.396 20.095,12.396 8.803,0 16.348,-5.082 20.095,-12.396 1.668,0.693 3.491,1.078 5.39,1.078 7.16,0 13.063,-5.313 14.013,-12.216 0.077,0.641 0.154,1.283 0.154,1.925 0,7.827 -6.34,14.166 -14.167,14.166 -1.899,0 -3.722,-0.385 -5.39,-1.078 C 41.833,10.137 34.288,15.193 25.485,15.193 16.682,15.193 9.137,10.112 5.39,2.797 3.721,3.49 1.925,3.875 0,3.875 c -7.828,0 -14.167,-6.339 -14.167,-14.166 0,-0.668 0.052,-1.309 0.154,-1.925 C -13.089,-5.313 -7.186,0 0,0"
       style="fill:#bdc5d2;fill-opacity:1;fill-rule:nonzero;stroke:none"
       id="path219"
       transform="matrix(0.35277776,0,0,-0.35277778,379.85175,546.1345)"
       clip-path="url(#clipPath24654)" /></g></svg>
