<?xml version="1.0" encoding="UTF-8" standalone="no"?>
<!-- Created with Inkscape (http://www.inkscape.org/) -->

<svg
   width="45.269501mm"
   height="43.411068mm"
   viewBox="0 0 45.269501 43.411068"
   version="1.1"
   id="svg5"
   xml:space="preserve"
   xmlns="http://www.w3.org/2000/svg"
   xmlns:svg="http://www.w3.org/2000/svg"><defs
     id="defs2"><linearGradient
       x1="0"
       y1="0"
       x2="1"
       y2="0"
       gradientUnits="userSpaceOnUse"
       gradientTransform="matrix(-13.042653,-41.808315,41.808315,-13.042653,1305.5105,1783.8518)"
       spreadMethod="pad"
       id="linearGradient5041"><stop
         style="stop-opacity:1;stop-color:#fdda00"
         offset="0"
         id="stop5037" /><stop
         style="stop-opacity:1;stop-color:#e2a026"
         offset="1"
         id="stop5039" /></linearGradient><linearGradient
       x1="0"
       y1="0"
       x2="1"
       y2="0"
       gradientUnits="userSpaceOnUse"
       gradientTransform="matrix(-2.6617916,-8.5323906,8.5323906,-2.6617916,1325.8075,1780.5161)"
       spreadMethod="pad"
       id="linearGradient5061"><stop
         style="stop-opacity:1;stop-color:#fdda00"
         offset="0"
         id="stop5057" /><stop
         style="stop-opacity:1;stop-color:#e7a425"
         offset="1"
         id="stop5059" /></linearGradient><linearGradient
       x1="0"
       y1="0"
       x2="1"
       y2="0"
       gradientUnits="userSpaceOnUse"
       gradientTransform="matrix(-2.661799,-8.5324144,8.5324144,-2.661799,1274.8036,1753.7622)"
       spreadMethod="pad"
       id="linearGradient5081"><stop
         style="stop-opacity:1;stop-color:#fdda00"
         offset="0"
         id="stop5077" /><stop
         style="stop-opacity:1;stop-color:#e7a425"
         offset="1"
         id="stop5079" /></linearGradient><linearGradient
       x1="0"
       y1="0"
       x2="1"
       y2="0"
       gradientUnits="userSpaceOnUse"
       gradientTransform="matrix(-1.5591857,-4.9979806,4.9979806,-1.5591857,1327.2545,1756.7942)"
       spreadMethod="pad"
       id="linearGradient5101"><stop
         style="stop-opacity:1;stop-color:#fdda00"
         offset="0"
         id="stop5097" /><stop
         style="stop-opacity:1;stop-color:#e7a425"
         offset="1"
         id="stop5099" /></linearGradient><linearGradient
       x1="0"
       y1="0"
       x2="1"
       y2="0"
       gradientUnits="userSpaceOnUse"
       gradientTransform="matrix(-1.5605989,-5.0025105,5.0025105,-1.5605989,1272.2698,1773.944)"
       spreadMethod="pad"
       id="linearGradient5121"><stop
         style="stop-opacity:1;stop-color:#fdda00"
         offset="0"
         id="stop5117" /><stop
         style="stop-opacity:1;stop-color:#e7a425"
         offset="1"
         id="stop5119" /></linearGradient><linearGradient
       x1="0"
       y1="0"
       x2="1"
       y2="0"
       gradientUnits="userSpaceOnUse"
       gradientTransform="matrix(-2.6617916,-8.5323906,8.5323906,-2.6617916,1286.9529,1792.6346)"
       spreadMethod="pad"
       id="linearGradient5141"><stop
         style="stop-opacity:1;stop-color:#fdda00"
         offset="0"
         id="stop5137" /><stop
         style="stop-opacity:1;stop-color:#e7a425"
         offset="1"
         id="stop5139" /></linearGradient><linearGradient
       x1="0"
       y1="0"
       x2="1"
       y2="0"
       gradientUnits="userSpaceOnUse"
       gradientTransform="matrix(-2.6617999,-8.5324183,8.5324183,-2.6617999,1313.6935,1741.6331)"
       spreadMethod="pad"
       id="linearGradient5161"><stop
         style="stop-opacity:1;stop-color:#fdda00"
         offset="0"
         id="stop5157" /><stop
         style="stop-opacity:1;stop-color:#e7a425"
         offset="1"
         id="stop5159" /></linearGradient><linearGradient
       x1="0"
       y1="0"
       x2="1"
       y2="0"
       gradientUnits="userSpaceOnUse"
       gradientTransform="matrix(-3.1183715,-9.9959612,9.9959612,-3.1183715,1291.9739,1740.3737)"
       spreadMethod="pad"
       id="linearGradient5181"><stop
         style="stop-opacity:1;stop-color:#fdda00"
         offset="0"
         id="stop5177" /><stop
         style="stop-opacity:1;stop-color:#e7a425"
         offset="1"
         id="stop5179" /></linearGradient><linearGradient
       x1="0"
       y1="0"
       x2="1"
       y2="0"
       gradientUnits="userSpaceOnUse"
       gradientTransform="matrix(-3.1183486,-9.9958887,9.9958887,-3.1183486,1309.1228,1795.3633)"
       spreadMethod="pad"
       id="linearGradient5201"><stop
         style="stop-opacity:1;stop-color:#fdda00"
         offset="0"
         id="stop5197" /><stop
         style="stop-opacity:1;stop-color:#e7a425"
         offset="1"
         id="stop5199" /></linearGradient><clipPath
       clipPathUnits="userSpaceOnUse"
       id="clipPath5219"><path
         d="m 1285.28,1747.32 h 28.88 v -6.17 h -28.88 z"
         id="path5217" /></clipPath><clipPath
       clipPathUnits="userSpaceOnUse"
       id="clipPath5235"><path
         d="m 1283.98,1785.03 h 28.56 v -6.17 h -28.56 z"
         id="path5233" /></clipPath><clipPath
       clipPathUnits="userSpaceOnUse"
       id="clipPath5255"><path
         d="m 1267.47,1732.85 h 122.91 v -36.55 h -122.91 z"
         id="path5253" /></clipPath><radialGradient
       fx="0"
       fy="0"
       cx="0"
       cy="0"
       r="1"
       gradientUnits="userSpaceOnUse"
       gradientTransform="matrix(8.2126722,0,0,8.2126722,1361.2002,1689.4955)"
       spreadMethod="pad"
       id="radialGradient5289"><stop
         style="stop-opacity:1;stop-color:#ceebfb"
         offset="0"
         id="stop5285" /><stop
         style="stop-opacity:1;stop-color:#e2f4fd"
         offset="1"
         id="stop5287" /></radialGradient><radialGradient
       fx="0"
       fy="0"
       cx="0"
       cy="0"
       r="1"
       gradientUnits="userSpaceOnUse"
       gradientTransform="matrix(8.2035685,0,0,8.2035685,1298.0653,1688.3589)"
       spreadMethod="pad"
       id="radialGradient5309"><stop
         style="stop-opacity:1;stop-color:#ceebfb"
         offset="0"
         id="stop5305" /><stop
         style="stop-opacity:1;stop-color:#e2f4fd"
         offset="1"
         id="stop5307" /></radialGradient><radialGradient
       fx="0"
       fy="0"
       cx="0"
       cy="0"
       r="1"
       gradientUnits="userSpaceOnUse"
       gradientTransform="matrix(8.2035685,0,0,8.2035685,1330.6593,1680.6594)"
       spreadMethod="pad"
       id="radialGradient5329"><stop
         style="stop-opacity:1;stop-color:#ceebfb"
         offset="0"
         id="stop5325" /><stop
         style="stop-opacity:1;stop-color:#e2f4fd"
         offset="1"
         id="stop5327" /></radialGradient><clipPath
       clipPathUnits="userSpaceOnUse"
       id="clipPath22746"><path
         d="m 1283.179,1793.001 c -1.282,-0.667 -1.77,-2.258 -1.103,-3.542 v 0 l 2.438,-4.646 c 0.668,-1.282 2.259,-1.77 3.542,-1.103 v 0 c 1.283,0.668 1.771,2.259 1.104,3.541 v 0 l -2.438,4.646 c -0.482,0.894 -1.388,1.414 -2.326,1.414 v 0 c -0.41,0 -0.826,-0.1 -1.217,-0.31"
         id="path22748"
         style="stroke-width:0.999998" /></clipPath><clipPath
       clipPathUnits="userSpaceOnUse"
       id="clipPath22760"><path
         d="m 1325.578,1779.783 -4.645,-2.438 c -1.284,-0.667 -1.772,-2.258 -1.105,-3.541 v 0 c 0.668,-1.284 2.259,-1.772 3.543,-1.104 v 0 l 4.645,2.438 c 1.283,0.667 1.771,2.258 1.103,3.542 v 0 c -0.465,0.894 -1.378,1.402 -2.323,1.402 v 0 c -0.412,0 -0.829,-0.096 -1.218,-0.299"
         id="path22762"
         style="stroke-width:0.999998" /></clipPath><clipPath
       clipPathUnits="userSpaceOnUse"
       id="clipPath22767"><path
         d="m 1309.922,1742.005 c -1.283,-0.667 -1.77,-2.258 -1.103,-3.542 v 0 l 2.438,-4.645 c 0.668,-1.283 2.258,-1.771 3.541,-1.103 v 0 c 1.284,0.667 1.771,2.258 1.105,3.542 v 0 l -2.439,4.644 c -0.465,0.895 -1.378,1.403 -2.324,1.403 v 0 c -0.411,0 -0.829,-0.097 -1.218,-0.299"
         id="path22769"
         style="stroke-width:0.999998" /></clipPath><clipPath
       clipPathUnits="userSpaceOnUse"
       id="clipPath22777"><path
         d="M -2.2440947e-6,2048 H 2048 V -1.1811023e-5 H -2.2440947e-6 Z"
         id="path22779"
         style="stroke-width:0.999998" /></clipPath><clipPath
       clipPathUnits="userSpaceOnUse"
       id="clipPath22784"><path
         d="m 1266.498,1773.008 c -0.436,-1.386 0.333,-2.848 1.719,-3.285 v 0 l 5.005,-1.566 c 1.36,-0.41 2.823,0.334 3.26,1.72 v 0 c 0.435,1.386 -0.334,2.848 -1.72,3.285 v 0 l -5.005,1.566 c -0.2579,0.083 -0.52,0.122 -0.779,0.122 v 0 c -1.107,0 -2.147,-0.719 -2.48,-1.842"
         id="path22786"
         style="stroke-width:0.999998" /></clipPath><clipPath
       clipPathUnits="userSpaceOnUse"
       id="clipPath22791"><path
         d="m 1277.097,1762.948 c 0,-12.091 9.801,-21.893 21.892,-21.893 v 0 c 12.09,0 21.892,9.802 21.892,21.893 v 0 c 0,12.09 -9.802,21.891 -21.892,21.891 v 0 c -12.091,0 -21.892,-9.801 -21.892,-21.891"
         id="path22793"
         style="stroke-width:0.999998" /></clipPath><clipPath
       clipPathUnits="userSpaceOnUse"
       id="clipPath22810"><path
         d="m 1274.582,1753.041 -4.645,-2.438 c -1.284,-0.667 -1.771,-2.259 -1.104,-3.542 v 0 c 0.667,-1.283 2.259,-1.77 3.542,-1.103 v 0 l 4.645,2.438 c 1.258,0.667 1.771,2.258 1.104,3.541 v 0 c -0.465,0.894 -1.379,1.402 -2.324,1.402 v 0 c -0.412,0 -0.829,-0.096 -1.218,-0.298"
         id="path22812"
         style="stroke-width:0.999998" /></clipPath><clipPath
       clipPathUnits="userSpaceOnUse"
       id="clipPath22824"><path
         d="m 1321.472,1755.864 c -0.437,-1.386 0.333,-2.848 1.719,-3.285 v 0 l 5.005,-1.565 c 1.386,-0.437 2.848,0.333 3.285,1.719 v 0 c 0.436,1.386 -0.334,2.849 -1.72,3.285 v 0 l -5.004,1.566 c -0.2631,0.083 -0.529,0.1219 -0.79,0.1219 v 0 c -1.114,0 -2.142,-0.719 -2.495,-1.842"
         id="path22826"
         style="stroke-width:0.999998" /></clipPath><clipPath
       clipPathUnits="userSpaceOnUse"
       id="clipPath22831"><path
         d="m 1288.697,1738.669 -1.565,-5.004 c -0.436,-1.386 0.334,-2.85 1.719,-3.285 v 0 c 1.386,-0.437 2.85,0.333 3.285,1.719 v 0 l 1.566,5.005 c 0.437,1.386 -0.334,2.848 -1.72,3.284 v 0 c -0.2619,0.083 -0.528,0.123 -0.789,0.123 v 0 c -1.114,0 -2.142,-0.719 -2.496,-1.842"
         id="path22833"
         style="stroke-width:0.999998" /></clipPath><clipPath
       clipPathUnits="userSpaceOnUse"
       id="clipPath22841"><path
         d="M -2.2440947e-6,2048 H 2048 V -1.1811023e-5 H -2.2440947e-6 Z"
         id="path22843"
         style="stroke-width:0.999998" /></clipPath><clipPath
       clipPathUnits="userSpaceOnUse"
       id="clipPath22861"><path
         d="M -2.2440947e-6,2048 H 2048 V -1.1811023e-5 H -2.2440947e-6 Z"
         id="path22863"
         style="stroke-width:0.999998" /></clipPath><clipPath
       clipPathUnits="userSpaceOnUse"
       id="clipPath22867"><path
         d="M -1304.9177,314.1304 H 743.08232 v -2048 H -1304.9177 Z"
         id="path22869"
         style="stroke-width:0.999998" /></clipPath><clipPath
       clipPathUnits="userSpaceOnUse"
       id="clipPath22874"><path
         d="m 1305.841,1793.642 -1.565,-5.005 c -0.436,-1.386 0.333,-2.848 1.719,-3.284 v 0 c 1.386,-0.436 2.849,0.333 3.285,1.719 v 0 l 1.566,5.005 c 0.437,1.385 -0.334,2.849 -1.72,3.285 v 0 c -0.2619,0.083 -0.528,0.122 -0.788,0.122 v 0 c -1.115,0 -2.143,-0.718 -2.497,-1.842"
         id="path22876"
         style="stroke-width:0.999998" /></clipPath><clipPath
       clipPathUnits="userSpaceOnUse"
       id="clipPath22880"><path
         d="m -1371.774,296.13949 h 2048 V -1751.8605 h -2048 z"
         id="path22882"
         style="stroke-width:0.999998" /></clipPath><clipPath
       clipPathUnits="userSpaceOnUse"
       id="clipPath22886"><path
         d="m -1371.774,299.8096 h 2048 v -2048 h -2048 z"
         id="path22888"
         style="stroke-width:0.999998" /></clipPath><clipPath
       clipPathUnits="userSpaceOnUse"
       id="clipPath22893"><path
         d="m 1360.045,1696.553 v -4.286 l -3.029,3.029 c -0.435,0.436 -1.18,0.436 -1.616,0 v 0 c -0.436,-0.437 -0.436,-1.181 0,-1.618 v 0 l 3.028,-3.028 h -4.285 c -0.642,0 -1.156,-0.513 -1.156,-1.155 v 0 c 0,-0.641 0.514,-1.154 1.156,-1.154 v 0 h 4.285 l -3.028,-3.029 c -0.436,-0.436 -0.436,-1.181 0,-1.616 v 0 c 0.436,-0.437 1.181,-0.437 1.616,0 v 0 l 3.029,3.027 v -4.285 c 0,-0.642 0.514,-1.155 1.155,-1.155 v 0 c 0.642,0 1.155,0.513 1.155,1.155 v 0 4.285 l 3.029,-3.027 c 0.436,-0.437 1.18,-0.437 1.616,0 v 0 c 0.437,0.435 0.437,1.18 0,1.616 v 0 l -3.028,3.029 h 4.286 c 0.641,0 1.155,0.513 1.155,1.154 v 0 c 0,0.642 -0.514,1.155 -1.155,1.155 v 0 h -4.286 l 3.028,3.028 c 0.437,0.437 0.437,1.181 0,1.618 v 0 c -0.436,0.436 -1.18,0.436 -1.616,0 v 0 l -3.029,-3.029 v 4.286 c 0,0.642 -0.513,1.155 -1.155,1.155 v 0 c -0.641,0 -1.155,-0.513 -1.155,-1.155"
         id="path22895"
         style="stroke-width:0.999998" /></clipPath><clipPath
       clipPathUnits="userSpaceOnUse"
       id="clipPath22900"><path
         d="m 1329.504,1687.699 v -4.286 l -3.028,3.029 c -0.437,0.436 -1.181,0.436 -1.617,0 v 0 c -0.436,-0.437 -0.436,-1.181 0,-1.618 v 0 l 3.029,-3.028 h -4.287 c -0.642,0 -1.155,-0.513 -1.155,-1.155 v 0 c 0,-0.642 0.513,-1.155 1.155,-1.155 v 0 h 4.287 l -3.029,-3.028 c -0.436,-0.437 -0.436,-1.181 0,-1.617 v 0 c 0.436,-0.436 1.18,-0.436 1.617,0 v 0 l 3.028,3.028 v -4.286 c 0,-0.641 0.513,-1.154 1.155,-1.154 v 0 c 0.642,0 1.156,0.513 1.156,1.154 v 0 4.286 l 3.027,-3.028 c 0.437,-0.436 1.181,-0.436 1.617,0 v 0 c 0.437,0.436 0.437,1.18 0,1.617 v 0 l -3.028,3.028 h 4.286 c 0.642,0 1.154,0.513 1.154,1.155 v 0 c 0,0.642 -0.538,1.155 -1.154,1.155 v 0 h -4.286 l 3.028,3.028 c 0.437,0.437 0.437,1.181 0,1.618 v 0 c -0.436,0.436 -1.18,0.436 -1.617,0 v 0 l -3.027,-3.029 v 4.286 c 0,0.642 -0.514,1.155 -1.156,1.155 v 0 c -0.642,0 -1.155,-0.513 -1.155,-1.155"
         id="path22902"
         style="stroke-width:0.999998" /></clipPath><clipPath
       clipPathUnits="userSpaceOnUse"
       id="clipPath23057"><path
         d="m 1296.911,1695.398 v -4.285 l -3.029,3.028 c -0.436,0.436 -1.181,0.436 -1.617,0 v 0 c -0.437,-0.436 -0.437,-1.181 0,-1.617 v 0 l 3.028,-3.029 h -4.285 c -0.642,0 -1.155,-0.513 -1.155,-1.154 v 0 c 0,-0.642 0.513,-1.155 1.155,-1.155 v 0 h 4.285 l -3.028,-3.029 c -0.437,-0.436 -0.437,-1.18 0,-1.617 v 0 c 0.436,-0.436 1.181,-0.436 1.617,0 v 0 l 3.029,3.029 v -4.286 c 0,-0.642 0.513,-1.155 1.154,-1.155 v 0 c 0.642,0 1.155,0.513 1.155,1.155 v 0 4.286 l 3.029,-3.029 c 0.436,-0.436 1.18,-0.436 1.616,0 v 0 c 0.437,0.437 0.437,1.181 0,1.617 v 0 l -3.028,3.029 h 4.286 c 0.642,0 1.155,0.513 1.155,1.155 v 0 c 0,0.641 -0.539,1.154 -1.155,1.154 v 0 h -4.286 l 3.028,3.029 c 0.437,0.436 0.437,1.181 0,1.617 v 0 c -0.436,0.436 -1.18,0.436 -1.616,0 v 0 l -3.029,-3.028 v 4.285 c 0,0.642 -0.513,1.155 -1.155,1.155 v 0 c -0.641,0 -1.154,-0.513 -1.154,-1.155"
         id="path23059"
         style="stroke-width:0.999998" /></clipPath></defs><g
     id="g25631"
     transform="translate(-666.74682,-89.08206)"><g
       id="g5035"
       transform="matrix(0.35277776,0,0,-0.35277778,220,722.48892)"
       clip-path="url(#clipPath22791)"><path
         d="m 1277.097,1762.948 c 0,-12.091 9.801,-21.893 21.892,-21.893 v 0 c 12.09,0 21.892,9.802 21.892,21.893 v 0 c 0,12.09 -9.802,21.891 -21.892,21.891 v 0 c -12.091,0 -21.892,-9.801 -21.892,-21.891"
         style="fill:url(#linearGradient5041);stroke:none"
         id="path5043" /></g><g
       id="g5055"
       transform="matrix(0.35277776,0,0,-0.35277778,220,722.48892)"
       clip-path="url(#clipPath22760)"><path
         d="m 1325.578,1779.783 -4.645,-2.438 c -1.284,-0.667 -1.772,-2.258 -1.105,-3.541 v 0 c 0.668,-1.284 2.259,-1.772 3.543,-1.104 v 0 l 4.645,2.438 c 1.283,0.667 1.771,2.258 1.103,3.542 v 0 c -0.465,0.894 -1.378,1.402 -2.323,1.402 v 0 c -0.412,0 -0.829,-0.096 -1.218,-0.299"
         style="fill:url(#linearGradient5061);stroke:none"
         id="path5063" /></g><g
       id="g5075"
       transform="matrix(0.35277776,0,0,-0.35277778,220,722.48892)"
       clip-path="url(#clipPath22810)"><path
         d="m 1274.582,1753.041 -4.645,-2.438 c -1.284,-0.667 -1.771,-2.259 -1.104,-3.542 v 0 c 0.667,-1.283 2.259,-1.77 3.542,-1.103 v 0 l 4.645,2.438 c 1.258,0.667 1.771,2.258 1.104,3.541 v 0 c -0.465,0.894 -1.379,1.402 -2.324,1.402 v 0 c -0.412,0 -0.829,-0.096 -1.218,-0.298"
         style="fill:url(#linearGradient5081);stroke:none"
         id="path5083" /></g><g
       id="g5095"
       transform="matrix(0.35277776,0,0,-0.35277778,220,722.48892)"
       clip-path="url(#clipPath22824)"><path
         d="m 1321.472,1755.864 c -0.437,-1.386 0.333,-2.848 1.719,-3.285 v 0 l 5.005,-1.565 c 1.386,-0.437 2.848,0.333 3.285,1.719 v 0 c 0.436,1.386 -0.334,2.849 -1.72,3.285 v 0 l -5.004,1.566 c -0.263,0.083 -0.529,0.122 -0.79,0.122 v 0 c -1.114,0 -2.142,-0.719 -2.495,-1.842"
         style="fill:url(#linearGradient5101);stroke:none"
         id="path5103" /></g><g
       id="g5115"
       transform="matrix(0.35277776,0,0,-0.35277778,220,722.48892)"
       clip-path="url(#clipPath22784)"><path
         d="m 1266.498,1773.008 c -0.436,-1.386 0.333,-2.848 1.719,-3.285 v 0 l 5.005,-1.566 c 1.36,-0.41 2.823,0.334 3.26,1.72 v 0 c 0.435,1.386 -0.334,2.848 -1.72,3.285 v 0 l -5.005,1.566 c -0.258,0.083 -0.52,0.122 -0.779,0.122 v 0 c -1.107,0 -2.147,-0.719 -2.48,-1.842"
         style="fill:url(#linearGradient5121);stroke:none"
         id="path5123" /></g><g
       id="g5135"
       transform="matrix(0.35277776,0,0,-0.35277778,220,722.48892)"
       clip-path="url(#clipPath22746)"><path
         d="m 1283.179,1793.001 c -1.282,-0.667 -1.77,-2.258 -1.103,-3.542 v 0 l 2.438,-4.646 c 0.668,-1.282 2.259,-1.77 3.542,-1.103 v 0 c 1.283,0.668 1.771,2.259 1.104,3.541 v 0 l -2.438,4.646 c -0.482,0.894 -1.388,1.414 -2.326,1.414 v 0 c -0.41,0 -0.826,-0.1 -1.217,-0.31"
         style="fill:url(#linearGradient5141);stroke:none"
         id="path5143" /></g><g
       id="g5155"
       transform="matrix(0.35277776,0,0,-0.35277778,220,722.48892)"
       clip-path="url(#clipPath22767)"><path
         d="m 1309.922,1742.005 c -1.283,-0.667 -1.77,-2.258 -1.103,-3.542 v 0 l 2.438,-4.645 c 0.668,-1.283 2.258,-1.771 3.541,-1.103 v 0 c 1.284,0.667 1.771,2.258 1.105,3.542 v 0 l -2.439,4.644 c -0.465,0.895 -1.378,1.403 -2.324,1.403 v 0 c -0.411,0 -0.829,-0.097 -1.218,-0.299"
         style="fill:url(#linearGradient5161);stroke:none"
         id="path5163" /></g><g
       id="g5175"
       transform="matrix(0.35277776,0,0,-0.35277778,220,722.48892)"
       clip-path="url(#clipPath22831)"><path
         d="m 1288.697,1738.669 -1.565,-5.004 c -0.436,-1.386 0.334,-2.85 1.719,-3.285 v 0 c 1.386,-0.437 2.85,0.333 3.285,1.719 v 0 l 1.566,5.005 c 0.437,1.386 -0.334,2.848 -1.72,3.284 v 0 c -0.262,0.083 -0.528,0.123 -0.789,0.123 v 0 c -1.114,0 -2.142,-0.719 -2.496,-1.842"
         style="fill:url(#linearGradient5181);stroke:none"
         id="path5183" /></g><g
       id="g5195"
       transform="matrix(0.35277776,0,0,-0.35277778,220,722.48892)"
       clip-path="url(#clipPath22874)"><path
         d="m 1305.841,1793.642 -1.565,-5.005 c -0.436,-1.386 0.333,-2.848 1.719,-3.284 v 0 c 1.386,-0.436 2.849,0.333 3.285,1.719 v 0 l 1.566,5.005 c 0.437,1.385 -0.334,2.849 -1.72,3.285 v 0 c -0.262,0.083 -0.528,0.122 -0.788,0.122 v 0 c -1.115,0 -2.143,-0.718 -2.497,-1.842"
         style="fill:url(#linearGradient5201);stroke:none"
         id="path5203" /></g><g
       id="g5227"
       transform="matrix(0.35277776,0,0,-0.35277778,220,722.48892)"
       clip-path="url(#clipPath22777)"><g
         clip-path="url(#clipPath5219)"
         opacity="0.5"
         id="g5225"><g
           transform="translate(1298.0139,1741.1583)"
           id="g5223"><path
             d="M 0,0 C 5.672,-0.18 12.242,1.874 16.143,6.16 11.985,4.029 6.545,1.54 0.308,1.745 -5.928,1.951 -9.265,3.388 -12.73,4.928 -9.855,2.567 -5.749,0.18 0,0"
             style="fill:#d48129;fill-opacity:1;fill-rule:nonzero;stroke:none"
             id="path5221" /></g></g></g><g
       id="g5243"
       transform="matrix(0.35277776,0,0,-0.35277778,220,722.48892)"
       clip-path="url(#clipPath22841)"><g
         clip-path="url(#clipPath5235)"
         opacity="0.199997"
         id="g5241"><g
           transform="translate(1299.9388,1785.0192)"
           id="g5239"><path
             d="m 0,0 c -5.621,0.18 -12.114,-1.874 -15.963,-6.16 4.106,2.131 9.495,4.62 15.681,4.441 C 5.903,-1.925 9.162,-3.362 12.601,-4.902 9.727,-2.566 5.698,-0.18 0,0"
             style="fill:#d48129;fill-opacity:1;fill-rule:nonzero;stroke:none"
             id="path5237" /></g></g></g><path
       d="m 0,0 c -3.08,0 -6.031,-0.642 -8.726,-1.745 -6.057,11.857 -18.273,20.07 -32.517,20.07 -14.244,0 -26.46,-8.213 -32.517,-20.07 -2.695,1.103 -5.621,1.745 -8.726,1.745 -12.653,0 -22.919,-10.266 -22.919,-22.918 0,-12.653 10.266,-22.919 22.919,-22.919 4.902,0 9.444,1.566 13.166,4.209 6.724,-8.11 16.733,-13.371 28.077,-13.371 11.344,0 21.353,5.261 28.077,13.371 3.721,-2.618 8.264,-4.209 13.166,-4.209 12.653,0 22.918,10.266 22.918,22.919 C 22.918,-10.266 12.653,0 0,0"
       style="fill:#bdc5d2;fill-opacity:1;fill-rule:nonzero;stroke:none"
       id="path5247"
       transform="matrix(0.35277776,0,0,-0.35277778,703.93136,104.47146)"
       clip-path="url(#clipPath22880)" /><g
       id="g5263"
       transform="matrix(0.35277776,0,0,-0.35277778,220,722.48892)"
       clip-path="url(#clipPath22861)"><g
         clip-path="url(#clipPath5255)"
         opacity="0.0500031"
         id="g5261"><g
           transform="translate(1333.5594,1732.0475)"
           id="g5259"><path
             d="m 0,0 c -24.689,2.489 -47.813,-0.95 -66.086,-8.649 2.284,-10.266 11.42,-17.94 22.353,-17.94 4.902,0 9.445,1.566 13.166,4.209 6.725,-8.11 16.734,-13.371 28.077,-13.371 11.344,0 21.353,5.261 28.078,13.371 3.721,-2.617 8.264,-4.209 13.166,-4.209 7.34,0 13.858,3.465 18.067,8.855 C 41.269,-8.649 21.687,-2.182 0,0"
             style="fill:#a8a9ad;fill-opacity:1;fill-rule:nonzero;stroke:none"
             id="path5257" /></g></g></g><path
       d="m 0,0 c -3.08,0 -6.031,-0.642 -8.726,-1.745 -6.082,11.857 -18.273,20.07 -32.517,20.07 -14.244,0 -26.46,-8.213 -32.517,-20.07 -2.695,1.103 -5.621,1.745 -8.726,1.745 -12.653,0 -22.919,-10.266 -22.919,-22.918 0,-12.653 10.266,-22.919 22.919,-22.919 4.902,0 9.444,1.566 13.166,4.209 6.724,-8.11 16.733,-13.371 28.077,-13.371 11.344,0 21.353,5.261 28.077,13.371 3.721,-2.618 8.264,-4.209 13.166,-4.209 12.653,0 22.918,10.266 22.918,22.919 C 22.918,-10.266 12.653,0 0,0"
       style="fill:#d3dee2;fill-opacity:1;fill-rule:nonzero;stroke:none"
       id="path5267"
       transform="matrix(0.35277776,0,0,-0.35277778,703.93136,105.76619)"
       clip-path="url(#clipPath22886)" /><path
       d="m 0,0 c 1.925,0 3.721,-0.385 5.39,-1.078 3.747,7.34 11.292,12.396 20.095,12.396 8.803,0 16.348,-5.082 20.095,-12.396 1.669,0.693 3.491,1.078 5.39,1.078 7.16,0 13.063,-5.313 14.013,-12.216 0.077,0.641 0.154,1.283 0.154,1.924 0,7.828 -6.339,14.167 -14.167,14.167 -1.899,0 -3.721,-0.385 -5.39,-1.078 C 41.833,10.138 34.288,15.193 25.485,15.193 16.682,15.193 9.137,10.112 5.39,2.797 3.721,3.49 1.925,3.875 0,3.875 c -7.828,0 -14.167,-6.339 -14.167,-14.167 0,-0.667 0.052,-1.308 0.154,-1.924 C -13.089,-5.313 -7.186,0 0,0"
       style="fill:#bdc5d2;fill-opacity:1;fill-rule:nonzero;stroke:none"
       id="path5271"
       transform="matrix(0.35277776,0,0,-0.35277778,680.34594,110.81825)"
       clip-path="url(#clipPath22867)" /><g
       id="g5283"
       transform="matrix(0.35277776,0,0,-0.35277778,220,722.48892)"
       clip-path="url(#clipPath22893)"><path
         d="m 1360.045,1696.553 v -4.286 l -3.029,3.029 c -0.435,0.436 -1.18,0.436 -1.616,0 v 0 c -0.436,-0.437 -0.436,-1.181 0,-1.618 v 0 l 3.028,-3.028 h -4.285 c -0.642,0 -1.156,-0.513 -1.156,-1.155 v 0 c 0,-0.641 0.514,-1.154 1.156,-1.154 v 0 h 4.285 l -3.028,-3.029 c -0.436,-0.436 -0.436,-1.181 0,-1.616 v 0 c 0.436,-0.437 1.181,-0.437 1.616,0 v 0 l 3.029,3.027 v -4.285 c 0,-0.642 0.514,-1.155 1.155,-1.155 v 0 c 0.642,0 1.155,0.513 1.155,1.155 v 0 4.285 l 3.029,-3.027 c 0.436,-0.437 1.18,-0.437 1.616,0 v 0 c 0.437,0.435 0.437,1.18 0,1.616 v 0 l -3.028,3.029 h 4.286 c 0.641,0 1.155,0.513 1.155,1.154 v 0 c 0,0.642 -0.514,1.155 -1.155,1.155 v 0 h -4.286 l 3.028,3.028 c 0.437,0.437 0.437,1.181 0,1.618 v 0 c -0.436,0.436 -1.18,0.436 -1.616,0 v 0 l -3.029,-3.029 v 4.286 c 0,0.642 -0.513,1.155 -1.155,1.155 v 0 c -0.641,0 -1.155,-0.513 -1.155,-1.155"
         style="fill:url(#radialGradient5289);stroke:none"
         id="path5291" /></g><g
       id="g5303"
       transform="matrix(0.35277776,0,0,-0.35277778,220,722.48892)"
       clip-path="url(#clipPath23057)"><path
         d="m 1296.911,1695.398 v -4.285 l -3.029,3.028 c -0.436,0.436 -1.181,0.436 -1.617,0 v 0 c -0.437,-0.436 -0.437,-1.181 0,-1.617 v 0 l 3.028,-3.029 h -4.285 c -0.642,0 -1.155,-0.513 -1.155,-1.154 v 0 c 0,-0.642 0.513,-1.155 1.155,-1.155 v 0 h 4.285 l -3.028,-3.029 c -0.437,-0.436 -0.437,-1.18 0,-1.617 v 0 c 0.436,-0.436 1.181,-0.436 1.617,0 v 0 l 3.029,3.029 v -4.286 c 0,-0.642 0.513,-1.155 1.154,-1.155 v 0 c 0.642,0 1.155,0.513 1.155,1.155 v 0 4.286 l 3.029,-3.029 c 0.436,-0.436 1.18,-0.436 1.616,0 v 0 c 0.437,0.437 0.437,1.181 0,1.617 v 0 l -3.028,3.029 h 4.286 c 0.642,0 1.155,0.513 1.155,1.155 v 0 c 0,0.641 -0.539,1.154 -1.155,1.154 v 0 h -4.286 l 3.028,3.029 c 0.437,0.436 0.437,1.181 0,1.617 v 0 c -0.436,0.436 -1.18,0.436 -1.616,0 v 0 l -3.029,-3.028 v 4.285 c 0,0.642 -0.513,1.155 -1.155,1.155 v 0 c -0.641,0 -1.154,-0.513 -1.154,-1.155"
         style="fill:url(#radialGradient5309);stroke:none"
         id="path5311" /></g><g
       id="g5323"
       transform="matrix(0.35277776,0,0,-0.35277778,220,722.48892)"
       clip-path="url(#clipPath22900)"><path
         d="m 1329.504,1687.699 v -4.286 l -3.028,3.029 c -0.437,0.436 -1.181,0.436 -1.617,0 v 0 c -0.436,-0.437 -0.436,-1.181 0,-1.618 v 0 l 3.029,-3.028 h -4.287 c -0.642,0 -1.155,-0.513 -1.155,-1.155 v 0 c 0,-0.642 0.513,-1.155 1.155,-1.155 v 0 h 4.287 l -3.029,-3.028 c -0.436,-0.437 -0.436,-1.181 0,-1.617 v 0 c 0.436,-0.436 1.18,-0.436 1.617,0 v 0 l 3.028,3.028 v -4.286 c 0,-0.641 0.513,-1.154 1.155,-1.154 v 0 c 0.642,0 1.156,0.513 1.156,1.154 v 0 4.286 l 3.027,-3.028 c 0.437,-0.436 1.181,-0.436 1.617,0 v 0 c 0.437,0.436 0.437,1.18 0,1.617 v 0 l -3.028,3.028 h 4.286 c 0.642,0 1.154,0.513 1.154,1.155 v 0 c 0,0.642 -0.538,1.155 -1.154,1.155 v 0 h -4.286 l 3.028,3.028 c 0.437,0.437 0.437,1.181 0,1.618 v 0 c -0.436,0.436 -1.18,0.436 -1.617,0 v 0 l -3.027,-3.029 v 4.286 c 0,0.642 -0.514,1.155 -1.156,1.155 v 0 c -0.642,0 -1.155,-0.513 -1.155,-1.155"
         style="fill:url(#radialGradient5329);stroke:none"
         id="path5331" /></g></g></svg>
