<?xml version="1.0" encoding="UTF-8" standalone="no"?>
<!-- Created with Inkscape (http://www.inkscape.org/) -->

<svg
   width="45.263145mm"
   height="45.263165mm"
   viewBox="0 0 45.263145 45.263165"
   version="1.1"
   id="svg5"
   xml:space="preserve"
   xmlns="http://www.w3.org/2000/svg"
   xmlns:svg="http://www.w3.org/2000/svg"><defs
     id="defs2"><linearGradient
       x1="0"
       y1="0"
       x2="1"
       y2="0"
       gradientUnits="userSpaceOnUse"
       gradientTransform="matrix(-25.641804,-82.194984,82.194984,-25.641804,218.4538,1766.9227)"
       spreadMethod="pad"
       id="linearGradient237"><stop
         style="stop-opacity:1;stop-color:#fcd900"
         offset="0"
         id="stop233" /><stop
         style="stop-opacity:1;stop-color:#e3a026"
         offset="1"
         id="stop235" /></linearGradient><linearGradient
       x1="0"
       y1="0"
       x2="1"
       y2="0"
       gradientUnits="userSpaceOnUse"
       gradientTransform="matrix(-5.2410989,-16.800379,16.800379,-5.2410989,258.37671,1760.3903)"
       spreadMethod="pad"
       id="linearGradient257"><stop
         style="stop-opacity:1;stop-color:#fcd900"
         offset="0"
         id="stop253" /><stop
         style="stop-opacity:1;stop-color:#e6a324"
         offset="1"
         id="stop255" /></linearGradient><linearGradient
       x1="0"
       y1="0"
       x2="1"
       y2="0"
       gradientUnits="userSpaceOnUse"
       gradientTransform="matrix(-5.2338023,-16.776989,16.776989,-5.2338023,158.00752,1707.7509)"
       spreadMethod="pad"
       id="linearGradient277"><stop
         style="stop-opacity:1;stop-color:#fcd900"
         offset="0"
         id="stop273" /><stop
         style="stop-opacity:1;stop-color:#e6a324"
         offset="1"
         id="stop275" /></linearGradient><linearGradient
       x1="0"
       y1="0"
       x2="1"
       y2="0"
       gradientUnits="userSpaceOnUse"
       gradientTransform="matrix(-3.0691335,-9.838129,9.838129,-3.0691335,261.21692,1713.7159)"
       spreadMethod="pad"
       id="linearGradient297"><stop
         style="stop-opacity:1;stop-color:#fcd900"
         offset="0"
         id="stop293" /><stop
         style="stop-opacity:1;stop-color:#e6a324"
         offset="1"
         id="stop295" /></linearGradient><linearGradient
       x1="0"
       y1="0"
       x2="1"
       y2="0"
       gradientUnits="userSpaceOnUse"
       gradientTransform="matrix(-3.0691326,-9.8381252,9.8381252,-3.0691326,153.04097,1747.4647)"
       spreadMethod="pad"
       id="linearGradient317"><stop
         style="stop-opacity:1;stop-color:#fcd900"
         offset="0"
         id="stop313" /><stop
         style="stop-opacity:1;stop-color:#e6a324"
         offset="1"
         id="stop315" /></linearGradient><linearGradient
       x1="0"
       y1="0"
       x2="1"
       y2="0"
       gradientUnits="userSpaceOnUse"
       gradientTransform="matrix(-5.238493,-16.792025,16.792025,-5.238493,181.88197,1784.2419)"
       spreadMethod="pad"
       id="linearGradient337"><stop
         style="stop-opacity:1;stop-color:#fcd900"
         offset="0"
         id="stop333" /><stop
         style="stop-opacity:1;stop-color:#e6a324"
         offset="1"
         id="stop335" /></linearGradient><linearGradient
       x1="0"
       y1="0"
       x2="1"
       y2="0"
       gradientUnits="userSpaceOnUse"
       gradientTransform="matrix(-5.2371697,-16.787783,16.787783,-5.2371697,234.51346,1683.8884)"
       spreadMethod="pad"
       id="linearGradient357"><stop
         style="stop-opacity:1;stop-color:#fcd900"
         offset="0"
         id="stop353" /><stop
         style="stop-opacity:1;stop-color:#e6a324"
         offset="1"
         id="stop355" /></linearGradient><linearGradient
       x1="0"
       y1="0"
       x2="1"
       y2="0"
       gradientUnits="userSpaceOnUse"
       gradientTransform="matrix(-6.1329746,-19.659292,19.659292,-6.1329746,191.77362,1681.4001)"
       spreadMethod="pad"
       id="linearGradient377"><stop
         style="stop-opacity:1;stop-color:#fcd900"
         offset="0"
         id="stop373" /><stop
         style="stop-opacity:1;stop-color:#e6a324"
         offset="1"
         id="stop375" /></linearGradient><linearGradient
       x1="0"
       y1="0"
       x2="1"
       y2="0"
       gradientUnits="userSpaceOnUse"
       gradientTransform="matrix(-6.1329727,-19.659286,19.659286,-6.1329727,225.52866,1789.5959)"
       spreadMethod="pad"
       id="linearGradient397"><stop
         style="stop-opacity:1;stop-color:#fcd900"
         offset="0"
         id="stop393" /><stop
         style="stop-opacity:1;stop-color:#e6a324"
         offset="1"
         id="stop395" /></linearGradient><clipPath
       clipPathUnits="userSpaceOnUse"
       id="clipPath415"><path
         d="m 178.608,1695.05 h 56.847 v -12.13 h -56.847 z"
         id="path413" /></clipPath><clipPath
       clipPathUnits="userSpaceOnUse"
       id="clipPath431"><path
         d="m 176.042,1769.25 h 56.205 v -12.14 h -56.205 z"
         id="path429" /></clipPath><clipPath
       clipPathUnits="userSpaceOnUse"
       id="clipPath24593"><path
         d="M -2.2440947e-6,2048 H 2048 V -1.1811023e-5 H -2.2440947e-6 Z"
         id="path24595"
         style="stroke-width:0.999998" /></clipPath><clipPath
       clipPathUnits="userSpaceOnUse"
       id="clipPath24600"><path
         d="m 141.67698,1745.613 c -0.84697,-2.721 0.66705,-5.595 3.38806,-6.442 v 0 l 9.82995,-3.08 c 2.694,-0.847 5.56905,0.668 6.441,3.388 v 0 c 0.84705,2.72 -0.66698,5.595 -3.38798,6.442 v 0 l -9.83002,3.08 c -0.51098,0.159 -1.02795,0.2341 -1.53503,0.2341 v 0 c -2.19292,0 -4.21793,-1.413 -4.90598,-3.622"
         id="path24602"
         style="stroke-width:0.999998" /></clipPath><clipPath
       clipPathUnits="userSpaceOnUse"
       id="clipPath24648"><path
         d="m 227.11399,1684.608 c -2.51498,-1.309 -3.48998,-4.44 -2.18198,-6.955 v 0 l 4.77398,-9.137 c 1.30897,-2.515 4.44,-3.49 6.95505,-2.181 v 0 c 2.51595,1.309 3.49095,4.44 2.18197,6.955 v 0 l -4.77397,9.162 c -0.92805,1.75 -2.71403,2.755 -4.56105,2.755 v 0 c -0.80798,0 -1.62795,-0.1931 -2.394,-0.599"
         id="path24650"
         style="stroke-width:0.999998" /></clipPath><clipPath
       clipPathUnits="userSpaceOnUse"
       id="clipPath24676"><path
         d="M -2.2440947e-6,2048 H 2048 V -1.1811023e-5 H -2.2440947e-6 Z"
         id="path24678"
         style="stroke-width:0.999998" /></clipPath><clipPath
       clipPathUnits="userSpaceOnUse"
       id="clipPath24697"><path
         d="m 157.56296,1706.32 -9.13597,-4.774 c -2.51498,-1.308 -3.49095,-4.439 -2.18198,-6.955 v 0 c 1.30898,-2.514 4.44,-3.49 6.95603,-2.181 v 0 l 9.162,4.774 c 2.514,1.334 3.48997,4.44 2.15497,6.955 v 0 c -0.91402,1.757 -2.718,2.762 -4.58002,2.763 v 0 c -0.80295,0 -1.617,-0.1871 -2.37503,-0.582"
         id="path24699"
         style="stroke-width:0.999998" /></clipPath><clipPath
       clipPathUnits="userSpaceOnUse"
       id="clipPath24704"><path
         d="m 162.59299,1725.826 c 0,-23.77 19.26997,-43.04 43.04002,-43.04 v 0 c 23.76998,0 43.03996,19.27 43.03996,43.04 v 0 c 0,23.769 -19.26998,43.039 -43.03996,43.039 v 0 c -23.77005,0 -43.04002,-19.27 -43.04002,-43.039"
         id="path24706"
         style="stroke-width:0.999998" /></clipPath><clipPath
       clipPathUnits="userSpaceOnUse"
       id="clipPath24721"><path
         d="m 249.85302,1711.864 c -0.84698,-2.721 0.66697,-5.595 3.387,-6.442 v 0 l 9.83002,-3.08 c 2.69498,-0.847 5.595,0.668 6.44198,3.387 v 0 c 0.84697,2.721 -0.66803,5.596 -3.387,6.443 v 0 l -9.83003,3.079 c -0.51202,0.1599 -1.029,0.235 -1.53697,0.235 v 0 c -2.193,7e-4 -4.218,-1.413 -4.905,-3.622"
         id="path24723"
         style="stroke-width:0.999998" /></clipPath><clipPath
       clipPathUnits="userSpaceOnUse"
       id="clipPath24728"><path
         d="m 185.33299,1678.012 -3.07995,-9.83 c -0.84705,-2.694 0.66697,-5.594 3.38692,-6.441 v 0 c 2.721,-0.847 5.595,0.667 6.44205,3.388 v 0 l 3.07898,9.829 c 0.84697,2.72 -0.66698,5.595 -3.387,6.442 v 0 c -0.51098,0.159 -1.02795,0.235 -1.536,0.235 v 0 c -2.193,0 -4.218,-1.414 -4.905,-3.623"
         id="path24730"
         style="stroke-width:0.999998" /></clipPath><clipPath
       clipPathUnits="userSpaceOnUse"
       id="clipPath24735"><path
         d="m 219.08096,1786.189 -3.07995,-9.83 c -0.84697,-2.695 0.66795,-5.569 3.38798,-6.442 v 0 c 2.72002,-0.847 5.595,0.667 6.44197,3.387 v 0 l 3.07905,9.83 c 0.84698,2.721 -0.666,5.595 -3.387,6.442 v 0 c -0.51097,0.159 -1.02802,0.235 -1.536,0.235 v 0 c -2.19397,0 -4.21905,-1.414 -4.90605,-3.622"
         id="path24737"
         style="stroke-width:0.999998" /></clipPath><clipPath
       clipPathUnits="userSpaceOnUse"
       id="clipPath24749"><path
         d="m 257.93704,1758.958 -9.13702,-4.8 c -2.514,-1.308 -3.49005,-4.439 -2.181,-6.954 v 0 c 1.30897,-2.515 4.44,-3.491 6.95497,-2.181 v 0 l 9.13703,4.773 c 2.514,1.335 3.48997,4.466 2.181,6.981 v 0 c -0.91403,1.757 -2.71905,2.762 -4.58003,2.762 v 0 c -0.80302,7e-4 -1.617,-0.186 -2.37495,-0.581"
         id="path24751"
         style="stroke-width:0.999998" /></clipPath><clipPath
       clipPathUnits="userSpaceOnUse"
       id="clipPath24756"><path
         d="m 174.47599,1784.982 c -2.51498,-1.309 -3.48998,-4.44 -2.181,-6.956 v 0 l 4.79902,-9.135 c 1.308,-2.516 4.44,-3.491 6.95498,-2.182 v 0 c 2.51505,1.309 3.49005,4.44 2.18205,6.955 v 0 l -4.77405,9.136 c -0.93195,1.757 -2.742,2.763 -4.605,2.763 v 0 c -0.804,0 -1.61798,-0.187 -2.376,-0.581"
         id="path24758"
         style="stroke-width:0.999998" /></clipPath></defs><g
     id="g25439"
     transform="translate(-269.89758,-91.083369)"><g
       id="g231"
       transform="matrix(0.35277776,0,0,-0.35277778,220,722.48892)"
       clip-path="url(#clipPath24704)"><path
         d="m 162.593,1725.826 c 0,-23.77 19.27,-43.04 43.04,-43.04 v 0 c 23.77,0 43.04,19.27 43.04,43.04 v 0 c 0,23.769 -19.27,43.039 -43.04,43.039 v 0 c -23.77,0 -43.04,-19.27 -43.04,-43.039"
         style="fill:url(#linearGradient237);stroke:none"
         id="path239" /></g><g
       id="g251"
       transform="matrix(0.35277776,0,0,-0.35277778,220,722.48892)"
       clip-path="url(#clipPath24749)"><path
         d="m 257.937,1758.958 -9.137,-4.8 c -2.514,-1.308 -3.49,-4.439 -2.181,-6.954 v 0 c 1.309,-2.515 4.44,-3.491 6.955,-2.181 v 0 l 9.137,4.773 c 2.514,1.335 3.49,4.466 2.181,6.981 v 0 c -0.914,1.757 -2.719,2.762 -4.58,2.762 v 0 c -0.803,10e-4 -1.617,-0.186 -2.375,-0.581"
         style="fill:url(#linearGradient257);stroke:none"
         id="path259" /></g><g
       id="g271"
       transform="matrix(0.35277776,0,0,-0.35277778,220,722.48892)"
       clip-path="url(#clipPath24697)"><path
         d="m 157.563,1706.32 -9.136,-4.774 c -2.515,-1.308 -3.491,-4.439 -2.182,-6.955 v 0 c 1.309,-2.514 4.44,-3.49 6.956,-2.181 v 0 l 9.162,4.774 c 2.514,1.334 3.49,4.44 2.155,6.955 v 0 c -0.914,1.757 -2.718,2.762 -4.58,2.763 v 0 c -0.803,0 -1.617,-0.187 -2.375,-0.582"
         style="fill:url(#linearGradient277);stroke:none"
         id="path279" /></g><g
       id="g291"
       transform="matrix(0.35277776,0,0,-0.35277778,220,722.48892)"
       clip-path="url(#clipPath24721)"><path
         d="m 249.853,1711.864 c -0.847,-2.721 0.667,-5.595 3.387,-6.442 v 0 l 9.83,-3.08 c 2.695,-0.847 5.595,0.668 6.442,3.387 v 0 c 0.847,2.721 -0.668,5.596 -3.387,6.443 v 0 l -9.83,3.079 c -0.512,0.16 -1.029,0.235 -1.537,0.235 v 0 c -2.193,10e-4 -4.218,-1.413 -4.905,-3.622"
         style="fill:url(#linearGradient297);stroke:none"
         id="path299" /></g><g
       id="g311"
       transform="matrix(0.35277776,0,0,-0.35277778,220,722.48892)"
       clip-path="url(#clipPath24600)"><path
         d="m 141.677,1745.613 c -0.847,-2.721 0.667,-5.595 3.388,-6.442 v 0 l 9.83,-3.08 c 2.694,-0.847 5.569,0.668 6.441,3.388 v 0 c 0.847,2.72 -0.667,5.595 -3.388,6.442 v 0 l -9.83,3.08 c -0.511,0.159 -1.028,0.234 -1.535,0.234 v 0 c -2.193,0 -4.218,-1.413 -4.906,-3.622"
         style="fill:url(#linearGradient317);stroke:none"
         id="path319" /></g><g
       id="g331"
       transform="matrix(0.35277776,0,0,-0.35277778,220,722.48892)"
       clip-path="url(#clipPath24756)"><path
         d="m 174.476,1784.982 c -2.515,-1.309 -3.49,-4.44 -2.181,-6.956 v 0 l 4.799,-9.135 c 1.308,-2.516 4.44,-3.491 6.955,-2.182 v 0 c 2.515,1.309 3.49,4.44 2.182,6.955 v 0 l -4.774,9.136 c -0.932,1.757 -2.742,2.763 -4.605,2.763 v 0 c -0.804,0 -1.618,-0.187 -2.376,-0.581"
         style="fill:url(#linearGradient337);stroke:none"
         id="path339" /></g><g
       id="g351"
       transform="matrix(0.35277776,0,0,-0.35277778,220,722.48892)"
       clip-path="url(#clipPath24648)"><path
         d="m 227.114,1684.608 c -2.515,-1.309 -3.49,-4.44 -2.182,-6.955 v 0 l 4.774,-9.137 c 1.309,-2.515 4.44,-3.49 6.955,-2.181 v 0 c 2.516,1.309 3.491,4.44 2.182,6.955 v 0 l -4.774,9.162 c -0.928,1.75 -2.714,2.755 -4.561,2.755 v 0 c -0.808,0 -1.628,-0.193 -2.394,-0.599"
         style="fill:url(#linearGradient357);stroke:none"
         id="path359" /></g><g
       id="g371"
       transform="matrix(0.35277776,0,0,-0.35277778,220,722.48892)"
       clip-path="url(#clipPath24728)"><path
         d="m 185.333,1678.012 -3.08,-9.83 c -0.847,-2.694 0.667,-5.594 3.387,-6.441 v 0 c 2.721,-0.847 5.595,0.667 6.442,3.388 v 0 l 3.079,9.829 c 0.847,2.72 -0.667,5.595 -3.387,6.442 v 0 c -0.511,0.159 -1.028,0.235 -1.536,0.235 v 0 c -2.193,0 -4.218,-1.414 -4.905,-3.623"
         style="fill:url(#linearGradient377);stroke:none"
         id="path379" /></g><g
       id="g391"
       transform="matrix(0.35277776,0,0,-0.35277778,220,722.48892)"
       clip-path="url(#clipPath24735)"><path
         d="m 219.081,1786.189 -3.08,-9.83 c -0.847,-2.695 0.668,-5.569 3.388,-6.442 v 0 c 2.72,-0.847 5.595,0.667 6.442,3.387 v 0 l 3.079,9.83 c 0.847,2.721 -0.666,5.595 -3.387,6.442 v 0 c -0.511,0.159 -1.028,0.235 -1.536,0.235 v 0 c -2.194,0 -4.219,-1.414 -4.906,-3.622"
         style="fill:url(#linearGradient397);stroke:none"
         id="path399" /></g><g
       id="g423"
       transform="matrix(0.35277776,0,0,-0.35277778,220,722.48892)"
       clip-path="url(#clipPath24593)"><g
         clip-path="url(#clipPath415)"
         opacity="0.5"
         id="g421"><g
           transform="translate(203.708,1682.9398)"
           id="g419"><path
             d="M 0,0 C 11.19,-0.359 24.073,3.67 31.747,12.114 23.586,7.93 12.858,3.028 0.565,3.413 -11.729,3.798 -18.247,6.621 -25.1,9.676 -19.402,5.056 -11.344,0.359 0,0"
             style="fill:#d48129;fill-opacity:1;fill-rule:nonzero;stroke:none"
             id="path417" /></g></g></g><g
       id="g439"
       transform="matrix(0.35277776,0,0,-0.35277778,220,722.48892)"
       clip-path="url(#clipPath24676)"><g
         clip-path="url(#clipPath431)"
         opacity="0.199997"
         id="g437"><g
           transform="translate(207.4551,1769.224)"
           id="g435"><path
             d="m 0,0 c -11.061,0.359 -23.817,-3.696 -31.413,-12.114 8.084,4.184 18.683,9.086 30.823,8.701 C 11.549,-3.798 18.016,-6.621 24.792,-9.676 19.171,-5.03 11.215,-0.334 0,0"
             style="fill:#d48129;fill-opacity:1;fill-rule:nonzero;stroke:none"
             id="path433" /></g></g></g></g></svg>
