<?xml version="1.0" encoding="UTF-8" standalone="no"?>
<!-- Created with Inkscape (http://www.inkscape.org/) -->

<svg
   width="45.269146mm"
   height="45.593002mm"
   viewBox="0 0 45.269146 45.593002"
   version="1.1"
   id="svg5"
   xml:space="preserve"
   xmlns="http://www.w3.org/2000/svg"
   xmlns:svg="http://www.w3.org/2000/svg"><defs
     id="defs2"><linearGradient
       x1="0"
       y1="0"
       x2="1"
       y2="0"
       gradientUnits="userSpaceOnUse"
       gradientTransform="matrix(0,-57.18055,57.18055,0,1891.9913,1718.2189)"
       spreadMethod="pad"
       id="linearGradient1293"><stop
         style="stop-opacity:1;stop-color:#f8f6c4"
         offset="0"
         id="stop1267" /><stop
         style="stop-opacity:1;stop-color:#f8f0b0"
         offset="0.0218679"
         id="stop1269" /><stop
         style="stop-opacity:1;stop-color:#fae584"
         offset="0.087193"
         id="stop1271" /><stop
         style="stop-opacity:1;stop-color:#fcde5c"
         offset="0.1478"
         id="stop1273" /><stop
         style="stop-opacity:1;stop-color:#fdd937"
         offset="0.2018"
         id="stop1275" /><stop
         style="stop-opacity:1;stop-color:#fdd612"
         offset="0.2472"
         id="stop1277" /><stop
         style="stop-opacity:1;stop-color:#fdd505"
         offset="0.2784"
         id="stop1279" /><stop
         style="stop-opacity:1;stop-color:#fdd20b"
         offset="0.3882"
         id="stop1281" /><stop
         style="stop-opacity:1;stop-color:#f9c718"
         offset="0.5124"
         id="stop1283" /><stop
         style="stop-opacity:1;stop-color:#f2b61b"
         offset="0.6436"
         id="stop1285" /><stop
         style="stop-opacity:1;stop-color:#ec9e23"
         offset="0.7796"
         id="stop1287" /><stop
         style="stop-opacity:1;stop-color:#e38326"
         offset="0.918"
         id="stop1289" /><stop
         style="stop-opacity:1;stop-color:#df6f26"
         offset="1"
         id="stop1291" /></linearGradient><linearGradient
       x1="0"
       y1="0"
       x2="1"
       y2="0"
       gradientUnits="userSpaceOnUse"
       gradientTransform="matrix(-13.042613,-41.808186,-41.808186,13.042613,1869.5759,1778.6464)"
       spreadMethod="pad"
       id="linearGradient1313"><stop
         style="stop-opacity:1;stop-color:#fdda00"
         offset="0"
         id="stop1309" /><stop
         style="stop-opacity:1;stop-color:#e2a026"
         offset="1"
         id="stop1311" /></linearGradient><linearGradient
       x1="0"
       y1="0"
       x2="1"
       y2="0"
       gradientUnits="userSpaceOnUse"
       gradientTransform="matrix(-2.6617813,-8.5323582,-8.5323582,2.6617813,1889.8729,1775.3105)"
       spreadMethod="pad"
       id="linearGradient1333"><stop
         style="stop-opacity:1;stop-color:#fdda00"
         offset="0"
         id="stop1329" /><stop
         style="stop-opacity:1;stop-color:#e7a425"
         offset="1"
         id="stop1331" /></linearGradient><linearGradient
       x1="0"
       y1="0"
       x2="1"
       y2="0"
       gradientUnits="userSpaceOnUse"
       gradientTransform="matrix(-2.6617906,-8.5323877,-8.5323877,2.6617906,1838.8691,1748.5568)"
       spreadMethod="pad"
       id="linearGradient1353"><stop
         style="stop-opacity:1;stop-color:#fdda00"
         offset="0"
         id="stop1349" /><stop
         style="stop-opacity:1;stop-color:#e7a425"
         offset="1"
         id="stop1351" /></linearGradient><linearGradient
       x1="0"
       y1="0"
       x2="1"
       y2="0"
       gradientUnits="userSpaceOnUse"
       gradientTransform="matrix(-1.5591828,-4.9979711,-4.9979711,1.5591828,1891.3198,1751.5889)"
       spreadMethod="pad"
       id="linearGradient1373"><stop
         style="stop-opacity:1;stop-color:#fdda00"
         offset="0"
         id="stop1369" /><stop
         style="stop-opacity:1;stop-color:#e7a425"
         offset="1"
         id="stop1371" /></linearGradient><linearGradient
       x1="0"
       y1="0"
       x2="1"
       y2="0"
       gradientUnits="userSpaceOnUse"
       gradientTransform="matrix(-1.5605942,-5.0024958,-5.0024958,1.5605942,1836.3353,1768.7385)"
       spreadMethod="pad"
       id="linearGradient1393"><stop
         style="stop-opacity:1;stop-color:#fdda00"
         offset="0"
         id="stop1389" /><stop
         style="stop-opacity:1;stop-color:#e7a425"
         offset="1"
         id="stop1391" /></linearGradient><linearGradient
       x1="0"
       y1="0"
       x2="1"
       y2="0"
       gradientUnits="userSpaceOnUse"
       gradientTransform="matrix(-2.6617835,-8.5323658,-8.5323658,2.6617835,1851.0183,1787.4291)"
       spreadMethod="pad"
       id="linearGradient1413"><stop
         style="stop-opacity:1;stop-color:#fdda00"
         offset="0"
         id="stop1409" /><stop
         style="stop-opacity:1;stop-color:#e7a425"
         offset="1"
         id="stop1411" /></linearGradient><linearGradient
       x1="0"
       y1="0"
       x2="1"
       y2="0"
       gradientUnits="userSpaceOnUse"
       gradientTransform="matrix(-2.6617906,-8.5323877,-8.5323877,2.6617906,1877.7589,1736.4276)"
       spreadMethod="pad"
       id="linearGradient1433"><stop
         style="stop-opacity:1;stop-color:#fdda00"
         offset="0"
         id="stop1429" /><stop
         style="stop-opacity:1;stop-color:#e7a425"
         offset="1"
         id="stop1431" /></linearGradient><linearGradient
       x1="0"
       y1="0"
       x2="1"
       y2="0"
       gradientUnits="userSpaceOnUse"
       gradientTransform="matrix(-3.1183605,-9.9959269,-9.9959269,3.1183605,1856.0393,1735.1682)"
       spreadMethod="pad"
       id="linearGradient1453"><stop
         style="stop-opacity:1;stop-color:#fdda00"
         offset="0"
         id="stop1449" /><stop
         style="stop-opacity:1;stop-color:#e7a425"
         offset="1"
         id="stop1451" /></linearGradient><linearGradient
       x1="0"
       y1="0"
       x2="1"
       y2="0"
       gradientUnits="userSpaceOnUse"
       gradientTransform="matrix(-3.1183395,-9.9958591,-9.9958591,3.1183395,1873.1882,1790.1577)"
       spreadMethod="pad"
       id="linearGradient1473"><stop
         style="stop-opacity:1;stop-color:#fdda00"
         offset="0"
         id="stop1469" /><stop
         style="stop-opacity:1;stop-color:#e7a425"
         offset="1"
         id="stop1471" /></linearGradient><clipPath
       clipPathUnits="userSpaceOnUse"
       id="clipPath1491"><path
         d="m 1849.35,1742.11 h 28.87 v -6.17 h -28.87 z"
         id="path1489" /></clipPath><clipPath
       clipPathUnits="userSpaceOnUse"
       id="clipPath1507"><path
         d="m 1848.04,1779.82 h 28.57 v -6.17 h -28.57 z"
         id="path1505" /></clipPath><clipPath
       clipPathUnits="userSpaceOnUse"
       id="clipPath1527"><path
         d="m 1831.54,1727.64 h 122.91 v -36.55 h -122.91 z"
         id="path1525" /></clipPath><radialGradient
       fx="0"
       fy="0"
       cx="0"
       cy="0"
       r="1"
       gradientUnits="userSpaceOnUse"
       gradientTransform="matrix(8.2126465,0,0,8.2126465,1922.699,1686.8568)"
       spreadMethod="pad"
       id="radialGradient1561"><stop
         style="stop-opacity:1;stop-color:#ceebfb"
         offset="0"
         id="stop1557" /><stop
         style="stop-opacity:1;stop-color:#e2f4fd"
         offset="1"
         id="stop1559" /></radialGradient><radialGradient
       fx="0"
       fy="0"
       cx="0"
       cy="0"
       r="1"
       gradientUnits="userSpaceOnUse"
       gradientTransform="matrix(8.2035427,0,0,8.2035427,1862.1307,1685.7201)"
       spreadMethod="pad"
       id="radialGradient1581"><stop
         style="stop-opacity:1;stop-color:#ceebfb"
         offset="0"
         id="stop1577" /><stop
         style="stop-opacity:1;stop-color:#e2f4fd"
         offset="1"
         id="stop1579" /></radialGradient><radialGradient
       fx="0"
       fy="0"
       cx="0"
       cy="0"
       r="1"
       gradientUnits="userSpaceOnUse"
       gradientTransform="matrix(6.1496391,0,0,6.1496391,1877.5488,1668.3527)"
       spreadMethod="pad"
       id="radialGradient1601"><stop
         style="stop-opacity:1;stop-color:#ceebfb"
         offset="0"
         id="stop1597" /><stop
         style="stop-opacity:1;stop-color:#e2f4fd"
         offset="1"
         id="stop1599" /></radialGradient><radialGradient
       fx="0"
       fy="0"
       cx="0"
       cy="0"
       r="1"
       gradientUnits="userSpaceOnUse"
       gradientTransform="matrix(6.1488953,0,0,6.1488953,1912.8115,1672.3563)"
       spreadMethod="pad"
       id="radialGradient1621"><stop
         style="stop-opacity:1;stop-color:#ceebfb"
         offset="0"
         id="stop1617" /><stop
         style="stop-opacity:1;stop-color:#e2f4fd"
         offset="1"
         id="stop1619" /></radialGradient><clipPath
       clipPathUnits="userSpaceOnUse"
       id="clipPath25102"><path
         d="m 1873.987,1736.8 c -1.282,-0.668 -1.77,-2.259 -1.103,-3.541 v 0 l 2.438,-4.646 c 0.668,-1.284 2.259,-1.771 3.542,-1.103 v 0 c 1.283,0.666 1.771,2.258 1.104,3.541 v 0 l -2.438,4.646 c -0.466,0.894 -1.38,1.401 -2.325,1.401 v 0 c -0.412,0 -0.829,-0.096 -1.218,-0.298"
         id="path25104"
         style="stroke-width:0.999998" /></clipPath><clipPath
       clipPathUnits="userSpaceOnUse"
       id="clipPath25109"><path
         d="m 1838.648,1747.836 -4.646,-2.438 c -1.283,-0.668 -1.77,-2.259 -1.103,-3.543 v 0 c 0.667,-1.282 2.259,-1.77 3.541,-1.103 v 0 l 4.646,2.438 c 1.257,0.668 1.77,2.259 1.103,3.542 v 0 c -0.465,0.894 -1.378,1.402 -2.324,1.402 v 0 c -0.411,0 -0.828,-0.096 -1.217,-0.298"
         id="path25111"
         style="stroke-width:0.999998" /></clipPath><clipPath
       clipPathUnits="userSpaceOnUse"
       id="clipPath25116"><path
         d="m 1847.245,1787.795 c -1.283,-0.667 -1.771,-2.258 -1.103,-3.541 v 0 l 2.438,-4.645 c 0.667,-1.284 2.258,-1.771 3.542,-1.105 v 0 c 1.283,0.668 1.77,2.259 1.103,3.543 v 0 l -2.438,4.645 c -0.482,0.893 -1.387,1.413 -2.325,1.413 v 0 c -0.41,0 -0.826,-0.099 -1.217,-0.31"
         id="path25118"
         style="stroke-width:0.999998" /></clipPath><clipPath
       clipPathUnits="userSpaceOnUse"
       id="clipPath25123"><path
         d="m 1852.763,1733.464 -1.566,-5.005 c -0.436,-1.386 0.334,-2.849 1.72,-3.285 v 0 c 1.386,-0.437 2.849,0.334 3.285,1.719 v 0 l 1.565,5.005 c 0.437,1.386 -0.333,2.848 -1.719,3.285 v 0 c -0.2619,0.083 -0.528,0.1219 -0.789,0.1219 v 0 c -1.115,0 -2.143,-0.719 -2.496,-1.841"
         id="path25125"
         style="stroke-width:0.999998" /></clipPath><clipPath
       clipPathUnits="userSpaceOnUse"
       id="clipPath25130"><path
         d="m 1885.537,1750.658 c -0.437,-1.385 0.333,-2.848 1.719,-3.285 v 0 l 5.005,-1.565 c 1.386,-0.436 2.848,0.334 3.285,1.719 v 0 c 0.436,1.386 -0.334,2.85 -1.719,3.285 v 0 l -5.005,1.566 c -0.2631,0.083 -0.529,0.1219 -0.789,0.1219 v 0 c -1.115,0 -2.142,-0.719 -2.496,-1.842"
         id="path25132"
         style="stroke-width:0.999998" /></clipPath><clipPath
       clipPathUnits="userSpaceOnUse"
       id="clipPath25140"><path
         d="M -2.2440947e-6,2048 H 2048 V -1.1811023e-5 H -2.2440947e-6 Z"
         id="path25142"
         style="stroke-width:0.999998" /></clipPath><clipPath
       clipPathUnits="userSpaceOnUse"
       id="clipPath25147"><path
         d="m 1841.162,1757.742 c 0,-12.09 9.802,-21.891 21.893,-21.891 v 0 c 12.091,0 21.892,9.801 21.892,21.891 v 0 c 0,12.091 -9.801,21.892 -21.892,21.892 v 0 c -12.091,0 -21.893,-9.801 -21.893,-21.892"
         id="path25149"
         style="stroke-width:0.999998" /></clipPath><clipPath
       clipPathUnits="userSpaceOnUse"
       id="clipPath25154"><path
         d="m 1889.643,1774.578 -4.645,-2.438 c -1.284,-0.667 -1.771,-2.259 -1.104,-3.542 v 0 c 0.667,-1.283 2.258,-1.77 3.542,-1.103 v 0 l 4.645,2.438 c 1.283,0.667 1.771,2.258 1.104,3.541 v 0 c -0.465,0.894 -1.379,1.402 -2.324,1.402 v 0 c -0.412,0 -0.829,-0.096 -1.218,-0.298"
         id="path25156"
         style="stroke-width:0.999998" /></clipPath><clipPath
       clipPathUnits="userSpaceOnUse"
       id="clipPath25161"><path
         d="m 1887.949,1694.633 -12.345,-3.567 24.228,-30.028 -3.798,23.586 12.344,3.593 -24.253,30.002 z"
         id="path25163"
         style="stroke-width:0.999998" /></clipPath><clipPath
       clipPathUnits="userSpaceOnUse"
       id="clipPath25171"><path
         d="M -2.2440947e-6,2048 H 2048 V -1.1811023e-5 H -2.2440947e-6 Z"
         id="path25173"
         style="stroke-width:0.999998" /></clipPath><clipPath
       clipPathUnits="userSpaceOnUse"
       id="clipPath25178"><path
         d="m 1869.907,1788.437 -1.566,-5.005 c -0.436,-1.385 0.334,-2.849 1.72,-3.285 v 0 c 1.386,-0.436 2.849,0.334 3.285,1.72 v 0 l 1.565,5.005 c 0.437,1.386 -0.333,2.848 -1.718,3.285 v 0 c -0.263,0.082 -0.529,0.121 -0.789,0.121 v 0 c -1.115,8e-4 -2.144,-0.718 -2.497,-1.841"
         id="path25180"
         style="stroke-width:0.999998" /></clipPath><clipPath
       clipPathUnits="userSpaceOnUse"
       id="clipPath25185"><path
         d="m 1830.563,1767.802 c -0.436,-1.385 0.334,-2.848 1.72,-3.285 v 0 l 5.004,-1.565 c 1.361,-0.411 2.823,0.333 3.26,1.719 v 0 c 0.436,1.386 -0.334,2.849 -1.72,3.285 v 0 l -5.004,1.566 c -0.258,0.083 -0.521,0.123 -0.78,0.123 v 0 c -1.106,0 -2.147,-0.719 -2.48,-1.843"
         id="path25187"
         style="stroke-width:0.999998" /></clipPath><clipPath
       clipPathUnits="userSpaceOnUse"
       id="clipPath25192"><path
         d="m 1860.976,1692.76 v -4.286 l -3.029,3.028 c -0.436,0.436 -1.18,0.436 -1.617,0 v 0 c -0.435,-0.436 -0.435,-1.18 0,-1.617 v 0 l 3.029,-3.029 h -4.286 c -0.642,0 -1.155,-0.512 -1.155,-1.154 v 0 c 0,-0.642 0.513,-1.155 1.155,-1.155 v 0 h 4.286 l -3.029,-3.028 c -0.435,-0.437 -0.435,-1.181 0,-1.618 v 0 c 0.437,-0.435 1.181,-0.435 1.617,0 v 0 l 3.029,3.029 v -4.286 c 0,-0.642 0.513,-1.155 1.155,-1.155 v 0 c 0.641,0 1.154,0.513 1.154,1.155 v 0 4.286 l 3.029,-3.029 c 0.436,-0.435 1.181,-0.435 1.617,0 v 0 c 0.436,0.437 0.436,1.181 0,1.618 v 0 l -3.028,3.028 h 4.285 c 0.642,0 1.155,0.513 1.155,1.155 v 0 c 0,0.642 -0.539,1.154 -1.155,1.154 v 0 h -4.285 l 3.028,3.029 c 0.436,0.437 0.436,1.181 0,1.617 v 0 c -0.436,0.436 -1.181,0.436 -1.617,0 v 0 l -3.029,-3.028 v 4.286 c 0,0.641 -0.513,1.154 -1.154,1.154 v 0 c -0.642,0 -1.155,-0.513 -1.155,-1.154"
         id="path25194"
         style="stroke-width:0.999998" /></clipPath><clipPath
       clipPathUnits="userSpaceOnUse"
       id="clipPath25240"><path
         d="M -2.2440947e-6,2048 H 2048 V -1.1811023e-5 H -2.2440947e-6 Z"
         id="path25242"
         style="stroke-width:0.999998" /></clipPath><clipPath
       clipPathUnits="userSpaceOnUse"
       id="clipPath25246"><path
         d="m -1868.9832,319.33571 h 2048 V -1728.6643 h -2048 z"
         id="path25248"
         style="stroke-width:0.999998" /></clipPath><clipPath
       clipPathUnits="userSpaceOnUse"
       id="clipPath25262"><path
         d="m -1935.8392,301.34481 h 2048 V -1746.6552 h -2048 z"
         id="path25264"
         style="stroke-width:0.999998" /></clipPath><clipPath
       clipPathUnits="userSpaceOnUse"
       id="clipPath25274"><path
         d="m -1935.8392,305.01491 h 2048 V -1742.9851 h -2048 z"
         id="path25276"
         style="stroke-width:0.999998" /></clipPath><clipPath
       clipPathUnits="userSpaceOnUse"
       id="clipPath25335"><path
         d="m 1921.544,1693.914 v -4.285 l -3.028,3.028 c -0.437,0.437 -1.181,0.437 -1.617,0 v 0 c -0.436,-0.437 -0.436,-1.181 0,-1.617 v 0 l 3.028,-3.028 h -4.286 c -0.642,0 -1.155,-0.514 -1.155,-1.156 v 0 c 0,-0.641 0.513,-1.154 1.155,-1.154 v 0 h 4.286 l -3.028,-3.029 c -0.436,-0.436 -0.436,-1.181 0,-1.616 v 0 c 0.436,-0.437 1.18,-0.437 1.617,0 v 0 l 3.028,3.028 v -4.286 c 0,-0.642 0.513,-1.155 1.155,-1.155 v 0 c 0.641,0 1.155,0.513 1.155,1.155 v 0 4.286 l 3.028,-3.028 c 0.436,-0.437 1.181,-0.437 1.617,0 v 0 c 0.437,0.435 0.437,1.18 0,1.616 v 0 l -3.028,3.029 h 4.286 c 0.641,0 1.154,0.513 1.154,1.154 v 0 c 0,0.642 -0.513,1.156 -1.154,1.156 v 0 h -4.286 l 3.028,3.028 c 0.437,0.436 0.437,1.18 0,1.617 v 0 c -0.436,0.437 -1.181,0.437 -1.617,0 v 0 l -3.028,-3.028 v 4.285 c 0,0.642 -0.514,1.155 -1.155,1.155 v 0 c -0.642,0 -1.155,-0.513 -1.155,-1.155"
         id="path25337"
         style="stroke-width:0.999998" /></clipPath><clipPath
       clipPathUnits="userSpaceOnUse"
       id="clipPath25348"><path
         d="m 1911.997,1677.617 v -3.208 l -2.284,2.285 c -0.334,0.334 -0.873,0.334 -1.206,0 v 0 c -0.334,-0.334 -0.334,-0.873 0,-1.206 v 0 l 2.284,-2.285 h -3.209 c -0.461,0 -0.847,-0.385 -0.847,-0.846 v 0 c 0,-0.463 0.386,-0.847 0.847,-0.847 v 0 h 3.209 l -2.284,-2.285 c -0.334,-0.333 -0.334,-0.872 0,-1.206 v 0 c 0.333,-0.333 0.872,-0.333 1.206,0 v 0 l 2.284,2.284 v -3.208 c 0,-0.462 0.385,-0.847 0.847,-0.847 v 0 c 0.462,0 0.847,0.385 0.847,0.847 v 0 3.183 l 2.284,-2.285 c 0.334,-0.334 0.872,-0.334 1.206,0 v 0 c 0.334,0.334 0.334,0.872 0,1.206 v 0 l -2.284,2.285 h 3.208 c 0.462,0 0.847,0.385 0.847,0.846 v 0 c 0,0.462 -0.359,0.873 -0.847,0.873 v 0 h -3.208 l 2.284,2.285 c 0.334,0.333 0.334,0.872 0,1.206 v 0 c -0.334,0.334 -0.872,0.334 -1.206,0 v 0 l -2.284,-2.285 v 3.208 c 0,0.463 -0.385,0.847 -0.847,0.847 v 0 c -0.462,0 -0.847,-0.384 -0.847,-0.847"
         id="path25350"
         style="stroke-width:0.999998" /></clipPath><clipPath
       clipPathUnits="userSpaceOnUse"
       id="clipPath25355"><path
         d="m 1876.734,1673.614 v -3.209 l -2.284,2.285 c -0.334,0.333 -0.873,0.333 -1.206,0 v 0 c -0.334,-0.333 -0.334,-0.872 0,-1.206 v 0 l 2.283,-2.285 h -3.259 c -0.461,0 -0.847,-0.384 -0.847,-0.846 v 0 c 0,-0.462 0.386,-0.847 0.847,-0.847 v 0 h 3.208 l -2.283,-2.285 c -0.334,-0.334 -0.334,-0.872 0,-1.206 v 0 c 0.333,-0.333 0.872,-0.333 1.205,0 v 0 l 2.285,2.285 v -3.209 c 0,-0.462 0.385,-0.847 0.847,-0.847 v 0 c 0.461,0 0.846,0.385 0.846,0.847 v 0 3.209 l 2.285,-2.285 c 0.333,-0.333 0.872,-0.333 1.206,0 v 0 c 0.334,0.334 0.334,0.872 0,1.206 v 0 l -2.284,2.285 h 3.208 c 0.462,0 0.847,0.385 0.847,0.847 v 0 c 0.076,0.462 -0.334,0.846 -0.796,0.846 v 0 h -3.208 l 2.284,2.285 c 0.334,0.334 0.334,0.873 0,1.206 v 0 c -0.334,0.333 -0.873,0.333 -1.206,0 v 0 l -2.284,-2.285 v 3.209 c 0,0.462 -0.385,0.847 -0.847,0.847 v 0 c -0.463,0 -0.847,-0.385 -0.847,-0.847"
         id="path25357"
         style="stroke-width:0.999998" /></clipPath></defs><g
     id="g25714"
     transform="translate(-865.73683,-90.918621)"><g
       id="g1265"
       transform="matrix(0.35277776,0,0,-0.35277778,220,722.48892)"
       clip-path="url(#clipPath25161)"><path
         d="m 1887.949,1694.633 -12.345,-3.567 24.228,-30.028 -3.798,23.586 12.344,3.593 -24.253,30.002 z"
         style="fill:url(#linearGradient1293);stroke:none"
         id="path1295" /></g><g
       id="g1307"
       transform="matrix(0.35277776,0,0,-0.35277778,220,722.48892)"
       clip-path="url(#clipPath25147)"><path
         d="m 1841.162,1757.742 c 0,-12.09 9.802,-21.891 21.893,-21.891 v 0 c 12.091,0 21.892,9.801 21.892,21.891 v 0 c 0,12.091 -9.801,21.892 -21.892,21.892 v 0 c -12.091,0 -21.893,-9.801 -21.893,-21.892"
         style="fill:url(#linearGradient1313);stroke:none"
         id="path1315" /></g><g
       id="g1327"
       transform="matrix(0.35277776,0,0,-0.35277778,220,722.48892)"
       clip-path="url(#clipPath25154)"><path
         d="m 1889.643,1774.578 -4.645,-2.438 c -1.284,-0.667 -1.771,-2.259 -1.104,-3.542 v 0 c 0.667,-1.283 2.258,-1.77 3.542,-1.103 v 0 l 4.645,2.438 c 1.283,0.667 1.771,2.258 1.104,3.541 v 0 c -0.465,0.894 -1.379,1.402 -2.324,1.402 v 0 c -0.412,0 -0.829,-0.096 -1.218,-0.298"
         style="fill:url(#linearGradient1333);stroke:none"
         id="path1335" /></g><g
       id="g1347"
       transform="matrix(0.35277776,0,0,-0.35277778,220,722.48892)"
       clip-path="url(#clipPath25109)"><path
         d="m 1838.648,1747.836 -4.646,-2.438 c -1.283,-0.668 -1.77,-2.259 -1.103,-3.543 v 0 c 0.667,-1.282 2.259,-1.77 3.541,-1.103 v 0 l 4.646,2.438 c 1.257,0.668 1.77,2.259 1.103,3.542 v 0 c -0.465,0.894 -1.378,1.402 -2.324,1.402 v 0 c -0.411,0 -0.828,-0.096 -1.217,-0.298"
         style="fill:url(#linearGradient1353);stroke:none"
         id="path1355" /></g><g
       id="g1367"
       transform="matrix(0.35277776,0,0,-0.35277778,220,722.48892)"
       clip-path="url(#clipPath25130)"><path
         d="m 1885.537,1750.658 c -0.437,-1.385 0.333,-2.848 1.719,-3.285 v 0 l 5.005,-1.565 c 1.386,-0.436 2.848,0.334 3.285,1.719 v 0 c 0.436,1.386 -0.334,2.85 -1.719,3.285 v 0 l -5.005,1.566 c -0.263,0.083 -0.529,0.122 -0.789,0.122 v 0 c -1.115,0 -2.142,-0.719 -2.496,-1.842"
         style="fill:url(#linearGradient1373);stroke:none"
         id="path1375" /></g><g
       id="g1387"
       transform="matrix(0.35277776,0,0,-0.35277778,220,722.48892)"
       clip-path="url(#clipPath25185)"><path
         d="m 1830.563,1767.802 c -0.436,-1.385 0.334,-2.848 1.72,-3.285 v 0 l 5.004,-1.565 c 1.361,-0.411 2.823,0.333 3.26,1.719 v 0 c 0.436,1.386 -0.334,2.849 -1.72,3.285 v 0 l -5.004,1.566 c -0.258,0.083 -0.521,0.123 -0.78,0.123 v 0 c -1.106,0 -2.147,-0.719 -2.48,-1.843"
         style="fill:url(#linearGradient1393);stroke:none"
         id="path1395" /></g><g
       id="g1407"
       transform="matrix(0.35277776,0,0,-0.35277778,220,722.48892)"
       clip-path="url(#clipPath25116)"><path
         d="m 1847.245,1787.795 c -1.283,-0.667 -1.771,-2.258 -1.103,-3.541 v 0 l 2.438,-4.645 c 0.667,-1.284 2.258,-1.771 3.542,-1.105 v 0 c 1.283,0.668 1.77,2.259 1.103,3.543 v 0 l -2.438,4.645 c -0.482,0.893 -1.387,1.413 -2.325,1.413 v 0 c -0.41,0 -0.826,-0.099 -1.217,-0.31"
         style="fill:url(#linearGradient1413);stroke:none"
         id="path1415" /></g><g
       id="g1427"
       transform="matrix(0.35277776,0,0,-0.35277778,220,722.48892)"
       clip-path="url(#clipPath25102)"><path
         d="m 1873.987,1736.8 c -1.282,-0.668 -1.77,-2.259 -1.103,-3.541 v 0 l 2.438,-4.646 c 0.668,-1.284 2.259,-1.771 3.542,-1.103 v 0 c 1.283,0.666 1.771,2.258 1.104,3.541 v 0 l -2.438,4.646 c -0.466,0.894 -1.38,1.401 -2.325,1.401 v 0 c -0.412,0 -0.829,-0.096 -1.218,-0.298"
         style="fill:url(#linearGradient1433);stroke:none"
         id="path1435" /></g><g
       id="g1447"
       transform="matrix(0.35277776,0,0,-0.35277778,220,722.48892)"
       clip-path="url(#clipPath25123)"><path
         d="m 1852.763,1733.464 -1.566,-5.005 c -0.436,-1.386 0.334,-2.849 1.72,-3.285 v 0 c 1.386,-0.437 2.849,0.334 3.285,1.719 v 0 l 1.565,5.005 c 0.437,1.386 -0.333,2.848 -1.719,3.285 v 0 c -0.262,0.083 -0.528,0.122 -0.789,0.122 v 0 c -1.115,0 -2.143,-0.719 -2.496,-1.841"
         style="fill:url(#linearGradient1453);stroke:none"
         id="path1455" /></g><g
       id="g1467"
       transform="matrix(0.35277776,0,0,-0.35277778,220,722.48892)"
       clip-path="url(#clipPath25178)"><path
         d="m 1869.907,1788.437 -1.566,-5.005 c -0.436,-1.385 0.334,-2.849 1.72,-3.285 v 0 c 1.386,-0.436 2.849,0.334 3.285,1.72 v 0 l 1.565,5.005 c 0.437,1.386 -0.333,2.848 -1.718,3.285 v 0 c -0.263,0.082 -0.529,0.121 -0.789,0.121 v 0 c -1.115,10e-4 -2.144,-0.718 -2.497,-1.841"
         style="fill:url(#linearGradient1473);stroke:none"
         id="path1475" /></g><g
       id="g1499"
       transform="matrix(0.35277776,0,0,-0.35277778,220,722.48892)"
       clip-path="url(#clipPath25171)"><g
         clip-path="url(#clipPath1491)"
         opacity="0.5"
         id="g1497"><g
           transform="translate(1862.0793,1735.953)"
           id="g1495"><path
             d="M 0,0 C 5.672,-0.18 12.242,1.874 16.143,6.16 11.985,4.029 6.544,1.54 0.308,1.745 -5.928,1.951 -9.265,3.388 -12.73,4.928 -9.855,2.567 -5.749,0.18 0,0"
             style="fill:#d48129;fill-opacity:1;fill-rule:nonzero;stroke:none"
             id="path1493" /></g></g></g><g
       id="g1515"
       transform="matrix(0.35277776,0,0,-0.35277778,220,722.48892)"
       clip-path="url(#clipPath25140)"><g
         clip-path="url(#clipPath1507)"
         opacity="0.199997"
         id="g1513"><g
           transform="translate(1864.0043,1779.8137)"
           id="g1511"><path
             d="m 0,0 c -5.621,0.18 -12.114,-1.874 -15.963,-6.16 4.106,2.131 9.495,4.62 15.681,4.441 C 5.903,-1.925 9.162,-3.362 12.601,-4.902 9.727,-2.566 5.698,-0.18 0,0"
             style="fill:#d48129;fill-opacity:1;fill-rule:nonzero;stroke:none"
             id="path1509" /></g></g></g><path
       d="m 0,0 c -3.08,0 -6.031,-0.642 -8.726,-1.745 -6.057,11.857 -18.273,20.069 -32.517,20.069 -14.244,0 -26.46,-8.212 -32.517,-20.069 -2.695,1.103 -5.62,1.745 -8.726,1.745 -12.652,0 -22.918,-10.266 -22.918,-22.918 0,-12.653 10.266,-22.919 22.918,-22.919 4.902,0 9.445,1.566 13.166,4.209 6.724,-8.11 16.733,-13.371 28.077,-13.371 11.344,0 21.353,5.261 28.077,13.371 3.721,-2.618 8.264,-4.209 13.166,-4.209 12.653,0 22.918,10.266 22.918,22.919 C 22.918,-10.266 12.653,0 0,0"
       style="fill:#bdc5d2;fill-opacity:1;fill-rule:nonzero;stroke:none"
       id="path1519"
       transform="matrix(0.35277776,0,0,-0.35277778,902.92102,106.30778)"
       clip-path="url(#clipPath25262)" /><g
       id="g1535"
       transform="matrix(0.35277776,0,0,-0.35277778,220,722.48892)"
       clip-path="url(#clipPath25240)"><g
         clip-path="url(#clipPath1527)"
         opacity="0.0500031"
         id="g1533"><g
           transform="translate(1897.6248,1726.8422)"
           id="g1531"><path
             d="m 0,0 c -24.689,2.489 -47.813,-0.95 -66.086,-8.649 2.284,-10.266 11.421,-17.94 22.354,-17.94 4.902,0 9.444,1.566 13.165,4.209 6.725,-8.11 16.734,-13.371 28.077,-13.371 11.344,0 21.353,5.261 28.078,13.371 3.721,-2.617 8.263,-4.209 13.165,-4.209 7.341,0 13.859,3.465 18.068,8.855 C 41.269,-8.649 21.687,-2.182 0,0"
             style="fill:#a8a9ad;fill-opacity:1;fill-rule:nonzero;stroke:none"
             id="path1529" /></g></g></g><path
       d="m 0,0 c -3.08,0 -6.031,-0.642 -8.726,-1.745 -6.082,11.857 -18.273,20.069 -32.517,20.069 -14.244,0 -26.46,-8.212 -32.517,-20.069 -2.695,1.103 -5.62,1.745 -8.726,1.745 -12.652,0 -22.918,-10.266 -22.918,-22.918 0,-12.653 10.266,-22.919 22.918,-22.919 4.902,0 9.445,1.566 13.166,4.209 6.724,-8.11 16.733,-13.371 28.077,-13.371 11.344,0 21.353,5.261 28.077,13.371 3.721,-2.618 8.264,-4.209 13.166,-4.209 12.653,0 22.918,10.266 22.918,22.919 C 22.918,-10.266 12.653,0 0,0"
       style="fill:#d3dee2;fill-opacity:1;fill-rule:nonzero;stroke:none"
       id="path1539"
       transform="matrix(0.35277776,0,0,-0.35277778,902.92102,107.60251)"
       clip-path="url(#clipPath25274)" /><path
       d="m 0,0 c 1.925,0 3.721,-0.385 5.39,-1.078 3.747,7.34 11.292,12.396 20.095,12.396 8.803,0 16.348,-5.082 20.095,-12.396 1.668,0.693 3.491,1.078 5.39,1.078 7.16,0 13.063,-5.312 14.013,-12.216 0.077,0.641 0.153,1.283 0.153,1.924 0,7.828 -6.339,14.167 -14.166,14.167 -1.899,0 -3.722,-0.385 -5.39,-1.078 C 41.833,10.137 34.288,15.193 25.485,15.193 16.682,15.193 9.137,10.112 5.39,2.797 3.721,3.49 1.925,3.875 0,3.875 c -7.828,0 -14.167,-6.339 -14.167,-14.167 0,-0.667 0.052,-1.308 0.154,-1.924 C -13.089,-5.312 -7.186,0 0,0"
       style="fill:#bdc5d2;fill-opacity:1;fill-rule:nonzero;stroke:none"
       id="path1543"
       transform="matrix(0.35277776,0,0,-0.35277778,879.33571,112.65457)"
       clip-path="url(#clipPath25246)" /><g
       id="g1555"
       transform="matrix(0.35277776,0,0,-0.35277778,220,722.48892)"
       clip-path="url(#clipPath25335)"><path
         d="m 1921.544,1693.914 v -4.285 l -3.028,3.028 c -0.437,0.437 -1.181,0.437 -1.617,0 v 0 c -0.436,-0.437 -0.436,-1.181 0,-1.617 v 0 l 3.028,-3.028 h -4.286 c -0.642,0 -1.155,-0.514 -1.155,-1.156 v 0 c 0,-0.641 0.513,-1.154 1.155,-1.154 v 0 h 4.286 l -3.028,-3.029 c -0.436,-0.436 -0.436,-1.181 0,-1.616 v 0 c 0.436,-0.437 1.18,-0.437 1.617,0 v 0 l 3.028,3.028 v -4.286 c 0,-0.642 0.513,-1.155 1.155,-1.155 v 0 c 0.641,0 1.155,0.513 1.155,1.155 v 0 4.286 l 3.028,-3.028 c 0.436,-0.437 1.181,-0.437 1.617,0 v 0 c 0.437,0.435 0.437,1.18 0,1.616 v 0 l -3.028,3.029 h 4.286 c 0.641,0 1.154,0.513 1.154,1.154 v 0 c 0,0.642 -0.513,1.156 -1.154,1.156 v 0 h -4.286 l 3.028,3.028 c 0.437,0.436 0.437,1.18 0,1.617 v 0 c -0.436,0.437 -1.181,0.437 -1.617,0 v 0 l -3.028,-3.028 v 4.285 c 0,0.642 -0.514,1.155 -1.155,1.155 v 0 c -0.642,0 -1.155,-0.513 -1.155,-1.155"
         style="fill:url(#radialGradient1561);stroke:none"
         id="path1563" /></g><g
       id="g1575"
       transform="matrix(0.35277776,0,0,-0.35277778,220,722.48892)"
       clip-path="url(#clipPath25192)"><path
         d="m 1860.976,1692.76 v -4.286 l -3.029,3.028 c -0.436,0.436 -1.18,0.436 -1.617,0 v 0 c -0.435,-0.436 -0.435,-1.18 0,-1.617 v 0 l 3.029,-3.029 h -4.286 c -0.642,0 -1.155,-0.512 -1.155,-1.154 v 0 c 0,-0.642 0.513,-1.155 1.155,-1.155 v 0 h 4.286 l -3.029,-3.028 c -0.435,-0.437 -0.435,-1.181 0,-1.618 v 0 c 0.437,-0.435 1.181,-0.435 1.617,0 v 0 l 3.029,3.029 v -4.286 c 0,-0.642 0.513,-1.155 1.155,-1.155 v 0 c 0.641,0 1.154,0.513 1.154,1.155 v 0 4.286 l 3.029,-3.029 c 0.436,-0.435 1.181,-0.435 1.617,0 v 0 c 0.436,0.437 0.436,1.181 0,1.618 v 0 l -3.028,3.028 h 4.285 c 0.642,0 1.155,0.513 1.155,1.155 v 0 c 0,0.642 -0.539,1.154 -1.155,1.154 v 0 h -4.285 l 3.028,3.029 c 0.436,0.437 0.436,1.181 0,1.617 v 0 c -0.436,0.436 -1.181,0.436 -1.617,0 v 0 l -3.029,-3.028 v 4.286 c 0,0.641 -0.513,1.154 -1.154,1.154 v 0 c -0.642,0 -1.155,-0.513 -1.155,-1.154"
         style="fill:url(#radialGradient1581);stroke:none"
         id="path1583" /></g><g
       id="g1595"
       transform="matrix(0.35277776,0,0,-0.35277778,220,722.48892)"
       clip-path="url(#clipPath25355)"><path
         d="m 1876.734,1673.614 v -3.209 l -2.284,2.285 c -0.334,0.333 -0.873,0.333 -1.206,0 v 0 c -0.334,-0.333 -0.334,-0.872 0,-1.206 v 0 l 2.283,-2.285 h -3.259 c -0.461,0 -0.847,-0.384 -0.847,-0.846 v 0 c 0,-0.462 0.386,-0.847 0.847,-0.847 v 0 h 3.208 l -2.283,-2.285 c -0.334,-0.334 -0.334,-0.872 0,-1.206 v 0 c 0.333,-0.333 0.872,-0.333 1.205,0 v 0 l 2.285,2.285 v -3.209 c 0,-0.462 0.385,-0.847 0.847,-0.847 v 0 c 0.461,0 0.846,0.385 0.846,0.847 v 0 3.209 l 2.285,-2.285 c 0.333,-0.333 0.872,-0.333 1.206,0 v 0 c 0.334,0.334 0.334,0.872 0,1.206 v 0 l -2.284,2.285 h 3.208 c 0.462,0 0.847,0.385 0.847,0.847 v 0 c 0.076,0.462 -0.334,0.846 -0.796,0.846 v 0 h -3.208 l 2.284,2.285 c 0.334,0.334 0.334,0.873 0,1.206 v 0 c -0.334,0.333 -0.873,0.333 -1.206,0 v 0 l -2.284,-2.285 v 3.209 c 0,0.462 -0.385,0.847 -0.847,0.847 v 0 c -0.463,0 -0.847,-0.385 -0.847,-0.847"
         style="fill:url(#radialGradient1601);stroke:none"
         id="path1603" /></g><g
       id="g1615"
       transform="matrix(0.35277776,0,0,-0.35277778,220,722.48892)"
       clip-path="url(#clipPath25348)"><path
         d="m 1911.997,1677.617 v -3.208 l -2.284,2.285 c -0.334,0.334 -0.873,0.334 -1.206,0 v 0 c -0.334,-0.334 -0.334,-0.873 0,-1.206 v 0 l 2.284,-2.285 h -3.209 c -0.461,0 -0.847,-0.385 -0.847,-0.846 v 0 c 0,-0.463 0.386,-0.847 0.847,-0.847 v 0 h 3.209 l -2.284,-2.285 c -0.334,-0.333 -0.334,-0.872 0,-1.206 v 0 c 0.333,-0.333 0.872,-0.333 1.206,0 v 0 l 2.284,2.284 v -3.208 c 0,-0.462 0.385,-0.847 0.847,-0.847 v 0 c 0.462,0 0.847,0.385 0.847,0.847 v 0 3.183 l 2.284,-2.285 c 0.334,-0.334 0.872,-0.334 1.206,0 v 0 c 0.334,0.334 0.334,0.872 0,1.206 v 0 l -2.284,2.285 h 3.208 c 0.462,0 0.847,0.385 0.847,0.846 v 0 c 0,0.462 -0.359,0.873 -0.847,0.873 v 0 h -3.208 l 2.284,2.285 c 0.334,0.333 0.334,0.872 0,1.206 v 0 c -0.334,0.334 -0.872,0.334 -1.206,0 v 0 l -2.284,-2.285 v 3.208 c 0,0.463 -0.385,0.847 -0.847,0.847 v 0 c -0.462,0 -0.847,-0.384 -0.847,-0.847"
         style="fill:url(#radialGradient1621);stroke:none"
         id="path1623" /></g></g></svg>
