<?xml version="1.0" encoding="UTF-8" standalone="no"?>
<!-- Created with Inkscape (http://www.inkscape.org/) -->

<svg
   width="45.269146mm"
   height="36.086628mm"
   viewBox="0 0 45.269146 36.086628"
   version="1.1"
   id="svg5"
   xml:space="preserve"
   xmlns="http://www.w3.org/2000/svg"
   xmlns:svg="http://www.w3.org/2000/svg"><defs
     id="defs2"><linearGradient
       x1="0"
       y1="0"
       x2="1"
       y2="0"
       gradientUnits="userSpaceOnUse"
       gradientTransform="matrix(-13.042613,-41.808186,41.808186,-13.042613,1025.075,1765.1725)"
       spreadMethod="pad"
       id="linearGradient457"><stop
         style="stop-opacity:1;stop-color:#fdda00"
         offset="0"
         id="stop453" /><stop
         style="stop-opacity:1;stop-color:#e2a026"
         offset="1"
         id="stop455" /></linearGradient><linearGradient
       x1="0"
       y1="0"
       x2="1"
       y2="0"
       gradientUnits="userSpaceOnUse"
       gradientTransform="matrix(-2.6617832,-8.5323648,8.5323648,-2.6617832,1045.3719,1761.8368)"
       spreadMethod="pad"
       id="linearGradient477"><stop
         style="stop-opacity:1;stop-color:#fdda00"
         offset="0"
         id="stop473" /><stop
         style="stop-opacity:1;stop-color:#e7a425"
         offset="1"
         id="stop475" /></linearGradient><linearGradient
       x1="0"
       y1="0"
       x2="1"
       y2="0"
       gradientUnits="userSpaceOnUse"
       gradientTransform="matrix(-2.6617906,-8.5323877,8.5323877,-2.6617906,994.36816,1735.0829)"
       spreadMethod="pad"
       id="linearGradient497"><stop
         style="stop-opacity:1;stop-color:#fdda00"
         offset="0"
         id="stop493" /><stop
         style="stop-opacity:1;stop-color:#e7a425"
         offset="1"
         id="stop495" /></linearGradient><linearGradient
       x1="0"
       y1="0"
       x2="1"
       y2="0"
       gradientUnits="userSpaceOnUse"
       gradientTransform="matrix(-1.5591809,-4.9979649,4.9979649,-1.5591809,1046.8188,1738.115)"
       spreadMethod="pad"
       id="linearGradient517"><stop
         style="stop-opacity:1;stop-color:#fdda00"
         offset="0"
         id="stop513" /><stop
         style="stop-opacity:1;stop-color:#e7a425"
         offset="1"
         id="stop515" /></linearGradient><linearGradient
       x1="0"
       y1="0"
       x2="1"
       y2="0"
       gradientUnits="userSpaceOnUse"
       gradientTransform="matrix(-1.5605942,-5.0024958,5.0024958,-1.5605942,991.83429,1755.2646)"
       spreadMethod="pad"
       id="linearGradient537"><stop
         style="stop-opacity:1;stop-color:#fdda00"
         offset="0"
         id="stop533" /><stop
         style="stop-opacity:1;stop-color:#e7a425"
         offset="1"
         id="stop535" /></linearGradient><linearGradient
       x1="0"
       y1="0"
       x2="1"
       y2="0"
       gradientUnits="userSpaceOnUse"
       gradientTransform="matrix(-2.6617832,-8.5323648,8.5323648,-2.6617832,1006.5173,1773.9552)"
       spreadMethod="pad"
       id="linearGradient557"><stop
         style="stop-opacity:1;stop-color:#fdda00"
         offset="0"
         id="stop553" /><stop
         style="stop-opacity:1;stop-color:#e7a425"
         offset="1"
         id="stop555" /></linearGradient><linearGradient
       x1="0"
       y1="0"
       x2="1"
       y2="0"
       gradientUnits="userSpaceOnUse"
       gradientTransform="matrix(-2.6617918,-8.5323915,8.5323915,-2.6617918,1033.2579,1722.9537)"
       spreadMethod="pad"
       id="linearGradient577"><stop
         style="stop-opacity:1;stop-color:#fdda00"
         offset="0"
         id="stop573" /><stop
         style="stop-opacity:1;stop-color:#e7a425"
         offset="1"
         id="stop575" /></linearGradient><linearGradient
       x1="0"
       y1="0"
       x2="1"
       y2="0"
       gradientUnits="userSpaceOnUse"
       gradientTransform="matrix(-3.1183617,-9.9959297,9.9959297,-3.1183617,1011.5383,1721.6945)"
       spreadMethod="pad"
       id="linearGradient597"><stop
         style="stop-opacity:1;stop-color:#fdda00"
         offset="0"
         id="stop593" /><stop
         style="stop-opacity:1;stop-color:#e7a425"
         offset="1"
         id="stop595" /></linearGradient><linearGradient
       x1="0"
       y1="0"
       x2="1"
       y2="0"
       gradientUnits="userSpaceOnUse"
       gradientTransform="matrix(-3.1183391,-9.9958572,9.9958572,-3.1183391,1028.6873,1776.6838)"
       spreadMethod="pad"
       id="linearGradient617"><stop
         style="stop-opacity:1;stop-color:#fdda00"
         offset="0"
         id="stop613" /><stop
         style="stop-opacity:1;stop-color:#e7a425"
         offset="1"
         id="stop615" /></linearGradient><clipPath
       clipPathUnits="userSpaceOnUse"
       id="clipPath635"><path
         d="m 1004.85,1728.64 h 28.87 v -6.17 h -28.87 z"
         id="path633" /></clipPath><clipPath
       clipPathUnits="userSpaceOnUse"
       id="clipPath651"><path
         d="m 1003.54,1766.35 h 28.56 v -6.17 h -28.56 z"
         id="path649" /></clipPath><clipPath
       clipPathUnits="userSpaceOnUse"
       id="clipPath671"><path
         d="m 987.038,1714.17 h 122.902 v -36.55 H 987.038 Z"
         id="path669" /></clipPath><clipPath
       clipPathUnits="userSpaceOnUse"
       id="clipPath24683"><path
         d="m 1029.487,1723.326 c -1.284,-0.668 -1.771,-2.259 -1.104,-3.541 v 0 l 2.438,-4.646 c 0.667,-1.283 2.258,-1.771 3.542,-1.103 v 0 c 1.283,0.667 1.771,2.258 1.103,3.541 v 0 l -2.438,4.646 c -0.465,0.894 -1.378,1.402 -2.324,1.402 v 0 c -0.411,0 -0.828,-0.097 -1.217,-0.299"
         id="path24685"
         style="stroke-width:0.999998" /></clipPath><clipPath
       clipPathUnits="userSpaceOnUse"
       id="clipPath24690"><path
         d="m 996.66203,1744.268 c 0,-12.09 9.80097,-21.891 21.89097,-21.891 v 0 c 12.091,0 21.893,9.801 21.893,21.891 v 0 c 0,12.091 -9.802,21.892 -21.893,21.892 v 0 c -12.09,0 -21.89097,-9.801 -21.89097,-21.892"
         id="path24692"
         style="stroke-width:0.999998" /></clipPath><clipPath
       clipPathUnits="userSpaceOnUse"
       id="clipPath24714"><path
         d="M -2.2440947e-6,2048 H 2048 V -1.1811023e-5 H -2.2440947e-6 Z"
         id="path24716"
         style="stroke-width:0.999998" /></clipPath><clipPath
       clipPathUnits="userSpaceOnUse"
       id="clipPath24742"><path
         d="m 1045.142,1761.104 -4.645,-2.438 c -1.283,-0.667 -1.771,-2.258 -1.104,-3.542 v 0 c 0.668,-1.283 2.259,-1.77 3.542,-1.103 v 0 l 4.645,2.438 c 1.284,0.667 1.771,2.259 1.104,3.541 v 0 c -0.465,0.895 -1.378,1.402 -2.324,1.403 v 0 c -0.411,0 -0.829,-0.097 -1.218,-0.299"
         id="path24744"
         style="stroke-width:0.999998" /></clipPath><clipPath
       clipPathUnits="userSpaceOnUse"
       id="clipPath24763"><path
         d="m 1041.035,1737.184 c -0.435,-1.385 0.334,-2.848 1.72,-3.284 v 0 l 5.005,-1.566 c 1.385,-0.436 2.849,0.334 3.285,1.719 v 0 c 0.436,1.386 -0.334,2.85 -1.72,3.285 v 0 l -5.005,1.566 c -0.2619,0.083 -0.528,0.1219 -0.789,0.1219 v 0 c -1.114,0 -2.142,-0.718 -2.496,-1.842"
         id="path24765"
         style="stroke-width:0.999998" /></clipPath><clipPath
       clipPathUnits="userSpaceOnUse"
       id="clipPath24773"><path
         d="M -2.2440947e-6,2048 H 2048 V -1.1811023e-5 H -2.2440947e-6 Z"
         id="path24775"
         style="stroke-width:0.999998" /></clipPath><clipPath
       clipPathUnits="userSpaceOnUse"
       id="clipPath24780"><path
         d="m 994.146,1734.362 -4.64497,-2.438 c -1.28303,-0.668 -1.77105,-2.259 -1.10303,-3.542 v 0 c 0.66698,-1.283 2.25795,-1.771 3.54203,-1.104 v 0 l 4.644,2.438 c 1.25895,0.668 1.77195,2.259 1.10497,3.543 v 0 c -0.46597,0.893 -1.38,1.401 -2.325,1.401 v 0 c -0.411,0 -0.82897,-0.096 -1.218,-0.298"
         id="path24782"
         style="stroke-width:0.999998" /></clipPath><clipPath
       clipPathUnits="userSpaceOnUse"
       id="clipPath24787"><path
         d="m 1002.744,1774.321 c -1.283,-0.667 -1.77,-2.258 -1.103,-3.541 v 0 l 2.438,-4.645 c 0.668,-1.284 2.259,-1.771 3.541,-1.104 v 0 c 1.284,0.667 1.771,2.258 1.104,3.542 v 0 l -2.438,4.645 c -0.482,0.893 -1.387,1.413 -2.326,1.413 v 0 c -0.41,0 -0.826,-0.099 -1.216,-0.31"
         id="path24789"
         style="stroke-width:0.999998" /></clipPath><clipPath
       clipPathUnits="userSpaceOnUse"
       id="clipPath24800"><path
         d="M -1091.3383,314.8187 H 956.66171 v -2048 H -1091.3383 Z"
         id="path24802"
         style="stroke-width:0.999998" /></clipPath><clipPath
       clipPathUnits="userSpaceOnUse"
       id="clipPath24807"><path
         d="m 1025.406,1774.963 -1.565,-5.004 c -0.437,-1.386 0.333,-2.85 1.719,-3.286 v 0 c 1.386,-0.436 2.848,0.334 3.285,1.72 v 0 l 1.566,5.005 c 0.435,1.386 -0.334,2.848 -1.72,3.285 v 0 c -0.263,0.083 -0.529,0.122 -0.789,0.122 v 0 c -1.115,0 -2.142,-0.719 -2.496,-1.842"
         id="path24809"
         style="stroke-width:0.999998" /></clipPath><clipPath
       clipPathUnits="userSpaceOnUse"
       id="clipPath24827"><path
         d="M -1091.3383,318.4888 H 956.66171 v -2048 H -1091.3383 Z"
         id="path24829"
         style="stroke-width:0.999998" /></clipPath><clipPath
       clipPathUnits="userSpaceOnUse"
       id="clipPath24841"><path
         d="m 1008.262,1719.99 -1.565,-5.005 c -0.437,-1.386 0.333,-2.848 1.719,-3.285 v 0 c 1.386,-0.436 2.849,0.334 3.285,1.719 v 0 l 1.566,5.005 c 0.436,1.386 -0.334,2.848 -1.72,3.285 v 0 c -0.263,0.083 -0.529,0.1219 -0.79,0.1219 v 0 c -1.114,0 -2.141,-0.718 -2.495,-1.841"
         id="path24843"
         style="stroke-width:0.999998" /></clipPath><clipPath
       clipPathUnits="userSpaceOnUse"
       id="clipPath24848"><path
         d="m 986.06198,1754.329 c -0.43598,-1.386 0.33405,-2.849 1.719,-3.285 v 0 l 5.00505,-1.565 c 1.35997,-0.412 2.82397,0.333 3.25995,1.719 v 0 c 0.43605,1.385 -0.33398,2.849 -1.71998,3.284 v 0 l -5.00497,1.566 c -0.2571,0.083 -0.52005,0.123 -0.77903,0.123 v 0 c -1.10602,0 -2.14702,-0.719 -2.48002,-1.842"
         id="path24850"
         style="stroke-width:0.999998" /></clipPath><clipPath
       clipPathUnits="userSpaceOnUse"
       id="clipPath24854"><path
         d="m -1024.4822,332.8096 h 2048 v -2048 h -2048 z"
         id="path24856"
         style="stroke-width:0.999998" /></clipPath><clipPath
       clipPathUnits="userSpaceOnUse"
       id="clipPath24864"><path
         d="M -2.2440947e-6,2048 H 2048 V -1.1811023e-5 H -2.2440947e-6 Z"
         id="path24866"
         style="stroke-width:0.999998" /></clipPath></defs><g
     id="g25590"
     transform="translate(-567.81569,-95.671597)"><g
       id="g25554"><g
         id="g451"
         transform="matrix(0.35277776,0,0,-0.35277778,220,722.48892)"
         clip-path="url(#clipPath24690)"><path
           d="m 996.662,1744.268 c 0,-12.09 9.801,-21.891 21.891,-21.891 v 0 c 12.091,0 21.893,9.801 21.893,21.891 v 0 c 0,12.091 -9.802,21.892 -21.893,21.892 v 0 c -12.09,0 -21.891,-9.801 -21.891,-21.892"
           style="fill:url(#linearGradient457);stroke:none"
           id="path459" /></g><g
         id="g471"
         transform="matrix(0.35277776,0,0,-0.35277778,220,722.48892)"
         clip-path="url(#clipPath24742)"><path
           d="m 1045.142,1761.104 -4.645,-2.438 c -1.283,-0.667 -1.771,-2.258 -1.104,-3.542 v 0 c 0.668,-1.283 2.259,-1.77 3.542,-1.103 v 0 l 4.645,2.438 c 1.284,0.667 1.771,2.259 1.104,3.541 v 0 c -0.465,0.895 -1.378,1.402 -2.324,1.403 v 0 c -0.411,0 -0.829,-0.097 -1.218,-0.299"
           style="fill:url(#linearGradient477);stroke:none"
           id="path479" /></g><g
         id="g491"
         transform="matrix(0.35277776,0,0,-0.35277778,220,722.48892)"
         clip-path="url(#clipPath24780)"><path
           d="m 994.146,1734.362 -4.645,-2.438 c -1.283,-0.668 -1.771,-2.259 -1.103,-3.542 v 0 c 0.667,-1.283 2.258,-1.771 3.542,-1.104 v 0 l 4.644,2.438 c 1.259,0.668 1.772,2.259 1.105,3.543 v 0 c -0.466,0.893 -1.38,1.401 -2.325,1.401 v 0 c -0.411,0 -0.829,-0.096 -1.218,-0.298"
           style="fill:url(#linearGradient497);stroke:none"
           id="path499" /></g><g
         id="g511"
         transform="matrix(0.35277776,0,0,-0.35277778,220,722.48892)"
         clip-path="url(#clipPath24763)"><path
           d="m 1041.035,1737.184 c -0.435,-1.385 0.334,-2.848 1.72,-3.284 v 0 l 5.005,-1.566 c 1.385,-0.436 2.849,0.334 3.285,1.719 v 0 c 0.436,1.386 -0.334,2.85 -1.72,3.285 v 0 l -5.005,1.566 c -0.262,0.083 -0.528,0.122 -0.789,0.122 v 0 c -1.114,0 -2.142,-0.718 -2.496,-1.842"
           style="fill:url(#linearGradient517);stroke:none"
           id="path519" /></g><g
         id="g531"
         transform="matrix(0.35277776,0,0,-0.35277778,220,722.48892)"
         clip-path="url(#clipPath24848)"><path
           d="m 986.062,1754.329 c -0.436,-1.386 0.334,-2.849 1.719,-3.285 v 0 l 5.005,-1.565 c 1.36,-0.412 2.824,0.333 3.26,1.719 v 0 c 0.436,1.385 -0.334,2.849 -1.72,3.284 v 0 l -5.005,1.566 c -0.257,0.083 -0.52,0.123 -0.779,0.123 v 0 c -1.106,0 -2.147,-0.719 -2.48,-1.842"
           style="fill:url(#linearGradient537);stroke:none"
           id="path539" /></g><g
         id="g551"
         transform="matrix(0.35277776,0,0,-0.35277778,220,722.48892)"
         clip-path="url(#clipPath24787)"><path
           d="m 1002.744,1774.321 c -1.283,-0.667 -1.77,-2.258 -1.103,-3.541 v 0 l 2.438,-4.645 c 0.668,-1.284 2.259,-1.771 3.541,-1.104 v 0 c 1.284,0.667 1.771,2.258 1.104,3.542 v 0 l -2.438,4.645 c -0.482,0.893 -1.387,1.413 -2.326,1.413 v 0 c -0.41,0 -0.826,-0.099 -1.216,-0.31"
           style="fill:url(#linearGradient557);stroke:none"
           id="path559" /></g><g
         id="g571"
         transform="matrix(0.35277776,0,0,-0.35277778,220,722.48892)"
         clip-path="url(#clipPath24683)"><path
           d="m 1029.487,1723.326 c -1.284,-0.668 -1.771,-2.259 -1.104,-3.541 v 0 l 2.438,-4.646 c 0.667,-1.283 2.258,-1.771 3.542,-1.103 v 0 c 1.283,0.667 1.771,2.258 1.103,3.541 v 0 l -2.438,4.646 c -0.465,0.894 -1.378,1.402 -2.324,1.402 v 0 c -0.411,0 -0.828,-0.097 -1.217,-0.299"
           style="fill:url(#linearGradient577);stroke:none"
           id="path579" /></g><g
         id="g591"
         transform="matrix(0.35277776,0,0,-0.35277778,220,722.48892)"
         clip-path="url(#clipPath24841)"><path
           d="m 1008.262,1719.99 -1.565,-5.005 c -0.437,-1.386 0.333,-2.848 1.719,-3.285 v 0 c 1.386,-0.436 2.849,0.334 3.285,1.719 v 0 l 1.566,5.005 c 0.436,1.386 -0.334,2.848 -1.72,3.285 v 0 c -0.263,0.083 -0.529,0.122 -0.79,0.122 v 0 c -1.114,0 -2.141,-0.718 -2.495,-1.841"
           style="fill:url(#linearGradient597);stroke:none"
           id="path599" /></g><g
         id="g611"
         transform="matrix(0.35277776,0,0,-0.35277778,220,722.48892)"
         clip-path="url(#clipPath24807)"><path
           d="m 1025.406,1774.963 -1.565,-5.004 c -0.437,-1.386 0.333,-2.85 1.719,-3.286 v 0 c 1.386,-0.436 2.848,0.334 3.285,1.72 v 0 l 1.566,5.005 c 0.435,1.386 -0.334,2.848 -1.72,3.285 v 0 c -0.263,0.083 -0.529,0.122 -0.789,0.122 v 0 c -1.115,0 -2.142,-0.719 -2.496,-1.842"
           style="fill:url(#linearGradient617);stroke:none"
           id="path619" /></g><g
         id="g643"
         transform="matrix(0.35277776,0,0,-0.35277778,220,722.48892)"
         clip-path="url(#clipPath24773)"><g
           clip-path="url(#clipPath635)"
           opacity="0.5"
           id="g641"><g
             transform="translate(1017.5784,1722.4791)"
             id="g639"><path
               d="M 0,0 C 5.672,-0.18 12.242,1.874 16.143,6.16 11.985,4.029 6.544,1.54 0.308,1.745 -5.929,1.951 -9.265,3.388 -12.73,4.928 -9.855,2.567 -5.749,0.18 0,0"
               style="fill:#d48129;fill-opacity:1;fill-rule:nonzero;stroke:none"
               id="path637" /></g></g></g><g
         id="g659"
         transform="matrix(0.35277776,0,0,-0.35277778,220,722.48892)"
         clip-path="url(#clipPath24714)"><g
           clip-path="url(#clipPath651)"
           opacity="0.199997"
           id="g657"><g
             transform="translate(1019.5032,1766.3398)"
             id="g655"><path
               d="m 0,0 c -5.621,0.18 -12.114,-1.874 -15.963,-6.16 4.106,2.131 9.496,4.62 15.681,4.441 C 5.903,-1.925 9.162,-3.362 12.601,-4.902 9.727,-2.566 5.698,-0.18 0,0"
               style="fill:#d48129;fill-opacity:1;fill-rule:nonzero;stroke:none"
               id="path653" /></g></g></g><path
         d="m 0,0 c -3.08,0 -6.031,-0.642 -8.726,-1.745 -6.057,11.857 -18.273,20.069 -32.517,20.069 -14.244,0 -26.46,-8.212 -32.517,-20.069 -2.695,1.103 -5.62,1.745 -8.726,1.745 -12.652,0 -22.918,-10.266 -22.918,-22.918 0,-12.653 10.266,-22.919 22.918,-22.919 4.902,0 9.445,1.566 13.166,4.209 6.724,-8.11 16.733,-13.371 28.077,-13.371 11.344,0 21.353,5.261 28.077,13.371 3.721,-2.618 8.264,-4.209 13.166,-4.209 12.653,0 22.918,10.266 22.918,22.919 C 22.918,-10.266 12.653,0 0,0"
         style="fill:#bdc5d2;fill-opacity:1;fill-rule:nonzero;stroke:none"
         id="path663"
         transform="matrix(0.35277776,0,0,-0.35277778,604.99988,111.06107)"
         clip-path="url(#clipPath24800)" /><g
         id="g679"
         transform="matrix(0.35277776,0,0,-0.35277778,220,722.48892)"
         clip-path="url(#clipPath24864)"><g
           clip-path="url(#clipPath671)"
           opacity="0.0500031"
           id="g677"><g
             transform="translate(1053.1238,1713.3683)"
             id="g675"><path
               d="m 0,0 c -24.689,2.489 -47.813,-0.95 -66.086,-8.649 2.284,-10.266 11.421,-17.94 22.354,-17.94 4.902,0 9.444,1.566 13.166,4.209 6.724,-8.11 16.733,-13.371 28.076,-13.371 11.344,0 21.353,5.261 28.078,13.371 3.721,-2.617 8.263,-4.209 13.165,-4.209 7.341,0 13.859,3.465 18.068,8.855 C 41.269,-8.649 21.687,-2.182 0,0"
               style="fill:#a8a9ad;fill-opacity:1;fill-rule:nonzero;stroke:none"
               id="path673" /></g></g></g><path
         d="m 0,0 c -3.08,0 -6.031,-0.642 -8.726,-1.745 -6.082,11.857 -18.273,20.069 -32.517,20.069 -14.244,0 -26.46,-8.212 -32.517,-20.069 -2.695,1.103 -5.62,1.745 -8.726,1.745 -12.652,0 -22.918,-10.266 -22.918,-22.918 0,-12.653 10.266,-22.919 22.918,-22.919 4.902,0 9.445,1.566 13.166,4.209 6.724,-8.11 16.733,-13.371 28.077,-13.371 11.344,0 21.353,5.261 28.077,13.371 3.721,-2.618 8.264,-4.209 13.166,-4.209 12.653,0 22.918,10.266 22.918,22.919 C 22.918,-10.266 12.653,0 0,0"
         style="fill:#d3dee2;fill-opacity:1;fill-rule:nonzero;stroke:none"
         id="path683"
         transform="matrix(0.35277776,0,0,-0.35277778,604.99988,112.3558)"
         clip-path="url(#clipPath24827)" /><path
         d="m 0,0 c 1.925,0 3.721,-0.385 5.39,-1.078 3.747,7.34 11.292,12.396 20.095,12.396 8.803,0 16.348,-5.082 20.095,-12.396 1.668,0.693 3.491,1.078 5.39,1.078 7.16,0 13.063,-5.312 14.013,-12.216 0.077,0.641 0.154,1.283 0.154,1.924 0,7.828 -6.34,14.167 -14.167,14.167 -1.899,0 -3.722,-0.385 -5.39,-1.078 C 41.833,10.137 34.288,15.193 25.485,15.193 16.682,15.193 9.137,10.112 5.39,2.797 3.721,3.49 1.925,3.875 0,3.875 c -7.828,0 -14.167,-6.339 -14.167,-14.167 0,-0.667 0.052,-1.308 0.154,-1.924 C -13.089,-5.312 -7.186,0 0,0"
         style="fill:#bdc5d2;fill-opacity:1;fill-rule:nonzero;stroke:none"
         id="path687"
         transform="matrix(0.35277776,0,0,-0.35277778,581.41454,117.40786)"
         clip-path="url(#clipPath24854)" /></g></g></svg>
