<?xml version="1.0" encoding="UTF-8" standalone="no"?>
<!-- Created with Inkscape (http://www.inkscape.org/) -->

<svg
   width="45.269146mm"
   height="44.205013mm"
   viewBox="0 0 45.269146 44.205013"
   version="1.1"
   id="svg5"
   xml:space="preserve"
   xmlns="http://www.w3.org/2000/svg"
   xmlns:svg="http://www.w3.org/2000/svg"><defs
     id="defs2"><linearGradient
       x1="0"
       y1="0"
       x2="1"
       y2="0"
       gradientUnits="userSpaceOnUse"
       gradientTransform="matrix(-13.042613,-41.808186,-41.808186,13.042613,1588.0756,1776.679)"
       spreadMethod="pad"
       id="linearGradient705"><stop
         style="stop-opacity:1;stop-color:#fdda00"
         offset="0"
         id="stop701" /><stop
         style="stop-opacity:1;stop-color:#e2a026"
         offset="1"
         id="stop703" /></linearGradient><linearGradient
       x1="0"
       y1="0"
       x2="1"
       y2="0"
       gradientUnits="userSpaceOnUse"
       gradientTransform="matrix(-2.6617813,-8.5323582,-8.5323582,2.6617813,1608.3726,1773.3433)"
       spreadMethod="pad"
       id="linearGradient725"><stop
         style="stop-opacity:1;stop-color:#fdda00"
         offset="0"
         id="stop721" /><stop
         style="stop-opacity:1;stop-color:#e7a425"
         offset="1"
         id="stop723" /></linearGradient><linearGradient
       x1="0"
       y1="0"
       x2="1"
       y2="0"
       gradientUnits="userSpaceOnUse"
       gradientTransform="matrix(-2.6617906,-8.5323877,-8.5323877,2.6617906,1557.3688,1746.5895)"
       spreadMethod="pad"
       id="linearGradient745"><stop
         style="stop-opacity:1;stop-color:#fdda00"
         offset="0"
         id="stop741" /><stop
         style="stop-opacity:1;stop-color:#e7a425"
         offset="1"
         id="stop743" /></linearGradient><linearGradient
       x1="0"
       y1="0"
       x2="1"
       y2="0"
       gradientUnits="userSpaceOnUse"
       gradientTransform="matrix(-1.5591828,-4.9979711,-4.9979711,1.5591828,1609.8196,1749.6215)"
       spreadMethod="pad"
       id="linearGradient765"><stop
         style="stop-opacity:1;stop-color:#fdda00"
         offset="0"
         id="stop761" /><stop
         style="stop-opacity:1;stop-color:#e7a425"
         offset="1"
         id="stop763" /></linearGradient><linearGradient
       x1="0"
       y1="0"
       x2="1"
       y2="0"
       gradientUnits="userSpaceOnUse"
       gradientTransform="matrix(-1.5605942,-5.0024958,-5.0024958,1.5605942,1554.835,1766.7711)"
       spreadMethod="pad"
       id="linearGradient785"><stop
         style="stop-opacity:1;stop-color:#fdda00"
         offset="0"
         id="stop781" /><stop
         style="stop-opacity:1;stop-color:#e7a425"
         offset="1"
         id="stop783" /></linearGradient><linearGradient
       x1="0"
       y1="0"
       x2="1"
       y2="0"
       gradientUnits="userSpaceOnUse"
       gradientTransform="matrix(-2.6617835,-8.5323658,-8.5323658,2.6617835,1569.5179,1785.4618)"
       spreadMethod="pad"
       id="linearGradient805"><stop
         style="stop-opacity:1;stop-color:#fdda00"
         offset="0"
         id="stop801" /><stop
         style="stop-opacity:1;stop-color:#e7a425"
         offset="1"
         id="stop803" /></linearGradient><linearGradient
       x1="0"
       y1="0"
       x2="1"
       y2="0"
       gradientUnits="userSpaceOnUse"
       gradientTransform="matrix(-2.6617906,-8.5323877,-8.5323877,2.6617906,1596.2585,1734.4603)"
       spreadMethod="pad"
       id="linearGradient825"><stop
         style="stop-opacity:1;stop-color:#fdda00"
         offset="0"
         id="stop821" /><stop
         style="stop-opacity:1;stop-color:#e7a425"
         offset="1"
         id="stop823" /></linearGradient><linearGradient
       x1="0"
       y1="0"
       x2="1"
       y2="0"
       gradientUnits="userSpaceOnUse"
       gradientTransform="matrix(-3.1183605,-9.9959269,-9.9959269,3.1183605,1574.5389,1733.2009)"
       spreadMethod="pad"
       id="linearGradient845"><stop
         style="stop-opacity:1;stop-color:#fdda00"
         offset="0"
         id="stop841" /><stop
         style="stop-opacity:1;stop-color:#e7a425"
         offset="1"
         id="stop843" /></linearGradient><linearGradient
       x1="0"
       y1="0"
       x2="1"
       y2="0"
       gradientUnits="userSpaceOnUse"
       gradientTransform="matrix(-3.1183395,-9.9958591,-9.9958591,3.1183395,1591.6879,1788.1903)"
       spreadMethod="pad"
       id="linearGradient865"><stop
         style="stop-opacity:1;stop-color:#fdda00"
         offset="0"
         id="stop861" /><stop
         style="stop-opacity:1;stop-color:#e7a425"
         offset="1"
         id="stop863" /></linearGradient><clipPath
       clipPathUnits="userSpaceOnUse"
       id="clipPath883"><path
         d="m 1567.85,1740.15 h 28.87 v -6.18 h -28.87 z"
         id="path881" /></clipPath><clipPath
       clipPathUnits="userSpaceOnUse"
       id="clipPath899"><path
         d="m 1566.54,1777.86 h 28.57 v -6.17 h -28.57 z"
         id="path897" /></clipPath><clipPath
       clipPathUnits="userSpaceOnUse"
       id="clipPath919"><path
         d="m 1550.04,1725.67 h 122.91 v -36.55 h -122.91 z"
         id="path917" /></clipPath><clipPath
       clipPathUnits="userSpaceOnUse"
       id="clipPath24794"><path
         d="m 1565.745,1785.828 c -1.283,-0.667 -1.771,-2.258 -1.104,-3.542 v 0 l 2.438,-4.645 c 0.668,-1.283 2.259,-1.771 3.542,-1.104 v 0 c 1.283,0.668 1.771,2.259 1.104,3.542 v 0 l -2.438,4.645 c -0.483,0.894 -1.388,1.414 -2.326,1.414 v 0 c -0.41,0 -0.826,-0.1 -1.216,-0.31"
         id="path24796"
         style="stroke-width:0.999998" /></clipPath><clipPath
       clipPathUnits="userSpaceOnUse"
       id="clipPath24814"><path
         d="m 1559.662,1755.775 c 0,-12.091 9.802,-21.892 21.893,-21.892 v 0 c 12.089,0 21.891,9.801 21.891,21.892 v 0 c 0,12.09 -9.802,21.892 -21.891,21.892 v 0 c -12.091,0 -21.893,-9.802 -21.893,-21.892"
         id="path24816"
         style="stroke-width:0.999998" /></clipPath><clipPath
       clipPathUnits="userSpaceOnUse"
       id="clipPath24821"><path
         d="m 1592.487,1734.833 c -1.283,-0.668 -1.77,-2.259 -1.103,-3.542 v 0 l 2.438,-4.645 c 0.668,-1.284 2.259,-1.772 3.541,-1.104 v 0 c 1.284,0.667 1.771,2.258 1.105,3.542 v 0 l -2.439,4.645 c -0.465,0.894 -1.379,1.402 -2.325,1.402 v 0 c -0.411,0 -0.828,-0.096 -1.217,-0.298"
         id="path24823"
         style="stroke-width:0.999998" /></clipPath><clipPath
       clipPathUnits="userSpaceOnUse"
       id="clipPath24834"><path
         d="m 1608.142,1772.61 -4.644,-2.438 c -1.284,-0.667 -1.772,-2.258 -1.104,-3.541 v 0 c 0.667,-1.284 2.258,-1.771 3.542,-1.104 v 0 l 4.645,2.438 c 1.283,0.668 1.771,2.259 1.103,3.542 v 0 c -0.465,0.894 -1.378,1.402 -2.323,1.402 v 0 c -0.412,0 -0.829,-0.096 -1.219,-0.299"
         id="path24836"
         style="stroke-width:0.999998" /></clipPath><clipPath
       clipPathUnits="userSpaceOnUse"
       id="clipPath24871"><path
         d="m 1557.148,1745.869 -4.646,-2.438 c -1.284,-0.668 -1.771,-2.259 -1.104,-3.543 v 0 c 0.668,-1.282 2.258,-1.77 3.542,-1.103 v 0 l 4.646,2.438 c 1.257,0.668 1.77,2.259 1.103,3.541 v 0 c -0.465,0.895 -1.379,1.403 -2.325,1.403 v 0 c -0.411,0 -0.828,-0.096 -1.216,-0.298"
         id="path24873"
         style="stroke-width:0.999998" /></clipPath><clipPath
       clipPathUnits="userSpaceOnUse"
       id="clipPath24878"><path
         d="m 1604.037,1748.691 c -0.437,-1.385 0.333,-2.848 1.719,-3.285 v 0 l 5.005,-1.565 c 1.386,-0.437 2.848,0.334 3.285,1.719 v 0 c 0.436,1.386 -0.334,2.849 -1.72,3.286 v 0 l -5.004,1.565 c -0.2631,0.083 -0.529,0.1219 -0.79,0.1219 v 0 c -1.114,0 -2.142,-0.719 -2.495,-1.842"
         id="path24880"
         style="stroke-width:0.999998" /></clipPath><clipPath
       clipPathUnits="userSpaceOnUse"
       id="clipPath24888"><path
         d="M -2.2440947e-6,2048 H 2048 V -1.1811023e-5 H -2.2440947e-6 Z"
         id="path24890"
         style="stroke-width:0.999998" /></clipPath><clipPath
       clipPathUnits="userSpaceOnUse"
       id="clipPath24895"><path
         d="m 1588.406,1786.469 -1.565,-5.004 c -0.436,-1.386 0.334,-2.849 1.719,-3.286 v 0 c 1.386,-0.435 2.85,0.334 3.286,1.72 v 0 l 1.565,5.005 c 0.437,1.386 -0.334,2.849 -1.72,3.285 v 0 c -0.2619,0.083 -0.528,0.122 -0.789,0.122 v 0 c -1.114,0 -2.142,-0.718 -2.496,-1.842"
         id="path24897"
         style="stroke-width:0.999998" /></clipPath><clipPath
       clipPathUnits="userSpaceOnUse"
       id="clipPath24901"><path
         d="M -1654.3389,303.31231 H 393.66111 V -1744.6877 H -1654.3389 Z"
         id="path24903"
         style="stroke-width:0.999998" /></clipPath><clipPath
       clipPathUnits="userSpaceOnUse"
       id="clipPath24927"><path
         d="m 1549.063,1765.835 c -0.437,-1.386 0.334,-2.848 1.72,-3.285 v 0 l 5.004,-1.565 c 1.361,-0.411 2.823,0.333 3.26,1.719 v 0 c 0.436,1.386 -0.334,2.848 -1.72,3.285 v 0 l -5.004,1.566 c -0.258,0.083 -0.521,0.122 -0.78,0.122 v 0 c -1.107,0 -2.147,-0.719 -2.48,-1.842"
         id="path24929"
         style="stroke-width:0.999998" /></clipPath><clipPath
       clipPathUnits="userSpaceOnUse"
       id="clipPath24933"><path
         d="M -1577.9355,375.53219 H 470.06451 V -1672.4678 H -1577.9355 Z"
         id="path24935"
         style="stroke-width:0.999998" /></clipPath><clipPath
       clipPathUnits="userSpaceOnUse"
       id="clipPath24943"><path
         d="M -2.2440947e-6,2048 H 2048 V -1.1811023e-5 H -2.2440947e-6 Z"
         id="path24945"
         style="stroke-width:0.999998" /></clipPath><clipPath
       clipPathUnits="userSpaceOnUse"
       id="clipPath24953"><path
         d="M -2.2440947e-6,2048 H 2048 V -1.1811023e-5 H -2.2440947e-6 Z"
         id="path24955"
         style="stroke-width:0.999998" /></clipPath><clipPath
       clipPathUnits="userSpaceOnUse"
       id="clipPath24959"><path
         d="M -1608.887,380.665 H 439.11301 v -2048 H -1608.887 Z"
         id="path24961"
         style="stroke-width:0.999998" /></clipPath><clipPath
       clipPathUnits="userSpaceOnUse"
       id="clipPath24965"><path
         d="M -1654.3389,306.9823 H 393.66111 v -2048 H -1654.3389 Z"
         id="path24967"
         style="stroke-width:0.999998" /></clipPath><clipPath
       clipPathUnits="userSpaceOnUse"
       id="clipPath24971"><path
         d="m -1587.4828,321.3031 h 2048 v -2048 h -2048 z"
         id="path24973"
         style="stroke-width:0.999998" /></clipPath><clipPath
       clipPathUnits="userSpaceOnUse"
       id="clipPath24977"><path
         d="m -1639.8384,375.53219 h 2048 V -1672.4678 h -2048 z"
         id="path24979"
         style="stroke-width:0.999998" /></clipPath><clipPath
       clipPathUnits="userSpaceOnUse"
       id="clipPath25028"><path
         d="m 1571.263,1731.496 -1.566,-5.004 c -0.436,-1.386 0.334,-2.849 1.72,-3.285 v 0 c 1.386,-0.437 2.849,0.334 3.285,1.719 v 0 l 1.565,5.005 c 0.437,1.386 -0.334,2.848 -1.719,3.284 v 0 c -0.263,0.083 -0.528,0.123 -0.789,0.123 v 0 c -1.115,0 -2.143,-0.719 -2.496,-1.842"
         id="path25030"
         style="stroke-width:0.999998" /></clipPath></defs><g
     id="g25669"
     transform="translate(-766.42978,-91.612535)"><g
       id="g699"
       transform="matrix(0.35277776,0,0,-0.35277778,220,722.48892)"
       clip-path="url(#clipPath24814)"><path
         d="m 1559.662,1755.775 c 0,-12.091 9.802,-21.892 21.893,-21.892 v 0 c 12.089,0 21.891,9.801 21.891,21.892 v 0 c 0,12.09 -9.802,21.892 -21.891,21.892 v 0 c -12.091,0 -21.893,-9.802 -21.893,-21.892"
         style="fill:url(#linearGradient705);stroke:none"
         id="path707" /></g><g
       id="g719"
       transform="matrix(0.35277776,0,0,-0.35277778,220,722.48892)"
       clip-path="url(#clipPath24834)"><path
         d="m 1608.142,1772.61 -4.644,-2.438 c -1.284,-0.667 -1.772,-2.258 -1.104,-3.541 v 0 c 0.667,-1.284 2.258,-1.771 3.542,-1.104 v 0 l 4.645,2.438 c 1.283,0.668 1.771,2.259 1.103,3.542 v 0 c -0.465,0.894 -1.378,1.402 -2.323,1.402 v 0 c -0.412,0 -0.829,-0.096 -1.219,-0.299"
         style="fill:url(#linearGradient725);stroke:none"
         id="path727" /></g><g
       id="g739"
       transform="matrix(0.35277776,0,0,-0.35277778,220,722.48892)"
       clip-path="url(#clipPath24871)"><path
         d="m 1557.148,1745.869 -4.646,-2.438 c -1.284,-0.668 -1.771,-2.259 -1.104,-3.543 v 0 c 0.668,-1.282 2.258,-1.77 3.542,-1.103 v 0 l 4.646,2.438 c 1.257,0.668 1.77,2.259 1.103,3.541 v 0 c -0.465,0.895 -1.379,1.403 -2.325,1.403 v 0 c -0.411,0 -0.828,-0.096 -1.216,-0.298"
         style="fill:url(#linearGradient745);stroke:none"
         id="path747" /></g><g
       id="g759"
       transform="matrix(0.35277776,0,0,-0.35277778,220,722.48892)"
       clip-path="url(#clipPath24878)"><path
         d="m 1604.037,1748.691 c -0.437,-1.385 0.333,-2.848 1.719,-3.285 v 0 l 5.005,-1.565 c 1.386,-0.437 2.848,0.334 3.285,1.719 v 0 c 0.436,1.386 -0.334,2.849 -1.72,3.286 v 0 l -5.004,1.565 c -0.263,0.083 -0.529,0.122 -0.79,0.122 v 0 c -1.114,0 -2.142,-0.719 -2.495,-1.842"
         style="fill:url(#linearGradient765);stroke:none"
         id="path767" /></g><g
       id="g779"
       transform="matrix(0.35277776,0,0,-0.35277778,220,722.48892)"
       clip-path="url(#clipPath24927)"><path
         d="m 1549.063,1765.835 c -0.437,-1.386 0.334,-2.848 1.72,-3.285 v 0 l 5.004,-1.565 c 1.361,-0.411 2.823,0.333 3.26,1.719 v 0 c 0.436,1.386 -0.334,2.848 -1.72,3.285 v 0 l -5.004,1.566 c -0.258,0.083 -0.521,0.122 -0.78,0.122 v 0 c -1.107,0 -2.147,-0.719 -2.48,-1.842"
         style="fill:url(#linearGradient785);stroke:none"
         id="path787" /></g><g
       id="g799"
       transform="matrix(0.35277776,0,0,-0.35277778,220,722.48892)"
       clip-path="url(#clipPath24794)"><path
         d="m 1565.745,1785.828 c -1.283,-0.667 -1.771,-2.258 -1.104,-3.542 v 0 l 2.438,-4.645 c 0.668,-1.283 2.259,-1.771 3.542,-1.104 v 0 c 1.283,0.668 1.771,2.259 1.104,3.542 v 0 l -2.438,4.645 c -0.483,0.894 -1.388,1.414 -2.326,1.414 v 0 c -0.41,0 -0.826,-0.1 -1.216,-0.31"
         style="fill:url(#linearGradient805);stroke:none"
         id="path807" /></g><g
       id="g819"
       transform="matrix(0.35277776,0,0,-0.35277778,220,722.48892)"
       clip-path="url(#clipPath24821)"><path
         d="m 1592.487,1734.833 c -1.283,-0.668 -1.77,-2.259 -1.103,-3.542 v 0 l 2.438,-4.645 c 0.668,-1.284 2.259,-1.772 3.541,-1.104 v 0 c 1.284,0.667 1.771,2.258 1.105,3.542 v 0 l -2.439,4.645 c -0.465,0.894 -1.379,1.402 -2.325,1.402 v 0 c -0.411,0 -0.828,-0.096 -1.217,-0.298"
         style="fill:url(#linearGradient825);stroke:none"
         id="path827" /></g><g
       id="g839"
       transform="matrix(0.35277776,0,0,-0.35277778,220,722.48892)"
       clip-path="url(#clipPath25028)"><path
         d="m 1571.263,1731.496 -1.566,-5.004 c -0.436,-1.386 0.334,-2.849 1.72,-3.285 v 0 c 1.386,-0.437 2.849,0.334 3.285,1.719 v 0 l 1.565,5.005 c 0.437,1.386 -0.334,2.848 -1.719,3.284 v 0 c -0.263,0.083 -0.528,0.123 -0.789,0.123 v 0 c -1.115,0 -2.143,-0.719 -2.496,-1.842"
         style="fill:url(#linearGradient845);stroke:none"
         id="path847" /></g><g
       id="g859"
       transform="matrix(0.35277776,0,0,-0.35277778,220,722.48892)"
       clip-path="url(#clipPath24895)"><path
         d="m 1588.406,1786.469 -1.565,-5.004 c -0.436,-1.386 0.334,-2.849 1.719,-3.286 v 0 c 1.386,-0.435 2.85,0.334 3.286,1.72 v 0 l 1.565,5.005 c 0.437,1.386 -0.334,2.849 -1.72,3.285 v 0 c -0.262,0.083 -0.528,0.122 -0.789,0.122 v 0 c -1.114,0 -2.142,-0.718 -2.496,-1.842"
         style="fill:url(#linearGradient865);stroke:none"
         id="path867" /></g><g
       id="g891"
       transform="matrix(0.35277776,0,0,-0.35277778,220,722.48892)"
       clip-path="url(#clipPath24888)"><g
         clip-path="url(#clipPath883)"
         opacity="0.5"
         id="g889"><g
           transform="translate(1580.5791,1733.9857)"
           id="g887"><path
             d="M 0,0 C 5.672,-0.18 12.242,1.873 16.143,6.159 11.985,4.029 6.544,1.54 0.308,1.745 -5.929,1.95 -9.265,3.388 -12.73,4.927 -9.855,2.566 -5.749,0.18 0,0"
             style="fill:#d48129;fill-opacity:1;fill-rule:nonzero;stroke:none"
             id="path885" /></g></g></g><g
       id="g907"
       transform="matrix(0.35277776,0,0,-0.35277778,220,722.48892)"
       clip-path="url(#clipPath24943)"><g
         clip-path="url(#clipPath899)"
         opacity="0.199997"
         id="g905"><g
           transform="translate(1582.5039,1777.8463)"
           id="g903"><path
             d="m 0,0 c -5.621,0.18 -12.114,-1.874 -15.963,-6.159 4.106,2.13 9.495,4.619 15.681,4.44 C 5.903,-1.925 9.162,-3.362 12.601,-4.902 9.727,-2.566 5.698,-0.18 0,0"
             style="fill:#d48129;fill-opacity:1;fill-rule:nonzero;stroke:none"
             id="path901" /></g></g></g><path
       d="m 0,0 c -3.08,0 -6.031,-0.642 -8.726,-1.745 -6.057,11.857 -18.273,20.069 -32.517,20.069 -14.244,0 -26.46,-8.212 -32.517,-20.069 -2.695,1.103 -5.62,1.745 -8.726,1.745 -12.652,0 -22.918,-10.266 -22.918,-22.918 0,-12.653 10.266,-22.919 22.918,-22.919 4.902,0 9.445,1.566 13.166,4.209 6.724,-8.11 16.733,-13.371 28.077,-13.371 11.344,0 21.353,5.261 28.077,13.371 3.721,-2.618 8.264,-4.209 13.166,-4.209 12.653,0 22.918,10.266 22.918,22.919 C 22.918,-10.266 12.653,0 0,0"
       style="fill:#bdc5d2;fill-opacity:1;fill-rule:nonzero;stroke:none"
       id="path911"
       transform="matrix(0.35277776,0,0,-0.35277778,803.61397,107.00187)"
       clip-path="url(#clipPath24901)" /><g
       id="g927"
       transform="matrix(0.35277776,0,0,-0.35277778,220,722.48892)"
       clip-path="url(#clipPath24953)"><g
         clip-path="url(#clipPath919)"
         opacity="0.0500031"
         id="g925"><g
           transform="translate(1616.1244,1724.8748)"
           id="g923"><path
             d="m 0,0 c -24.689,2.49 -47.813,-0.95 -66.086,-8.649 2.284,-10.266 11.421,-17.94 22.354,-17.94 4.902,0 9.444,1.566 13.166,4.209 6.724,-8.11 16.733,-13.371 28.077,-13.371 11.343,0 21.352,5.261 28.077,13.371 3.721,-2.617 8.264,-4.209 13.165,-4.209 7.341,0 13.859,3.465 18.068,8.855 C 41.269,-8.649 21.687,-2.182 0,0"
             style="fill:#a8a9ad;fill-opacity:1;fill-rule:nonzero;stroke:none"
             id="path921" /></g></g></g><path
       d="m 0,0 c -3.08,0 -6.031,-0.642 -8.726,-1.745 -6.082,11.857 -18.273,20.069 -32.517,20.069 -14.244,0 -26.46,-8.212 -32.517,-20.069 -2.695,1.103 -5.62,1.745 -8.726,1.745 -12.652,0 -22.918,-10.266 -22.918,-22.918 0,-12.653 10.266,-22.919 22.918,-22.919 4.902,0 9.445,1.566 13.166,4.209 6.724,-8.11 16.733,-13.371 28.077,-13.371 11.344,0 21.353,5.261 28.077,13.371 3.721,-2.618 8.264,-4.209 13.166,-4.209 12.653,0 22.918,10.266 22.918,22.919 C 22.918,-10.266 12.653,0 0,0"
       style="fill:#d3dee2;fill-opacity:1;fill-rule:nonzero;stroke:none"
       id="path931"
       transform="matrix(0.35277776,0,0,-0.35277778,803.61397,108.29656)"
       clip-path="url(#clipPath24965)" /><path
       d="m 0,0 c 1.925,0 3.721,-0.385 5.39,-1.078 3.747,7.34 11.292,12.396 20.095,12.396 8.803,0 16.348,-5.081 20.095,-12.396 1.668,0.693 3.491,1.078 5.39,1.078 7.16,0 13.063,-5.312 14.013,-12.216 0.077,0.641 0.154,1.283 0.154,1.925 0,7.827 -6.34,14.166 -14.167,14.166 -1.899,0 -3.722,-0.385 -5.39,-1.078 C 41.833,10.138 34.288,15.193 25.485,15.193 16.682,15.193 9.137,10.112 5.39,2.797 3.721,3.49 1.925,3.875 0,3.875 c -7.828,0 -14.167,-6.339 -14.167,-14.166 0,-0.668 0.052,-1.309 0.154,-1.925 C -13.089,-5.312 -7.186,0 0,0"
       style="fill:#bdc5d2;fill-opacity:1;fill-rule:nonzero;stroke:none"
       id="path935"
       transform="matrix(0.35277776,0,0,-0.35277778,780.02863,113.34862)"
       clip-path="url(#clipPath24971)" /><path
       d="m 0,0 c 1.386,-3.516 5.364,-5.235 8.88,-3.85 3.516,1.386 5.236,5.364 3.85,8.88 C 11.344,8.546 1.335,15.245 1.335,15.245 1.335,15.245 -1.386,3.516 0,0"
       style="fill:#2aabe2;fill-opacity:1;fill-rule:nonzero;stroke:none"
       id="path939"
       transform="matrix(0.35277776,0,0,-0.35277778,798.49852,132.47944)"
       clip-path="url(#clipPath24977)" /><path
       d="m 0,0 c 1.386,-3.516 5.364,-5.235 8.88,-3.85 3.516,1.386 5.236,5.364 3.85,8.88 C 11.344,8.546 1.335,15.245 1.335,15.245 1.335,15.245 -1.386,3.516 0,0"
       style="fill:#2aabe2;fill-opacity:1;fill-rule:nonzero;stroke:none"
       id="path943"
       transform="matrix(0.35277776,0,0,-0.35277778,776.66055,132.47944)"
       clip-path="url(#clipPath24933)" /><path
       d="m 0,0 c 1.386,-3.516 5.364,-5.236 8.88,-3.85 3.516,1.386 5.236,5.364 3.85,8.88 C 11.344,8.546 1.335,15.245 1.335,15.245 1.335,15.245 -1.386,3.516 0,0"
       style="fill:#2aabe2;fill-opacity:1;fill-rule:nonzero;stroke:none"
       id="path947"
       transform="matrix(0.35277776,0,0,-0.35277778,787.57955,134.29018)"
       clip-path="url(#clipPath24959)" /></g></svg>
