<?xml version="1.0" encoding="UTF-8" standalone="no"?>
<!-- Created with Inkscape (http://www.inkscape.org/) -->

<svg
   width="45.269501mm"
   height="43.158447mm"
   viewBox="0 0 45.269501 43.158447"
   version="1.1"
   id="svg5"
   xml:space="preserve"
   xmlns="http://www.w3.org/2000/svg"
   xmlns:svg="http://www.w3.org/2000/svg"><defs
     id="defs2"><linearGradient
       x1="0"
       y1="0"
       x2="1"
       y2="0"
       gradientUnits="userSpaceOnUse"
       gradientTransform="matrix(-13.042653,-41.808315,-41.808315,13.042653,744.77618,1775.7806)"
       spreadMethod="pad"
       id="linearGradient5923"><stop
         style="stop-opacity:1;stop-color:#fdda00"
         offset="0"
         id="stop5919" /><stop
         style="stop-opacity:1;stop-color:#e2a026"
         offset="1"
         id="stop5921" /></linearGradient><linearGradient
       x1="0"
       y1="0"
       x2="1"
       y2="0"
       gradientUnits="userSpaceOnUse"
       gradientTransform="matrix(-2.6617894,-8.5323849,-8.5323849,2.6617894,765.07318,1772.4449)"
       spreadMethod="pad"
       id="linearGradient5943"><stop
         style="stop-opacity:1;stop-color:#fdda00"
         offset="0"
         id="stop5939" /><stop
         style="stop-opacity:1;stop-color:#e7a425"
         offset="1"
         id="stop5941" /></linearGradient><linearGradient
       x1="0"
       y1="0"
       x2="1"
       y2="0"
       gradientUnits="userSpaceOnUse"
       gradientTransform="matrix(-2.661799,-8.5324144,-8.5324144,2.661799,714.06927,1745.691)"
       spreadMethod="pad"
       id="linearGradient5963"><stop
         style="stop-opacity:1;stop-color:#fdda00"
         offset="0"
         id="stop5959" /><stop
         style="stop-opacity:1;stop-color:#e7a425"
         offset="1"
         id="stop5961" /></linearGradient><linearGradient
       x1="0"
       y1="0"
       x2="1"
       y2="0"
       gradientUnits="userSpaceOnUse"
       gradientTransform="matrix(-1.5591874,-4.9979858,-4.9979858,1.5591874,766.52014,1748.7231)"
       spreadMethod="pad"
       id="linearGradient5983"><stop
         style="stop-opacity:1;stop-color:#fdda00"
         offset="0"
         id="stop5979" /><stop
         style="stop-opacity:1;stop-color:#e7a425"
         offset="1"
         id="stop5981" /></linearGradient><linearGradient
       x1="0"
       y1="0"
       x2="1"
       y2="0"
       gradientUnits="userSpaceOnUse"
       gradientTransform="matrix(-1.5605989,-5.0025105,-5.0025105,1.5605989,711.5354,1765.8728)"
       spreadMethod="pad"
       id="linearGradient6003"><stop
         style="stop-opacity:1;stop-color:#fdda00"
         offset="0"
         id="stop5999" /><stop
         style="stop-opacity:1;stop-color:#e7a425"
         offset="1"
         id="stop6001" /></linearGradient><linearGradient
       x1="0"
       y1="0"
       x2="1"
       y2="0"
       gradientUnits="userSpaceOnUse"
       gradientTransform="matrix(-2.6617918,-8.5323915,-8.5323915,2.6617918,726.21851,1784.5635)"
       spreadMethod="pad"
       id="linearGradient6023"><stop
         style="stop-opacity:1;stop-color:#fdda00"
         offset="0"
         id="stop6019" /><stop
         style="stop-opacity:1;stop-color:#e7a425"
         offset="1"
         id="stop6021" /></linearGradient><linearGradient
       x1="0"
       y1="0"
       x2="1"
       y2="0"
       gradientUnits="userSpaceOnUse"
       gradientTransform="matrix(-2.661799,-8.5324144,-8.5324144,2.661799,752.95911,1733.5619)"
       spreadMethod="pad"
       id="linearGradient6043"><stop
         style="stop-opacity:1;stop-color:#fdda00"
         offset="0"
         id="stop6039" /><stop
         style="stop-opacity:1;stop-color:#e7a425"
         offset="1"
         id="stop6041" /></linearGradient><linearGradient
       x1="0"
       y1="0"
       x2="1"
       y2="0"
       gradientUnits="userSpaceOnUse"
       gradientTransform="matrix(-3.1183703,-9.9959574,-9.9959574,3.1183703,731.2395,1732.3025)"
       spreadMethod="pad"
       id="linearGradient6063"><stop
         style="stop-opacity:1;stop-color:#fdda00"
         offset="0"
         id="stop6059" /><stop
         style="stop-opacity:1;stop-color:#e7a425"
         offset="1"
         id="stop6061" /></linearGradient><linearGradient
       x1="0"
       y1="0"
       x2="1"
       y2="0"
       gradientUnits="userSpaceOnUse"
       gradientTransform="matrix(-3.1183493,-9.9958897,-9.9958897,3.1183493,748.38843,1787.2921)"
       spreadMethod="pad"
       id="linearGradient6083"><stop
         style="stop-opacity:1;stop-color:#fdda00"
         offset="0"
         id="stop6079" /><stop
         style="stop-opacity:1;stop-color:#e7a425"
         offset="1"
         id="stop6081" /></linearGradient><clipPath
       clipPathUnits="userSpaceOnUse"
       id="clipPath6101"><path
         d="m 724.55,1739.25 h 28.873 v -6.17 H 724.55 Z"
         id="path6099" /></clipPath><clipPath
       clipPathUnits="userSpaceOnUse"
       id="clipPath6117"><path
         d="m 723.241,1776.96 h 28.565 v -6.17 h -28.565 z"
         id="path6115" /></clipPath><clipPath
       clipPathUnits="userSpaceOnUse"
       id="clipPath6137"><path
         d="m 706.739,1724.78 h 122.907 v -36.55 H 706.739 Z"
         id="path6135" /></clipPath><radialGradient
       fx="0"
       fy="0"
       cx="0"
       cy="0"
       r="1"
       gradientUnits="userSpaceOnUse"
       gradientTransform="matrix(8.2126722,0,0,8.2126722,800.46582,1681.4244)"
       spreadMethod="pad"
       id="radialGradient6175"><stop
         style="stop-opacity:1;stop-color:#ceebfb"
         offset="0"
         id="stop6171" /><stop
         style="stop-opacity:1;stop-color:#e2f4fd"
         offset="1"
         id="stop6173" /></radialGradient><radialGradient
       fx="0"
       fy="0"
       cx="0"
       cy="0"
       r="1"
       gradientUnits="userSpaceOnUse"
       gradientTransform="matrix(8.2035685,0,0,8.2035685,737.33093,1680.2877)"
       spreadMethod="pad"
       id="radialGradient6195"><stop
         style="stop-opacity:1;stop-color:#ceebfb"
         offset="0"
         id="stop6191" /><stop
         style="stop-opacity:1;stop-color:#e2f4fd"
         offset="1"
         id="stop6193" /></radialGradient><clipPath
       clipPathUnits="userSpaceOnUse"
       id="clipPath23178"><path
         d="m 749.18797,1733.935 c -1.28393,-0.668 -1.77098,-2.259 -1.10393,-3.543 v 0 l 2.43893,-4.645 c 0.66705,-1.283 2.25802,-1.771 3.54105,-1.103 v 0 c 1.28295,0.667 1.77097,2.258 1.10295,3.541 v 0 l -2.43795,4.645 c -0.46403,0.895 -1.37805,1.403 -2.32403,1.403 v 0 c -0.411,0 -0.828,-0.096 -1.21702,-0.298"
         id="path23180"
         style="stroke-width:0.999998" /></clipPath><clipPath
       clipPathUnits="userSpaceOnUse"
       id="clipPath23199"><path
         d="m 705.76401,1764.937 c -0.43702,-1.386 0.333,-2.849 1.719,-3.285 v 0 l 5.00498,-1.565 c 1.36005,-0.411 2.823,0.333 3.25897,1.719 v 0 c 0.43605,1.386 -0.33292,2.848 -1.71892,3.285 v 0 l -5.00505,1.566 c -0.25793,0.083 -0.52095,0.122 -0.78,0.122 v 0 c -1.10595,0 -2.14695,-0.719 -2.47898,-1.842"
         id="path23201"
         style="stroke-width:0.999998" /></clipPath><clipPath
       clipPathUnits="userSpaceOnUse"
       id="clipPath23213"><path
         d="m 713.84804,1744.969 -4.64505,-2.438 c -1.284,-0.666 -1.77203,-2.258 -1.104,-3.541 v 0 c 0.66697,-1.284 2.25802,-1.77 3.54202,-1.104 v 0 l 4.64498,2.439 c 1.25805,0.666 1.77097,2.258 1.10302,3.541 v 0 c -0.465,0.894 -1.37797,1.402 -2.32305,1.402 v 0 c -0.41197,0 -0.82897,-0.096 -1.21792,-0.299"
         id="path23215"
         style="stroke-width:0.999998" /></clipPath><clipPath
       clipPathUnits="userSpaceOnUse"
       id="clipPath23227"><path
         d="m 716.36301,1754.877 c 0,-12.091 9.801,-21.893 21.89198,-21.893 v 0 c 12.09,0 21.891,9.802 21.891,21.893 v 0 c 0,12.09 -9.801,21.891 -21.891,21.891 v 0 c -12.09098,0 -21.89198,-9.801 -21.89198,-21.891"
         id="path23229"
         style="stroke-width:0.999998" /></clipPath><clipPath
       clipPathUnits="userSpaceOnUse"
       id="clipPath23234"><path
         d="m 764.84302,1771.712 -4.64498,-2.438 c -1.28302,-0.667 -1.77105,-2.258 -1.10407,-3.542 v 0 c 0.66802,-1.283 2.25907,-1.771 3.543,-1.103 v 0 l 4.644,2.438 c 1.284,0.667 1.77202,2.258 1.104,3.542 v 0 c -0.46493,0.894 -1.37798,1.402 -2.32298,1.402 v 0 c -0.41197,0 -0.82897,-0.096 -1.21897,-0.299"
         id="path23236"
         style="stroke-width:0.999998" /></clipPath><clipPath
       clipPathUnits="userSpaceOnUse"
       id="clipPath23241"><path
         d="m 722.44499,1784.929 c -1.28303,-0.666 -1.77098,-2.258 -1.10303,-3.541 v 0 l 2.43803,-4.645 c 0.66697,-1.283 2.25802,-1.771 3.54097,-1.104 v 0 c 1.284,0.668 1.77203,2.259 1.104,3.542 v 0 l -2.43795,4.645 c -0.483,0.893 -1.38705,1.413 -2.32597,1.413 v 0 c -0.40905,0 -0.82605,-0.099 -1.21605,-0.31"
         id="path23243"
         style="stroke-width:0.999998" /></clipPath><clipPath
       clipPathUnits="userSpaceOnUse"
       id="clipPath23251"><path
         d="M -2.2440947e-6,2048 H 2048 V -1.1811023e-5 H -2.2440947e-6 Z"
         id="path23253"
         style="stroke-width:0.999998" /></clipPath><clipPath
       clipPathUnits="userSpaceOnUse"
       id="clipPath23264"><path
         d="m 760.73699,1747.793 c -0.43597,-1.386 0.33398,-2.849 1.71998,-3.285 v 0 l 5.004,-1.565 c 1.386,-0.437 2.84902,0.333 3.28507,1.719 v 0 c 0.43598,1.386 -0.33307,2.849 -1.71907,3.285 v 0 l -5.00498,1.566 c -0.26302,0.082 -0.528,0.1219 -0.789,0.1219 v 0 c -1.11502,0 -2.14297,-0.719 -2.496,-1.842"
         id="path23266"
         style="stroke-width:0.999998" /></clipPath><clipPath
       clipPathUnits="userSpaceOnUse"
       id="clipPath23274"><path
         d="M -2.2440947e-6,2048 H 2048 V -1.1811023e-5 H -2.2440947e-6 Z"
         id="path23276"
         style="stroke-width:0.999998" /></clipPath><clipPath
       clipPathUnits="userSpaceOnUse"
       id="clipPath23281"><path
         d="m 727.96304,1730.597 -1.56503,-5.004 c -0.43597,-1.386 0.333,-2.848 1.719,-3.285 v 0 c 1.386,-0.436 2.84903,0.333 3.285,1.719 v 0 l 1.566,5.005 c 0.43695,1.386 -0.33405,2.849 -1.72005,3.285 v 0 c -0.26302,0.083 -0.528,0.1219 -0.789,0.1219 v 0 c -1.11495,0 -2.142,-0.718 -2.49592,-1.842"
         id="path23283"
         style="stroke-width:0.999998" /></clipPath><clipPath
       clipPathUnits="userSpaceOnUse"
       id="clipPath23288"><path
         d="m 799.31099,1688.482 v -4.286 l -3.02902,3.029 c -0.435,0.436 -1.17998,0.436 -1.61595,0 v 0 c -0.43703,-0.437 -0.43703,-1.181 0,-1.618 v 0 l 3.02797,-3.027 h -4.28497 c -0.642,0 -1.15605,-0.514 -1.15605,-1.156 v 0 c 0,-0.642 0.51405,-1.155 1.15605,-1.155 v 0 h 4.28497 l -3.02797,-3.028 c -0.43703,-0.437 -0.43703,-1.181 0,-1.616 v 0 c 0.43597,-0.437 1.18095,-0.437 1.61595,0 v 0 l 3.02902,3.028 v -4.287 c 0,-0.641 0.51398,-1.154 1.15403,-1.154 v 0 c 0.642,0 1.15597,0.513 1.15597,1.154 v 0 4.287 l 3.02798,-3.028 c 0.43605,-0.437 1.18005,-0.437 1.617,0 v 0 c 0.43605,0.435 0.43605,1.179 0,1.616 v 0 l -3.02895,3.028 h 4.28602 c 0.64193,0 1.15598,0.513 1.15598,1.155 v 0 c 0,0.642 -0.51405,1.156 -1.15598,1.156 v 0 h -4.28602 l 3.02895,3.027 c 0.43605,0.437 0.43605,1.181 0,1.618 v 0 c -0.43695,0.436 -1.18095,0.436 -1.617,0 v 0 l -3.02798,-3.029 v 4.286 c 0,0.642 -0.51397,1.155 -1.15597,1.155 v 0 c -0.64005,0 -1.15403,-0.513 -1.15403,-1.155"
         id="path23290"
         style="stroke-width:0.999998" /></clipPath><clipPath
       clipPathUnits="userSpaceOnUse"
       id="clipPath23294"><path
         d="M -778.36131,379.61119 H 1269.6387 V -1668.3888 H -778.36131 Z"
         id="path23296"
         style="stroke-width:0.999998" /></clipPath><clipPath
       clipPathUnits="userSpaceOnUse"
       id="clipPath23300"><path
         d="M -811.03971,304.21061 H 1236.9603 V -1743.7894 H -811.03971 Z"
         id="path23302"
         style="stroke-width:0.999998" /></clipPath><clipPath
       clipPathUnits="userSpaceOnUse"
       id="clipPath23307"><path
         d="m 745.10699,1785.571 -1.566,-5.005 c -0.435,-1.385 0.33405,-2.848 1.72005,-3.285 v 0 c 1.386,-0.435 2.84895,0.334 3.28493,1.72 v 0 l 1.566,5.005 c 0.43605,1.386 -0.33398,2.849 -1.71998,3.285 v 0 c -0.2619,0.083 -0.528,0.122 -0.78802,0.122 v 0 c -1.11495,0 -2.14298,-0.718 -2.49698,-1.842"
         id="path23309"
         style="stroke-width:0.999998" /></clipPath><clipPath
       clipPathUnits="userSpaceOnUse"
       id="clipPath23313"><path
         d="M -811.03971,307.8806 H 1236.9603 v -2048 H -811.03971 Z"
         id="path23315"
         style="stroke-width:0.999998" /></clipPath><clipPath
       clipPathUnits="userSpaceOnUse"
       id="clipPath23326"><path
         d="M -744.18331,322.2014 H 1303.8167 v -2048 H -744.18331 Z"
         id="path23328"
         style="stroke-width:0.999998" /></clipPath><clipPath
       clipPathUnits="userSpaceOnUse"
       id="clipPath23336"><path
         d="M -2.2440947e-6,2048 H 2048 V -1.1811023e-5 H -2.2440947e-6 Z"
         id="path23338"
         style="stroke-width:0.999998" /></clipPath><clipPath
       clipPathUnits="userSpaceOnUse"
       id="clipPath24256"><path
         d="m 736.17599,1687.327 v -4.286 l -3.02895,3.029 c -0.435,0.435 -1.18005,0.435 -1.61603,0 v 0 c -0.43702,-0.437 -0.43702,-1.181 0,-1.617 v 0 l 3.02798,-3.029 h -4.28603 c -0.64095,0 -1.155,-0.513 -1.155,-1.155 v 0 c 0,-0.641 0.51405,-1.154 1.155,-1.154 v 0 h 4.28603 l -3.02798,-3.029 c -0.43702,-0.436 -0.43702,-1.181 0,-1.617 v 0 c 0.43598,-0.436 1.18103,-0.436 1.61603,0 v 0 l 3.02895,3.028 v -4.285 c 0,-0.642 0.51405,-1.155 1.155,-1.155 v 0 c 0.64102,0 1.155,0.513 1.155,1.155 v 0 4.285 l 3.02805,-3.028 c 0.43598,-0.436 1.17998,-0.436 1.61693,0 v 0 c 0.43605,0.436 0.43605,1.181 0,1.617 v 0 l -3.02895,3.029 h 4.287 c 0.64095,0 1.155,0.513 1.155,1.154 v 0 c 0,0.642 -0.53903,1.155 -1.155,1.155 v 0 h -4.287 l 3.02895,3.029 c 0.43605,0.436 0.43605,1.18 0,1.617 v 0 c -0.43695,0.435 -1.18095,0.435 -1.61693,0 v 0 l -3.02805,-3.029 v 4.286 c 0,0.642 -0.51398,1.155 -1.155,1.155 v 0 c -0.64095,0 -1.155,-0.513 -1.155,-1.155"
         id="path24258"
         style="stroke-width:0.999998" /></clipPath><clipPath
       clipPathUnits="userSpaceOnUse"
       id="clipPath24289"><path
         d="M -752.69671,379.61119 H 1295.3033 V -1668.3888 H -752.69671 Z"
         id="path24291"
         style="stroke-width:0.999998" /></clipPath></defs><g
     id="g25519"
     transform="translate(-468.93223,-91.92933)"><g
       id="g5917"
       transform="matrix(0.35277776,0,0,-0.35277778,220,722.48892)"
       clip-path="url(#clipPath23227)"><path
         d="m 716.363,1754.877 c 0,-12.091 9.801,-21.893 21.892,-21.893 v 0 c 12.09,0 21.891,9.802 21.891,21.893 v 0 c 0,12.09 -9.801,21.891 -21.891,21.891 v 0 c -12.091,0 -21.892,-9.801 -21.892,-21.891"
         style="fill:url(#linearGradient5923);stroke:none"
         id="path5925" /></g><g
       id="g5937"
       transform="matrix(0.35277776,0,0,-0.35277778,220,722.48892)"
       clip-path="url(#clipPath23234)"><path
         d="m 764.843,1771.712 -4.645,-2.438 c -1.283,-0.667 -1.771,-2.258 -1.104,-3.542 v 0 c 0.668,-1.283 2.259,-1.771 3.543,-1.103 v 0 l 4.644,2.438 c 1.284,0.667 1.772,2.258 1.104,3.542 v 0 c -0.465,0.894 -1.378,1.402 -2.323,1.402 v 0 c -0.412,0 -0.829,-0.096 -1.219,-0.299"
         style="fill:url(#linearGradient5943);stroke:none"
         id="path5945" /></g><g
       id="g5957"
       transform="matrix(0.35277776,0,0,-0.35277778,220,722.48892)"
       clip-path="url(#clipPath23213)"><path
         d="m 713.848,1744.969 -4.645,-2.438 c -1.284,-0.666 -1.772,-2.258 -1.104,-3.541 v 0 c 0.667,-1.284 2.258,-1.77 3.542,-1.104 v 0 l 4.645,2.439 c 1.258,0.666 1.771,2.258 1.103,3.541 v 0 c -0.465,0.894 -1.378,1.402 -2.323,1.402 v 0 c -0.412,0 -0.829,-0.096 -1.218,-0.299"
         style="fill:url(#linearGradient5963);stroke:none"
         id="path5965" /></g><g
       id="g5977"
       transform="matrix(0.35277776,0,0,-0.35277778,220,722.48892)"
       clip-path="url(#clipPath23264)"><path
         d="m 760.737,1747.793 c -0.436,-1.386 0.334,-2.849 1.72,-3.285 v 0 l 5.004,-1.565 c 1.386,-0.437 2.849,0.333 3.285,1.719 v 0 c 0.436,1.386 -0.333,2.849 -1.719,3.285 v 0 l -5.005,1.566 c -0.263,0.082 -0.528,0.122 -0.789,0.122 v 0 c -1.115,0 -2.143,-0.719 -2.496,-1.842"
         style="fill:url(#linearGradient5983);stroke:none"
         id="path5985" /></g><g
       id="g5997"
       transform="matrix(0.35277776,0,0,-0.35277778,220,722.48892)"
       clip-path="url(#clipPath23199)"><path
         d="m 705.764,1764.937 c -0.437,-1.386 0.333,-2.849 1.719,-3.285 v 0 l 5.005,-1.565 c 1.36,-0.411 2.823,0.333 3.259,1.719 v 0 c 0.436,1.386 -0.333,2.848 -1.719,3.285 v 0 l -5.005,1.566 c -0.258,0.083 -0.521,0.122 -0.78,0.122 v 0 c -1.106,0 -2.147,-0.719 -2.479,-1.842"
         style="fill:url(#linearGradient6003);stroke:none"
         id="path6005" /></g><g
       id="g6017"
       transform="matrix(0.35277776,0,0,-0.35277778,220,722.48892)"
       clip-path="url(#clipPath23241)"><path
         d="m 722.445,1784.929 c -1.283,-0.666 -1.771,-2.258 -1.103,-3.541 v 0 l 2.438,-4.645 c 0.667,-1.283 2.258,-1.771 3.541,-1.104 v 0 c 1.284,0.668 1.772,2.259 1.104,3.542 v 0 l -2.438,4.645 c -0.483,0.893 -1.387,1.413 -2.326,1.413 v 0 c -0.409,0 -0.826,-0.099 -1.216,-0.31"
         style="fill:url(#linearGradient6023);stroke:none"
         id="path6025" /></g><g
       id="g6037"
       transform="matrix(0.35277776,0,0,-0.35277778,220,722.48892)"
       clip-path="url(#clipPath23178)"><path
         d="m 749.188,1733.935 c -1.284,-0.668 -1.771,-2.259 -1.104,-3.543 v 0 l 2.439,-4.645 c 0.667,-1.283 2.258,-1.771 3.541,-1.103 v 0 c 1.283,0.667 1.771,2.258 1.103,3.541 v 0 l -2.438,4.645 c -0.464,0.895 -1.378,1.403 -2.324,1.403 v 0 c -0.411,0 -0.828,-0.096 -1.217,-0.298"
         style="fill:url(#linearGradient6043);stroke:none"
         id="path6045" /></g><g
       id="g6057"
       transform="matrix(0.35277776,0,0,-0.35277778,220,722.48892)"
       clip-path="url(#clipPath23281)"><path
         d="m 727.963,1730.597 -1.565,-5.004 c -0.436,-1.386 0.333,-2.848 1.719,-3.285 v 0 c 1.386,-0.436 2.849,0.333 3.285,1.719 v 0 l 1.566,5.005 c 0.437,1.386 -0.334,2.849 -1.72,3.285 v 0 c -0.263,0.083 -0.528,0.122 -0.789,0.122 v 0 c -1.115,0 -2.142,-0.718 -2.496,-1.842"
         style="fill:url(#linearGradient6063);stroke:none"
         id="path6065" /></g><g
       id="g6077"
       transform="matrix(0.35277776,0,0,-0.35277778,220,722.48892)"
       clip-path="url(#clipPath23307)"><path
         d="m 745.107,1785.571 -1.566,-5.005 c -0.435,-1.385 0.334,-2.848 1.72,-3.285 v 0 c 1.386,-0.435 2.849,0.334 3.285,1.72 v 0 l 1.566,5.005 c 0.436,1.386 -0.334,2.849 -1.72,3.285 v 0 c -0.262,0.083 -0.528,0.122 -0.788,0.122 v 0 c -1.115,0 -2.143,-0.718 -2.497,-1.842"
         style="fill:url(#linearGradient6083);stroke:none"
         id="path6085" /></g><g
       id="g6109"
       transform="matrix(0.35277776,0,0,-0.35277778,220,722.48892)"
       clip-path="url(#clipPath23251)"><g
         clip-path="url(#clipPath6101)"
         opacity="0.5"
         id="g6107"><g
           transform="translate(737.2796,1733.0873)"
           id="g6105"><path
             d="M 0,0 C 5.672,-0.18 12.242,1.874 16.143,6.16 11.985,4.029 6.544,1.54 0.308,1.745 -5.929,1.951 -9.265,3.388 -12.73,4.928 -9.855,2.566 -5.749,0.18 0,0"
             style="fill:#d48129;fill-opacity:1;fill-rule:nonzero;stroke:none"
             id="path6103" /></g></g></g><g
       id="g6125"
       transform="matrix(0.35277776,0,0,-0.35277778,220,722.48892)"
       clip-path="url(#clipPath23274)"><g
         clip-path="url(#clipPath6117)"
         opacity="0.199997"
         id="g6123"><g
           transform="translate(739.2044,1776.9481)"
           id="g6121"><path
             d="m 0,0 c -5.621,0.18 -12.114,-1.874 -15.963,-6.16 4.106,2.131 9.496,4.62 15.681,4.44 C 5.903,-1.925 9.162,-3.362 12.601,-4.902 9.727,-2.567 5.698,-0.18 0,0"
             style="fill:#d48129;fill-opacity:1;fill-rule:nonzero;stroke:none"
             id="path6119" /></g></g></g><path
       d="m 0,0 c -3.08,0 -6.031,-0.642 -8.726,-1.745 -6.057,11.857 -18.273,20.069 -32.517,20.069 -14.244,0 -26.46,-8.212 -32.517,-20.069 -2.695,1.103 -5.621,1.745 -8.726,1.745 -12.653,0 -22.919,-10.266 -22.919,-22.918 0,-12.653 10.266,-22.919 22.919,-22.919 4.902,0 9.444,1.566 13.166,4.209 6.724,-8.11 16.733,-13.371 28.077,-13.371 11.344,0 21.353,5.261 28.077,13.371 3.721,-2.618 8.264,-4.209 13.166,-4.209 12.653,0 22.918,10.266 22.918,22.919 C 22.918,-10.266 12.653,0 0,0"
       style="fill:#bdc5d2;fill-opacity:1;fill-rule:nonzero;stroke:none"
       id="path6129"
       transform="matrix(0.35277776,0,0,-0.35277778,506.11677,107.31877)"
       clip-path="url(#clipPath23300)" /><g
       id="g6145"
       transform="matrix(0.35277776,0,0,-0.35277778,220,722.48892)"
       clip-path="url(#clipPath23336)"><g
         clip-path="url(#clipPath6137)"
         opacity="0.0500031"
         id="g6143"><g
           transform="translate(772.8251,1723.9763)"
           id="g6141"><path
             d="m 0,0 c -24.689,2.49 -47.813,-0.95 -66.086,-8.649 2.284,-10.266 11.42,-17.94 22.354,-17.94 4.901,0 9.444,1.566 13.165,4.209 6.725,-8.11 16.734,-13.371 28.077,-13.371 11.344,0 21.353,5.261 28.078,13.371 3.721,-2.617 8.264,-4.209 13.166,-4.209 7.34,0 13.858,3.465 18.067,8.855 C 41.269,-8.649 21.687,-2.181 0,0"
             style="fill:#a8a9ad;fill-opacity:1;fill-rule:nonzero;stroke:none"
             id="path6139" /></g></g></g><path
       d="m 0,0 c -3.08,0 -6.031,-0.642 -8.726,-1.745 -6.083,11.857 -18.273,20.07 -32.517,20.07 -14.244,0 -26.46,-8.213 -32.517,-20.07 -2.695,1.103 -5.621,1.745 -8.726,1.745 -12.653,0 -22.919,-10.266 -22.919,-22.918 0,-12.653 10.266,-22.919 22.919,-22.919 4.902,0 9.444,1.566 13.166,4.209 6.724,-8.11 16.733,-13.371 28.077,-13.371 11.344,0 21.353,5.261 28.077,13.371 3.721,-2.618 8.264,-4.209 13.166,-4.209 12.653,0 22.918,10.266 22.918,22.919 C 22.918,-10.266 12.653,0 0,0"
       style="fill:#d3dee2;fill-opacity:1;fill-rule:nonzero;stroke:none"
       id="path6149"
       transform="matrix(0.35277776,0,0,-0.35277778,506.11677,108.61346)"
       clip-path="url(#clipPath23313)" /><path
       d="m 0,0 c 1.925,0 3.721,-0.385 5.39,-1.078 3.747,7.34 11.292,12.396 20.095,12.396 8.803,0 16.348,-5.082 20.095,-12.396 1.669,0.693 3.491,1.078 5.39,1.078 7.16,0 13.063,-5.313 14.013,-12.216 0.077,0.641 0.154,1.283 0.154,1.924 0,7.828 -6.339,14.167 -14.167,14.167 -1.899,0 -3.721,-0.385 -5.39,-1.078 C 41.833,10.137 34.288,15.193 25.485,15.193 16.682,15.193 9.137,10.112 5.39,2.797 3.721,3.49 1.925,3.875 0,3.875 c -7.828,0 -14.167,-6.339 -14.167,-14.167 0,-0.667 0.051,-1.308 0.154,-1.924 C -13.089,-5.313 -7.186,0 0,0"
       style="fill:#bdc5d2;fill-opacity:1;fill-rule:nonzero;stroke:none"
       id="path6153"
       transform="matrix(0.35277776,0,0,-0.35277778,482.53132,113.66552)"
       clip-path="url(#clipPath23326)" /><path
       d="M 0,0 C 1.052,-2.695 4.106,-4.004 6.801,-2.951 9.496,-1.899 10.805,1.155 9.753,3.85 8.7,6.545 1.027,11.677 1.027,11.677 1.027,11.677 -1.052,2.695 0,0"
       style="fill:#2aabe2;fill-opacity:1;fill-rule:nonzero;stroke:none"
       id="path6157"
       transform="matrix(0.35277776,0,0,-0.35277778,494.58856,133.91842)"
       clip-path="url(#clipPath23294)" /><g
       id="g6169"
       transform="matrix(0.35277776,0,0,-0.35277778,220,722.48892)"
       clip-path="url(#clipPath23288)"><path
         d="m 799.311,1688.482 v -4.286 l -3.029,3.029 c -0.435,0.436 -1.18,0.436 -1.616,0 v 0 c -0.437,-0.437 -0.437,-1.181 0,-1.618 v 0 l 3.028,-3.027 h -4.285 c -0.642,0 -1.156,-0.514 -1.156,-1.156 v 0 c 0,-0.642 0.514,-1.155 1.156,-1.155 v 0 h 4.285 l -3.028,-3.028 c -0.437,-0.437 -0.437,-1.181 0,-1.616 v 0 c 0.436,-0.437 1.181,-0.437 1.616,0 v 0 l 3.029,3.028 v -4.287 c 0,-0.641 0.514,-1.154 1.154,-1.154 v 0 c 0.642,0 1.156,0.513 1.156,1.154 v 0 4.287 l 3.028,-3.028 c 0.436,-0.437 1.18,-0.437 1.617,0 v 0 c 0.436,0.435 0.436,1.179 0,1.616 v 0 l -3.029,3.028 h 4.286 c 0.642,0 1.156,0.513 1.156,1.155 v 0 c 0,0.642 -0.514,1.156 -1.156,1.156 v 0 h -4.286 l 3.029,3.027 c 0.436,0.437 0.436,1.181 0,1.618 v 0 c -0.437,0.436 -1.181,0.436 -1.617,0 v 0 l -3.028,-3.029 v 4.286 c 0,0.642 -0.514,1.155 -1.156,1.155 v 0 c -0.64,0 -1.154,-0.513 -1.154,-1.155"
         style="fill:url(#radialGradient6175);stroke:none"
         id="path6177" /></g><g
       id="g6189"
       transform="matrix(0.35277776,0,0,-0.35277778,220,722.48892)"
       clip-path="url(#clipPath24256)"><path
         d="m 736.176,1687.327 v -4.286 l -3.029,3.029 c -0.435,0.435 -1.18,0.435 -1.616,0 v 0 c -0.437,-0.437 -0.437,-1.181 0,-1.617 v 0 l 3.028,-3.029 h -4.286 c -0.641,0 -1.155,-0.513 -1.155,-1.155 v 0 c 0,-0.641 0.514,-1.154 1.155,-1.154 v 0 h 4.286 l -3.028,-3.029 c -0.437,-0.436 -0.437,-1.181 0,-1.617 v 0 c 0.436,-0.436 1.181,-0.436 1.616,0 v 0 l 3.029,3.028 v -4.285 c 0,-0.642 0.514,-1.155 1.155,-1.155 v 0 c 0.641,0 1.155,0.513 1.155,1.155 v 0 4.285 l 3.028,-3.028 c 0.436,-0.436 1.18,-0.436 1.617,0 v 0 c 0.436,0.436 0.436,1.181 0,1.617 v 0 l -3.029,3.029 h 4.287 c 0.641,0 1.155,0.513 1.155,1.154 v 0 c 0,0.642 -0.539,1.155 -1.155,1.155 v 0 h -4.287 l 3.029,3.029 c 0.436,0.436 0.436,1.18 0,1.617 v 0 c -0.437,0.435 -1.181,0.435 -1.617,0 v 0 l -3.028,-3.029 v 4.286 c 0,0.642 -0.514,1.155 -1.155,1.155 v 0 c -0.641,0 -1.155,-0.513 -1.155,-1.155"
         style="fill:url(#radialGradient6195);stroke:none"
         id="path6197" /></g><path
       d="M 0,0 C 1.052,-2.695 4.106,-4.004 6.801,-2.951 9.496,-1.899 10.805,1.155 9.753,3.85 8.7,6.545 1.027,11.677 1.027,11.677 1.027,11.677 -1.052,2.695 0,0"
       style="fill:#2aabe2;fill-opacity:1;fill-rule:nonzero;stroke:none"
       id="path6209"
       transform="matrix(0.35277776,0,0,-0.35277778,485.53466,133.91842)"
       clip-path="url(#clipPath24289)" /></g></svg>
