<?xml version="1.0" encoding="UTF-8" standalone="no"?>
<!-- Created with Inkscape (http://www.inkscape.org/) -->

<svg
   width="45.269146mm"
   height="45.593002mm"
   viewBox="0 0 45.269146 45.593002"
   version="1.1"
   id="svg5"
   xml:space="preserve"
   xmlns="http://www.w3.org/2000/svg"
   xmlns:svg="http://www.w3.org/2000/svg"><defs
     id="defs2"><linearGradient
       x1="0"
       y1="0"
       x2="1"
       y2="0"
       gradientUnits="userSpaceOnUse"
       gradientTransform="matrix(0,-57.18055,-57.18055,0,484.48978,1718.2189)"
       spreadMethod="pad"
       id="linearGradient987"><stop
         style="stop-opacity:1;stop-color:#f8f6c4"
         offset="0"
         id="stop961" /><stop
         style="stop-opacity:1;stop-color:#f8f0b0"
         offset="0.0218679"
         id="stop963" /><stop
         style="stop-opacity:1;stop-color:#fae584"
         offset="0.087193"
         id="stop965" /><stop
         style="stop-opacity:1;stop-color:#fcde5c"
         offset="0.1478"
         id="stop967" /><stop
         style="stop-opacity:1;stop-color:#fdd937"
         offset="0.2018"
         id="stop969" /><stop
         style="stop-opacity:1;stop-color:#fdd612"
         offset="0.2472"
         id="stop971" /><stop
         style="stop-opacity:1;stop-color:#fdd505"
         offset="0.2784"
         id="stop973" /><stop
         style="stop-opacity:1;stop-color:#fdd20b"
         offset="0.3882"
         id="stop975" /><stop
         style="stop-opacity:1;stop-color:#f9c718"
         offset="0.5124"
         id="stop977" /><stop
         style="stop-opacity:1;stop-color:#f2b61b"
         offset="0.6436"
         id="stop979" /><stop
         style="stop-opacity:1;stop-color:#ec9e23"
         offset="0.7796"
         id="stop981" /><stop
         style="stop-opacity:1;stop-color:#e38326"
         offset="0.918"
         id="stop983" /><stop
         style="stop-opacity:1;stop-color:#df6f26"
         offset="1"
         id="stop985" /></linearGradient><linearGradient
       x1="0"
       y1="0"
       x2="1"
       y2="0"
       gradientUnits="userSpaceOnUse"
       gradientTransform="matrix(-13.042613,-41.808186,41.808186,-13.042613,462.07431,1778.6464)"
       spreadMethod="pad"
       id="linearGradient1023"><stop
         style="stop-opacity:1;stop-color:#fdda00"
         offset="0"
         id="stop1019" /><stop
         style="stop-opacity:1;stop-color:#e2a026"
         offset="1"
         id="stop1021" /></linearGradient><linearGradient
       x1="0"
       y1="0"
       x2="1"
       y2="0"
       gradientUnits="userSpaceOnUse"
       gradientTransform="matrix(-2.6617832,-8.5323648,8.5323648,-2.6617832,482.37128,1775.3105)"
       spreadMethod="pad"
       id="linearGradient1043"><stop
         style="stop-opacity:1;stop-color:#fdda00"
         offset="0"
         id="stop1039" /><stop
         style="stop-opacity:1;stop-color:#e7a425"
         offset="1"
         id="stop1041" /></linearGradient><linearGradient
       x1="0"
       y1="0"
       x2="1"
       y2="0"
       gradientUnits="userSpaceOnUse"
       gradientTransform="matrix(-2.6617906,-8.5323877,8.5323877,-2.6617906,431.36749,1748.5568)"
       spreadMethod="pad"
       id="linearGradient1063"><stop
         style="stop-opacity:1;stop-color:#fdda00"
         offset="0"
         id="stop1059" /><stop
         style="stop-opacity:1;stop-color:#e7a425"
         offset="1"
         id="stop1061" /></linearGradient><linearGradient
       x1="0"
       y1="0"
       x2="1"
       y2="0"
       gradientUnits="userSpaceOnUse"
       gradientTransform="matrix(-1.5591809,-4.9979649,4.9979649,-1.5591809,483.81824,1751.5889)"
       spreadMethod="pad"
       id="linearGradient1083"><stop
         style="stop-opacity:1;stop-color:#fdda00"
         offset="0"
         id="stop1079" /><stop
         style="stop-opacity:1;stop-color:#e7a425"
         offset="1"
         id="stop1081" /></linearGradient><linearGradient
       x1="0"
       y1="0"
       x2="1"
       y2="0"
       gradientUnits="userSpaceOnUse"
       gradientTransform="matrix(-1.5605942,-5.0024958,5.0024958,-1.5605942,428.83368,1768.7385)"
       spreadMethod="pad"
       id="linearGradient1103"><stop
         style="stop-opacity:1;stop-color:#fdda00"
         offset="0"
         id="stop1099" /><stop
         style="stop-opacity:1;stop-color:#e7a425"
         offset="1"
         id="stop1101" /></linearGradient><linearGradient
       x1="0"
       y1="0"
       x2="1"
       y2="0"
       gradientUnits="userSpaceOnUse"
       gradientTransform="matrix(-2.6617832,-8.5323648,8.5323648,-2.6617832,443.51669,1787.4291)"
       spreadMethod="pad"
       id="linearGradient1123"><stop
         style="stop-opacity:1;stop-color:#fdda00"
         offset="0"
         id="stop1119" /><stop
         style="stop-opacity:1;stop-color:#e7a425"
         offset="1"
         id="stop1121" /></linearGradient><linearGradient
       x1="0"
       y1="0"
       x2="1"
       y2="0"
       gradientUnits="userSpaceOnUse"
       gradientTransform="matrix(-2.6617906,-8.5323877,8.5323877,-2.6617906,470.25723,1736.4276)"
       spreadMethod="pad"
       id="linearGradient1143"><stop
         style="stop-opacity:1;stop-color:#fdda00"
         offset="0"
         id="stop1139" /><stop
         style="stop-opacity:1;stop-color:#e7a425"
         offset="1"
         id="stop1141" /></linearGradient><linearGradient
       x1="0"
       y1="0"
       x2="1"
       y2="0"
       gradientUnits="userSpaceOnUse"
       gradientTransform="matrix(-3.1183617,-9.9959297,9.9959297,-3.1183617,448.53769,1735.1683)"
       spreadMethod="pad"
       id="linearGradient1163"><stop
         style="stop-opacity:1;stop-color:#fdda00"
         offset="0"
         id="stop1159" /><stop
         style="stop-opacity:1;stop-color:#e7a425"
         offset="1"
         id="stop1161" /></linearGradient><linearGradient
       x1="0"
       y1="0"
       x2="1"
       y2="0"
       gradientUnits="userSpaceOnUse"
       gradientTransform="matrix(-3.1183391,-9.9958572,9.9958572,-3.1183391,465.68658,1790.1577)"
       spreadMethod="pad"
       id="linearGradient1183"><stop
         style="stop-opacity:1;stop-color:#fdda00"
         offset="0"
         id="stop1179" /><stop
         style="stop-opacity:1;stop-color:#e7a425"
         offset="1"
         id="stop1181" /></linearGradient><clipPath
       clipPathUnits="userSpaceOnUse"
       id="clipPath1201"><path
         d="m 441.848,1742.11 h 28.873 v -6.17 h -28.873 z"
         id="path1199" /></clipPath><clipPath
       clipPathUnits="userSpaceOnUse"
       id="clipPath1217"><path
         d="m 440.539,1779.82 h 28.565 v -6.17 h -28.565 z"
         id="path1215" /></clipPath><clipPath
       clipPathUnits="userSpaceOnUse"
       id="clipPath1237"><path
         d="m 424.037,1727.64 h 122.907 v -36.55 H 424.037 Z"
         id="path1235" /></clipPath><clipPath
       clipPathUnits="userSpaceOnUse"
       id="clipPath24908"><path
         d="m 480.44803,1694.633 -12.345,-3.567 24.228,-30.028 -3.79905,23.586 12.34402,3.593 -24.252,30.002 z"
         id="path24910"
         style="stroke-width:0.999998" /></clipPath><clipPath
       clipPathUnits="userSpaceOnUse"
       id="clipPath24914"><path
         d="M -447.82801,373.02591 H 1600.172 V -1674.9741 H -447.82801 Z"
         id="path24916"
         style="stroke-width:0.999998" /></clipPath><clipPath
       clipPathUnits="userSpaceOnUse"
       id="clipPath24920"><path
         d="m -517.1222,373.0002 h 2048 v -2048 h -2048 z"
         id="path24922"
         style="stroke-width:0.999998" /></clipPath><clipPath
       clipPathUnits="userSpaceOnUse"
       id="clipPath24984"><path
         d="m 431.14602,1747.836 -4.64505,-2.438 c -1.28295,-0.668 -1.77097,-2.259 -1.10295,-3.543 v 0 c 0.666,-1.282 2.25803,-1.77 3.54098,-1.103 v 0 l 4.64497,2.438 c 1.257,0.668 1.77105,2.259 1.10303,3.542 v 0 c -0.46403,0.894 -1.37798,1.402 -2.32403,1.402 v 0 c -0.411,0 -0.828,-0.096 -1.21695,-0.298"
         id="path24986"
         style="stroke-width:0.999998" /></clipPath><clipPath
       clipPathUnits="userSpaceOnUse"
       id="clipPath24991"><path
         d="m 423.062,1767.802 c -0.43598,-1.385 0.333,-2.848 1.719,-3.285 v 0 l 5.00497,-1.565 c 1.36005,-0.411 2.823,0.333 3.25905,1.719 v 0 c 0.43598,1.386 -0.333,2.849 -1.719,3.285 v 0 l -5.00505,1.566 c -0.25792,0.083 -0.51997,0.123 -0.77895,0.123 v 0 c -1.107,0 -2.14702,-0.719 -2.48002,-1.843"
         id="path24993"
         style="stroke-width:0.999998" /></clipPath><clipPath
       clipPathUnits="userSpaceOnUse"
       id="clipPath25001"><path
         d="M -2.2440947e-6,2048 H 2048 V -1.1811023e-5 H -2.2440947e-6 Z"
         id="path25003"
         style="stroke-width:0.999998" /></clipPath><clipPath
       clipPathUnits="userSpaceOnUse"
       id="clipPath25008"><path
         d="m 445.262,1733.464 -1.566,-5.005 c -0.43597,-1.386 0.333,-2.849 1.719,-3.285 v 0 c 1.386,-0.437 2.84903,0.334 3.285,1.719 v 0 l 1.566,5.005 c 0.43598,1.386 -0.33397,2.848 -1.719,3.285 v 0 c -0.26302,0.083 -0.52897,0.1219 -0.78997,0.1219 v 0 c -1.11405,0 -2.142,-0.719 -2.49503,-1.841"
         id="path25010"
         style="stroke-width:0.999998" /></clipPath><clipPath
       clipPathUnits="userSpaceOnUse"
       id="clipPath25015"><path
         d="m 482.14198,1774.578 -4.64595,-2.438 c -1.284,-0.667 -1.77,-2.259 -1.104,-3.542 v 0 c 0.66795,-1.283 2.259,-1.77 3.54195,-1.103 v 0 l 4.64602,2.438 c 1.28303,0.667 1.77,2.258 1.10303,3.541 v 0 c -0.46403,0.894 -1.37805,1.402 -2.32305,1.402 v 0 c -0.41198,0 -0.82898,-0.096 -1.218,-0.298"
         id="path25017"
         style="stroke-width:0.999998" /></clipPath><clipPath
       clipPathUnits="userSpaceOnUse"
       id="clipPath25021"><path
         d="M -528.33762,305.01491 H 1519.6624 V -1742.9851 H -528.33762 Z"
         id="path25023"
         style="stroke-width:0.999998" /></clipPath><clipPath
       clipPathUnits="userSpaceOnUse"
       id="clipPath25035"><path
         d="m 478.03498,1750.658 c -0.43598,-1.385 0.33397,-2.848 1.71997,-3.285 v 0 l 5.004,-1.565 c 1.386,-0.436 2.84903,0.334 3.28508,1.719 v 0 c 0.43597,1.386 -0.33308,2.85 -1.71908,3.285 v 0 l -5.00497,1.566 c -0.2631,0.083 -0.528,0.1219 -0.789,0.1219 v 0 c -1.11495,0 -2.142,-0.719 -2.496,-1.842"
         id="path25037"
         style="stroke-width:0.999998" /></clipPath><clipPath
       clipPathUnits="userSpaceOnUse"
       id="clipPath25045"><path
         d="M -2.2440947e-6,2048 H 2048 V -1.1811023e-5 H -2.2440947e-6 Z"
         id="path25047"
         style="stroke-width:0.999998" /></clipPath><clipPath
       clipPathUnits="userSpaceOnUse"
       id="clipPath25051"><path
         d="M -528.33762,301.34481 H 1519.6624 V -1746.6552 H -528.33762 Z"
         id="path25053"
         style="stroke-width:0.999998" /></clipPath><clipPath
       clipPathUnits="userSpaceOnUse"
       id="clipPath25061"><path
         d="M -2.2440947e-6,2048 H 2048 V -1.1811023e-5 H -2.2440947e-6 Z"
         id="path25063"
         style="stroke-width:0.999998" /></clipPath><clipPath
       clipPathUnits="userSpaceOnUse"
       id="clipPath25068"><path
         d="m 439.74402,1787.795 c -1.284,-0.667 -1.77202,-2.258 -1.104,-3.541 v 0 l 2.43795,-4.645 c 0.66706,-1.284 2.25803,-1.771 3.54203,-1.105 v 0 c 1.28303,0.668 1.77098,2.259 1.10303,3.543 v 0 l -2.43803,4.645 c -0.48202,0.893 -1.38697,1.413 -2.325,1.413 v 0 c -0.41003,0 -0.82598,-0.099 -1.21598,-0.31"
         id="path25070"
         style="stroke-width:0.999998" /></clipPath><clipPath
       clipPathUnits="userSpaceOnUse"
       id="clipPath25075"><path
         d="m 433.661,1757.742 c 0,-12.09 9.801,-21.891 21.89198,-21.891 v 0 c 12.09105,0 21.89205,9.801 21.89205,21.891 v 0 c 0,12.091 -9.801,21.892 -21.89205,21.892 v 0 c -12.09098,0 -21.89198,-9.801 -21.89198,-21.892"
         id="path25077"
         style="stroke-width:0.999998" /></clipPath><clipPath
       clipPathUnits="userSpaceOnUse"
       id="clipPath25081"><path
         d="m -461.4815,319.33571 h 2048 V -1728.6643 h -2048 z"
         id="path25083"
         style="stroke-width:0.999998" /></clipPath><clipPath
       clipPathUnits="userSpaceOnUse"
       id="clipPath25088"><path
         d="m 466.48603,1736.8 c -1.28303,-0.668 -1.77105,-2.259 -1.10303,-3.541 v 0 l 2.43795,-4.646 c 0.66705,-1.284 2.25803,-1.771 3.54105,-1.103 v 0 c 1.284,0.666 1.77203,2.258 1.104,3.541 v 0 l -2.43802,4.646 c -0.465,0.894 -1.37903,1.401 -2.32395,1.401 v 0 c -0.41198,0 -0.82905,-0.096 -1.218,-0.298"
         id="path25090"
         style="stroke-width:0.999998" /></clipPath><clipPath
       clipPathUnits="userSpaceOnUse"
       id="clipPath25095"><path
         d="m 462.40603,1788.437 -1.566,-5.005 c -0.43605,-1.385 0.333,-2.849 1.71997,-3.285 v 0 c 1.38503,-0.436 2.84798,0.334 3.28403,1.72 v 0 l 1.566,5.005 c 0.43597,1.386 -0.333,2.848 -1.719,3.285 v 0 c -0.26303,0.082 -0.52905,0.121 -0.789,0.121 v 0 c -1.11503,8e-4 -2.14305,-0.718 -2.496,-1.841"
         id="path25097"
         style="stroke-width:0.999998" /></clipPath></defs><g
     id="g25478"
     transform="translate(-369.20157,-90.918621)"><g
       id="g959"
       transform="matrix(0.35277776,0,0,-0.35277778,220,722.48892)"
       clip-path="url(#clipPath24908)"><path
         d="m 480.448,1694.633 -12.345,-3.567 24.228,-30.028 -3.799,23.586 12.344,3.593 -24.252,30.002 z"
         style="fill:url(#linearGradient987);stroke:none"
         id="path989" /></g><path
       d="m 0,0 c 1.437,-3.67 5.569,-5.441 9.239,-4.004 3.67,1.438 5.441,5.57 4.004,9.24 C 11.806,8.906 1.386,15.861 1.386,15.861 1.386,15.861 -1.437,3.67 0,0"
       style="fill:#2cace2;fill-opacity:1;fill-rule:nonzero;stroke:none"
       id="path1001"
       transform="matrix(0.35277776,0,0,-0.35277778,377.98376,131.59528)"
       clip-path="url(#clipPath24914)" /><path
       d="m 0,0 c 1.437,-3.67 5.569,-5.441 9.239,-4.004 3.67,1.438 5.441,5.57 4.004,9.24 C 11.806,8.906 1.386,15.861 1.386,15.861 1.386,15.861 -1.437,3.644 0,0"
       style="fill:#2cace2;fill-opacity:1;fill-rule:nonzero;stroke:none"
       id="path1005"
       transform="matrix(0.35277776,0,0,-0.35277778,402.42921,131.58621)"
       clip-path="url(#clipPath24920)" /><g
       id="g1017"
       transform="matrix(0.35277776,0,0,-0.35277778,220,722.48892)"
       clip-path="url(#clipPath25075)"><path
         d="m 433.661,1757.742 c 0,-12.09 9.801,-21.891 21.892,-21.891 v 0 c 12.091,0 21.892,9.801 21.892,21.891 v 0 c 0,12.091 -9.801,21.892 -21.892,21.892 v 0 c -12.091,0 -21.892,-9.801 -21.892,-21.892"
         style="fill:url(#linearGradient1023);stroke:none"
         id="path1025" /></g><g
       id="g1037"
       transform="matrix(0.35277776,0,0,-0.35277778,220,722.48892)"
       clip-path="url(#clipPath25015)"><path
         d="m 482.142,1774.578 -4.646,-2.438 c -1.284,-0.667 -1.77,-2.259 -1.104,-3.542 v 0 c 0.668,-1.283 2.259,-1.77 3.542,-1.103 v 0 l 4.646,2.438 c 1.283,0.667 1.77,2.258 1.103,3.541 v 0 c -0.464,0.894 -1.378,1.402 -2.323,1.402 v 0 c -0.412,0 -0.829,-0.096 -1.218,-0.298"
         style="fill:url(#linearGradient1043);stroke:none"
         id="path1045" /></g><g
       id="g1057"
       transform="matrix(0.35277776,0,0,-0.35277778,220,722.48892)"
       clip-path="url(#clipPath24984)"><path
         d="m 431.146,1747.836 -4.645,-2.438 c -1.283,-0.668 -1.771,-2.259 -1.103,-3.543 v 0 c 0.666,-1.282 2.258,-1.77 3.541,-1.103 v 0 l 4.645,2.438 c 1.257,0.668 1.771,2.259 1.103,3.542 v 0 c -0.464,0.894 -1.378,1.402 -2.324,1.402 v 0 c -0.411,0 -0.828,-0.096 -1.217,-0.298"
         style="fill:url(#linearGradient1063);stroke:none"
         id="path1065" /></g><g
       id="g1077"
       transform="matrix(0.35277776,0,0,-0.35277778,220,722.48892)"
       clip-path="url(#clipPath25035)"><path
         d="m 478.035,1750.658 c -0.436,-1.385 0.334,-2.848 1.72,-3.285 v 0 l 5.004,-1.565 c 1.386,-0.436 2.849,0.334 3.285,1.719 v 0 c 0.436,1.386 -0.333,2.85 -1.719,3.285 v 0 l -5.005,1.566 c -0.263,0.083 -0.528,0.122 -0.789,0.122 v 0 c -1.115,0 -2.142,-0.719 -2.496,-1.842"
         style="fill:url(#linearGradient1083);stroke:none"
         id="path1085" /></g><g
       id="g1097"
       transform="matrix(0.35277776,0,0,-0.35277778,220,722.48892)"
       clip-path="url(#clipPath24991)"><path
         d="m 423.062,1767.802 c -0.436,-1.385 0.333,-2.848 1.719,-3.285 v 0 l 5.005,-1.565 c 1.36,-0.411 2.823,0.333 3.259,1.719 v 0 c 0.436,1.386 -0.333,2.849 -1.719,3.285 v 0 l -5.005,1.566 c -0.258,0.083 -0.52,0.123 -0.779,0.123 v 0 c -1.107,0 -2.147,-0.719 -2.48,-1.843"
         style="fill:url(#linearGradient1103);stroke:none"
         id="path1105" /></g><g
       id="g1117"
       transform="matrix(0.35277776,0,0,-0.35277778,220,722.48892)"
       clip-path="url(#clipPath25068)"><path
         d="m 439.744,1787.795 c -1.284,-0.667 -1.772,-2.258 -1.104,-3.541 v 0 l 2.438,-4.645 c 0.667,-1.284 2.258,-1.771 3.542,-1.105 v 0 c 1.283,0.668 1.771,2.259 1.103,3.543 v 0 l -2.438,4.645 c -0.482,0.893 -1.387,1.413 -2.325,1.413 v 0 c -0.41,0 -0.826,-0.099 -1.216,-0.31"
         style="fill:url(#linearGradient1123);stroke:none"
         id="path1125" /></g><g
       id="g1137"
       transform="matrix(0.35277776,0,0,-0.35277778,220,722.48892)"
       clip-path="url(#clipPath25088)"><path
         d="m 466.486,1736.8 c -1.283,-0.668 -1.771,-2.259 -1.103,-3.541 v 0 l 2.438,-4.646 c 0.667,-1.284 2.258,-1.771 3.541,-1.103 v 0 c 1.284,0.666 1.772,2.258 1.104,3.541 v 0 l -2.438,4.646 c -0.465,0.894 -1.379,1.401 -2.324,1.401 v 0 c -0.412,0 -0.829,-0.096 -1.218,-0.298"
         style="fill:url(#linearGradient1143);stroke:none"
         id="path1145" /></g><g
       id="g1157"
       transform="matrix(0.35277776,0,0,-0.35277778,220,722.48892)"
       clip-path="url(#clipPath25008)"><path
         d="m 445.262,1733.464 -1.566,-5.005 c -0.436,-1.386 0.333,-2.849 1.719,-3.285 v 0 c 1.386,-0.437 2.849,0.334 3.285,1.719 v 0 l 1.566,5.005 c 0.436,1.386 -0.334,2.848 -1.719,3.285 v 0 c -0.263,0.083 -0.529,0.122 -0.79,0.122 v 0 c -1.114,0 -2.142,-0.719 -2.495,-1.841"
         style="fill:url(#linearGradient1163);stroke:none"
         id="path1165" /></g><g
       id="g1177"
       transform="matrix(0.35277776,0,0,-0.35277778,220,722.48892)"
       clip-path="url(#clipPath25095)"><path
         d="m 462.406,1788.437 -1.566,-5.005 c -0.436,-1.385 0.333,-2.849 1.72,-3.285 v 0 c 1.385,-0.436 2.848,0.334 3.284,1.72 v 0 l 1.566,5.005 c 0.436,1.386 -0.333,2.848 -1.719,3.285 v 0 c -0.263,0.082 -0.529,0.121 -0.789,0.121 v 0 c -1.115,10e-4 -2.143,-0.718 -2.496,-1.841"
         style="fill:url(#linearGradient1183);stroke:none"
         id="path1185" /></g><g
       id="g1209"
       transform="matrix(0.35277776,0,0,-0.35277778,220,722.48892)"
       clip-path="url(#clipPath25001)"><g
         clip-path="url(#clipPath1201)"
         opacity="0.5"
         id="g1207"><g
           transform="translate(454.5778,1735.953)"
           id="g1205"><path
             d="M 0,0 C 5.672,-0.18 12.242,1.874 16.143,6.16 11.985,4.029 6.544,1.54 0.308,1.745 -5.928,1.951 -9.265,3.388 -12.73,4.928 -9.855,2.567 -5.749,0.18 0,0"
             style="fill:#d48129;fill-opacity:1;fill-rule:nonzero;stroke:none"
             id="path1203" /></g></g></g><g
       id="g1225"
       transform="matrix(0.35277776,0,0,-0.35277778,220,722.48892)"
       clip-path="url(#clipPath25045)"><g
         clip-path="url(#clipPath1217)"
         opacity="0.199997"
         id="g1223"><g
           transform="translate(456.5026,1779.8137)"
           id="g1221"><path
             d="m 0,0 c -5.621,0.18 -12.114,-1.874 -15.963,-6.16 4.106,2.131 9.496,4.62 15.681,4.441 C 5.903,-1.925 9.162,-3.362 12.601,-4.902 9.727,-2.566 5.698,-0.18 0,0"
             style="fill:#d48129;fill-opacity:1;fill-rule:nonzero;stroke:none"
             id="path1219" /></g></g></g><path
       d="m 0,0 c -3.08,0 -6.031,-0.642 -8.726,-1.745 -6.057,11.857 -18.273,20.069 -32.517,20.069 -14.244,0 -26.46,-8.212 -32.517,-20.069 -2.695,1.103 -5.62,1.745 -8.726,1.745 -12.652,0 -22.918,-10.266 -22.918,-22.918 0,-12.653 10.266,-22.919 22.918,-22.919 4.902,0 9.445,1.566 13.166,4.209 6.724,-8.11 16.733,-13.371 28.077,-13.371 11.344,0 21.353,5.261 28.077,13.371 3.721,-2.618 8.264,-4.209 13.166,-4.209 12.653,0 22.918,10.266 22.918,22.919 C 22.918,-10.266 12.653,0 0,0"
       style="fill:#bdc5d2;fill-opacity:1;fill-rule:nonzero;stroke:none"
       id="path1229"
       transform="matrix(0.35277776,0,0,-0.35277778,406.38576,106.30778)"
       clip-path="url(#clipPath25051)" /><g
       id="g1245"
       transform="matrix(0.35277776,0,0,-0.35277778,220,722.48892)"
       clip-path="url(#clipPath25061)"><g
         clip-path="url(#clipPath1237)"
         opacity="0.0500031"
         id="g1243"><g
           transform="translate(490.1231,1726.8422)"
           id="g1241"><path
             d="m 0,0 c -24.689,2.489 -47.813,-0.95 -66.086,-8.649 2.284,-10.266 11.421,-17.94 22.354,-17.94 4.902,0 9.444,1.566 13.166,4.209 6.724,-8.11 16.733,-13.371 28.077,-13.371 11.343,0 21.352,5.261 28.077,13.371 3.721,-2.617 8.264,-4.209 13.165,-4.209 7.341,0 13.859,3.465 18.068,8.855 C 41.269,-8.649 21.687,-2.182 0,0"
             style="fill:#a8a9ad;fill-opacity:1;fill-rule:nonzero;stroke:none"
             id="path1239" /></g></g></g><path
       d="m 0,0 c -3.08,0 -6.031,-0.642 -8.726,-1.745 -6.082,11.857 -18.273,20.069 -32.517,20.069 -14.244,0 -26.46,-8.212 -32.517,-20.069 -2.695,1.103 -5.62,1.745 -8.726,1.745 -12.652,0 -22.918,-10.266 -22.918,-22.918 0,-12.653 10.266,-22.919 22.918,-22.919 4.902,0 9.445,1.566 13.166,4.209 6.724,-8.11 16.733,-13.371 28.077,-13.371 11.344,0 21.353,5.261 28.077,13.371 3.721,-2.618 8.264,-4.209 13.166,-4.209 12.653,0 22.918,10.266 22.918,22.919 C 22.918,-10.266 12.653,0 0,0"
       style="fill:#d3dee2;fill-opacity:1;fill-rule:nonzero;stroke:none"
       id="path1249"
       transform="matrix(0.35277776,0,0,-0.35277778,406.38576,107.60251)"
       clip-path="url(#clipPath25021)" /><path
       d="m 0,0 c 1.925,0 3.721,-0.385 5.39,-1.078 3.747,7.34 11.292,12.396 20.095,12.396 8.803,0 16.348,-5.082 20.095,-12.396 1.668,0.693 3.491,1.078 5.39,1.078 7.16,0 13.063,-5.312 14.013,-12.216 0.077,0.641 0.154,1.283 0.154,1.924 0,7.828 -6.34,14.167 -14.167,14.167 -1.899,0 -3.722,-0.385 -5.39,-1.078 C 41.833,10.137 34.288,15.193 25.485,15.193 16.682,15.193 9.137,10.112 5.39,2.797 3.721,3.49 1.925,3.875 0,3.875 c -7.828,0 -14.167,-6.339 -14.167,-14.167 0,-0.667 0.052,-1.308 0.154,-1.924 C -13.089,-5.312 -7.186,0 0,0"
       style="fill:#bdc5d2;fill-opacity:1;fill-rule:nonzero;stroke:none"
       id="path1253"
       transform="matrix(0.35277776,0,0,-0.35277778,382.80041,112.65457)"
       clip-path="url(#clipPath25081)" /></g></svg>
