<?xml version="1.0" encoding="UTF-8" standalone="no"?>
<!-- Created with Inkscape (http://www.inkscape.org/) -->

<svg
   width="45.269146mm"
   height="35.328053mm"
   viewBox="0 0 45.269146 35.328053"
   version="1.1"
   id="svg5"
   xml:space="preserve"
   xmlns="http://www.w3.org/2000/svg"
   xmlns:svg="http://www.w3.org/2000/svg"><defs
     id="defs2"><clipPath
       clipPathUnits="userSpaceOnUse"
       id="clipPath1643"><path
         d="M 135.375,287.577 H 258.283 V 251.026 H 135.375 Z"
         id="path1641" /></clipPath><clipPath
       clipPathUnits="userSpaceOnUse"
       id="clipPath25224"><path
         d="m -223.6101,1810.9358 h 2048 V -237.06421 h -2048 z"
         id="path25226"
         style="stroke-width:0.999998" /></clipPath><clipPath
       clipPathUnits="userSpaceOnUse"
       id="clipPath25256"><path
         d="M -2.2440947e-6,2048 H 2048 V -1.1811023e-5 H -2.2440947e-6 Z"
         id="path25258"
         style="stroke-width:0.999998" /></clipPath><clipPath
       clipPathUnits="userSpaceOnUse"
       id="clipPath25268"><path
         d="M -239.67611,1741.4106 H 1808.3239 V -306.58942 H -239.67611 Z"
         id="path25270"
         style="stroke-width:0.999998" /></clipPath><clipPath
       clipPathUnits="userSpaceOnUse"
       id="clipPath25280"><path
         d="m -173.2563,1808.318 h 2048 v -2048 h -2048 z"
         id="path25282"
         style="stroke-width:0.999998" /></clipPath><clipPath
       clipPathUnits="userSpaceOnUse"
       id="clipPath25286"><path
         d="M -239.67611,1745.0806 H 1808.3239 v -2048 H -239.67611 Z"
         id="path25288"
         style="stroke-width:0.999998" /></clipPath><clipPath
       clipPathUnits="userSpaceOnUse"
       id="clipPath25292"><path
         d="m -172.82,1759.4014 h 2048 v -2048 h -2048 z"
         id="path25294"
         style="stroke-width:0.999998" /></clipPath><clipPath
       clipPathUnits="userSpaceOnUse"
       id="clipPath25298"><path
         d="m -223.6101,1818.4041 h 2048 V -229.59591 h -2048 z"
         id="path25300"
         style="stroke-width:0.999998" /></clipPath></defs><g
     id="g27218"
     transform="translate(-267.36821,-607.86669)"><path
       d="m 0,0 c -3.08,0 -6.031,-0.642 -8.726,-1.745 -6.057,11.857 -18.273,20.069 -32.517,20.069 -14.244,0 -26.46,-8.212 -32.517,-20.069 -2.695,1.103 -5.62,1.745 -8.726,1.745 -12.652,0 -22.918,-10.266 -22.918,-22.918 0,-12.653 10.266,-22.919 22.918,-22.919 4.902,0 9.445,1.566 13.166,4.209 6.724,-8.11 16.733,-13.371 28.077,-13.371 11.344,0 21.353,5.261 28.077,13.371 3.721,-2.618 8.264,-4.209 13.166,-4.209 12.653,0 22.918,10.266 22.918,22.919 C 22.918,-10.266 12.653,0 0,0"
       style="fill:#bdc5d2;fill-opacity:1;fill-rule:nonzero;stroke:none"
       id="path1635"
       transform="matrix(0.35277776,0,0,-0.35277778,304.5524,614.33099)"
       clip-path="url(#clipPath25268)" /><g
       id="g1651"
       transform="matrix(0.35277776,0,0,-0.35277778,220,722.48892)"
       clip-path="url(#clipPath25256)"><g
         clip-path="url(#clipPath1643)"
         opacity="0.0500031"
         id="g1649"><g
           transform="translate(201.4616,286.7764)"
           id="g1647"><path
             d="m 0,0 c -24.689,2.489 -47.813,-0.95 -66.086,-8.649 2.284,-10.266 11.421,-17.939 22.354,-17.939 4.902,0 9.444,1.565 13.166,4.209 6.724,-8.11 16.733,-13.372 28.077,-13.372 11.343,0 21.352,5.262 28.077,13.372 3.721,-2.618 8.264,-4.209 13.165,-4.209 7.34,0 13.859,3.464 18.068,8.854 C 41.269,-8.649 21.687,-2.181 0,0"
             style="fill:#a8a9ad;fill-opacity:1;fill-rule:nonzero;stroke:none"
             id="path1645" /></g></g></g><path
       d="m 0,0 c -3.08,0 -6.031,-0.642 -8.726,-1.745 -6.082,11.857 -18.273,20.069 -32.517,20.069 -14.244,0 -26.46,-8.212 -32.517,-20.069 -2.695,1.103 -5.62,1.745 -8.726,1.745 -12.652,0 -22.918,-10.266 -22.918,-22.918 0,-12.653 10.266,-22.919 22.918,-22.919 4.902,0 9.445,1.566 13.166,4.209 6.724,-8.11 16.733,-13.371 28.077,-13.371 11.344,0 21.353,5.261 28.077,13.371 3.721,-2.618 8.264,-4.209 13.166,-4.209 12.653,0 22.918,10.266 22.918,22.919 C 22.918,-10.266 12.653,0 0,0"
       style="fill:#d3dee2;fill-opacity:1;fill-rule:nonzero;stroke:none"
       id="path1655"
       transform="matrix(0.35277776,0,0,-0.35277778,304.5524,615.62569)"
       clip-path="url(#clipPath25286)" /><path
       d="m 0,0 c 1.925,0 3.721,-0.385 5.39,-1.078 3.747,7.34 11.292,12.396 20.095,12.396 8.803,0 16.348,-5.082 20.095,-12.396 1.668,0.693 3.491,1.078 5.39,1.078 7.16,0 13.063,-5.313 14.013,-12.216 0.077,0.641 0.154,1.283 0.154,1.925 0,7.827 -6.34,14.166 -14.167,14.166 -1.899,0 -3.722,-0.385 -5.39,-1.078 C 41.833,10.137 34.288,15.193 25.485,15.193 16.682,15.193 9.137,10.112 5.39,2.797 3.721,3.49 1.925,3.875 0,3.875 c -7.828,0 -14.167,-6.339 -14.167,-14.166 0,-0.668 0.052,-1.309 0.154,-1.925 C -13.089,-5.313 -7.186,0 0,0"
       style="fill:#bdc5d2;fill-opacity:1;fill-rule:nonzero;stroke:none"
       id="path1659"
       transform="matrix(0.35277776,0,0,-0.35277778,280.96705,620.67775)"
       clip-path="url(#clipPath25292)" /><path
       d="m 0,0 h 50.354 c 1.54,0 2.797,1.078 2.797,2.412 0,1.335 -1.257,2.413 -2.797,2.413 L 0,4.825 C -1.54,4.825 -2.797,3.747 -2.797,2.412 -2.797,1.078 -1.54,0 0,0"
       style="fill:#b7cad1;fill-opacity:1;fill-rule:nonzero;stroke:none"
       id="path1663"
       transform="matrix(0.35277776,0,0,-0.35277778,281.12097,637.93444)"
       clip-path="url(#clipPath25280)" /><path
       d="m 0,0 h -50.354 c -1.54,0 -2.797,-1.078 -2.797,-2.412 0,-1.335 1.257,-2.413 2.797,-2.413 H 0 c 1.54,0 2.797,1.078 2.797,2.413 C 2.797,-1.078 1.54,0 0,0"
       style="fill:#b7cad1;fill-opacity:1;fill-rule:nonzero;stroke:none"
       id="path1667"
       transform="matrix(0.35277776,0,0,-0.35277778,298.88467,638.85794)"
       clip-path="url(#clipPath25224)" /><path
       d="m 0,0 h -50.354 c -1.54,0 -2.797,-1.078 -2.797,-2.412 0,-1.335 1.257,-2.413 2.797,-2.413 H 0 c 1.54,0 2.797,1.078 2.797,2.413 C 2.797,-1.078 1.54,0 0,0"
       style="fill:#b7cad1;fill-opacity:1;fill-rule:nonzero;stroke:none"
       id="path1671"
       transform="matrix(0.35277776,0,0,-0.35277778,298.88467,641.49259)"
       clip-path="url(#clipPath25298)" /></g></svg>
