<?xml version="1.0" encoding="UTF-8" standalone="no"?>
<!-- Created with Inkscape (http://www.inkscape.org/) -->

<svg
   width="45.269146mm"
   height="32.693432mm"
   viewBox="0 0 45.269146 32.693432"
   version="1.1"
   id="svg5"
   xml:space="preserve"
   xmlns="http://www.w3.org/2000/svg"
   xmlns:svg="http://www.w3.org/2000/svg"><defs
     id="defs2"><clipPath
       clipPathUnits="userSpaceOnUse"
       id="clipPath1711"><path
         d="m 979.437,283.842 h 122.903 v -36.55 H 979.437 Z"
         id="path1709" /></clipPath><clipPath
       clipPathUnits="userSpaceOnUse"
       id="clipPath25218"><path
         d="M -2.2440947e-6,2048 H 2048 V -1.1811023e-5 H -2.2440947e-6 Z"
         id="path25220"
         style="stroke-width:0.999998" /></clipPath><clipPath
       clipPathUnits="userSpaceOnUse"
       id="clipPath25310"><path
         d="M -1083.7378,1745.1447 H 964.26222 V -302.85531 H -1083.7378 Z"
         id="path25312"
         style="stroke-width:0.999998" /></clipPath><clipPath
       clipPathUnits="userSpaceOnUse"
       id="clipPath25316"><path
         d="M -1083.7378,1748.8148 H 964.26222 V -299.18521 H -1083.7378 Z"
         id="path25318"
         style="stroke-width:0.999998" /></clipPath><clipPath
       clipPathUnits="userSpaceOnUse"
       id="clipPath25322"><path
         d="m -1017.3181,1812.0522 h 2048 V -235.94781 h -2048 z"
         id="path25324"
         style="stroke-width:0.999998" /></clipPath><clipPath
       clipPathUnits="userSpaceOnUse"
       id="clipPath25328"><path
         d="m -1016.8818,1763.1356 h 2048 V -284.86441 h -2048 z"
         id="path25330"
         style="stroke-width:0.999998" /></clipPath><clipPath
       clipPathUnits="userSpaceOnUse"
       id="clipPath25341"><path
         d="M -1067.6719,1814.67 H 980.32811 V -233.33001 H -1067.6719 Z"
         id="path25343"
         style="stroke-width:0.999998" /></clipPath></defs><g
     id="g27134"
     transform="translate(-565.1344,-609.184)"><path
       d="m 0,0 c -3.08,0 -6.031,-0.642 -8.726,-1.745 -6.057,11.857 -18.273,20.069 -32.517,20.069 -14.244,0 -26.46,-8.212 -32.517,-20.069 -2.695,1.103 -5.62,1.745 -8.726,1.745 -12.652,0 -22.918,-10.266 -22.918,-22.918 0,-12.653 10.266,-22.919 22.918,-22.919 4.902,0 9.445,1.566 13.166,4.209 6.724,-8.11 16.733,-13.371 28.077,-13.371 11.344,0 21.353,5.261 28.077,13.371 3.722,-2.618 8.264,-4.209 13.166,-4.209 12.653,0 22.918,10.266 22.918,22.919 C 22.918,-10.266 12.653,0 0,0"
       style="fill:#bdc5d2;fill-opacity:1;fill-rule:nonzero;stroke:none"
       id="path1703"
       transform="matrix(0.35277776,0,0,-0.35277778,602.31859,615.6483)"
       clip-path="url(#clipPath25310)" /><g
       id="g1719"
       transform="matrix(0.35277776,0,0,-0.35277778,220,722.48892)"
       clip-path="url(#clipPath25218)"><g
         clip-path="url(#clipPath1711)"
         opacity="0.0500031"
         id="g1717"><g
           transform="translate(1045.5233,283.0422)"
           id="g1715"><path
             d="m 0,0 c -24.689,2.489 -47.813,-0.95 -66.086,-8.649 2.284,-10.266 11.421,-17.939 22.354,-17.939 4.902,0 9.444,1.565 13.166,4.209 6.724,-8.11 16.733,-13.372 28.077,-13.372 11.343,0 21.352,5.262 28.077,13.372 3.721,-2.618 8.264,-4.209 13.165,-4.209 7.341,0 13.859,3.464 18.068,8.854 C 41.269,-8.649 21.687,-2.181 0,0"
             style="fill:#a8a9ad;fill-opacity:1;fill-rule:nonzero;stroke:none"
             id="path1713" /></g></g></g><path
       d="m 0,0 c -3.08,0 -6.031,-0.642 -8.726,-1.745 -6.082,11.857 -18.273,20.069 -32.517,20.069 -14.244,0 -26.46,-8.212 -32.517,-20.069 -2.695,1.103 -5.62,1.745 -8.726,1.745 -12.652,0 -22.918,-10.266 -22.918,-22.918 0,-12.653 10.266,-22.919 22.918,-22.919 4.902,0 9.445,1.566 13.166,4.209 6.724,-8.11 16.733,-13.371 28.077,-13.371 11.344,0 21.353,5.261 28.077,13.371 3.722,-2.618 8.264,-4.209 13.166,-4.209 12.653,0 22.918,10.266 22.918,22.919 C 22.918,-10.266 12.653,0 0,0"
       style="fill:#d3dee2;fill-opacity:1;fill-rule:nonzero;stroke:none"
       id="path1723"
       transform="matrix(0.35277776,0,0,-0.35277778,602.31859,616.94303)"
       clip-path="url(#clipPath25316)" /><path
       d="m 0,0 c 1.925,0 3.721,-0.385 5.39,-1.078 3.747,7.34 11.292,12.396 20.095,12.396 8.803,0 16.348,-5.082 20.095,-12.396 1.668,0.693 3.49,1.078 5.39,1.078 7.16,0 13.063,-5.313 14.013,-12.216 0.077,0.641 0.154,1.283 0.154,1.925 0,7.827 -6.34,14.166 -14.167,14.166 -1.9,0 -3.722,-0.385 -5.39,-1.078 C 41.833,10.137 34.288,15.193 25.485,15.193 16.682,15.193 9.137,10.112 5.39,2.797 3.721,3.49 1.925,3.875 0,3.875 c -7.828,0 -14.167,-6.339 -14.167,-14.166 0,-0.668 0.051,-1.309 0.154,-1.925 C -13.089,-5.313 -7.186,0 0,0"
       style="fill:#bdc5d2;fill-opacity:1;fill-rule:nonzero;stroke:none"
       id="path1727"
       transform="matrix(0.35277776,0,0,-0.35277778,578.73328,621.99509)"
       clip-path="url(#clipPath25328)" /><path
       d="m 0,0 h 50.354 c 1.54,0 2.797,1.078 2.797,2.412 0,1.335 -1.257,2.413 -2.797,2.413 L 0,4.825 C -1.54,4.825 -2.797,3.747 -2.797,2.412 -2.797,1.078 -1.54,0 0,0"
       style="fill:#b7cad1;fill-opacity:1;fill-rule:nonzero;stroke:none"
       id="path1731"
       transform="matrix(0.35277776,0,0,-0.35277778,578.8872,639.25178)"
       clip-path="url(#clipPath25322)" /><path
       d="m 0,0 h -50.354 c -1.54,0 -2.797,-1.078 -2.797,-2.412 0,-1.335 1.257,-2.413 2.797,-2.413 H 0 c 1.54,0 2.797,1.078 2.797,2.413 C 2.797,-1.078 1.54,0 0,0"
       style="fill:#b7cad1;fill-opacity:1;fill-rule:nonzero;stroke:none"
       id="path1735"
       transform="matrix(0.35277776,0,0,-0.35277778,596.6509,640.17528)"
       clip-path="url(#clipPath25341)" /></g></svg>
