<?xml version="1.0" encoding="UTF-8" standalone="no"?>
<!-- Created with Inkscape (http://www.inkscape.org/) -->

<svg
   width="45.269852mm"
   height="43.069176mm"
   viewBox="0 0 45.269852 43.069176"
   version="1.1"
   id="svg5"
   xml:space="preserve"
   xmlns="http://www.w3.org/2000/svg"
   xmlns:svg="http://www.w3.org/2000/svg"><defs
     id="defs2"><linearGradient
       x1="0"
       y1="0"
       x2="1"
       y2="0"
       gradientUnits="userSpaceOnUse"
       gradientTransform="matrix(0,-65.1334,65.1334,0,1863.9076,1335.4977)"
       spreadMethod="pad"
       id="linearGradient6487"><stop
         style="stop-opacity:1;stop-color:#fdda00"
         offset="0"
         id="stop6481" /><stop
         style="stop-opacity:1;stop-color:#e2a026"
         offset="0.7755"
         id="stop6483" /><stop
         style="stop-opacity:1;stop-color:#e2a026"
         offset="1"
         id="stop6485" /></linearGradient><clipPath
       clipPathUnits="userSpaceOnUse"
       id="clipPath6505"><path
         d="m 1845.11,1278.19 h 37.08 v -7.26 h -37.08 z"
         id="path6503" /></clipPath><clipPath
       clipPathUnits="userSpaceOnUse"
       id="clipPath6521"><path
         d="m 1836.05,1323.28 h 39.89 v -32.61 h -39.89 z"
         id="path6519" /></clipPath><clipPath
       clipPathUnits="userSpaceOnUse"
       id="clipPath6537"><path
         d="m 1881.09,1316.55 h 10.64 v -9.03 h -10.64 z"
         id="path6535" /></clipPath><clipPath
       clipPathUnits="userSpaceOnUse"
       id="clipPath6553"><path
         d="m 1880.37,1322.16 h 3.86 v -3.29 h -3.86 z"
         id="path6551" /></clipPath><clipPath
       clipPathUnits="userSpaceOnUse"
       id="clipPath6569"><path
         d="m 1876.77,1307.87 h 3.86 v -3.3 h -3.86 z"
         id="path6567" /></clipPath><clipPath
       clipPathUnits="userSpaceOnUse"
       id="clipPath6589"><path
         d="m 1831.99,1273.11 h 122.91 v -36.55 h -122.91 z"
         id="path6587" /></clipPath><linearGradient
       x1="0"
       y1="0"
       x2="1"
       y2="0"
       gradientUnits="userSpaceOnUse"
       gradientTransform="matrix(0,-14.654487,14.654487,0,1846.0591,1328.6486)"
       spreadMethod="pad"
       id="linearGradient6625"><stop
         style="stop-opacity:1;stop-color:#fdda00"
         offset="0"
         id="stop6619" /><stop
         style="stop-opacity:1;stop-color:#e2a026"
         offset="0.7755"
         id="stop6621" /><stop
         style="stop-opacity:1;stop-color:#e2a026"
         offset="1"
         id="stop6623" /></linearGradient><radialGradient
       fx="0"
       fy="0"
       cx="0"
       cy="0"
       r="1"
       gradientUnits="userSpaceOnUse"
       gradientTransform="matrix(8.2126722,0,0,8.2126722,1925.722,1229.7628)"
       spreadMethod="pad"
       id="radialGradient6657"><stop
         style="stop-opacity:1;stop-color:#ceebfb"
         offset="0"
         id="stop6653" /><stop
         style="stop-opacity:1;stop-color:#e2f4fd"
         offset="1"
         id="stop6655" /></radialGradient><radialGradient
       fx="0"
       fy="0"
       cx="0"
       cy="0"
       r="1"
       gradientUnits="userSpaceOnUse"
       gradientTransform="matrix(8.2035685,0,0,8.2035685,1862.587,1228.6262)"
       spreadMethod="pad"
       id="radialGradient6677"><stop
         style="stop-opacity:1;stop-color:#ceebfb"
         offset="0"
         id="stop6673" /><stop
         style="stop-opacity:1;stop-color:#e2f4fd"
         offset="1"
         id="stop6675" /></radialGradient><clipPath
       clipPathUnits="userSpaceOnUse"
       id="clipPath24407"><path
         d="m 1875.496,1335.398 c -0.872,-0.385 -0.949,-1.642 -0.513,-3.028 v 0 -0.1539 c 2.284,-10.908 -0.719,-22.687 -9.188,-31.157 v 0 c -9.188,-9.188 -22.303,-11.934 -33.954,-8.444 v 0 c -0.385,-0.4871 -0.565,-1.257 -0.539,-2.1821 v 0 c 1.642,-3.6439 3.875,-7.0829 6.853,-10.0599 v 0 c 13.371,-13.345 35.006,-13.345 48.351,0 v 0 c 13.346,13.346 13.346,35.007 0,48.353 v 0 c -1.976,1.975 -4.157,3.618 -6.441,4.979 v 0 c -1.398,1.079 -3.006,1.793 -4.015,1.793 v 0 c -0.214,0 -0.401,-0.032 -0.554,-0.1001"
         id="path24409"
         style="stroke-width:0.999998" /></clipPath><clipPath
       clipPathUnits="userSpaceOnUse"
       id="clipPath24423"><path
         d="M -2.2440947e-6,2048 H 2048 V -1.1811023e-5 H -2.2440947e-6 Z"
         id="path24425"
         style="stroke-width:0.999998" /></clipPath><clipPath
       clipPathUnits="userSpaceOnUse"
       id="clipPath24433"><path
         d="M -2.2440947e-6,2048 H 2048 V -1.1811023e-5 H -2.2440947e-6 Z"
         id="path24435"
         style="stroke-width:0.999998" /></clipPath><clipPath
       clipPathUnits="userSpaceOnUse"
       id="clipPath24450"><path
         d="M -2.2440947e-6,2048 H 2048 V -1.1811023e-5 H -2.2440947e-6 Z"
         id="path24452"
         style="stroke-width:0.999998" /></clipPath><clipPath
       clipPathUnits="userSpaceOnUse"
       id="clipPath24460"><path
         d="M -2.2440947e-6,2048 H 2048 V -1.1811023e-5 H -2.2440947e-6 Z"
         id="path24462"
         style="stroke-width:0.999998" /></clipPath><clipPath
       clipPathUnits="userSpaceOnUse"
       id="clipPath24467"><path
         d="m 1846.059,1325.337 -4.748,3.311 1.668,-5.543 -4.619,-3.516 5.8,-0.1029 1.899,-5.492 1.925,5.492 5.775,0.1029 -4.62,3.516 1.694,5.543 z"
         id="path24469"
         style="stroke-width:0.999998" /></clipPath><clipPath
       clipPathUnits="userSpaceOnUse"
       id="clipPath24477"><path
         d="M -2.2440947e-6,2048 H 2048 V -1.1811023e-5 H -2.2440947e-6 Z"
         id="path24479"
         style="stroke-width:0.999998" /></clipPath><clipPath
       clipPathUnits="userSpaceOnUse"
       id="clipPath24483"><path
         d="M -1936.2958,755.87219 H 111.70419 V -1292.1278 H -1936.2958 Z"
         id="path24485"
         style="stroke-width:0.999998" /></clipPath><clipPath
       clipPathUnits="userSpaceOnUse"
       id="clipPath24493"><path
         d="M -2.2440947e-6,2048 H 2048 V -1.1811023e-5 H -2.2440947e-6 Z"
         id="path24495"
         style="stroke-width:0.999998" /></clipPath><clipPath
       clipPathUnits="userSpaceOnUse"
       id="clipPath24499"><path
         d="m -1877.9529,831.27269 h 2048 V -1216.7273 h -2048 z"
         id="path24501"
         style="stroke-width:0.999998" /></clipPath><clipPath
       clipPathUnits="userSpaceOnUse"
       id="clipPath24515"><path
         d="M -1936.2958,759.54221 H 111.70419 V -1288.4578 H -1936.2958 Z"
         id="path24517"
         style="stroke-width:0.999998" /></clipPath><clipPath
       clipPathUnits="userSpaceOnUse"
       id="clipPath24522"><path
         d="m 1861.432,1235.666 v -4.286 l -3.028,3.028 c -0.437,0.436 -1.181,0.436 -1.618,0 v 0 c -0.435,-0.436 -0.435,-1.18 0,-1.617 v 0 l 3.029,-3.028 h -4.286 c -0.642,0 -1.155,-0.513 -1.155,-1.155 v 0 c 0,-0.642 0.513,-1.155 1.155,-1.155 v 0 h 4.286 l -3.029,-3.028 c -0.435,-0.437 -0.435,-1.181 0,-1.618 v 0 c 0.437,-0.436 1.181,-0.436 1.618,0 v 0 l 3.028,3.029 v -4.286 c 0,-0.642 0.513,-1.154 1.155,-1.154 v 0 c 0.642,0 1.155,0.512 1.155,1.154 v 0 4.286 l 3.028,-3.029 c 0.437,-0.436 1.181,-0.436 1.617,0 v 0 c 0.437,0.437 0.437,1.181 0,1.618 v 0 l -3.028,3.028 h 4.286 c 0.641,0 1.154,0.513 1.154,1.155 v 0 c 0,0.642 -0.539,1.155 -1.154,1.155 v 0 h -4.286 l 3.028,3.028 c 0.437,0.437 0.437,1.181 0,1.617 v 0 c -0.436,0.436 -1.18,0.436 -1.617,0 v 0 l -3.028,-3.028 v 4.286 c 0,0.641 -0.513,1.154 -1.155,1.154 v 0 c -0.642,0 -1.155,-0.513 -1.155,-1.154"
         id="path24524"
         style="stroke-width:0.999998" /></clipPath><clipPath
       clipPathUnits="userSpaceOnUse"
       id="clipPath24528"><path
         d="M -1903.6174,831.27269 H 144.38261 V -1216.7273 H -1903.6174 Z"
         id="path24530"
         style="stroke-width:0.999998" /></clipPath><clipPath
       clipPathUnits="userSpaceOnUse"
       id="clipPath24545"><path
         d="m 1924.567,1236.82 v -4.285 l -3.028,3.028 c -0.437,0.437 -1.181,0.437 -1.618,0 v 0 c -0.435,-0.436 -0.435,-1.181 0,-1.617 v 0 l 3.029,-3.029 h -4.286 c -0.642,0 -1.155,-0.513 -1.155,-1.154 v 0 c 0,-0.642 0.513,-1.155 1.155,-1.155 v 0 h 4.286 l -3.029,-3.029 c -0.435,-0.436 -0.435,-1.18 0,-1.617 v 0 c 0.437,-0.435 1.181,-0.435 1.618,0 v 0 l 3.028,3.029 v -4.286 c 0,-0.642 0.513,-1.155 1.155,-1.155 v 0 c 0.642,0 1.155,0.513 1.155,1.155 v 0 4.286 l 3.028,-3.029 c 0.437,-0.435 1.181,-0.435 1.617,0 v 0 c 0.436,0.437 0.436,1.181 0,1.617 v 0 l -3.028,3.029 h 4.286 c 0.641,0 1.154,0.513 1.154,1.155 v 0 c 0,0.641 -0.513,1.154 -1.154,1.154 v 0 h -4.286 l 3.028,3.029 c 0.436,0.436 0.436,1.181 0,1.617 v 0 c -0.436,0.437 -1.18,0.437 -1.617,0 v 0 l -3.028,-3.028 v 4.285 c 0,0.642 -0.513,1.155 -1.155,1.155 v 0 c -0.642,0 -1.155,-0.513 -1.155,-1.155"
         id="path24547"
         style="stroke-width:0.999998" /></clipPath><clipPath
       clipPathUnits="userSpaceOnUse"
       id="clipPath24551"><path
         d="M -1869.4396,773.86301 H 178.56042 V -1274.137 H -1869.4396 Z"
         id="path24553"
         style="stroke-width:0.999998" /></clipPath></defs><g
     id="g25753"
     transform="translate(-865.89756,-251.3549)"><g
       id="g6479"
       transform="matrix(0.35277776,0,0,-0.35277778,220,722.48892)"
       clip-path="url(#clipPath24407)"><path
         d="m 1875.496,1335.398 c -0.872,-0.385 -0.949,-1.642 -0.513,-3.028 v 0 -0.154 c 2.284,-10.908 -0.719,-22.687 -9.188,-31.157 v 0 c -9.188,-9.188 -22.303,-11.934 -33.954,-8.444 v 0 c -0.385,-0.487 -0.565,-1.257 -0.539,-2.182 v 0 c 1.642,-3.644 3.875,-7.083 6.853,-10.06 v 0 c 13.371,-13.345 35.006,-13.345 48.351,0 v 0 c 13.346,13.346 13.346,35.007 0,48.353 v 0 c -1.976,1.975 -4.157,3.618 -6.441,4.979 v 0 c -1.398,1.079 -3.006,1.793 -4.015,1.793 v 0 c -0.214,0 -0.401,-0.032 -0.554,-0.1"
         style="fill:url(#linearGradient6487);stroke:none"
         id="path6489" /></g><g
       id="g6513"
       transform="matrix(0.35277776,0,0,-0.35277778,220,722.48892)"
       clip-path="url(#clipPath24450)"><g
         clip-path="url(#clipPath6505)"
         opacity="0.5"
         id="g6511"><g
           transform="translate(1866.3341,1271.1598)"
           id="g6509"><path
             d="m 0,0 c -7.263,-0.873 -15.835,0.667 -21.225,5.056 5.518,-1.899 12.73,-4.081 20.686,-3.131 7.982,0.95 12.088,2.951 16.4,5.107 C 12.37,4.055 7.366,0.898 0,0"
             style="fill:#d48129;fill-opacity:1;fill-rule:nonzero;stroke:none"
             id="path6507" /></g></g></g><g
       id="g6529"
       transform="matrix(0.35277776,0,0,-0.35277778,220,722.48892)"
       clip-path="url(#clipPath24460)"><g
         clip-path="url(#clipPath6521)"
         opacity="0.5"
         id="g6527"><g
           transform="translate(1836.0499,1291.5376)"
           id="g6525"><path
             d="m 0,0 c 8.444,-2.233 22.354,-0.334 30.823,7.879 8.495,8.213 9.573,20.198 8.906,23.868 C 39.113,27.743 37.342,15.63 29.566,8.803 21.969,2.104 8.367,-1.463 0,0"
             style="fill:#fcd900;fill-opacity:1;fill-rule:nonzero;stroke:none"
             id="path6523" /></g></g></g><g
       id="g6545"
       transform="matrix(0.35277776,0,0,-0.35277778,220,722.48892)"
       clip-path="url(#clipPath24423)"><g
         clip-path="url(#clipPath6537)"
         opacity="0.190002"
         id="g6543"><g
           transform="translate(1888.765,1308.0912)"
           id="g6541"><path
             d="M 0,0 C 3.593,1.36 4.235,7.135 0.18,8.161 -3.105,8.983 -7.52,8.238 -7.674,4.132 -7.828,-0.488 -3.516,-1.335 0,0"
             style="fill:#d48129;fill-opacity:1;fill-rule:nonzero;stroke:none"
             id="path6539" /></g></g></g><g
       id="g6561"
       transform="matrix(0.35277776,0,0,-0.35277778,220,722.48892)"
       clip-path="url(#clipPath24477)"><g
         clip-path="url(#clipPath6553)"
         opacity="0.190002"
         id="g6559"><g
           transform="translate(1883.1444,1319.0757)"
           id="g6557"><path
             d="M 0,0 C 1.309,0.488 1.54,2.592 0.077,2.977 -1.129,3.285 -2.72,3.003 -2.772,1.514 -2.849,-0.18 -1.283,-0.488 0,0"
             style="fill:#d48129;fill-opacity:1;fill-rule:nonzero;stroke:none"
             id="path6555" /></g></g></g><g
       id="g6577"
       transform="matrix(0.35277776,0,0,-0.35277778,220,722.48892)"
       clip-path="url(#clipPath24433)"><g
         clip-path="url(#clipPath6569)"
         opacity="0.190002"
         id="g6575"><g
           transform="translate(1879.5514,1304.7805)"
           id="g6573"><path
             d="M 0,0 C 1.309,0.488 1.54,2.592 0.077,2.977 -1.129,3.285 -2.72,3.003 -2.772,1.514 -2.875,-0.18 -1.309,-0.488 0,0"
             style="fill:#d48129;fill-opacity:1;fill-rule:nonzero;stroke:none"
             id="path6571" /></g></g></g><path
       d="m 0,0 c -3.08,0 -6.031,-0.642 -8.726,-1.745 -6.057,11.857 -18.273,20.07 -32.517,20.07 -14.244,0 -26.46,-8.213 -32.517,-20.07 -2.695,1.103 -5.621,1.745 -8.726,1.745 -12.653,0 -22.919,-10.266 -22.919,-22.918 0,-12.653 10.266,-22.919 22.919,-22.919 4.902,0 9.445,1.566 13.166,4.209 6.724,-8.11 16.733,-13.371 28.077,-13.371 11.344,0 21.353,5.261 28.077,13.371 3.721,-2.618 8.264,-4.209 13.166,-4.209 12.653,0 22.919,10.266 22.919,22.919 C 22.919,-10.266 12.653,0 0,0"
       style="fill:#bdc5d2;fill-opacity:1;fill-rule:nonzero;stroke:none"
       id="path6581"
       transform="matrix(0.35277776,0,0,-0.35277778,903.0821,266.65494)"
       clip-path="url(#clipPath24483)" /><g
       id="g6597"
       transform="matrix(0.35277776,0,0,-0.35277778,220,722.48892)"
       clip-path="url(#clipPath24493)"><g
         clip-path="url(#clipPath6589)"
         opacity="0.0500031"
         id="g6595"><g
           transform="translate(1898.0812,1272.3147)"
           id="g6593"><path
             d="m 0,0 c -24.689,2.49 -47.813,-0.95 -66.086,-8.649 2.284,-10.266 11.42,-17.94 22.354,-17.94 4.902,0 9.444,1.566 13.165,4.209 6.725,-8.11 16.734,-13.371 28.078,-13.371 11.343,0 21.353,5.261 28.077,13.371 3.721,-2.617 8.264,-4.209 13.166,-4.209 7.34,0 13.858,3.465 18.067,8.855 C 41.269,-8.649 21.687,-2.181 0,0"
             style="fill:#a8a9ad;fill-opacity:1;fill-rule:nonzero;stroke:none"
             id="path6591" /></g></g></g><path
       d="m 0,0 c -3.08,0 -6.031,-0.642 -8.726,-1.745 -6.082,11.857 -18.273,20.07 -32.517,20.07 -14.244,0 -26.46,-8.213 -32.517,-20.07 -2.695,1.103 -5.621,1.745 -8.726,1.745 -12.653,0 -22.919,-10.266 -22.919,-22.918 0,-12.653 10.266,-22.919 22.919,-22.919 4.902,0 9.445,1.566 13.166,4.209 6.724,-8.11 16.733,-13.371 28.077,-13.371 11.344,0 21.353,5.261 28.077,13.371 3.721,-2.618 8.264,-4.209 13.166,-4.209 12.653,0 22.919,10.266 22.919,22.919 C 22.919,-10.266 12.653,0 0,0"
       style="fill:#d3dee2;fill-opacity:1;fill-rule:nonzero;stroke:none"
       id="path6601"
       transform="matrix(0.35277776,0,0,-0.35277778,903.0821,267.94964)"
       clip-path="url(#clipPath24515)" /><path
       d="m 0,0 c 1.925,0 3.721,-0.385 5.39,-1.078 3.747,7.34 11.292,12.396 20.095,12.396 8.803,0 16.348,-5.082 20.095,-12.396 1.669,0.693 3.491,1.078 5.39,1.078 7.16,0 13.063,-5.313 14.013,-12.216 0.077,0.641 0.154,1.283 0.154,1.924 0,7.828 -6.34,14.167 -14.167,14.167 -1.899,0 -3.721,-0.385 -5.39,-1.078 C 41.833,10.137 34.288,15.193 25.485,15.193 16.682,15.193 9.137,10.112 5.39,2.797 3.721,3.49 1.925,3.875 0,3.875 c -7.828,0 -14.167,-6.339 -14.167,-14.167 0,-0.667 0.051,-1.308 0.154,-1.924 C -13.089,-5.313 -7.186,0 0,0"
       style="fill:#bdc5d2;fill-opacity:1;fill-rule:nonzero;stroke:none"
       id="path6605"
       transform="matrix(0.35277776,0,0,-0.35277778,879.49671,273.0017)"
       clip-path="url(#clipPath24551)" /><g
       id="g6617"
       transform="matrix(0.35277776,0,0,-0.35277778,220,722.48892)"
       clip-path="url(#clipPath24467)"><path
         d="m 1846.059,1325.337 -4.748,3.311 1.668,-5.543 -4.619,-3.516 5.8,-0.103 1.899,-5.492 1.925,5.492 5.775,0.103 -4.62,3.516 1.694,5.543 z"
         style="fill:url(#linearGradient6625);stroke:none"
         id="path6627" /></g><path
       d="M 0,0 C 1.052,-2.695 4.106,-4.004 6.801,-2.952 9.496,-1.899 10.805,1.155 9.753,3.85 8.7,6.544 1.027,11.677 1.027,11.677 1.027,11.677 -1.052,2.695 0,0"
       style="fill:#2aabe2;fill-opacity:1;fill-rule:nonzero;stroke:none"
       id="path6639"
       transform="matrix(0.35277776,0,0,-0.35277778,891.55388,293.25456)"
       clip-path="url(#clipPath24528)" /><g
       id="g6651"
       transform="matrix(0.35277776,0,0,-0.35277778,220,722.48892)"
       clip-path="url(#clipPath24545)"><path
         d="m 1924.567,1236.82 v -4.285 l -3.028,3.028 c -0.437,0.437 -1.181,0.437 -1.618,0 v 0 c -0.435,-0.436 -0.435,-1.181 0,-1.617 v 0 l 3.029,-3.029 h -4.286 c -0.642,0 -1.155,-0.513 -1.155,-1.154 v 0 c 0,-0.642 0.513,-1.155 1.155,-1.155 v 0 h 4.286 l -3.029,-3.029 c -0.435,-0.436 -0.435,-1.18 0,-1.617 v 0 c 0.437,-0.435 1.181,-0.435 1.618,0 v 0 l 3.028,3.029 v -4.286 c 0,-0.642 0.513,-1.155 1.155,-1.155 v 0 c 0.642,0 1.155,0.513 1.155,1.155 v 0 4.286 l 3.028,-3.029 c 0.437,-0.435 1.181,-0.435 1.617,0 v 0 c 0.436,0.437 0.436,1.181 0,1.617 v 0 l -3.028,3.029 h 4.286 c 0.641,0 1.154,0.513 1.154,1.155 v 0 c 0,0.641 -0.513,1.154 -1.154,1.154 v 0 h -4.286 l 3.028,3.029 c 0.436,0.436 0.436,1.181 0,1.617 v 0 c -0.436,0.437 -1.18,0.437 -1.617,0 v 0 l -3.028,-3.028 v 4.285 c 0,0.642 -0.513,1.155 -1.155,1.155 v 0 c -0.642,0 -1.155,-0.513 -1.155,-1.155"
         style="fill:url(#radialGradient6657);stroke:none"
         id="path6659" /></g><g
       id="g6671"
       transform="matrix(0.35277776,0,0,-0.35277778,220,722.48892)"
       clip-path="url(#clipPath24522)"><path
         d="m 1861.432,1235.666 v -4.286 l -3.028,3.028 c -0.437,0.436 -1.181,0.436 -1.618,0 v 0 c -0.435,-0.436 -0.435,-1.18 0,-1.617 v 0 l 3.029,-3.028 h -4.286 c -0.642,0 -1.155,-0.513 -1.155,-1.155 v 0 c 0,-0.642 0.513,-1.155 1.155,-1.155 v 0 h 4.286 l -3.029,-3.028 c -0.435,-0.437 -0.435,-1.181 0,-1.618 v 0 c 0.437,-0.436 1.181,-0.436 1.618,0 v 0 l 3.028,3.029 v -4.286 c 0,-0.642 0.513,-1.154 1.155,-1.154 v 0 c 0.642,0 1.155,0.512 1.155,1.154 v 0 4.286 l 3.028,-3.029 c 0.437,-0.436 1.181,-0.436 1.617,0 v 0 c 0.437,0.437 0.437,1.181 0,1.618 v 0 l -3.028,3.028 h 4.286 c 0.641,0 1.154,0.513 1.154,1.155 v 0 c 0,0.642 -0.539,1.155 -1.154,1.155 v 0 h -4.286 l 3.028,3.028 c 0.437,0.437 0.437,1.181 0,1.617 v 0 c -0.436,0.436 -1.18,0.436 -1.617,0 v 0 l -3.028,-3.028 v 4.286 c 0,0.641 -0.513,1.154 -1.155,1.154 v 0 c -0.642,0 -1.155,-0.513 -1.155,-1.154"
         style="fill:url(#radialGradient6677);stroke:none"
         id="path6679" /></g><path
       d="M 0,0 C 1.052,-2.695 4.106,-4.004 6.801,-2.952 9.496,-1.899 10.805,1.155 9.753,3.85 8.7,6.544 1.026,11.677 1.026,11.677 1.026,11.677 -1.052,2.695 0,0"
       style="fill:#2aabe2;fill-opacity:1;fill-rule:nonzero;stroke:none"
       id="path6691"
       transform="matrix(0.35277776,0,0,-0.35277778,882.50002,293.25456)"
       clip-path="url(#clipPath24499)" /></g></svg>
