<?xml version="1.0" encoding="UTF-8" standalone="no"?>
<!-- Created with Inkscape (http://www.inkscape.org/) -->

<svg
   width="45.269501mm"
   height="43.321808mm"
   viewBox="0 0 45.269501 43.321808"
   version="1.1"
   id="svg5"
   xml:space="preserve"
   xmlns="http://www.w3.org/2000/svg"
   xmlns:svg="http://www.w3.org/2000/svg"><defs
     id="defs2"><linearGradient
       x1="0"
       y1="0"
       x2="1"
       y2="0"
       gradientUnits="userSpaceOnUse"
       gradientTransform="matrix(0,-65.1334,-65.1334,0,1301.9771,1030.1622)"
       spreadMethod="pad"
       id="linearGradient5613"><stop
         style="stop-opacity:1;stop-color:#fdda00"
         offset="0"
         id="stop5607" /><stop
         style="stop-opacity:1;stop-color:#e2a026"
         offset="0.7755"
         id="stop5609" /><stop
         style="stop-opacity:1;stop-color:#e2a026"
         offset="1"
         id="stop5611" /></linearGradient><clipPath
       clipPathUnits="userSpaceOnUse"
       id="clipPath5631"><path
         d="m 1283.18,972.857 h 37.08 v -7.267 h -37.08 z"
         id="path5629" /></clipPath><clipPath
       clipPathUnits="userSpaceOnUse"
       id="clipPath5647"><path
         d="m 1274.12,1017.95 h 39.89 v -32.614 h -39.89 z"
         id="path5645" /></clipPath><clipPath
       clipPathUnits="userSpaceOnUse"
       id="clipPath5663"><path
         d="m 1319.16,1011.21 h 10.64 v -9.03 h -10.64 z"
         id="path5661" /></clipPath><clipPath
       clipPathUnits="userSpaceOnUse"
       id="clipPath5679"><path
         d="m 1318.44,1016.83 h 3.86 v -3.3 h -3.86 z"
         id="path5677" /></clipPath><clipPath
       clipPathUnits="userSpaceOnUse"
       id="clipPath5695"><path
         d="m 1314.84,1002.53 h 3.86 v -3.294 h -3.86 z"
         id="path5693" /></clipPath><clipPath
       clipPathUnits="userSpaceOnUse"
       id="clipPath5715"><path
         d="m 1270.06,967.78 h 122.91 v -36.551 h -122.91 z"
         id="path5713" /></clipPath><linearGradient
       x1="0"
       y1="0"
       x2="1"
       y2="0"
       gradientUnits="userSpaceOnUse"
       gradientTransform="matrix(0,-14.654487,14.654487,0,1284.1285,1023.3132)"
       spreadMethod="pad"
       id="linearGradient5751"><stop
         style="stop-opacity:1;stop-color:#fdda00"
         offset="0"
         id="stop5745" /><stop
         style="stop-opacity:1;stop-color:#e2a026"
         offset="0.7755"
         id="stop5747" /><stop
         style="stop-opacity:1;stop-color:#e2a026"
         offset="1"
         id="stop5749" /></linearGradient><radialGradient
       fx="0"
       fy="0"
       cx="0"
       cy="0"
       r="1"
       gradientUnits="userSpaceOnUse"
       gradientTransform="matrix(8.2126722,0,0,8.2126722,1363.7915,924.42743)"
       spreadMethod="pad"
       id="radialGradient5771"><stop
         style="stop-opacity:1;stop-color:#ceebfb"
         offset="0"
         id="stop5767" /><stop
         style="stop-opacity:1;stop-color:#e2f4fd"
         offset="1"
         id="stop5769" /></radialGradient><radialGradient
       fx="0"
       fy="0"
       cx="0"
       cy="0"
       r="1"
       gradientUnits="userSpaceOnUse"
       gradientTransform="matrix(8.2035685,0,0,8.2035685,1300.6566,923.29077)"
       spreadMethod="pad"
       id="radialGradient5791"><stop
         style="stop-opacity:1;stop-color:#ceebfb"
         offset="0"
         id="stop5787" /><stop
         style="stop-opacity:1;stop-color:#e2f4fd"
         offset="1"
         id="stop5789" /></radialGradient><radialGradient
       fx="0"
       fy="0"
       cx="0"
       cy="0"
       r="1"
       gradientUnits="userSpaceOnUse"
       gradientTransform="matrix(8.2035685,0,0,8.2035685,1333.2506,915.59137)"
       spreadMethod="pad"
       id="radialGradient5811"><stop
         style="stop-opacity:1;stop-color:#ceebfb"
         offset="0"
         id="stop5807" /><stop
         style="stop-opacity:1;stop-color:#e2f4fd"
         offset="1"
         id="stop5809" /></radialGradient><clipPath
       clipPathUnits="userSpaceOnUse"
       id="clipPath23010"><path
         d="m 1313.566,1030.063 c -0.873,-0.385 -0.949,-1.643 -0.514,-3.029 v 0 -0.154 c 2.284,-10.9068 -0.718,-22.6869 -9.188,-31.15587 v 0 c -9.187,-9.18802 -22.302,-11.934 -33.953,-8.44402 v 0 c -0.385,-0.48795 -0.565,-1.25798 -0.539,-2.181 v 0 c 1.642,-3.645 3.875,-7.08398 6.851,-10.06095 v 0 c 13.372,-13.34603 35.008,-13.34603 48.353,0 v 0 c 13.346,13.34595 13.346,35.00704 0,48.35194 v 0 c -1.977,1.9761 -4.158,3.6191 -6.442,4.9791 v 0 c -1.398,1.08 -3.005,1.7928 -4.014,1.7928 v 0 c -0.214,0 -0.401,-0.032 -0.554,-0.099"
         id="path23012"
         style="stroke-width:0.999998" /></clipPath><clipPath
       clipPathUnits="userSpaceOnUse"
       id="clipPath23027"><path
         d="M -2.2440947e-6,2048 H 2048 V -1.1811023e-5 H -2.2440947e-6 Z"
         id="path23029"
         style="stroke-width:0.999998" /></clipPath><clipPath
       clipPathUnits="userSpaceOnUse"
       id="clipPath23044"><path
         d="M -2.2440947e-6,2048 H 2048 V -1.1811023e-5 H -2.2440947e-6 Z"
         id="path23046"
         style="stroke-width:0.999998" /></clipPath><clipPath
       clipPathUnits="userSpaceOnUse"
       id="clipPath23073"><path
         d="M -2.2440947e-6,2048 H 2048 V -1.1811023e-5 H -2.2440947e-6 Z"
         id="path23075"
         style="stroke-width:0.999998" /></clipPath><clipPath
       clipPathUnits="userSpaceOnUse"
       id="clipPath23083"><path
         d="M -2.2440947e-6,2048 H 2048 V -1.1811023e-5 H -2.2440947e-6 Z"
         id="path23085"
         style="stroke-width:0.999998" /></clipPath><clipPath
       clipPathUnits="userSpaceOnUse"
       id="clipPath23096"><path
         d="m 1332.095,922.62996 v -4.28498 l -3.028,3.02805 c -0.436,0.43695 -1.18,0.43695 -1.617,0 v 0 c -0.436,-0.43605 -0.436,-1.18102 0,-1.61602 v 0 l 3.029,-3.02903 h -4.286 c -0.641,0 -1.155,-0.51397 -1.155,-1.15402 v 0 c 0,-0.64193 0.514,-1.15598 1.155,-1.15598 v 0 h 4.286 l -3.029,-3.02895 c -0.436,-0.435 -0.436,-1.17907 0,-1.61602 v 0 c 0.437,-0.43598 1.181,-0.43598 1.617,0 v 0 l 3.028,3.02895 v -4.28595 c 0,-0.642 0.514,-1.15598 1.156,-1.15598 v 0 c 0.641,0 1.155,0.51398 1.155,1.15598 v 0 4.28595 l 3.028,-3.02895 c 0.436,-0.43598 1.18,-0.43598 1.617,0 v 0 c 0.436,0.43695 0.436,1.18102 0,1.61602 v 0 l -3.029,3.02895 h 4.286 c 0.642,0 1.156,0.51405 1.156,1.15598 v 0 c 0,0.64005 -0.54,1.15402 -1.156,1.15402 v 0 h -4.286 l 3.029,3.02903 c 0.436,0.435 0.436,1.17997 0,1.61602 v 0 c -0.437,0.43695 -1.181,0.43695 -1.617,0 v 0 l -3.028,-3.02805 v 4.28498 c 0,0.64207 -0.514,1.15605 -1.155,1.15605 v 0 c -0.642,0 -1.156,-0.51398 -1.156,-1.15605"
         id="path23098"
         style="stroke-width:0.999998" /></clipPath><clipPath
       clipPathUnits="userSpaceOnUse"
       id="clipPath23112"><path
         d="M -2.2440947e-6,2048 H 2048 V -1.1811023e-5 H -2.2440947e-6 Z"
         id="path23114"
         style="stroke-width:0.999998" /></clipPath><clipPath
       clipPathUnits="userSpaceOnUse"
       id="clipPath23123"><path
         d="m -1374.3654,1064.8776 h 2048 V -983.12242 h -2048 z"
         id="path23125"
         style="stroke-width:0.999998" /></clipPath><clipPath
       clipPathUnits="userSpaceOnUse"
       id="clipPath23133"><path
         d="M -2.2440947e-6,2048 H 2048 V -1.1811023e-5 H -2.2440947e-6 Z"
         id="path23135"
         style="stroke-width:0.999998" /></clipPath><clipPath
       clipPathUnits="userSpaceOnUse"
       id="clipPath23146"><path
         d="m -1374.3654,1061.2076 h 2048 V -986.79241 h -2048 z"
         id="path23148"
         style="stroke-width:0.999998" /></clipPath><clipPath
       clipPathUnits="userSpaceOnUse"
       id="clipPath23152"><path
         d="m -1307.509,1079.1985 h 2048 v -2048 h -2048 z"
         id="path23154"
         style="stroke-width:0.999998" /></clipPath><clipPath
       clipPathUnits="userSpaceOnUse"
       id="clipPath23185"><path
         d="m 1362.637,931.48596 v -4.287 l -3.029,3.02805 c -0.436,0.43702 -1.18,0.43702 -1.617,0 v 0 c -0.436,-0.43605 -0.436,-1.17998 0,-1.61603 v 0 l 3.029,-3.02797 h -4.286 c -0.642,0 -1.155,-0.51398 -1.155,-1.155 v 0 c 0,-0.642 0.513,-1.15598 1.155,-1.15598 v 0 h 4.286 l -3.029,-3.02805 c -0.436,-0.43597 -0.436,-1.17997 0,-1.617 v 0 c 0.437,-0.43597 1.181,-0.43597 1.617,0 v 0 l 3.029,3.02903 v -4.28603 c 0,-0.642 0.513,-1.15597 1.155,-1.15597 v 0 c 0.641,0 1.154,0.51397 1.154,1.15597 v 0 4.28603 l 3.029,-3.02903 c 0.436,-0.43597 1.181,-0.43597 1.616,0 v 0 c 0.437,0.43703 0.437,1.18103 0,1.617 v 0 l -3.027,3.02805 h 4.285 c 0.642,0 1.155,0.51398 1.155,1.15598 v 0 c 0,0.64102 -0.513,1.155 -1.155,1.155 v 0 h -4.285 l 3.027,3.02797 c 0.437,0.43605 0.437,1.17998 0,1.61603 v 0 c -0.435,0.43702 -1.18,0.43702 -1.616,0 v 0 l -3.029,-3.02805 v 4.287 c 0,0.64005 -0.513,1.15402 -1.154,1.15402 v 0 c -0.642,0 -1.155,-0.51397 -1.155,-1.15402"
         id="path23187"
         style="stroke-width:0.999998" /></clipPath><clipPath
       clipPathUnits="userSpaceOnUse"
       id="clipPath23192"><path
         d="m 1299.502,930.32998 v -4.28595 l -3.029,3.02895 c -0.436,0.43605 -1.18,0.43605 -1.617,0 v 0 c -0.436,-0.43695 -0.436,-1.18095 0,-1.61797 v 0 l 3.029,-3.027 h -4.286 c -0.642,0 -1.155,-0.51398 -1.155,-1.15598 v 0 c 0,-0.64207 0.513,-1.155 1.155,-1.155 v 0 h 4.286 l -3.029,-3.02805 c -0.436,-0.43702 -0.436,-1.18095 0,-1.61595 v 0 c 0.437,-0.43702 1.181,-0.43702 1.617,0 v 0 l 3.029,3.02798 v -4.287 c 0,-0.64005 0.513,-1.15403 1.155,-1.15403 v 0 c 0.641,0 1.154,0.51398 1.154,1.15403 v 0 4.287 l 3.029,-3.02798 c 0.436,-0.43702 1.181,-0.43702 1.617,0 v 0 c 0.436,0.435 0.436,1.17893 0,1.61595 v 0 l -3.028,3.02805 h 4.285 c 0.642,0 1.155,0.51293 1.155,1.155 v 0 c 0,0.642 -0.539,1.15598 -1.155,1.15598 v 0 h -4.285 l 3.028,3.027 c 0.436,0.43702 0.436,1.18102 0,1.61797 v 0 c -0.436,0.43605 -1.181,0.43605 -1.617,0 v 0 l -3.029,-3.02895 v 4.28595 c 0,0.642 -0.513,1.15598 -1.154,1.15598 v 0 c -0.642,0 -1.155,-0.51398 -1.155,-1.15598"
         id="path23194"
         style="stroke-width:0.999998" /></clipPath><clipPath
       clipPathUnits="userSpaceOnUse"
       id="clipPath23220"><path
         d="m 1284.128,1020.002 -4.747,3.311 1.668,-5.544 -4.62,-3.516 5.8,-0.102 1.899,-5.4921 1.925,5.4921 5.775,0.102 -4.62,3.516 1.695,5.544 z"
         id="path23222"
         style="stroke-width:0.999998" /></clipPath></defs><g
     id="g26240"
     transform="translate(-667.66101,-359.07066)"><g
       id="g5605"
       transform="matrix(0.35277776,0,0,-0.35277778,220,722.48892)"
       clip-path="url(#clipPath23010)"><path
         d="m 1313.566,1030.063 c -0.873,-0.385 -0.949,-1.643 -0.514,-3.029 v 0 -0.154 c 2.284,-10.907 -0.718,-22.687 -9.188,-31.156 v 0 c -9.187,-9.188 -22.302,-11.934 -33.953,-8.444 v 0 c -0.385,-0.488 -0.565,-1.258 -0.539,-2.181 v 0 c 1.642,-3.645 3.875,-7.084 6.851,-10.061 v 0 c 13.372,-13.346 35.008,-13.346 48.353,0 v 0 c 13.346,13.346 13.346,35.007 0,48.352 v 0 c -1.977,1.976 -4.158,3.619 -6.442,4.979 v 0 c -1.398,1.08 -3.005,1.793 -4.014,1.793 v 0 c -0.214,0 -0.401,-0.032 -0.554,-0.099"
         style="fill:url(#linearGradient5613);stroke:none"
         id="path5615" /></g><g
       id="g5639"
       transform="matrix(0.35277776,0,0,-0.35277778,220,722.48892)"
       clip-path="url(#clipPath23073)"><g
         clip-path="url(#clipPath5631)"
         opacity="0.5"
         id="g5637"><g
           transform="translate(1304.4036,965.8245)"
           id="g5635"><path
             d="M 0,0 C -7.263,-0.873 -15.835,0.667 -21.225,5.056 -15.707,3.157 -8.495,0.975 -0.539,1.925 7.443,2.874 11.549,4.876 15.861,7.032 12.37,4.055 7.366,0.898 0,0"
             style="fill:#d48129;fill-opacity:1;fill-rule:nonzero;stroke:none"
             id="path5633" /></g></g></g><g
       id="g5655"
       transform="matrix(0.35277776,0,0,-0.35277778,220,722.48892)"
       clip-path="url(#clipPath23044)"><g
         clip-path="url(#clipPath5647)"
         opacity="0.5"
         id="g5653"><g
           transform="translate(1274.1194,986.2021)"
           id="g5651"><path
             d="m 0,0 c 8.444,-2.233 22.354,-0.334 30.823,7.879 8.495,8.213 9.573,20.198 8.906,23.868 C 39.113,27.743 37.342,15.63 29.566,8.803 21.969,2.104 8.367,-1.463 0,0"
             style="fill:#fcd900;fill-opacity:1;fill-rule:nonzero;stroke:none"
             id="path5649" /></g></g></g><g
       id="g5671"
       transform="matrix(0.35277776,0,0,-0.35277778,220,722.48892)"
       clip-path="url(#clipPath23027)"><g
         clip-path="url(#clipPath5663)"
         opacity="0.190002"
         id="g5669"><g
           transform="translate(1326.8345,1002.7558)"
           id="g5667"><path
             d="M 0,0 C 3.593,1.36 4.235,7.135 0.18,8.161 -3.105,8.983 -7.52,8.238 -7.674,4.132 -7.828,-0.488 -3.516,-1.335 0,0"
             style="fill:#d48129;fill-opacity:1;fill-rule:nonzero;stroke:none"
             id="path5665" /></g></g></g><g
       id="g5687"
       transform="matrix(0.35277776,0,0,-0.35277778,220,722.48892)"
       clip-path="url(#clipPath23083)"><g
         clip-path="url(#clipPath5679)"
         opacity="0.190002"
         id="g5685"><g
           transform="translate(1321.2139,1013.7402)"
           id="g5683"><path
             d="M 0,0 C 1.309,0.488 1.54,2.592 0.077,2.977 -1.129,3.285 -2.72,3.003 -2.772,1.514 -2.849,-0.18 -1.283,-0.488 0,0"
             style="fill:#d48129;fill-opacity:1;fill-rule:nonzero;stroke:none"
             id="path5681" /></g></g></g><g
       id="g5703"
       transform="matrix(0.35277776,0,0,-0.35277778,220,722.48892)"
       clip-path="url(#clipPath23133)"><g
         clip-path="url(#clipPath5695)"
         opacity="0.190002"
         id="g5701"><g
           transform="translate(1317.6208,999.4451)"
           id="g5699"><path
             d="M 0,0 C 1.309,0.488 1.54,2.592 0.077,2.977 -1.129,3.285 -2.72,3.003 -2.772,1.514 -2.874,-0.18 -1.309,-0.488 0,0"
             style="fill:#d48129;fill-opacity:1;fill-rule:nonzero;stroke:none"
             id="path5697" /></g></g></g><path
       d="m 0,0 c -3.08,0 -6.031,-0.642 -8.726,-1.745 -6.057,11.857 -18.273,20.07 -32.517,20.07 -14.244,0 -26.46,-8.213 -32.517,-20.07 -2.695,1.103 -5.621,1.745 -8.726,1.745 -12.653,0 -22.919,-10.266 -22.919,-22.919 0,-12.652 10.266,-22.918 22.919,-22.918 4.902,0 9.444,1.566 13.166,4.209 6.724,-8.11 16.733,-13.371 28.077,-13.371 11.344,0 21.353,5.261 28.077,13.371 3.721,-2.618 8.264,-4.209 13.166,-4.209 12.653,0 22.918,10.266 22.918,22.918 C 22.918,-10.266 12.653,0 0,0"
       style="fill:#bdc5d2;fill-opacity:1;fill-rule:nonzero;stroke:none"
       id="path5707"
       transform="matrix(0.35277776,0,0,-0.35277778,704.84555,374.37049)"
       clip-path="url(#clipPath23146)" /><g
       id="g5723"
       transform="matrix(0.35277776,0,0,-0.35277778,220,722.48892)"
       clip-path="url(#clipPath23112)"><g
         clip-path="url(#clipPath5715)"
         opacity="0.0500031"
         id="g5721"><g
           transform="translate(1336.1508,966.9794)"
           id="g5719"><path
             d="m 0,0 c -24.689,2.489 -47.813,-0.95 -66.086,-8.649 2.284,-10.266 11.42,-17.94 22.353,-17.94 4.902,0 9.445,1.566 13.166,4.209 6.725,-8.11 16.734,-13.371 28.077,-13.371 11.344,0 21.353,5.261 28.078,13.371 3.721,-2.617 8.264,-4.209 13.166,-4.209 7.34,0 13.858,3.465 18.067,8.855 C 41.269,-8.649 21.687,-2.182 0,0"
             style="fill:#a8a9ad;fill-opacity:1;fill-rule:nonzero;stroke:none"
             id="path5717" /></g></g></g><path
       d="m 0,0 c -3.08,0 -6.031,-0.642 -8.726,-1.745 -6.082,11.857 -18.273,20.07 -32.517,20.07 -14.244,0 -26.46,-8.213 -32.517,-20.07 -2.695,1.103 -5.621,1.745 -8.726,1.745 -12.653,0 -22.919,-10.266 -22.919,-22.918 0,-12.653 10.266,-22.919 22.919,-22.919 4.902,0 9.444,1.566 13.166,4.209 6.724,-8.11 16.733,-13.371 28.077,-13.371 11.344,0 21.353,5.261 28.077,13.371 3.721,-2.618 8.264,-4.209 13.166,-4.209 12.653,0 22.918,10.266 22.918,22.919 C 22.918,-10.266 12.653,0 0,0"
       style="fill:#d3dee2;fill-opacity:1;fill-rule:nonzero;stroke:none"
       id="path5727"
       transform="matrix(0.35277776,0,0,-0.35277778,704.84555,375.66518)"
       clip-path="url(#clipPath23123)" /><path
       d="m 0,0 c 1.925,0 3.721,-0.385 5.39,-1.078 3.747,7.34 11.292,12.396 20.095,12.396 8.803,0 16.348,-5.081 20.095,-12.396 1.669,0.693 3.491,1.078 5.39,1.078 7.16,0 13.063,-5.313 14.013,-12.216 0.077,0.641 0.154,1.283 0.154,1.924 0,7.828 -6.339,14.167 -14.167,14.167 -1.899,0 -3.721,-0.385 -5.39,-1.078 C 41.833,10.138 34.288,15.193 25.485,15.193 16.682,15.193 9.137,10.112 5.39,2.797 3.721,3.49 1.925,3.875 0,3.875 c -7.828,0 -14.167,-6.339 -14.167,-14.167 0,-0.667 0.051,-1.308 0.154,-1.924 C -13.089,-5.313 -7.186,0 0,0"
       style="fill:#bdc5d2;fill-opacity:1;fill-rule:nonzero;stroke:none"
       id="path5731"
       transform="matrix(0.35277776,0,0,-0.35277778,681.2601,380.71728)"
       clip-path="url(#clipPath23152)" /><g
       id="g5743"
       transform="matrix(0.35277776,0,0,-0.35277778,220,722.48892)"
       clip-path="url(#clipPath23220)"><path
         d="m 1284.128,1020.002 -4.747,3.311 1.668,-5.544 -4.62,-3.516 5.8,-0.102 1.899,-5.492 1.925,5.492 5.775,0.102 -4.62,3.516 1.695,5.544 z"
         style="fill:url(#linearGradient5751);stroke:none"
         id="path5753" /></g><g
       id="g5765"
       transform="matrix(0.35277776,0,0,-0.35277778,220,722.48892)"
       clip-path="url(#clipPath23185)"><path
         d="m 1362.637,931.486 v -4.287 l -3.029,3.028 c -0.436,0.437 -1.18,0.437 -1.617,0 v 0 c -0.436,-0.436 -0.436,-1.18 0,-1.616 v 0 l 3.029,-3.028 h -4.286 c -0.642,0 -1.155,-0.514 -1.155,-1.155 v 0 c 0,-0.642 0.513,-1.156 1.155,-1.156 v 0 h 4.286 l -3.029,-3.028 c -0.436,-0.436 -0.436,-1.18 0,-1.617 v 0 c 0.437,-0.436 1.181,-0.436 1.617,0 v 0 l 3.029,3.029 v -4.286 c 0,-0.642 0.513,-1.156 1.155,-1.156 v 0 c 0.641,0 1.154,0.514 1.154,1.156 v 0 4.286 l 3.029,-3.029 c 0.436,-0.436 1.181,-0.436 1.616,0 v 0 c 0.437,0.437 0.437,1.181 0,1.617 v 0 l -3.027,3.028 h 4.285 c 0.642,0 1.155,0.514 1.155,1.156 v 0 c 0,0.641 -0.513,1.155 -1.155,1.155 v 0 h -4.285 l 3.027,3.028 c 0.437,0.436 0.437,1.18 0,1.616 v 0 c -0.435,0.437 -1.18,0.437 -1.616,0 v 0 l -3.029,-3.028 v 4.287 c 0,0.64 -0.513,1.154 -1.154,1.154 v 0 c -0.642,0 -1.155,-0.514 -1.155,-1.154"
         style="fill:url(#radialGradient5771);stroke:none"
         id="path5773" /></g><g
       id="g5785"
       transform="matrix(0.35277776,0,0,-0.35277778,220,722.48892)"
       clip-path="url(#clipPath23192)"><path
         d="m 1299.502,930.33 v -4.286 l -3.029,3.029 c -0.436,0.436 -1.18,0.436 -1.617,0 v 0 c -0.436,-0.437 -0.436,-1.181 0,-1.618 v 0 l 3.029,-3.027 h -4.286 c -0.642,0 -1.155,-0.514 -1.155,-1.156 v 0 c 0,-0.642 0.513,-1.155 1.155,-1.155 v 0 h 4.286 l -3.029,-3.028 c -0.436,-0.437 -0.436,-1.181 0,-1.616 v 0 c 0.437,-0.437 1.181,-0.437 1.617,0 v 0 l 3.029,3.028 v -4.287 c 0,-0.64 0.513,-1.154 1.155,-1.154 v 0 c 0.641,0 1.154,0.514 1.154,1.154 v 0 4.287 l 3.029,-3.028 c 0.436,-0.437 1.181,-0.437 1.617,0 v 0 c 0.436,0.435 0.436,1.179 0,1.616 v 0 l -3.028,3.028 h 4.285 c 0.642,0 1.155,0.513 1.155,1.155 v 0 c 0,0.642 -0.539,1.156 -1.155,1.156 v 0 h -4.285 l 3.028,3.027 c 0.436,0.437 0.436,1.181 0,1.618 v 0 c -0.436,0.436 -1.181,0.436 -1.617,0 v 0 l -3.029,-3.029 v 4.286 c 0,0.642 -0.513,1.156 -1.154,1.156 v 0 c -0.642,0 -1.155,-0.514 -1.155,-1.156"
         style="fill:url(#radialGradient5791);stroke:none"
         id="path5793" /></g><g
       id="g5805"
       transform="matrix(0.35277776,0,0,-0.35277778,220,722.48892)"
       clip-path="url(#clipPath23096)"><path
         d="m 1332.095,922.63 v -4.285 l -3.028,3.028 c -0.436,0.437 -1.18,0.437 -1.617,0 v 0 c -0.436,-0.436 -0.436,-1.181 0,-1.616 v 0 l 3.029,-3.029 h -4.286 c -0.641,0 -1.155,-0.514 -1.155,-1.154 v 0 c 0,-0.642 0.514,-1.156 1.155,-1.156 v 0 h 4.286 l -3.029,-3.029 c -0.436,-0.435 -0.436,-1.179 0,-1.616 v 0 c 0.437,-0.436 1.181,-0.436 1.617,0 v 0 l 3.028,3.029 v -4.286 c 0,-0.642 0.514,-1.156 1.156,-1.156 v 0 c 0.641,0 1.155,0.514 1.155,1.156 v 0 4.286 l 3.028,-3.029 c 0.436,-0.436 1.18,-0.436 1.617,0 v 0 c 0.436,0.437 0.436,1.181 0,1.616 v 0 l -3.029,3.029 h 4.286 c 0.642,0 1.156,0.514 1.156,1.156 v 0 c 0,0.64 -0.54,1.154 -1.156,1.154 v 0 h -4.286 l 3.029,3.029 c 0.436,0.435 0.436,1.18 0,1.616 v 0 c -0.437,0.437 -1.181,0.437 -1.617,0 v 0 l -3.028,-3.028 v 4.285 c 0,0.642 -0.514,1.156 -1.155,1.156 v 0 c -0.642,0 -1.156,-0.514 -1.156,-1.156"
         style="fill:url(#radialGradient5811);stroke:none"
         id="path5813" /></g></g></svg>
