<?xml version="1.0" encoding="UTF-8" standalone="no"?>
<!-- Created with Inkscape (http://www.inkscape.org/) -->

<svg
   width="45.270401mm"
   height="36.107933mm"
   viewBox="0 0 45.270401 36.107933"
   version="1.1"
   id="svg5"
   xml:space="preserve"
   xmlns="http://www.w3.org/2000/svg"
   xmlns:svg="http://www.w3.org/2000/svg"><defs
     id="defs2"><linearGradient
       x1="0"
       y1="0"
       x2="1"
       y2="0"
       gradientUnits="userSpaceOnUse"
       gradientTransform="matrix(10.527759,-64.088791,64.088791,10.527759,728.79645,1020.6155)"
       spreadMethod="pad"
       id="linearGradient1929"><stop
         style="stop-opacity:1;stop-color:#fdda00"
         offset="0"
         id="stop1923" /><stop
         style="stop-opacity:1;stop-color:#e2a026"
         offset="0.7755"
         id="stop1925" /><stop
         style="stop-opacity:1;stop-color:#e2a026"
         offset="1"
         id="stop1927" /></linearGradient><clipPath
       clipPathUnits="userSpaceOnUse"
       id="clipPath1947"><path
         d="m 725.852,999.648 h 7.7 v -8.996 h -7.7 z"
         id="path1945" /></clipPath><clipPath
       clipPathUnits="userSpaceOnUse"
       id="clipPath1963"><path
         d="m 717.67,977.479 h 3.167 v -3.861 h -3.167 z"
         id="path1961" /></clipPath><clipPath
       clipPathUnits="userSpaceOnUse"
       id="clipPath1979"><path
         d="m 740.694,990.694 h 3.132 v -3.436 h -3.132 z"
         id="path1977" /></clipPath><clipPath
       clipPathUnits="userSpaceOnUse"
       id="clipPath1995"><path
         d="m 734.472,976.965 h 9.726 v -11.742 h -9.726 z"
         id="path1993" /></clipPath><clipPath
       clipPathUnits="userSpaceOnUse"
       id="clipPath2011"><path
         d="m 738.462,1012.44 h 4.183 v -5.73 h -4.183 z"
         id="path2009" /></clipPath><clipPath
       clipPathUnits="userSpaceOnUse"
       id="clipPath2027"><path
         d="m 752.743,989.784 h 4.689 v -5.05 h -4.689 z"
         id="path2025" /></clipPath><clipPath
       clipPathUnits="userSpaceOnUse"
       id="clipPath2043"><path
         d="m 709.822,1002.01 h 6.601 v -8.551 h -6.601 z"
         id="path2041" /></clipPath><clipPath
       clipPathUnits="userSpaceOnUse"
       id="clipPath2059"><path
         d="m 717.237,964.742 h 37.599 v -8.487 h -37.599 z"
         id="path2057" /></clipPath><clipPath
       clipPathUnits="userSpaceOnUse"
       id="clipPath2075"><path
         d="m 704.97,1021.1 h 53.638 v -19.48 H 704.97 Z"
         id="path2073" /></clipPath><clipPath
       clipPathUnits="userSpaceOnUse"
       id="clipPath2095"><path
         d="M 702.557,958.484 H 825.465 V 921.933 H 702.557 Z"
         id="path2093" /></clipPath><clipPath
       clipPathUnits="userSpaceOnUse"
       id="clipPath22123"><path
         d="M -2.2440947e-6,2048 H 2048 V -1.1811023e-5 H -2.2440947e-6 Z"
         id="path22125"
         style="stroke-width:0.999998" /></clipPath><clipPath
       clipPathUnits="userSpaceOnUse"
       id="clipPath22143"><path
         d="M -2.2440947e-6,2048 H 2048 V -1.1811023e-5 H -2.2440947e-6 Z"
         id="path22145"
         style="stroke-width:0.999998" /></clipPath><clipPath
       clipPathUnits="userSpaceOnUse"
       id="clipPath22163"><path
         d="M -2.2440947e-6,2048 H 2048 V -1.1811023e-5 H -2.2440947e-6 Z"
         id="path22165"
         style="stroke-width:0.999998" /></clipPath><clipPath
       clipPathUnits="userSpaceOnUse"
       id="clipPath22173"><path
         d="M -2.2440947e-6,2048 H 2048 V -1.1811023e-5 H -2.2440947e-6 Z"
         id="path22175"
         style="stroke-width:0.999998" /></clipPath><clipPath
       clipPathUnits="userSpaceOnUse"
       id="clipPath22183"><path
         d="M -2.2440947e-6,2048 H 2048 V -1.1811023e-5 H -2.2440947e-6 Z"
         id="path22185"
         style="stroke-width:0.999998" /></clipPath><clipPath
       clipPathUnits="userSpaceOnUse"
       id="clipPath22190"><path
         d="m 728.88899,1020.562 c -8.187,-2.079 -14.83403,-6.211 -20.121,-12.883 v 0 c -5.08103,-6.545 -8.85398,-15.63099 -6.699,-24.27999 v 0 c 2.079,-8.18603 6.21097,-14.83305 12.88402,-20.12003 v 0 c 6.54503,-5.082 15.63,-8.85397 24.27901,-6.699 v 0 c 8.21295,2.079 14.83395,6.21105 20.12002,12.88403 v 0 c 5.08193,6.54502 8.85495,15.62902 6.699,24.27802 v 0 c -2.07907,8.21297 -6.21105,14.83497 -12.88305,20.12097 v 0 c -5.256,4.081 -12.15097,7.318 -19.14195,7.318 v 0 c -1.71405,0 -3.43403,-0.1939 -5.13705,-0.619"
         id="path22192"
         style="stroke-width:0.999998" /></clipPath><clipPath
       clipPathUnits="userSpaceOnUse"
       id="clipPath22200"><path
         d="M -2.2440947e-6,2048 H 2048 V -1.1811023e-5 H -2.2440947e-6 Z"
         id="path22202"
         style="stroke-width:0.999998" /></clipPath><clipPath
       clipPathUnits="userSpaceOnUse"
       id="clipPath22210"><path
         d="M -2.2440947e-6,2048 H 2048 V -1.1811023e-5 H -2.2440947e-6 Z"
         id="path22212"
         style="stroke-width:0.999998" /></clipPath><clipPath
       clipPathUnits="userSpaceOnUse"
       id="clipPath22220"><path
         d="M -2.2440947e-6,2048 H 2048 V -1.1811023e-5 H -2.2440947e-6 Z"
         id="path22222"
         style="stroke-width:0.999998" /></clipPath><clipPath
       clipPathUnits="userSpaceOnUse"
       id="clipPath22240"><path
         d="M -2.2440947e-6,2048 H 2048 V -1.1811023e-5 H -2.2440947e-6 Z"
         id="path22242"
         style="stroke-width:0.999998" /></clipPath><clipPath
       clipPathUnits="userSpaceOnUse"
       id="clipPath22250"><path
         d="M -2.2440947e-6,2048 H 2048 V -1.1811023e-5 H -2.2440947e-6 Z"
         id="path22252"
         style="stroke-width:0.999998" /></clipPath><clipPath
       clipPathUnits="userSpaceOnUse"
       id="clipPath22256"><path
         d="M -806.85781,1074.1732 H 1241.1422 V -973.82682 H -806.85781 Z"
         id="path22258"
         style="stroke-width:0.999998" /></clipPath><clipPath
       clipPathUnits="userSpaceOnUse"
       id="clipPath22272"><path
         d="M -806.85781,1070.5031 H 1241.1422 V -977.49692 H -806.85781 Z"
         id="path22274"
         style="stroke-width:0.999998" /></clipPath><clipPath
       clipPathUnits="userSpaceOnUse"
       id="clipPath22278"><path
         d="M -740.00161,1088.494 H 1307.9984 V -959.50602 H -740.00161 Z"
         id="path22280"
         style="stroke-width:0.999998" /></clipPath></defs><g
     id="g26177"
     transform="translate(-467.45605,-362.23895)"><g
       id="g1921"
       transform="matrix(0.35277776,0,0,-0.35277778,220,722.48892)"
       clip-path="url(#clipPath22190)"><path
         d="m 728.889,1020.562 c -8.187,-2.079 -14.834,-6.211 -20.121,-12.883 v 0 c -5.081,-6.545 -8.854,-15.631 -6.699,-24.28 v 0 c 2.079,-8.186 6.211,-14.833 12.884,-20.12 v 0 c 6.545,-5.082 15.63,-8.854 24.279,-6.699 v 0 c 8.213,2.079 14.834,6.211 20.12,12.884 v 0 c 5.082,6.545 8.855,15.629 6.699,24.278 v 0 c -2.079,8.213 -6.211,14.835 -12.883,20.121 v 0 c -5.256,4.081 -12.151,7.318 -19.142,7.318 v 0 c -1.714,0 -3.434,-0.194 -5.137,-0.619"
         style="fill:url(#linearGradient1929);stroke:none"
         id="path1931" /></g><g
       id="g1955"
       transform="matrix(0.35277776,0,0,-0.35277778,220,722.48892)"
       clip-path="url(#clipPath22123)"><g
         clip-path="url(#clipPath1947)"
         opacity="0.399994"
         id="g1953"><g
           transform="translate(732.097,992.5876)"
           id="g1951"><path
             d="M 0,0 C -1.976,-2.797 -6.467,-2.618 -6.236,0.898 -6.031,3.747 -4.44,7.417 -1.232,7.032 2.336,6.57 1.925,2.746 0,0"
             style="fill:#d48129;fill-opacity:1;fill-rule:nonzero;stroke:none"
             id="path1949" /></g></g></g><g
       id="g1971"
       transform="matrix(0.35277776,0,0,-0.35277778,220,722.48892)"
       clip-path="url(#clipPath22143)"><g
         clip-path="url(#clipPath1963)"
         opacity="0.5"
         id="g1969"><g
           transform="translate(720.394,974.5198)"
           id="g1967"><path
             d="M 0,0 C -0.693,-1.258 -2.643,-1.232 -2.72,0.282 -2.772,1.54 -2.207,3.08 -0.821,2.951 0.719,2.797 0.667,1.232 0,0"
             style="fill:#d48129;fill-opacity:1;fill-rule:nonzero;stroke:none"
             id="path1965" /></g></g></g><g
       id="g1987"
       transform="matrix(0.35277776,0,0,-0.35277778,220,722.48892)"
       clip-path="url(#clipPath22173)"><g
         clip-path="url(#clipPath1979)"
         opacity="0.300003"
         id="g1985"><g
           transform="translate(743.3381,987.9167)"
           id="g1983"><path
             d="m 0,0 c -0.744,-1.052 -2.669,-0.821 -2.643,0.539 0,1.104 0.59,2.464 1.924,2.207 C 0.77,2.489 0.719,1.027 0,0"
             style="fill:#d48129;fill-opacity:1;fill-rule:nonzero;stroke:none"
             id="path1981" /></g></g></g><g
       id="g2003"
       transform="matrix(0.35277776,0,0,-0.35277778,220,722.48892)"
       clip-path="url(#clipPath22210)"><g
         clip-path="url(#clipPath1995)"
         opacity="0.300003"
         id="g2001"><g
           transform="translate(734.6891,973.4932)"
           id="g1999"><path
             d="M 0,0 C 0.924,4.004 6.801,4.902 8.546,0.796 9.958,-2.566 10.343,-7.468 5.98,-8.187 1.104,-8.983 -0.924,-3.927 0,0"
             style="fill:#d48129;fill-opacity:1;fill-rule:nonzero;stroke:none"
             id="path1997" /></g></g></g><g
       id="g2019"
       transform="matrix(0.35277776,0,0,-0.35277778,220,722.48892)"
       clip-path="url(#clipPath22200)"><g
         clip-path="url(#clipPath2011)"
         opacity="0.300003"
         id="g2017"><g
           transform="translate(738.5131,1010.5015)"
           id="g2015"><path
             d="M 0,0 C 0.257,2.002 2.849,2.823 3.721,0.667 4.414,-1.078 4.363,-3.439 2.515,-3.747 0.436,-4.106 -0.257,-1.976 0,0"
             style="fill:#d48129;fill-opacity:1;fill-rule:nonzero;stroke:none"
             id="path2013" /></g></g></g><g
       id="g2035"
       transform="matrix(0.35277776,0,0,-0.35277778,220,722.48892)"
       clip-path="url(#clipPath22163)"><g
         clip-path="url(#clipPath2027)"
         opacity="0.300003"
         id="g2033"><g
           transform="translate(752.9109,987.9423)"
           id="g2031"><path
             d="M 0,0 C 0.513,1.745 3.388,2.643 4.183,0.898 4.825,-0.513 4.697,-2.669 2.515,-3.131 0.103,-3.619 -0.513,-1.719 0,0"
             style="fill:#d48129;fill-opacity:1;fill-rule:nonzero;stroke:none"
             id="path2029" /></g></g></g><g
       id="g2051"
       transform="matrix(0.35277776,0,0,-0.35277778,220,722.48892)"
       clip-path="url(#clipPath22220)"><g
         clip-path="url(#clipPath2043)"
         opacity="0.5"
         id="g2049"><g
           transform="translate(710.0768,998.8497)"
           id="g2047"><path
             d="M 0,0 C 0.796,3.131 5.005,4.491 5.98,1.463 6.775,-0.975 6.416,-4.363 3.49,-5.21 0.154,-6.185 -0.77,-3.028 0,0"
             style="fill:#d48129;fill-opacity:1;fill-rule:nonzero;stroke:none"
             id="path2045" /></g></g></g><g
       id="g2067"
       transform="matrix(0.35277776,0,0,-0.35277778,220,722.48892)"
       clip-path="url(#clipPath22183)"><g
         clip-path="url(#clipPath2059)"
         opacity="0.5"
         id="g2065"><g
           transform="translate(734.9971,956.298)"
           id="g2063"><path
             d="M 0,0 C 7.622,0.488 15.142,3.644 19.839,8.444 14.295,5.98 8.033,2.746 -0.18,2.361 -8.418,2.028 -13.089,3.644 -17.76,5.236 -13.782,2.541 -7.725,-0.436 0,0"
             style="fill:#d48129;fill-opacity:1;fill-rule:nonzero;stroke:none"
             id="path2061" /></g></g></g><g
       id="g2083"
       transform="matrix(0.35277776,0,0,-0.35277778,220,722.48892)"
       clip-path="url(#clipPath22240)"><g
         clip-path="url(#clipPath2075)"
         opacity="0.5"
         id="g2081"><g
           transform="translate(708.1263,1005.3429)"
           id="g2079"><path
             d="M 0,0 C 9.137,11.421 22.354,18.145 37.855,11.677 41.679,9.958 44.964,7.597 47.659,5.03 48.634,4.491 49.558,3.927 50.482,3.362 47.248,7.135 43.039,10.779 37.676,13.192 28.95,17.221 20.737,16.04 13.859,12.884 6.981,9.573 1.412,4.26 -3.157,-3.721 -2.181,-2.387 -1.129,-1.129 0,0"
             style="fill:#ffcd0b;fill-opacity:1;fill-rule:nonzero;stroke:none"
             id="path2077" /></g></g></g><path
       d="m 0,0 c -3.08,0 -6.031,-0.642 -8.726,-1.745 -6.057,11.857 -18.273,20.069 -32.517,20.069 -14.244,0 -26.46,-8.212 -32.517,-20.069 -2.695,1.103 -5.62,1.745 -8.726,1.745 -12.652,0 -22.918,-10.266 -22.918,-22.918 0,-12.653 10.266,-22.919 22.918,-22.919 4.902,0 9.445,1.566 13.166,4.209 6.724,-8.11 16.733,-13.371 28.077,-13.371 11.344,0 21.353,5.261 28.077,13.371 3.721,-2.618 8.264,-4.209 13.166,-4.209 12.653,0 22.918,10.266 22.918,22.919 C 22.918,-10.266 12.653,0 0,0"
       style="fill:#bdc5d2;fill-opacity:1;fill-rule:nonzero;stroke:none"
       id="path2087"
       transform="matrix(0.35277776,0,0,-0.35277778,504.64149,377.64973)"
       clip-path="url(#clipPath22272)" /><g
       id="g2103"
       transform="matrix(0.35277776,0,0,-0.35277778,220,722.48892)"
       clip-path="url(#clipPath22250)"><g
         clip-path="url(#clipPath2095)"
         opacity="0.0500031"
         id="g2101"><g
           transform="translate(768.6433,957.6838)"
           id="g2099"><path
             d="m 0,0 c -24.689,2.49 -47.813,-0.95 -66.086,-8.649 2.284,-10.266 11.421,-17.939 22.354,-17.939 4.902,0 9.444,1.565 13.166,4.209 6.724,-8.11 16.733,-13.372 28.076,-13.372 11.344,0 21.353,5.262 28.077,13.372 3.722,-2.618 8.265,-4.209 13.166,-4.209 7.34,0 13.859,3.464 18.068,8.854 C 41.269,-8.649 21.686,-2.181 0,0"
             style="fill:#a8a9ad;fill-opacity:1;fill-rule:nonzero;stroke:none"
             id="path2097" /></g></g></g><path
       d="m 0,0 c -3.08,0 -6.031,-0.642 -8.726,-1.745 -6.082,11.857 -18.273,20.069 -32.517,20.069 -14.244,0 -26.46,-8.212 -32.517,-20.069 -2.695,1.103 -5.62,1.745 -8.726,1.745 -12.652,0 -22.918,-10.266 -22.918,-22.918 0,-12.653 10.266,-22.919 22.918,-22.919 4.902,0 9.445,1.566 13.166,4.209 6.724,-8.11 16.733,-13.371 28.077,-13.371 11.344,0 21.353,5.261 28.077,13.371 3.721,-2.618 8.264,-4.209 13.166,-4.209 12.653,0 22.918,10.266 22.918,22.919 C 22.918,-10.266 12.653,0 0,0"
       style="fill:#d3dee2;fill-opacity:1;fill-rule:nonzero;stroke:none"
       id="path2107"
       transform="matrix(0.35277776,0,0,-0.35277778,504.64149,378.94446)"
       clip-path="url(#clipPath22256)" /><path
       d="m 0,0 c 1.925,0 3.721,-0.385 5.39,-1.078 3.747,7.34 11.292,12.396 20.095,12.396 8.803,0 16.348,-5.081 20.095,-12.396 1.668,0.693 3.491,1.078 5.39,1.078 7.16,0 13.063,-5.313 14.013,-12.216 0.077,0.641 0.154,1.283 0.154,1.925 0,7.827 -6.34,14.166 -14.167,14.166 -1.899,0 -3.722,-0.385 -5.39,-1.078 C 41.833,10.138 34.288,15.193 25.485,15.193 16.682,15.193 9.137,10.112 5.39,2.797 3.721,3.49 1.925,3.875 0,3.875 c -7.828,0 -14.167,-6.339 -14.167,-14.166 0,-0.668 0.052,-1.309 0.154,-1.925 C -13.089,-5.313 -7.186,0 0,0"
       style="fill:#bdc5d2;fill-opacity:1;fill-rule:nonzero;stroke:none"
       id="path2111"
       transform="matrix(0.35277776,0,0,-0.35277778,481.05611,383.99652)"
       clip-path="url(#clipPath22278)" /></g></svg>
