<?xml version="1.0" encoding="UTF-8" standalone="no"?>
<!-- Created with Inkscape (http://www.inkscape.org/) -->

<svg
   width="45.257671mm"
   height="45.26667mm"
   viewBox="0 0 45.257671 45.26667"
   version="1.1"
   id="svg5"
   xml:space="preserve"
   xmlns="http://www.w3.org/2000/svg"
   xmlns:svg="http://www.w3.org/2000/svg"><defs
     id="defs2"><linearGradient
       x1="0"
       y1="0"
       x2="1"
       y2="0"
       gradientUnits="userSpaceOnUse"
       gradientTransform="matrix(20.711809,-126.08522,126.08522,20.711809,191.05193,1333.3756)"
       spreadMethod="pad"
       id="linearGradient1755"><stop
         style="stop-opacity:1;stop-color:#fcd900"
         offset="0"
         id="stop1749" /><stop
         style="stop-opacity:1;stop-color:#e3a026"
         offset="0.7755"
         id="stop1751" /><stop
         style="stop-opacity:1;stop-color:#e3a026"
         offset="1"
         id="stop1753" /></linearGradient><clipPath
       clipPathUnits="userSpaceOnUse"
       id="clipPath1773"><path
         d="m 185.245,1292.14 h 15.141 v -17.68 h -15.141 z"
         id="path1771" /></clipPath><clipPath
       clipPathUnits="userSpaceOnUse"
       id="clipPath1789"><path
         d="m 169.141,1248.55 h 6.23 v -7.61 h -6.23 z"
         id="path1787" /></clipPath><clipPath
       clipPathUnits="userSpaceOnUse"
       id="clipPath1805"><path
         d="m 214.419,1274.51 h 6.177 v -6.78 h -6.177 z"
         id="path1803" /></clipPath><clipPath
       clipPathUnits="userSpaceOnUse"
       id="clipPath1821"><path
         d="m 202.209,1247.51 h 19.129 v -23.11 h -19.129 z"
         id="path1819" /></clipPath><clipPath
       clipPathUnits="userSpaceOnUse"
       id="clipPath1837"><path
         d="m 210.039,1317.3 h 8.219 v -11.28 h -8.219 z"
         id="path1835" /></clipPath><clipPath
       clipPathUnits="userSpaceOnUse"
       id="clipPath1853"><path
         d="m 238.118,1272.72 h 9.228 v -9.93 h -9.228 z"
         id="path1851" /></clipPath><clipPath
       clipPathUnits="userSpaceOnUse"
       id="clipPath1869"><path
         d="m 153.687,1296.78 h 13.012 v -16.81 h -13.012 z"
         id="path1867" /></clipPath><clipPath
       clipPathUnits="userSpaceOnUse"
       id="clipPath1885"><path
         d="m 168.3,1223.48 h 73.991 v -16.71 H 168.3 Z"
         id="path1883" /></clipPath><clipPath
       clipPathUnits="userSpaceOnUse"
       id="clipPath1901"><path
         d="m 144.15,1334.34 h 105.532 v -38.33 H 144.15 Z"
         id="path1899" /></clipPath><clipPath
       clipPathUnits="userSpaceOnUse"
       id="clipPath22066"><path
         d="M -2.2440947e-6,2048 H 2048 V -1.1811023e-5 H -2.2440947e-6 Z"
         id="path22068"
         style="stroke-width:0.999998" /></clipPath><clipPath
       clipPathUnits="userSpaceOnUse"
       id="clipPath22076"><path
         d="M -2.2440947e-6,2048 H 2048 V -1.1811023e-5 H -2.2440947e-6 Z"
         id="path22078"
         style="stroke-width:0.999998" /></clipPath><clipPath
       clipPathUnits="userSpaceOnUse"
       id="clipPath22086"><path
         d="M -2.2440947e-6,2048 H 2048 V -1.1811023e-5 H -2.2440947e-6 Z"
         id="path22088"
         style="stroke-width:0.999998" /></clipPath><clipPath
       clipPathUnits="userSpaceOnUse"
       id="clipPath22096"><path
         d="M -2.2440947e-6,2048 H 2048 V -1.1811023e-5 H -2.2440947e-6 Z"
         id="path22098"
         style="stroke-width:0.999998" /></clipPath><clipPath
       clipPathUnits="userSpaceOnUse"
       id="clipPath22103"><path
         d="m 191.26999,1333.277 c -16.143,-4.054 -29.181,-12.19 -39.6,-25.33 v 0 c -10.00898,-12.859 -17.42701,-30.747 -13.19101,-47.763 v 0 c 4.05398,-16.142 12.18998,-29.18 25.32998,-39.6 v 0 c 12.85808,-10.008 30.74603,-17.426 47.76105,-13.192 v 0 c 16.17,4.082 29.20695,12.217 39.57496,25.332 v 0 c 10.01002,12.857 17.42707,30.745 13.19205,47.761 v 0 c -4.05503,16.143 -12.19005,29.181 -25.33103,39.601 v 0 c -10.308,8.04 -23.87595,14.407 -37.63598,14.406 v 0 c -3.369,0 -6.753,-0.382 -10.10002,-1.215"
         id="path22105"
         style="stroke-width:0.999998" /></clipPath><clipPath
       clipPathUnits="userSpaceOnUse"
       id="clipPath22113"><path
         d="M -2.2440947e-6,2048 H 2048 V -1.1811023e-5 H -2.2440947e-6 Z"
         id="path22115"
         style="stroke-width:0.999998" /></clipPath><clipPath
       clipPathUnits="userSpaceOnUse"
       id="clipPath22133"><path
         d="M -2.2440947e-6,2048 H 2048 V -1.1811023e-5 H -2.2440947e-6 Z"
         id="path22135"
         style="stroke-width:0.999998" /></clipPath><clipPath
       clipPathUnits="userSpaceOnUse"
       id="clipPath24509"><path
         d="M -2.2440947e-6,2048 H 2048 V -1.1811023e-5 H -2.2440947e-6 Z"
         id="path24511"
         style="stroke-width:0.999998" /></clipPath><clipPath
       clipPathUnits="userSpaceOnUse"
       id="clipPath24538"><path
         d="M -2.2440947e-6,2048 H 2048 V -1.1811023e-5 H -2.2440947e-6 Z"
         id="path24540"
         style="stroke-width:0.999998" /></clipPath><clipPath
       clipPathUnits="userSpaceOnUse"
       id="clipPath24635"><path
         d="M -2.2440947e-6,2048 H 2048 V -1.1811023e-5 H -2.2440947e-6 Z"
         id="path24637"
         style="stroke-width:0.999998" /></clipPath></defs><g
     id="g26022"
     transform="translate(-268.42336,-251.70979)"><g
       id="g1747"
       transform="matrix(0.35277776,0,0,-0.35277778,220,722.48892)"
       clip-path="url(#clipPath22103)"><path
         d="m 191.27,1333.277 c -16.143,-4.054 -29.181,-12.19 -39.6,-25.33 v 0 c -10.009,-12.859 -17.427,-30.747 -13.191,-47.763 v 0 c 4.054,-16.142 12.19,-29.18 25.33,-39.6 v 0 c 12.858,-10.008 30.746,-17.426 47.761,-13.192 v 0 c 16.17,4.082 29.207,12.217 39.575,25.332 v 0 c 10.01,12.857 17.427,30.745 13.192,47.761 v 0 c -4.055,16.143 -12.19,29.181 -25.331,39.601 v 0 c -10.308,8.04 -23.876,14.407 -37.636,14.406 v 0 c -3.369,0 -6.753,-0.382 -10.1,-1.215"
         style="fill:url(#linearGradient1755);stroke:none"
         id="path1757" /></g><g
       id="g1781"
       transform="matrix(0.35277776,0,0,-0.35277778,220,722.48892)"
       clip-path="url(#clipPath24538)"><g
         clip-path="url(#clipPath1773)"
         opacity="0.399994"
         id="g1779"><g
           transform="translate(197.5065,1278.2524)"
           id="g1777"><path
             d="m 0,0 c -3.875,-5.492 -12.73,-5.133 -12.242,1.771 0.411,5.62 3.516,12.832 9.855,12.062 C 4.62,12.935 3.798,5.39 0,0"
             style="fill:#d48129;fill-opacity:1;fill-rule:nonzero;stroke:none"
             id="path1775" /></g></g></g><g
       id="g1797"
       transform="matrix(0.35277776,0,0,-0.35277778,220,722.48892)"
       clip-path="url(#clipPath24509)"><g
         clip-path="url(#clipPath1789)"
         opacity="0.5"
         id="g1795"><g
           transform="translate(174.5111,1242.7072)"
           id="g1793"><path
             d="M 0,0 C -1.335,-2.464 -5.21,-2.438 -5.364,0.59 -5.467,3.028 -4.363,6.108 -1.643,5.826 1.386,5.492 1.309,2.387 0,0"
             style="fill:#d48129;fill-opacity:1;fill-rule:nonzero;stroke:none"
             id="path1791" /></g></g></g><g
       id="g1813"
       transform="matrix(0.35277776,0,0,-0.35277778,220,722.48892)"
       clip-path="url(#clipPath24635)"><g
         clip-path="url(#clipPath1805)"
         opacity="0.300003"
         id="g1811"><g
           transform="translate(219.6293,1269.0389)"
           id="g1809"><path
             d="m 0,0 c -1.463,-2.079 -5.236,-1.643 -5.21,1.052 0,2.182 1.181,4.825 3.798,4.363 C 1.54,4.876 1.412,2.027 0,0"
             style="fill:#d48129;fill-opacity:1;fill-rule:nonzero;stroke:none"
             id="path1807" /></g></g></g><g
       id="g1829"
       transform="matrix(0.35277776,0,0,-0.35277778,220,722.48892)"
       clip-path="url(#clipPath22066)"><g
         clip-path="url(#clipPath1821)"
         opacity="0.300003"
         id="g1827"><g
           transform="translate(202.6394,1240.6797)"
           id="g1825"><path
             d="M 0,0 C 1.822,7.879 13.371,9.65 16.81,1.54 19.582,-5.082 20.326,-14.706 11.78,-16.117 2.156,-17.683 -1.822,-7.725 0,0"
             style="fill:#d48129;fill-opacity:1;fill-rule:nonzero;stroke:none"
             id="path1823" /></g></g></g><g
       id="g1845"
       transform="matrix(0.35277776,0,0,-0.35277778,220,722.48892)"
       clip-path="url(#clipPath22076)"><g
         clip-path="url(#clipPath1837)"
         opacity="0.300003"
         id="g1843"><g
           transform="translate(210.1334,1313.4642)"
           id="g1841"><path
             d="M 0,0 C 0.513,3.952 5.621,5.569 7.314,1.335 8.675,-2.079 8.598,-6.75 4.928,-7.366 0.873,-8.084 -0.488,-3.85 0,0"
             style="fill:#d48129;fill-opacity:1;fill-rule:nonzero;stroke:none"
             id="path1839" /></g></g></g><g
       id="g1861"
       transform="matrix(0.35277776,0,0,-0.35277778,220,722.48892)"
       clip-path="url(#clipPath22086)"><g
         clip-path="url(#clipPath1853)"
         opacity="0.300003"
         id="g1859"><g
           transform="translate(238.4414,1269.0902)"
           id="g1857"><path
             d="M 0,0 C 1.027,3.413 6.698,5.21 8.238,1.797 9.496,-1.001 9.265,-5.21 4.979,-6.134 0.231,-7.135 -1.001,-3.362 0,0"
             style="fill:#d48129;fill-opacity:1;fill-rule:nonzero;stroke:none"
             id="path1855" /></g></g></g><g
       id="g1877"
       transform="matrix(0.35277776,0,0,-0.35277778,220,722.48892)"
       clip-path="url(#clipPath22096)"><g
         clip-path="url(#clipPath1869)"
         opacity="0.5"
         id="g1875"><g
           transform="translate(154.1848,1290.5715)"
           id="g1873"><path
             d="M 0,0 C 1.566,6.134 9.855,8.828 11.78,2.9 13.371,-1.899 12.653,-8.598 6.852,-10.24 0.334,-12.165 -1.514,-5.98 0,0"
             style="fill:#d48129;fill-opacity:1;fill-rule:nonzero;stroke:none"
             id="path1871" /></g></g></g><g
       id="g1893"
       transform="matrix(0.35277776,0,0,-0.35277778,220,722.48892)"
       clip-path="url(#clipPath22113)"><g
         clip-path="url(#clipPath1885)"
         opacity="0.5"
         id="g1891"><g
           transform="translate(203.2297,1206.8538)"
           id="g1889"><path
             d="M 0,0 C 14.988,0.95 29.797,7.186 39.061,16.631 28.18,11.78 15.835,5.441 -0.334,4.645 -16.528,3.978 -25.716,7.186 -34.929,10.292 -27.127,4.979 -15.193,-0.873 0,0"
             style="fill:#d48129;fill-opacity:1;fill-rule:nonzero;stroke:none"
             id="path1887" /></g></g></g><g
       id="g1909"
       transform="matrix(0.35277776,0,0,-0.35277778,220,722.48892)"
       clip-path="url(#clipPath22133)"><g
         clip-path="url(#clipPath1901)"
         opacity="0.5"
         id="g1907"><g
           transform="translate(150.3351,1303.3268)"
           id="g1905"><path
             d="M 0,0 C 17.965,22.482 44.015,35.674 74.504,22.995 82.049,19.608 88.466,14.962 93.804,9.906 95.703,8.829 97.551,7.725 99.347,6.621 93.008,14.064 84.719,21.199 74.17,25.972 57.001,33.877 40.832,31.567 27.333,25.356 13.731,18.838 2.823,8.392 -6.185,-7.314 -4.26,-4.671 -2.181,-2.233 0,0"
             style="fill:#ffcd09;fill-opacity:1;fill-rule:nonzero;stroke:none"
             id="path1903" /></g></g></g></g></svg>
