<?xml version="1.0" encoding="UTF-8" standalone="no"?>
<!-- Created with Inkscape (http://www.inkscape.org/) -->

<svg
   width="45.269588mm"
   height="43.178944mm"
   viewBox="0 0 45.269588 43.178944"
   version="1.1"
   id="svg5"
   xml:space="preserve"
   xmlns="http://www.w3.org/2000/svg"
   xmlns:svg="http://www.w3.org/2000/svg"><defs
     id="defs2"><linearGradient
       x1="0"
       y1="0"
       x2="1"
       y2="0"
       gradientUnits="userSpaceOnUse"
       gradientTransform="matrix(10.527528,-64.087379,-64.087379,-10.527528,444.80286,1334.4232)"
       spreadMethod="pad"
       id="linearGradient6229"><stop
         style="stop-opacity:1;stop-color:#fdda00"
         offset="0"
         id="stop6223" /><stop
         style="stop-opacity:1;stop-color:#e2a026"
         offset="0.7755"
         id="stop6225" /><stop
         style="stop-opacity:1;stop-color:#e2a026"
         offset="1"
         id="stop6227" /></linearGradient><clipPath
       clipPathUnits="userSpaceOnUse"
       id="clipPath6247"><path
         d="m 441.858,1313.46 h 7.701 v -9 h -7.701 z"
         id="path6245" /></clipPath><clipPath
       clipPathUnits="userSpaceOnUse"
       id="clipPath6263"><path
         d="m 433.677,1291.29 h 3.166 v -3.86 h -3.166 z"
         id="path6261" /></clipPath><clipPath
       clipPathUnits="userSpaceOnUse"
       id="clipPath6279"><path
         d="m 456.701,1304.5 h 3.131 v -3.43 h -3.131 z"
         id="path6277" /></clipPath><clipPath
       clipPathUnits="userSpaceOnUse"
       id="clipPath6295"><path
         d="m 450.478,1290.77 h 9.726 v -11.74 h -9.726 z"
         id="path6293" /></clipPath><clipPath
       clipPathUnits="userSpaceOnUse"
       id="clipPath6311"><path
         d="m 454.468,1326.25 h 4.183 v -5.73 h -4.183 z"
         id="path6309" /></clipPath><clipPath
       clipPathUnits="userSpaceOnUse"
       id="clipPath6327"><path
         d="m 468.749,1303.59 h 4.689 v -5.05 h -4.689 z"
         id="path6325" /></clipPath><clipPath
       clipPathUnits="userSpaceOnUse"
       id="clipPath6343"><path
         d="m 425.829,1315.82 h 6.601 v -8.55 h -6.601 z"
         id="path6341" /></clipPath><clipPath
       clipPathUnits="userSpaceOnUse"
       id="clipPath6359"><path
         d="m 433.244,1278.55 h 37.598 v -8.49 h -37.598 z"
         id="path6357" /></clipPath><clipPath
       clipPathUnits="userSpaceOnUse"
       id="clipPath6375"><path
         d="m 420.977,1334.91 h 53.637 v -19.48 h -53.637 z"
         id="path6373" /></clipPath><clipPath
       clipPathUnits="userSpaceOnUse"
       id="clipPath6395"><path
         d="m 418.564,1272.29 h 122.905 v -36.55 H 418.564 Z"
         id="path6393" /></clipPath><radialGradient
       fx="0"
       fy="0"
       cx="0"
       cy="0"
       r="1"
       gradientUnits="userSpaceOnUse"
       gradientTransform="matrix(8.2124662,0,0,8.2124662,512.28888,1228.942)"
       spreadMethod="pad"
       id="radialGradient6433"><stop
         style="stop-opacity:1;stop-color:#ceebfb"
         offset="0"
         id="stop6429" /><stop
         style="stop-opacity:1;stop-color:#e2f4fd"
         offset="1"
         id="stop6431" /></radialGradient><radialGradient
       fx="0"
       fy="0"
       cx="0"
       cy="0"
       r="1"
       gradientUnits="userSpaceOnUse"
       gradientTransform="matrix(8.2033625,0,0,8.2033625,449.15555,1227.8054)"
       spreadMethod="pad"
       id="radialGradient6453"><stop
         style="stop-opacity:1;stop-color:#ceebfb"
         offset="0"
         id="stop6449" /><stop
         style="stop-opacity:1;stop-color:#e2f4fd"
         offset="1"
         id="stop6451" /></radialGradient><clipPath
       clipPathUnits="userSpaceOnUse"
       id="clipPath24266"><path
         d="M -2.2440947e-6,2048 H 2048 V -1.1811023e-5 H -2.2440947e-6 Z"
         id="path24268"
         style="stroke-width:0.999998" /></clipPath><clipPath
       clipPathUnits="userSpaceOnUse"
       id="clipPath24276"><path
         d="M -2.2440947e-6,2048 H 2048 V -1.1811023e-5 H -2.2440947e-6 Z"
         id="path24278"
         style="stroke-width:0.999998" /></clipPath><clipPath
       clipPathUnits="userSpaceOnUse"
       id="clipPath24283"><path
         d="m 444.89503,1334.37 c -8.18603,-2.079 -14.83403,-6.211 -20.12003,-12.884 v 0 c -5.082,-6.544 -8.85398,-15.629 -6.699,-24.278 v 0 c 2.079,-8.187 6.21097,-14.834 12.88402,-20.121 v 0 c 6.54398,-5.081 15.62896,-8.854 24.27796,-6.697 v 0 c 8.21302,2.078 14.83402,6.21 20.12002,12.883 v 0 c 5.082,6.544 8.85503,15.629 6.699,24.278 v 0 c -2.079,8.212 -6.21097,14.833 -12.88297,20.12 v 0 c -5.25705,4.081 -12.15105,7.318 -19.14203,7.318 v 0 c -1.71397,0 -3.43402,-0.195 -5.13697,-0.619"
         id="path24285"
         style="stroke-width:0.999998" /></clipPath><clipPath
       clipPathUnits="userSpaceOnUse"
       id="clipPath24299"><path
         d="M -2.2440947e-6,2048 H 2048 V -1.1811023e-5 H -2.2440947e-6 Z"
         id="path24301"
         style="stroke-width:0.999998" /></clipPath><clipPath
       clipPathUnits="userSpaceOnUse"
       id="clipPath24309"><path
         d="M -2.2440947e-6,2048 H 2048 V -1.1811023e-5 H -2.2440947e-6 Z"
         id="path24311"
         style="stroke-width:0.999998" /></clipPath><clipPath
       clipPathUnits="userSpaceOnUse"
       id="clipPath24319"><path
         d="M -2.2440947e-6,2048 H 2048 V -1.1811023e-5 H -2.2440947e-6 Z"
         id="path24321"
         style="stroke-width:0.999998" /></clipPath><clipPath
       clipPathUnits="userSpaceOnUse"
       id="clipPath24329"><path
         d="M -2.2440947e-6,2048 H 2048 V -1.1811023e-5 H -2.2440947e-6 Z"
         id="path24331"
         style="stroke-width:0.999998" /></clipPath><clipPath
       clipPathUnits="userSpaceOnUse"
       id="clipPath24335"><path
         d="M -522.86241,760.36451 H 1525.1376 V -1287.6355 H -522.86241 Z"
         id="path24337"
         style="stroke-width:0.999998" /></clipPath><clipPath
       clipPathUnits="userSpaceOnUse"
       id="clipPath24345"><path
         d="M -2.2440947e-6,2048 H 2048 V -1.1811023e-5 H -2.2440947e-6 Z"
         id="path24347"
         style="stroke-width:0.999998" /></clipPath><clipPath
       clipPathUnits="userSpaceOnUse"
       id="clipPath24355"><path
         d="M -2.2440947e-6,2048 H 2048 V -1.1811023e-5 H -2.2440947e-6 Z"
         id="path24357"
         style="stroke-width:0.999998" /></clipPath><clipPath
       clipPathUnits="userSpaceOnUse"
       id="clipPath24361"><path
         d="M -522.86241,756.69449 H 1525.1376 V -1291.3055 H -522.86241 Z"
         id="path24363"
         style="stroke-width:0.999998" /></clipPath><clipPath
       clipPathUnits="userSpaceOnUse"
       id="clipPath24367"><path
         d="m -490.1849,832.09329 h 2048 V -1215.9067 h -2048 z"
         id="path24369"
         style="stroke-width:0.999998" /></clipPath><clipPath
       clipPathUnits="userSpaceOnUse"
       id="clipPath24373"><path
         d="m -456.0078,774.68491 h 2048 V -1273.3151 h -2048 z"
         id="path24375"
         style="stroke-width:0.999998" /></clipPath><clipPath
       clipPathUnits="userSpaceOnUse"
       id="clipPath24380"><path
         d="m 511.13398,1236 v -4.286 l -3.02798,3.028 c -0.43702,0.436 -1.18102,0.436 -1.61797,0 v 0 c -0.43508,-0.436 -0.43508,-1.18 0,-1.617 v 0 l 3.02895,-3.028 h -4.28595 c -0.64103,0 -1.15403,-0.513 -1.15403,-1.155 v 0 c 0,-0.642 0.513,-1.155 1.15403,-1.155 v 0 h 4.28595 l -3.02895,-3.028 c -0.43508,-0.437 -0.43508,-1.181 0,-1.617 v 0 c 0.43695,-0.436 1.18095,-0.436 1.61797,0 v 0 l 3.02798,3.029 v -4.287 c 0,-0.641 0.513,-1.155 1.155,-1.155 v 0 c 0.642,0 1.155,0.514 1.155,1.155 v 0 4.287 l 3.02805,-3.029 c 0.43695,-0.436 1.18095,-0.436 1.617,0 v 0 c 0.43597,0.436 0.43597,1.18 0,1.617 v 0 l -3.02805,3.028 h 4.28602 c 0.64103,0 1.15403,0.513 1.15403,1.155 v 0 c 0,0.642 -0.513,1.155 -1.15403,1.155 v 0 h -4.28602 l 3.02805,3.028 c 0.43597,0.437 0.43597,1.181 0,1.617 v 0 c -0.43605,0.436 -1.18005,0.436 -1.617,0 v 0 l -3.02805,-3.028 V 1236 c 0,0.641 -0.513,1.154 -1.155,1.154 v 0 c -0.642,0 -1.155,-0.513 -1.155,-1.154"
         id="path24382"
         style="stroke-width:0.999998" /></clipPath><clipPath
       clipPathUnits="userSpaceOnUse"
       id="clipPath24390"><path
         d="M -2.2440947e-6,2048 H 2048 V -1.1811023e-5 H -2.2440947e-6 Z"
         id="path24392"
         style="stroke-width:0.999998" /></clipPath><clipPath
       clipPathUnits="userSpaceOnUse"
       id="clipPath24400"><path
         d="M -2.2440947e-6,2048 H 2048 V -1.1811023e-5 H -2.2440947e-6 Z"
         id="path24402"
         style="stroke-width:0.999998" /></clipPath><clipPath
       clipPathUnits="userSpaceOnUse"
       id="clipPath24413"><path
         d="M -464.52089,832.09329 H 1583.4791 V -1215.9067 H -464.52089 Z"
         id="path24415"
         style="stroke-width:0.999998" /></clipPath><clipPath
       clipPathUnits="userSpaceOnUse"
       id="clipPath24440"><path
         d="m 448.001,1234.845 v -4.286 l -3.02797,3.029 c -0.43703,0.435 -1.18103,0.435 -1.61805,0 v 0 c -0.43598,-0.437 -0.43598,-1.181 0,-1.618 v 0 l 3.02902,-3.028 h -4.28602 c -0.642,0 -1.15501,-0.513 -1.15501,-1.155 v 0 c 0,-0.641 0.51301,-1.155 1.15501,-1.155 v 0 h 4.28602 l -3.02902,-3.028 c -0.43598,-0.437 -0.43598,-1.181 0,-1.616 v 0 c 0.43702,-0.437 1.18102,-0.437 1.61805,0 v 0 l 3.02797,3.027 v -4.286 c 0,-0.641 0.513,-1.154 1.155,-1.154 v 0 c 0.64103,0 1.15403,0.513 1.15403,1.154 v 0 4.286 l 3.02895,-3.027 c 0.43605,-0.437 1.17997,-0.437 1.61602,0 v 0 c 0.43703,0.435 0.43703,1.179 0,1.616 v 0 l -3.02805,3.028 h 4.28603 c 0.64102,0 1.155,0.514 1.155,1.155 v 0 c 0,0.642 -0.53895,1.155 -1.155,1.155 v 0 h -4.28603 l 3.02805,3.028 c 0.43703,0.437 0.43703,1.181 0,1.618 v 0 c -0.43605,0.435 -1.17997,0.435 -1.61602,0 v 0 l -3.02895,-3.029 v 4.286 c 0,0.642 -0.513,1.155 -1.15403,1.155 v 0 c -0.642,0 -1.155,-0.513 -1.155,-1.155"
         id="path24442"
         style="stroke-width:0.999998" /></clipPath></defs><g
     id="g25982"
     transform="translate(-367.2696,-251.53446)"><g
       id="g6221"
       transform="matrix(0.35277776,0,0,-0.35277778,220,722.48892)"
       clip-path="url(#clipPath24283)"><path
         d="m 444.895,1334.37 c -8.186,-2.079 -14.834,-6.211 -20.12,-12.884 v 0 c -5.082,-6.544 -8.854,-15.629 -6.699,-24.278 v 0 c 2.079,-8.187 6.211,-14.834 12.884,-20.121 v 0 c 6.544,-5.081 15.629,-8.854 24.278,-6.697 v 0 c 8.213,2.078 14.834,6.21 20.12,12.883 v 0 c 5.082,6.544 8.855,15.629 6.699,24.278 v 0 c -2.079,8.212 -6.211,14.833 -12.883,20.12 v 0 c -5.257,4.081 -12.151,7.318 -19.142,7.318 v 0 c -1.714,0 -3.434,-0.195 -5.137,-0.619"
         style="fill:url(#linearGradient6229);stroke:none"
         id="path6231" /></g><g
       id="g6255"
       transform="matrix(0.35277776,0,0,-0.35277778,220,722.48892)"
       clip-path="url(#clipPath24266)"><g
         clip-path="url(#clipPath6247)"
         opacity="0.399994"
         id="g6253"><g
           transform="translate(448.1033,1306.3959)"
           id="g6251"><path
             d="M 0,0 C -1.976,-2.797 -6.467,-2.618 -6.236,0.898 -6.031,3.747 -4.44,7.417 -1.232,7.032 2.335,6.57 1.925,2.746 0,0"
             style="fill:#d48129;fill-opacity:1;fill-rule:nonzero;stroke:none"
             id="path6249" /></g></g></g><g
       id="g6271"
       transform="matrix(0.35277776,0,0,-0.35277778,220,722.48892)"
       clip-path="url(#clipPath24299)"><g
         clip-path="url(#clipPath6263)"
         opacity="0.5"
         id="g6269"><g
           transform="translate(436.4006,1288.3285)"
           id="g6267"><path
             d="M 0,0 C -0.693,-1.258 -2.643,-1.232 -2.72,0.282 -2.772,1.54 -2.207,3.08 -0.821,2.951 0.719,2.797 0.667,1.232 0,0"
             style="fill:#d48129;fill-opacity:1;fill-rule:nonzero;stroke:none"
             id="path6265" /></g></g></g><g
       id="g6287"
       transform="matrix(0.35277776,0,0,-0.35277778,220,722.48892)"
       clip-path="url(#clipPath24309)"><g
         clip-path="url(#clipPath6279)"
         opacity="0.300003"
         id="g6285"><g
           transform="translate(459.3441,1301.7251)"
           id="g6283"><path
             d="m 0,0 c -0.744,-1.052 -2.669,-0.821 -2.643,0.539 0,1.103 0.59,2.464 1.924,2.207 C 0.77,2.489 0.719,1.026 0,0"
             style="fill:#d48129;fill-opacity:1;fill-rule:nonzero;stroke:none"
             id="path6281" /></g></g></g><g
       id="g6303"
       transform="matrix(0.35277776,0,0,-0.35277778,220,722.48892)"
       clip-path="url(#clipPath24329)"><g
         clip-path="url(#clipPath6295)"
         opacity="0.300003"
         id="g6301"><g
           transform="translate(450.6954,1287.3019)"
           id="g6299"><path
             d="M 0,0 C 0.924,4.004 6.801,4.902 8.546,0.796 9.958,-2.566 10.343,-7.468 5.98,-8.187 1.104,-8.982 -0.924,-3.927 0,0"
             style="fill:#d48129;fill-opacity:1;fill-rule:nonzero;stroke:none"
             id="path6297" /></g></g></g><g
       id="g6319"
       transform="matrix(0.35277776,0,0,-0.35277778,220,722.48892)"
       clip-path="url(#clipPath24319)"><g
         clip-path="url(#clipPath6311)"
         opacity="0.300003"
         id="g6317"><g
           transform="translate(454.5193,1324.3093)"
           id="g6315"><path
             d="M 0,0 C 0.257,2.002 2.849,2.823 3.721,0.667 4.414,-1.078 4.363,-3.439 2.515,-3.747 0.436,-4.106 -0.257,-1.976 0,0"
             style="fill:#d48129;fill-opacity:1;fill-rule:nonzero;stroke:none"
             id="path6313" /></g></g></g><g
       id="g6335"
       transform="matrix(0.35277776,0,0,-0.35277778,220,722.48892)"
       clip-path="url(#clipPath24276)"><g
         clip-path="url(#clipPath6327)"
         opacity="0.300003"
         id="g6333"><g
           transform="translate(468.9168,1301.7507)"
           id="g6331"><path
             d="M 0,0 C 0.513,1.745 3.388,2.643 4.183,0.898 4.825,-0.513 4.697,-2.669 2.515,-3.131 0.103,-3.619 -0.513,-1.719 0,0"
             style="fill:#d48129;fill-opacity:1;fill-rule:nonzero;stroke:none"
             id="path6329" /></g></g></g><g
       id="g6351"
       transform="matrix(0.35277776,0,0,-0.35277778,220,722.48892)"
       clip-path="url(#clipPath24390)"><g
         clip-path="url(#clipPath6343)"
         opacity="0.5"
         id="g6349"><g
           transform="translate(426.0836,1312.6578)"
           id="g6347"><path
             d="M 0,0 C 0.796,3.131 5.004,4.491 5.98,1.463 6.775,-0.975 6.416,-4.363 3.49,-5.21 0.154,-6.185 -0.77,-3.028 0,0"
             style="fill:#d48129;fill-opacity:1;fill-rule:nonzero;stroke:none"
             id="path6345" /></g></g></g><g
       id="g6367"
       transform="matrix(0.35277776,0,0,-0.35277778,220,722.48892)"
       clip-path="url(#clipPath24345)"><g
         clip-path="url(#clipPath6359)"
         opacity="0.5"
         id="g6365"><g
           transform="translate(451.0034,1270.1071)"
           id="g6363"><path
             d="M 0,0 C 7.622,0.488 15.142,3.644 19.838,8.443 14.295,5.98 8.033,2.746 -0.18,2.361 -8.418,2.027 -13.089,3.644 -17.759,5.235 -13.782,2.541 -7.725,-0.436 0,0"
             style="fill:#d48129;fill-opacity:1;fill-rule:nonzero;stroke:none"
             id="path6361" /></g></g></g><g
       id="g6383"
       transform="matrix(0.35277776,0,0,-0.35277778,220,722.48892)"
       clip-path="url(#clipPath24355)"><g
         clip-path="url(#clipPath6375)"
         opacity="0.5"
         id="g6381"><g
           transform="translate(424.1332,1319.1509)"
           id="g6379"><path
             d="M 0,0 C 9.136,11.42 22.353,18.144 37.854,11.677 41.678,9.958 44.963,7.597 47.658,5.03 48.633,4.491 49.557,3.927 50.481,3.362 47.247,7.135 43.038,10.779 37.675,13.191 28.949,17.22 20.736,16.04 13.859,12.883 6.981,9.573 1.411,4.26 -3.157,-3.721 -2.181,-2.387 -1.129,-1.129 0,0"
             style="fill:#ffcd0b;fill-opacity:1;fill-rule:nonzero;stroke:none"
             id="path6377" /></g></g></g><path
       d="m 0,0 c -3.08,0 -6.031,-0.642 -8.726,-1.745 -6.056,11.857 -18.272,20.069 -32.516,20.069 -14.243,0 -26.46,-8.212 -32.516,-20.069 -2.695,1.103 -5.621,1.745 -8.726,1.745 -12.652,0 -22.918,-10.266 -22.918,-22.918 0,-12.652 10.266,-22.918 22.918,-22.918 4.902,0 9.444,1.566 13.166,4.209 6.724,-8.11 16.733,-13.371 28.076,-13.371 11.344,0 21.352,5.261 28.076,13.371 3.722,-2.618 8.264,-4.209 13.166,-4.209 12.652,0 22.918,10.266 22.918,22.918 C 22.918,-10.266 12.652,0 0,0"
       style="fill:#bdc5d2;fill-opacity:1;fill-rule:nonzero;stroke:none"
       id="path6387"
       transform="matrix(0.35277776,0,0,-0.35277778,404.45423,266.94503)"
       clip-path="url(#clipPath24361)" /><g
       id="g6403"
       transform="matrix(0.35277776,0,0,-0.35277778,220,722.48892)"
       clip-path="url(#clipPath24400)"><g
         clip-path="url(#clipPath6395)"
         opacity="0.0500031"
         id="g6401"><g
           transform="translate(484.6488,1271.4929)"
           id="g6399"><path
             d="m 0,0 c -24.689,2.489 -47.812,-0.95 -66.085,-8.649 2.284,-10.265 11.421,-17.939 22.354,-17.939 4.901,0 9.444,1.566 13.165,4.209 6.724,-8.11 16.733,-13.371 28.077,-13.371 11.343,0 21.352,5.261 28.076,13.371 3.721,-2.618 8.264,-4.209 13.166,-4.209 7.339,0 13.858,3.465 18.067,8.854 C 41.268,-8.649 21.686,-2.181 0,0"
             style="fill:#a8a9ad;fill-opacity:1;fill-rule:nonzero;stroke:none"
             id="path6397" /></g></g></g><path
       d="m 0,0 c -3.08,0 -6.031,-0.642 -8.726,-1.745 -6.082,11.857 -18.272,20.069 -32.516,20.069 -14.243,0 -26.46,-8.212 -32.516,-20.069 -2.695,1.103 -5.621,1.745 -8.726,1.745 -12.652,0 -22.918,-10.266 -22.918,-22.918 0,-12.652 10.266,-22.918 22.918,-22.918 4.902,0 9.444,1.566 13.166,4.209 6.724,-8.11 16.733,-13.371 28.076,-13.371 11.344,0 21.352,5.261 28.076,13.371 3.722,-2.618 8.264,-4.209 13.166,-4.209 12.652,0 22.918,10.266 22.918,22.918 C 22.918,-10.266 12.652,0 0,0"
       style="fill:#d3dee2;fill-opacity:1;fill-rule:nonzero;stroke:none"
       id="path6407"
       transform="matrix(0.35277776,0,0,-0.35277778,404.45423,268.23973)"
       clip-path="url(#clipPath24335)" /><path
       d="m 0,0 c 1.925,0 3.721,-0.385 5.389,-1.078 3.747,7.34 11.293,12.396 20.095,12.396 8.803,0 16.348,-5.082 20.095,-12.396 1.668,0.693 3.49,1.078 5.39,1.078 7.16,0 13.063,-5.312 14.012,-12.216 0.077,0.642 0.154,1.283 0.154,1.925 0,7.827 -6.339,14.166 -14.166,14.166 -1.9,0 -3.722,-0.385 -5.39,-1.078 C 41.832,10.137 34.287,15.193 25.484,15.193 16.682,15.193 9.136,10.112 5.389,2.797 3.721,3.49 1.925,3.875 0,3.875 c -7.828,0 -14.167,-6.339 -14.167,-14.166 0,-0.667 0.052,-1.309 0.154,-1.925 C -13.089,-5.312 -7.186,0 0,0"
       style="fill:#bdc5d2;fill-opacity:1;fill-rule:nonzero;stroke:none"
       id="path6411"
       transform="matrix(0.35277776,0,0,-0.35277778,380.86941,273.29165)"
       clip-path="url(#clipPath24373)" /><path
       d="M 0,0 C 1.052,-2.695 4.106,-4.004 6.801,-2.951 9.496,-1.899 10.805,1.155 9.752,3.85 8.7,6.544 1.027,11.677 1.027,11.677 1.027,11.677 -1.052,2.695 0,0"
       style="fill:#2aabe2;fill-opacity:1;fill-rule:nonzero;stroke:none"
       id="path6415"
       transform="matrix(0.35277776,0,0,-0.35277778,392.92633,293.54405)"
       clip-path="url(#clipPath24367)" /><g
       id="g6427"
       transform="matrix(0.35277776,0,0,-0.35277778,220,722.48892)"
       clip-path="url(#clipPath24380)"><path
         d="m 511.134,1236 v -4.286 l -3.028,3.028 c -0.437,0.436 -1.181,0.436 -1.618,0 v 0 c -0.435,-0.436 -0.435,-1.18 0,-1.617 v 0 l 3.029,-3.028 h -4.286 c -0.641,0 -1.154,-0.513 -1.154,-1.155 v 0 c 0,-0.642 0.513,-1.155 1.154,-1.155 v 0 h 4.286 l -3.029,-3.028 c -0.435,-0.437 -0.435,-1.181 0,-1.617 v 0 c 0.437,-0.436 1.181,-0.436 1.618,0 v 0 l 3.028,3.029 v -4.287 c 0,-0.641 0.513,-1.155 1.155,-1.155 v 0 c 0.642,0 1.155,0.514 1.155,1.155 v 0 4.287 l 3.028,-3.029 c 0.437,-0.436 1.181,-0.436 1.617,0 v 0 c 0.436,0.436 0.436,1.18 0,1.617 v 0 l -3.028,3.028 h 4.286 c 0.641,0 1.154,0.513 1.154,1.155 v 0 c 0,0.642 -0.513,1.155 -1.154,1.155 v 0 h -4.286 l 3.028,3.028 c 0.436,0.437 0.436,1.181 0,1.617 v 0 c -0.436,0.436 -1.18,0.436 -1.617,0 v 0 l -3.028,-3.028 V 1236 c 0,0.641 -0.513,1.154 -1.155,1.154 v 0 c -0.642,0 -1.155,-0.513 -1.155,-1.154"
         style="fill:url(#radialGradient6433);stroke:none"
         id="path6435" /></g><g
       id="g6447"
       transform="matrix(0.35277776,0,0,-0.35277778,220,722.48892)"
       clip-path="url(#clipPath24440)"><path
         d="m 448.001,1234.845 v -4.286 l -3.028,3.029 c -0.437,0.435 -1.181,0.435 -1.618,0 v 0 c -0.436,-0.437 -0.436,-1.181 0,-1.618 v 0 l 3.029,-3.028 h -4.286 c -0.642,0 -1.155,-0.513 -1.155,-1.155 v 0 c 0,-0.641 0.513,-1.155 1.155,-1.155 v 0 h 4.286 l -3.029,-3.028 c -0.436,-0.437 -0.436,-1.181 0,-1.616 v 0 c 0.437,-0.437 1.181,-0.437 1.618,0 v 0 l 3.028,3.027 v -4.286 c 0,-0.641 0.513,-1.154 1.155,-1.154 v 0 c 0.641,0 1.154,0.513 1.154,1.154 v 0 4.286 l 3.029,-3.027 c 0.436,-0.437 1.18,-0.437 1.616,0 v 0 c 0.437,0.435 0.437,1.179 0,1.616 v 0 l -3.028,3.028 h 4.286 c 0.641,0 1.155,0.514 1.155,1.155 v 0 c 0,0.642 -0.539,1.155 -1.155,1.155 v 0 h -4.286 l 3.028,3.028 c 0.437,0.437 0.437,1.181 0,1.618 v 0 c -0.436,0.435 -1.18,0.435 -1.616,0 v 0 l -3.029,-3.029 v 4.286 c 0,0.642 -0.513,1.155 -1.154,1.155 v 0 c -0.642,0 -1.155,-0.513 -1.155,-1.155"
         style="fill:url(#radialGradient6453);stroke:none"
         id="path6455" /></g><path
       d="M 0,0 C 1.052,-2.695 4.106,-4.004 6.801,-2.951 9.496,-1.899 10.805,1.155 9.752,3.85 8.7,6.544 1.027,11.677 1.027,11.677 1.027,11.677 -1.052,2.695 0,0"
       style="fill:#2aabe2;fill-opacity:1;fill-rule:nonzero;stroke:none"
       id="path6467"
       transform="matrix(0.35277776,0,0,-0.35277778,383.87264,293.54405)"
       clip-path="url(#clipPath24413)" /></g></svg>
