<?xml version="1.0" encoding="UTF-8" standalone="no"?>
<!-- Created with Inkscape (http://www.inkscape.org/) -->

<svg
   width="45.270279mm"
   height="44.226498mm"
   viewBox="0 0 45.270279 44.226498"
   version="1.1"
   id="svg5"
   xml:space="preserve"
   xmlns="http://www.w3.org/2000/svg"
   xmlns:svg="http://www.w3.org/2000/svg"><defs
     id="defs2"><linearGradient
       x1="0"
       y1="0"
       x2="1"
       y2="0"
       gradientUnits="userSpaceOnUse"
       gradientTransform="matrix(10.527759,-64.088791,-64.088791,-10.527759,1012.2797,1332.4525)"
       spreadMethod="pad"
       id="linearGradient2131"><stop
         style="stop-opacity:1;stop-color:#fdda00"
         offset="0"
         id="stop2125" /><stop
         style="stop-opacity:1;stop-color:#e2a026"
         offset="0.7755"
         id="stop2127" /><stop
         style="stop-opacity:1;stop-color:#e2a026"
         offset="1"
         id="stop2129" /></linearGradient><clipPath
       clipPathUnits="userSpaceOnUse"
       id="clipPath2149"><path
         d="m 1009.34,1311.48 h 7.7 v -8.99 h -7.7 z"
         id="path2147" /></clipPath><clipPath
       clipPathUnits="userSpaceOnUse"
       id="clipPath2165"><path
         d="m 1001.15,1289.32 h 3.17 v -3.86 h -3.17 z"
         id="path2163" /></clipPath><clipPath
       clipPathUnits="userSpaceOnUse"
       id="clipPath2181"><path
         d="m 1024.18,1302.53 h 3.13 v -3.43 h -3.13 z"
         id="path2179" /></clipPath><clipPath
       clipPathUnits="userSpaceOnUse"
       id="clipPath2197"><path
         d="m 1017.96,1288.8 h 9.72 v -11.74 h -9.72 z"
         id="path2195" /></clipPath><clipPath
       clipPathUnits="userSpaceOnUse"
       id="clipPath2213"><path
         d="m 1021.95,1324.28 h 4.18 v -5.73 h -4.18 z"
         id="path2211" /></clipPath><clipPath
       clipPathUnits="userSpaceOnUse"
       id="clipPath2229"><path
         d="m 1036.23,1301.62 h 4.69 v -5.05 h -4.69 z"
         id="path2227" /></clipPath><clipPath
       clipPathUnits="userSpaceOnUse"
       id="clipPath2245"><path
         d="m 993.305,1313.85 h 6.601 v -8.55 h -6.601 z"
         id="path2243" /></clipPath><clipPath
       clipPathUnits="userSpaceOnUse"
       id="clipPath2261"><path
         d="m 1000.72,1276.58 h 37.6 v -8.49 h -37.6 z"
         id="path2259" /></clipPath><clipPath
       clipPathUnits="userSpaceOnUse"
       id="clipPath2277"><path
         d="m 988.453,1332.94 h 53.637 v -19.48 h -53.637 z"
         id="path2275" /></clipPath><clipPath
       clipPathUnits="userSpaceOnUse"
       id="clipPath2297"><path
         d="m 986.04,1270.32 h 122.91 v -36.55 H 986.04 Z"
         id="path2295" /></clipPath><clipPath
       clipPathUnits="userSpaceOnUse"
       id="clipPath22153"><path
         d="M -2.2440947e-6,2048 H 2048 V -1.1811023e-5 H -2.2440947e-6 Z"
         id="path22155"
         style="stroke-width:0.999998" /></clipPath><clipPath
       clipPathUnits="userSpaceOnUse"
       id="clipPath22230"><path
         d="M -2.2440947e-6,2048 H 2048 V -1.1811023e-5 H -2.2440947e-6 Z"
         id="path22232"
         style="stroke-width:0.999998" /></clipPath><clipPath
       clipPathUnits="userSpaceOnUse"
       id="clipPath22266"><path
         d="M -2.2440947e-6,2048 H 2048 V -1.1811023e-5 H -2.2440947e-6 Z"
         id="path22268"
         style="stroke-width:0.999998" /></clipPath><clipPath
       clipPathUnits="userSpaceOnUse"
       id="clipPath22288"><path
         d="M -2.2440947e-6,2048 H 2048 V -1.1811023e-5 H -2.2440947e-6 Z"
         id="path22290"
         style="stroke-width:0.999998" /></clipPath><clipPath
       clipPathUnits="userSpaceOnUse"
       id="clipPath22298"><path
         d="M -2.2440947e-6,2048 H 2048 V -1.1811023e-5 H -2.2440947e-6 Z"
         id="path22300"
         style="stroke-width:0.999998" /></clipPath><clipPath
       clipPathUnits="userSpaceOnUse"
       id="clipPath22315"><path
         d="m 1012.372,1332.399 c -8.187,-2.078 -14.83397,-6.211 -20.12102,-12.884 v 0 c -5.082,-6.544 -8.85398,-15.629 -6.69795,-24.278 v 0 c 2.07795,-8.188 6.21,-14.834 12.88395,-20.122 v 0 c 6.54302,-5.081 15.62902,-8.854 24.27802,-6.697 v 0 c 8.212,2.078 14.834,6.21 20.121,12.883 v 0 c 5.082,6.544 8.854,15.63 6.698,24.279 v 0 c -2.079,8.212 -6.211,14.833 -12.883,20.121 v 0 c -5.255,4.08 -12.149,7.317 -19.14,7.317 v 0 c -1.715,0 -3.435,-0.195 -5.139,-0.619"
         id="path22317"
         style="stroke-width:0.999998" /></clipPath><clipPath
       clipPathUnits="userSpaceOnUse"
       id="clipPath22332"><path
         d="M -2.2440947e-6,2048 H 2048 V -1.1811023e-5 H -2.2440947e-6 Z"
         id="path22334"
         style="stroke-width:0.999998" /></clipPath><clipPath
       clipPathUnits="userSpaceOnUse"
       id="clipPath22338"><path
         d="M -1090.3409,758.66599 H 957.65911 V -1289.334 H -1090.3409 Z"
         id="path22340"
         style="stroke-width:0.999998" /></clipPath><clipPath
       clipPathUnits="userSpaceOnUse"
       id="clipPath22348"><path
         d="M -2.2440947e-6,2048 H 2048 V -1.1811023e-5 H -2.2440947e-6 Z"
         id="path22350"
         style="stroke-width:0.999998" /></clipPath><clipPath
       clipPathUnits="userSpaceOnUse"
       id="clipPath22354"><path
         d="m -1044.889,836.01891 h 2048 V -1211.9811 h -2048 z"
         id="path22356"
         style="stroke-width:0.999998" /></clipPath><clipPath
       clipPathUnits="userSpaceOnUse"
       id="clipPath22364"><path
         d="M -2.2440947e-6,2048 H 2048 V -1.1811023e-5 H -2.2440947e-6 Z"
         id="path22366"
         style="stroke-width:0.999998" /></clipPath><clipPath
       clipPathUnits="userSpaceOnUse"
       id="clipPath22370"><path
         d="M -1090.3409,762.33609 H 957.65911 V -1285.6639 H -1090.3409 Z"
         id="path22372"
         style="stroke-width:0.999998" /></clipPath><clipPath
       clipPathUnits="userSpaceOnUse"
       id="clipPath22376"><path
         d="M -1075.8405,830.88601 H 972.15951 V -1217.114 H -1075.8405 Z"
         id="path22378"
         style="stroke-width:0.999998" /></clipPath><clipPath
       clipPathUnits="userSpaceOnUse"
       id="clipPath22386"><path
         d="M -2.2440947e-6,2048 H 2048 V -1.1811023e-5 H -2.2440947e-6 Z"
         id="path22388"
         style="stroke-width:0.999998" /></clipPath><clipPath
       clipPathUnits="userSpaceOnUse"
       id="clipPath22392"><path
         d="m -1023.4849,776.65689 h 2048 V -1271.3431 h -2048 z"
         id="path22394"
         style="stroke-width:0.999998" /></clipPath><clipPath
       clipPathUnits="userSpaceOnUse"
       id="clipPath22402"><path
         d="M -2.2440947e-6,2048 H 2048 V -1.1811023e-5 H -2.2440947e-6 Z"
         id="path22404"
         style="stroke-width:0.999998" /></clipPath><clipPath
       clipPathUnits="userSpaceOnUse"
       id="clipPath22408"><path
         d="m -1013.9377,830.88601 h 2048 V -1217.114 h -2048 z"
         id="path22410"
         style="stroke-width:0.999998" /></clipPath></defs><g
     id="g25876"
     transform="translate(-567.4627,-252.22979)"><g
       id="g2123"
       transform="matrix(0.35277776,0,0,-0.35277778,220,722.48892)"
       clip-path="url(#clipPath22315)"><path
         d="m 1012.372,1332.399 c -8.187,-2.078 -14.834,-6.211 -20.121,-12.884 v 0 c -5.082,-6.544 -8.854,-15.629 -6.698,-24.278 v 0 c 2.078,-8.188 6.21,-14.834 12.884,-20.122 v 0 c 6.543,-5.081 15.629,-8.854 24.278,-6.697 v 0 c 8.212,2.078 14.834,6.21 20.121,12.883 v 0 c 5.082,6.544 8.854,15.63 6.698,24.279 v 0 c -2.079,8.212 -6.211,14.833 -12.883,20.121 v 0 c -5.255,4.08 -12.149,7.317 -19.14,7.317 v 0 c -1.715,0 -3.435,-0.195 -5.139,-0.619"
         style="fill:url(#linearGradient2131);stroke:none"
         id="path2133" /></g><g
       id="g2157"
       transform="matrix(0.35277776,0,0,-0.35277778,220,722.48892)"
       clip-path="url(#clipPath22153)"><g
         clip-path="url(#clipPath2149)"
         opacity="0.399994"
         id="g2155"><g
           transform="translate(1015.5802,1304.4247)"
           id="g2153"><path
             d="M 0,0 C -1.976,-2.797 -6.467,-2.618 -6.236,0.898 -6.031,3.747 -4.44,7.417 -1.232,7.032 2.335,6.57 1.925,2.746 0,0"
             style="fill:#d48129;fill-opacity:1;fill-rule:nonzero;stroke:none"
             id="path2151" /></g></g></g><g
       id="g2173"
       transform="matrix(0.35277776,0,0,-0.35277778,220,722.48892)"
       clip-path="url(#clipPath22266)"><g
         clip-path="url(#clipPath2165)"
         opacity="0.5"
         id="g2171"><g
           transform="translate(1003.8772,1286.3568)"
           id="g2169"><path
             d="M 0,0 C -0.693,-1.258 -2.643,-1.232 -2.72,0.282 -2.772,1.54 -2.207,3.08 -0.821,2.951 0.719,2.797 0.667,1.232 0,0"
             style="fill:#d48129;fill-opacity:1;fill-rule:nonzero;stroke:none"
             id="path2167" /></g></g></g><g
       id="g2189"
       transform="matrix(0.35277776,0,0,-0.35277778,220,722.48892)"
       clip-path="url(#clipPath22288)"><g
         clip-path="url(#clipPath2181)"
         opacity="0.300003"
         id="g2187"><g
           transform="translate(1026.8213,1299.7538)"
           id="g2185"><path
             d="m 0,0 c -0.744,-1.052 -2.669,-0.821 -2.643,0.539 0,1.103 0.59,2.464 1.924,2.207 C 0.77,2.489 0.719,1.026 0,0"
             style="fill:#d48129;fill-opacity:1;fill-rule:nonzero;stroke:none"
             id="path2183" /></g></g></g><g
       id="g2205"
       transform="matrix(0.35277776,0,0,-0.35277778,220,722.48892)"
       clip-path="url(#clipPath22230)"><g
         clip-path="url(#clipPath2197)"
         opacity="0.300003"
         id="g2203"><g
           transform="translate(1018.1723,1285.3303)"
           id="g2201"><path
             d="M 0,0 C 0.924,4.004 6.801,4.902 8.546,0.796 9.958,-2.567 10.343,-7.468 5.98,-8.187 1.104,-8.983 -0.924,-3.927 0,0"
             style="fill:#d48129;fill-opacity:1;fill-rule:nonzero;stroke:none"
             id="path2199" /></g></g></g><g
       id="g2221"
       transform="matrix(0.35277776,0,0,-0.35277778,220,722.48892)"
       clip-path="url(#clipPath22332)"><g
         clip-path="url(#clipPath2213)"
         opacity="0.300003"
         id="g2219"><g
           transform="translate(1021.9963,1322.3385)"
           id="g2217"><path
             d="M 0,0 C 0.257,2.002 2.849,2.823 3.721,0.667 4.414,-1.078 4.363,-3.439 2.515,-3.747 0.436,-4.106 -0.257,-1.976 0,0"
             style="fill:#d48129;fill-opacity:1;fill-rule:nonzero;stroke:none"
             id="path2215" /></g></g></g><g
       id="g2237"
       transform="matrix(0.35277776,0,0,-0.35277778,220,722.48892)"
       clip-path="url(#clipPath22298)"><g
         clip-path="url(#clipPath2229)"
         opacity="0.300003"
         id="g2235"><g
           transform="translate(1036.3942,1299.7794)"
           id="g2233"><path
             d="M 0,0 C 0.513,1.745 3.388,2.643 4.183,0.898 4.825,-0.513 4.697,-2.669 2.515,-3.131 0.103,-3.619 -0.513,-1.72 0,0"
             style="fill:#d48129;fill-opacity:1;fill-rule:nonzero;stroke:none"
             id="path2231" /></g></g></g><g
       id="g2253"
       transform="matrix(0.35277776,0,0,-0.35277778,220,722.48892)"
       clip-path="url(#clipPath22364)"><g
         clip-path="url(#clipPath2245)"
         opacity="0.5"
         id="g2251"><g
           transform="translate(993.5601,1310.6868)"
           id="g2249"><path
             d="M 0,0 C 0.796,3.131 5.005,4.491 5.98,1.463 6.775,-0.975 6.416,-4.363 3.49,-5.21 0.154,-6.185 -0.77,-3.028 0,0"
             style="fill:#d48129;fill-opacity:1;fill-rule:nonzero;stroke:none"
             id="path2247" /></g></g></g><g
       id="g2269"
       transform="matrix(0.35277776,0,0,-0.35277778,220,722.48892)"
       clip-path="url(#clipPath22402)"><g
         clip-path="url(#clipPath2261)"
         opacity="0.5"
         id="g2267"><g
           transform="translate(1018.4803,1268.135)"
           id="g2265"><path
             d="M 0,0 C 7.622,0.488 15.142,3.644 19.839,8.444 14.295,5.98 8.033,2.746 -0.18,2.361 -8.418,2.027 -13.089,3.644 -17.76,5.236 -13.782,2.541 -7.725,-0.436 0,0"
             style="fill:#d48129;fill-opacity:1;fill-rule:nonzero;stroke:none"
             id="path2263" /></g></g></g><g
       id="g2285"
       transform="matrix(0.35277776,0,0,-0.35277778,220,722.48892)"
       clip-path="url(#clipPath22386)"><g
         clip-path="url(#clipPath2277)"
         opacity="0.5"
         id="g2283"><g
           transform="translate(991.6096,1317.1799)"
           id="g2281"><path
             d="M 0,0 C 9.137,11.421 22.354,18.145 37.855,11.677 41.679,9.958 44.964,7.597 47.659,5.03 48.634,4.491 49.558,3.927 50.482,3.362 47.248,7.135 43.039,10.779 37.675,13.192 28.95,17.221 20.737,16.04 13.859,12.884 6.981,9.573 1.411,4.26 -3.157,-3.721 -2.182,-2.387 -1.129,-1.129 0,0"
             style="fill:#ffcd0b;fill-opacity:1;fill-rule:nonzero;stroke:none"
             id="path2279" /></g></g></g><path
       d="m 0,0 c -3.08,0 -6.031,-0.642 -8.726,-1.745 -6.057,11.857 -18.273,20.069 -32.517,20.069 -14.244,0 -26.46,-8.212 -32.517,-20.069 -2.695,1.103 -5.62,1.745 -8.726,1.745 -12.652,0 -22.918,-10.266 -22.918,-22.918 0,-12.653 10.266,-22.919 22.918,-22.919 4.902,0 9.445,1.566 13.166,4.209 6.724,-8.11 16.733,-13.371 28.077,-13.371 11.344,0 21.353,5.261 28.077,13.371 3.721,-2.618 8.264,-4.209 13.166,-4.209 12.653,0 22.918,10.266 22.918,22.919 C 22.918,-10.266 12.653,0 0,0"
       style="fill:#bdc5d2;fill-opacity:1;fill-rule:nonzero;stroke:none"
       id="path2289"
       transform="matrix(0.35277776,0,0,-0.35277778,604.64802,267.64053)"
       clip-path="url(#clipPath22338)" /><g
       id="g2305"
       transform="matrix(0.35277776,0,0,-0.35277778,220,722.48892)"
       clip-path="url(#clipPath22348)"><g
         clip-path="url(#clipPath2297)"
         opacity="0.0500031"
         id="g2303"><g
           transform="translate(1052.1265,1269.5209)"
           id="g2301"><path
             d="m 0,0 c -24.689,2.49 -47.813,-0.95 -66.086,-8.649 2.284,-10.266 11.421,-17.939 22.354,-17.939 4.902,0 9.444,1.565 13.166,4.209 6.724,-8.11 16.733,-13.372 28.076,-13.372 11.344,0 21.353,5.262 28.078,13.372 3.721,-2.618 8.264,-4.209 13.165,-4.209 7.341,0 13.859,3.464 18.068,8.854 C 41.269,-8.649 21.687,-2.181 0,0"
             style="fill:#a8a9ad;fill-opacity:1;fill-rule:nonzero;stroke:none"
             id="path2299" /></g></g></g><path
       d="m 0,0 c -3.08,0 -6.031,-0.642 -8.726,-1.745 -6.082,11.857 -18.273,20.069 -32.517,20.069 -14.244,0 -26.46,-8.212 -32.517,-20.069 -2.695,1.103 -5.62,1.745 -8.726,1.745 -12.652,0 -22.918,-10.266 -22.918,-22.918 0,-12.653 10.266,-22.919 22.918,-22.919 4.902,0 9.445,1.566 13.166,4.209 6.724,-8.11 16.733,-13.371 28.077,-13.371 11.344,0 21.353,5.261 28.077,13.371 3.721,-2.618 8.264,-4.209 13.166,-4.209 12.653,0 22.918,10.266 22.918,22.919 C 22.918,-10.266 12.653,0 0,0"
       style="fill:#d3dee2;fill-opacity:1;fill-rule:nonzero;stroke:none"
       id="path2309"
       transform="matrix(0.35277776,0,0,-0.35277778,604.64802,268.93526)"
       clip-path="url(#clipPath22370)" /><path
       d="m 0,0 c 1.925,0 3.721,-0.385 5.39,-1.078 3.747,7.34 11.292,12.396 20.095,12.396 8.803,0 16.348,-5.082 20.095,-12.396 1.668,0.693 3.491,1.078 5.39,1.078 7.16,0 13.063,-5.313 14.013,-12.216 0.077,0.641 0.154,1.283 0.154,1.924 0,7.828 -6.34,14.167 -14.167,14.167 -1.899,0 -3.722,-0.385 -5.39,-1.078 C 41.833,10.137 34.288,15.193 25.485,15.193 16.682,15.193 9.137,10.112 5.39,2.797 3.721,3.49 1.925,3.875 0,3.875 c -7.828,0 -14.167,-6.339 -14.167,-14.167 0,-0.667 0.052,-1.308 0.154,-1.924 C -13.089,-5.313 -7.186,0 0,0"
       style="fill:#bdc5d2;fill-opacity:1;fill-rule:nonzero;stroke:none"
       id="path2313"
       transform="matrix(0.35277776,0,0,-0.35277778,581.06271,273.98732)"
       clip-path="url(#clipPath22392)" /><path
       d="m 0,0 c 1.386,-3.516 5.364,-5.236 8.88,-3.85 3.516,1.386 5.235,5.364 3.85,8.88 C 11.344,8.546 1.335,15.245 1.335,15.245 1.335,15.245 -1.386,3.516 0,0"
       style="fill:#2aabe2;fill-opacity:1;fill-rule:nonzero;stroke:none"
       id="path2317"
       transform="matrix(0.35277776,0,0,-0.35277778,599.5326,293.11815)"
       clip-path="url(#clipPath22376)" /><path
       d="m 0,0 c 1.386,-3.516 5.364,-5.236 8.88,-3.85 3.516,1.386 5.235,5.364 3.85,8.88 C 11.344,8.546 1.335,15.245 1.335,15.245 1.335,15.245 -1.386,3.516 0,0"
       style="fill:#2aabe2;fill-opacity:1;fill-rule:nonzero;stroke:none"
       id="path2321"
       transform="matrix(0.35277776,0,0,-0.35277778,577.69467,293.11815)"
       clip-path="url(#clipPath22408)" /><path
       d="m 0,0 c 1.386,-3.516 5.364,-5.236 8.88,-3.85 3.516,1.386 5.235,5.364 3.85,8.88 C 11.344,8.546 1.335,15.245 1.335,15.245 1.335,15.245 -1.386,3.516 0,0"
       style="fill:#2aabe2;fill-opacity:1;fill-rule:nonzero;stroke:none"
       id="path2325"
       transform="matrix(0.35277776,0,0,-0.35277778,588.6136,294.92892)"
       clip-path="url(#clipPath22354)" /></g></svg>
