<?xml version="1.0" encoding="UTF-8" standalone="no"?>
<!-- Created with Inkscape (http://www.inkscape.org/) -->

<svg
   width="45.269501mm"
   height="44.115692mm"
   viewBox="0 0 45.269501 44.115692"
   version="1.1"
   id="svg5"
   xml:space="preserve"
   xmlns="http://www.w3.org/2000/svg"
   xmlns:svg="http://www.w3.org/2000/svg"><defs
     id="defs2"><linearGradient
       x1="0"
       y1="0"
       x2="1"
       y2="0"
       gradientUnits="userSpaceOnUse"
       gradientTransform="matrix(0,-65.1334,65.1334,0,1583.0773,1332.8611)"
       spreadMethod="pad"
       id="linearGradient4557"><stop
         style="stop-opacity:1;stop-color:#fdda00"
         offset="0"
         id="stop4551" /><stop
         style="stop-opacity:1;stop-color:#e2a026"
         offset="0.7755"
         id="stop4553" /><stop
         style="stop-opacity:1;stop-color:#e2a026"
         offset="1"
         id="stop4555" /></linearGradient><clipPath
       clipPathUnits="userSpaceOnUse"
       id="clipPath4575"><path
         d="m 1564.28,1275.56 h 37.08 v -7.27 h -37.08 z"
         id="path4573" /></clipPath><clipPath
       clipPathUnits="userSpaceOnUse"
       id="clipPath4591"><path
         d="m 1555.22,1320.65 h 39.89 v -32.61 h -39.89 z"
         id="path4589" /></clipPath><clipPath
       clipPathUnits="userSpaceOnUse"
       id="clipPath4607"><path
         d="m 1600.26,1313.91 h 10.64 v -9.03 h -10.64 z"
         id="path4605" /></clipPath><clipPath
       clipPathUnits="userSpaceOnUse"
       id="clipPath4623"><path
         d="m 1599.54,1319.53 h 3.86 v -3.3 h -3.86 z"
         id="path4621" /></clipPath><clipPath
       clipPathUnits="userSpaceOnUse"
       id="clipPath4639"><path
         d="m 1595.94,1305.23 h 3.86 v -3.3 h -3.86 z"
         id="path4637" /></clipPath><clipPath
       clipPathUnits="userSpaceOnUse"
       id="clipPath4659"><path
         d="m 1551.16,1270.48 h 122.91 v -36.55 h -122.91 z"
         id="path4657" /></clipPath><linearGradient
       x1="0"
       y1="0"
       x2="1"
       y2="0"
       gradientUnits="userSpaceOnUse"
       gradientTransform="matrix(0,-14.654487,14.654487,0,1565.2288,1326.012)"
       spreadMethod="pad"
       id="linearGradient4707"><stop
         style="stop-opacity:1;stop-color:#fdda00"
         offset="0"
         id="stop4701" /><stop
         style="stop-opacity:1;stop-color:#e2a026"
         offset="0.7755"
         id="stop4703" /><stop
         style="stop-opacity:1;stop-color:#e2a026"
         offset="1"
         id="stop4705" /></linearGradient><clipPath
       clipPathUnits="userSpaceOnUse"
       id="clipPath22488"><path
         d="M -2.2440947e-6,2048 H 2048 V -1.1811023e-5 H -2.2440947e-6 Z"
         id="path22490"
         style="stroke-width:0.999998" /></clipPath><clipPath
       clipPathUnits="userSpaceOnUse"
       id="clipPath22505"><path
         d="M -2.2440947e-6,2048 H 2048 V -1.1811023e-5 H -2.2440947e-6 Z"
         id="path22507"
         style="stroke-width:0.999998" /></clipPath><clipPath
       clipPathUnits="userSpaceOnUse"
       id="clipPath22525"><path
         d="M -2.2440947e-6,2048 H 2048 V -1.1811023e-5 H -2.2440947e-6 Z"
         id="path22527"
         style="stroke-width:0.999998" /></clipPath><clipPath
       clipPathUnits="userSpaceOnUse"
       id="clipPath22535"><path
         d="M -2.2440947e-6,2048 H 2048 V -1.1811023e-5 H -2.2440947e-6 Z"
         id="path22537"
         style="stroke-width:0.999998" /></clipPath><clipPath
       clipPathUnits="userSpaceOnUse"
       id="clipPath22545"><path
         d="M -2.2440947e-6,2048 H 2048 V -1.1811023e-5 H -2.2440947e-6 Z"
         id="path22547"
         style="stroke-width:0.999998" /></clipPath><clipPath
       clipPathUnits="userSpaceOnUse"
       id="clipPath22552"><path
         d="m 1594.666,1332.761 c -0.872,-0.384 -0.95,-1.642 -0.513,-3.027 v 0 -0.1551 c 2.284,-10.9069 -0.719,-22.687 -9.188,-31.1559 v 0 c -9.188,-9.188 -22.303,-11.9341 -33.955,-8.4439 v 0 c -0.385,-0.4881 -0.564,-1.257 -0.539,-2.1822 v 0 c 1.643,-3.6439 3.876,-7.083 6.853,-10.0599 v 0 c 13.371,-13.3461 35.006,-13.3461 48.353,0 v 0 c 13.345,13.3449 13.345,35.007 0,48.352 v 0 c -1.977,1.976 -4.159,3.6191 -6.443,4.979 v 0 c -1.397,1.08 -3.004,1.793 -4.014,1.793 v 0 c -0.214,0 -0.401,-0.032 -0.554,-0.1001"
         id="path22554"
         style="stroke-width:0.999998" /></clipPath><clipPath
       clipPathUnits="userSpaceOnUse"
       id="clipPath22568"><path
         d="M -1655.4655,762.1788 H 392.53451 v -2048 H -1655.4655 Z"
         id="path22570"
         style="stroke-width:0.999998" /></clipPath><clipPath
       clipPathUnits="userSpaceOnUse"
       id="clipPath22574"><path
         d="M -1579.0619,830.72889 H 468.93811 V -1217.2711 H -1579.0619 Z"
         id="path22576"
         style="stroke-width:0.999998" /></clipPath><clipPath
       clipPathUnits="userSpaceOnUse"
       id="clipPath22580"><path
         d="M -1610.0134,835.86181 H 437.98661 V -1212.1382 H -1610.0134 Z"
         id="path22582"
         style="stroke-width:0.999998" /></clipPath><clipPath
       clipPathUnits="userSpaceOnUse"
       id="clipPath22596"><path
         d="M -1588.6091,776.4996 H 459.39091 v -2048 H -1588.6091 Z"
         id="path22598"
         style="stroke-width:0.999998" /></clipPath><clipPath
       clipPathUnits="userSpaceOnUse"
       id="clipPath22616"><path
         d="M -2.2440947e-6,2048 H 2048 V -1.1811023e-5 H -2.2440947e-6 Z"
         id="path22618"
         style="stroke-width:0.999998" /></clipPath><clipPath
       clipPathUnits="userSpaceOnUse"
       id="clipPath22632"><path
         d="m -1640.965,830.72889 h 2048 V -1217.2711 h -2048 z"
         id="path22634"
         style="stroke-width:0.999998" /></clipPath><clipPath
       clipPathUnits="userSpaceOnUse"
       id="clipPath22638"><path
         d="M -1655.4655,758.50881 H 392.53451 V -1289.4912 H -1655.4655 Z"
         id="path22640"
         style="stroke-width:0.999998" /></clipPath><clipPath
       clipPathUnits="userSpaceOnUse"
       id="clipPath22665"><path
         d="m 1565.229,1322.701 -4.749,3.311 1.669,-5.544 -4.62,-3.516 5.801,-0.1029 1.899,-5.491 1.925,5.491 5.774,0.1029 -4.62,3.516 1.694,5.544 z"
         id="path22667"
         style="stroke-width:0.999998" /></clipPath></defs><g
     id="g25789"
     transform="translate(-766.82687,-252.28518)"><g
       id="g4549"
       transform="matrix(0.35277776,0,0,-0.35277778,220,722.48892)"
       clip-path="url(#clipPath22552)"><path
         d="m 1594.666,1332.761 c -0.872,-0.384 -0.95,-1.642 -0.513,-3.027 v 0 -0.155 c 2.284,-10.907 -0.719,-22.687 -9.188,-31.156 v 0 c -9.188,-9.188 -22.303,-11.934 -33.955,-8.444 v 0 c -0.385,-0.488 -0.564,-1.257 -0.539,-2.182 v 0 c 1.643,-3.644 3.876,-7.083 6.853,-10.06 v 0 c 13.371,-13.346 35.006,-13.346 48.353,0 v 0 c 13.345,13.345 13.345,35.007 0,48.352 v 0 c -1.977,1.976 -4.159,3.619 -6.443,4.979 v 0 c -1.397,1.08 -3.004,1.793 -4.014,1.793 v 0 c -0.214,0 -0.401,-0.032 -0.554,-0.1"
         style="fill:url(#linearGradient4557);stroke:none"
         id="path4559" /></g><g
       id="g4583"
       transform="matrix(0.35277776,0,0,-0.35277778,220,722.48892)"
       clip-path="url(#clipPath22525)"><g
         clip-path="url(#clipPath4575)"
         opacity="0.5"
         id="g4581"><g
           transform="translate(1585.5038,1268.5233)"
           id="g4579"><path
             d="M 0,0 C -7.263,-0.873 -15.835,0.667 -21.225,5.056 -15.707,3.157 -8.495,0.975 -0.539,1.925 7.443,2.874 11.549,4.876 15.861,7.032 12.37,4.055 7.366,0.898 0,0"
             style="fill:#d48129;fill-opacity:1;fill-rule:nonzero;stroke:none"
             id="path4577" /></g></g></g><g
       id="g4599"
       transform="matrix(0.35277776,0,0,-0.35277778,220,722.48892)"
       clip-path="url(#clipPath22488)"><g
         clip-path="url(#clipPath4591)"
         opacity="0.5"
         id="g4597"><g
           transform="translate(1555.2195,1288.901)"
           id="g4595"><path
             d="m 0,0 c 8.444,-2.233 22.354,-0.334 30.823,7.879 8.495,8.213 9.573,20.198 8.906,23.868 C 39.113,27.743 37.342,15.63 29.566,8.803 21.969,2.104 8.367,-1.463 0,0"
             style="fill:#fcd900;fill-opacity:1;fill-rule:nonzero;stroke:none"
             id="path4593" /></g></g></g><g
       id="g4615"
       transform="matrix(0.35277776,0,0,-0.35277778,220,722.48892)"
       clip-path="url(#clipPath22505)"><g
         clip-path="url(#clipPath4607)"
         opacity="0.190002"
         id="g4613"><g
           transform="translate(1607.9346,1305.4546)"
           id="g4611"><path
             d="M 0,0 C 3.593,1.36 4.235,7.135 0.18,8.161 -3.105,8.983 -7.52,8.238 -7.674,4.132 -7.828,-0.488 -3.516,-1.334 0,0"
             style="fill:#d48129;fill-opacity:1;fill-rule:nonzero;stroke:none"
             id="path4609" /></g></g></g><g
       id="g4631"
       transform="matrix(0.35277776,0,0,-0.35277778,220,722.48892)"
       clip-path="url(#clipPath22535)"><g
         clip-path="url(#clipPath4623)"
         opacity="0.190002"
         id="g4629"><g
           transform="translate(1602.3141,1316.4391)"
           id="g4627"><path
             d="M 0,0 C 1.309,0.488 1.54,2.592 0.077,2.977 -1.129,3.285 -2.72,3.003 -2.772,1.514 -2.849,-0.18 -1.283,-0.488 0,0"
             style="fill:#d48129;fill-opacity:1;fill-rule:nonzero;stroke:none"
             id="path4625" /></g></g></g><g
       id="g4647"
       transform="matrix(0.35277776,0,0,-0.35277778,220,722.48892)"
       clip-path="url(#clipPath22545)"><g
         clip-path="url(#clipPath4639)"
         opacity="0.190002"
         id="g4645"><g
           transform="translate(1598.7211,1302.1439)"
           id="g4643"><path
             d="M 0,0 C 1.309,0.488 1.54,2.592 0.077,2.977 -1.129,3.285 -2.72,3.003 -2.772,1.514 -2.875,-0.18 -1.309,-0.488 0,0"
             style="fill:#d48129;fill-opacity:1;fill-rule:nonzero;stroke:none"
             id="path4641" /></g></g></g><path
       d="m 0,0 c -3.08,0 -6.031,-0.642 -8.726,-1.745 -6.057,11.857 -18.273,20.07 -32.517,20.07 -14.244,0 -26.46,-8.213 -32.517,-20.07 -2.695,1.103 -5.621,1.745 -8.726,1.745 -12.653,0 -22.919,-10.266 -22.919,-22.918 0,-12.653 10.266,-22.919 22.919,-22.919 4.902,0 9.444,1.566 13.166,4.209 6.724,-8.11 16.733,-13.371 28.077,-13.371 11.344,0 21.353,5.261 28.077,13.371 3.721,-2.618 8.264,-4.209 13.166,-4.209 12.653,0 22.918,10.266 22.918,22.919 C 22.918,-10.266 12.653,0 0,0"
       style="fill:#bdc5d2;fill-opacity:1;fill-rule:nonzero;stroke:none"
       id="path4651"
       transform="matrix(0.35277776,0,0,-0.35277778,804.01141,267.58508)"
       clip-path="url(#clipPath22638)" /><g
       id="g4667"
       transform="matrix(0.35277776,0,0,-0.35277778,220,722.48892)"
       clip-path="url(#clipPath22616)"><g
         clip-path="url(#clipPath4659)"
         opacity="0.0500031"
         id="g4665"><g
           transform="translate(1617.2509,1269.6782)"
           id="g4663"><path
             d="m 0,0 c -24.689,2.489 -47.813,-0.95 -66.086,-8.649 2.284,-10.266 11.42,-17.94 22.353,-17.94 4.902,0 9.445,1.566 13.166,4.209 6.725,-8.11 16.734,-13.371 28.077,-13.371 11.344,0 21.354,5.261 28.078,13.371 3.721,-2.617 8.264,-4.209 13.166,-4.209 7.34,0 13.858,3.465 18.067,8.855 C 41.269,-8.649 21.687,-2.182 0,0"
             style="fill:#a8a9ad;fill-opacity:1;fill-rule:nonzero;stroke:none"
             id="path4661" /></g></g></g><path
       d="m 0,0 c -3.08,0 -6.031,-0.642 -8.726,-1.745 -6.082,11.857 -18.273,20.07 -32.517,20.07 -14.244,0 -26.46,-8.213 -32.517,-20.07 -2.695,1.103 -5.621,1.745 -8.726,1.745 -12.653,0 -22.919,-10.266 -22.919,-22.918 0,-12.653 10.266,-22.919 22.919,-22.919 4.902,0 9.444,1.566 13.166,4.209 6.724,-8.11 16.733,-13.371 28.077,-13.371 11.344,0 21.353,5.261 28.077,13.371 3.721,-2.618 8.264,-4.209 13.166,-4.209 12.653,0 22.918,10.266 22.918,22.919 C 22.918,-10.266 12.653,0 0,0"
       style="fill:#d3dee2;fill-opacity:1;fill-rule:nonzero;stroke:none"
       id="path4671"
       transform="matrix(0.35277776,0,0,-0.35277778,804.01141,268.87977)"
       clip-path="url(#clipPath22568)" /><path
       d="m 0,0 c 1.925,0 3.721,-0.385 5.39,-1.078 3.747,7.34 11.292,12.396 20.095,12.396 8.803,0 16.348,-5.081 20.095,-12.396 1.669,0.693 3.491,1.078 5.39,1.078 7.16,0 13.063,-5.313 14.013,-12.216 0.077,0.641 0.154,1.283 0.154,1.924 0,7.828 -6.339,14.167 -14.167,14.167 -1.899,0 -3.721,-0.385 -5.39,-1.078 C 41.833,10.138 34.288,15.193 25.485,15.193 16.682,15.193 9.137,10.112 5.39,2.797 3.721,3.49 1.925,3.875 0,3.875 c -7.828,0 -14.167,-6.339 -14.167,-14.167 0,-0.667 0.052,-1.308 0.154,-1.924 C -13.089,-5.313 -7.186,0 0,0"
       style="fill:#bdc5d2;fill-opacity:1;fill-rule:nonzero;stroke:none"
       id="path4675"
       transform="matrix(0.35277776,0,0,-0.35277778,780.42596,273.93183)"
       clip-path="url(#clipPath22596)" /><path
       d="m 0,0 c 1.386,-3.516 5.364,-5.236 8.88,-3.85 3.516,1.386 5.235,5.364 3.85,8.88 C 11.344,8.546 1.335,15.245 1.335,15.245 1.335,15.245 -1.386,3.516 0,0"
       style="fill:#2cace2;fill-opacity:1;fill-rule:nonzero;stroke:none"
       id="path4679"
       transform="matrix(0.35277776,0,0,-0.35277778,798.89596,293.06272)"
       clip-path="url(#clipPath22632)" /><path
       d="m 0,0 c 1.386,-3.516 5.364,-5.236 8.88,-3.85 3.516,1.386 5.236,5.364 3.85,8.88 C 11.344,8.546 1.335,15.245 1.335,15.245 1.335,15.245 -1.386,3.516 0,0"
       style="fill:#2cace2;fill-opacity:1;fill-rule:nonzero;stroke:none"
       id="path4683"
       transform="matrix(0.35277776,0,0,-0.35277778,777.05792,293.06272)"
       clip-path="url(#clipPath22574)" /><path
       d="m 0,0 c 1.386,-3.516 5.364,-5.236 8.88,-3.85 3.516,1.386 5.235,5.364 3.85,8.88 C 11.344,8.546 1.335,15.245 1.335,15.245 1.335,15.245 -1.386,3.516 0,0"
       style="fill:#2cace2;fill-opacity:1;fill-rule:nonzero;stroke:none"
       id="path4687"
       transform="matrix(0.35277776,0,0,-0.35277778,787.97692,294.8735)"
       clip-path="url(#clipPath22580)" /><g
       id="g4699"
       transform="matrix(0.35277776,0,0,-0.35277778,220,722.48892)"
       clip-path="url(#clipPath22665)"><path
         d="m 1565.229,1322.701 -4.749,3.311 1.669,-5.544 -4.62,-3.516 5.801,-0.103 1.899,-5.491 1.925,5.491 5.774,0.103 -4.62,3.516 1.694,5.544 z"
         style="fill:url(#linearGradient4707);stroke:none"
         id="path4709" /></g></g></svg>
