<?xml version="1.0" encoding="UTF-8" standalone="no"?>
<!-- Created with Inkscape (http://www.inkscape.org/) -->

<svg
   width="45.270241mm"
   height="45.614517mm"
   viewBox="0 0 45.270241 45.614517"
   version="1.1"
   id="svg5"
   xml:space="preserve"
   xmlns="http://www.w3.org/2000/svg"
   xmlns:svg="http://www.w3.org/2000/svg"><defs
     id="defs2"><linearGradient
       x1="0"
       y1="0"
       x2="1"
       y2="0"
       gradientUnits="userSpaceOnUse"
       gradientTransform="matrix(10.52776,-64.088798,64.088798,10.52776,164.01251,1034.0894)"
       spreadMethod="pad"
       id="linearGradient2345"><stop
         style="stop-opacity:1;stop-color:#fdda00"
         offset="0"
         id="stop2339" /><stop
         style="stop-opacity:1;stop-color:#e2a026"
         offset="0.7755"
         id="stop2341" /><stop
         style="stop-opacity:1;stop-color:#e2a026"
         offset="1"
         id="stop2343" /></linearGradient><clipPath
       clipPathUnits="userSpaceOnUse"
       id="clipPath2363"><path
         d="m 161.068,1013.12 h 7.7 v -8.99 h -7.7 z"
         id="path2361" /></clipPath><clipPath
       clipPathUnits="userSpaceOnUse"
       id="clipPath2379"><path
         d="m 152.886,990.953 h 3.167 v -3.861 h -3.167 z"
         id="path2377" /></clipPath><clipPath
       clipPathUnits="userSpaceOnUse"
       id="clipPath2395"><path
         d="m 175.91,1004.17 h 3.132 v -3.44 h -3.132 z"
         id="path2393" /></clipPath><clipPath
       clipPathUnits="userSpaceOnUse"
       id="clipPath2411"><path
         d="m 169.688,990.439 h 9.726 v -11.742 h -9.726 z"
         id="path2409" /></clipPath><clipPath
       clipPathUnits="userSpaceOnUse"
       id="clipPath2427"><path
         d="m 173.678,1025.92 h 4.183 v -5.73 h -4.183 z"
         id="path2425" /></clipPath><clipPath
       clipPathUnits="userSpaceOnUse"
       id="clipPath2443"><path
         d="m 187.959,1003.26 h 4.689 v -5.053 h -4.689 z"
         id="path2441" /></clipPath><clipPath
       clipPathUnits="userSpaceOnUse"
       id="clipPath2459"><path
         d="m 145.038,1015.48 h 6.601 v -8.55 h -6.601 z"
         id="path2457" /></clipPath><clipPath
       clipPathUnits="userSpaceOnUse"
       id="clipPath2475"><path
         d="m 152.453,978.215 h 37.599 v -8.486 h -37.599 z"
         id="path2473" /></clipPath><clipPath
       clipPathUnits="userSpaceOnUse"
       id="clipPath2491"><path
         d="m 140.186,1034.58 h 53.639 v -19.48 h -53.639 z"
         id="path2489" /></clipPath><linearGradient
       x1="0"
       y1="0"
       x2="1"
       y2="0"
       gradientUnits="userSpaceOnUse"
       gradientTransform="matrix(0,-57.18055,-57.18055,0,198.22597,962.53442)"
       spreadMethod="pad"
       id="linearGradient2539"><stop
         style="stop-opacity:1;stop-color:#f8f6c4"
         offset="0"
         id="stop2513" /><stop
         style="stop-opacity:1;stop-color:#f8f0b0"
         offset="0.0218679"
         id="stop2515" /><stop
         style="stop-opacity:1;stop-color:#fae584"
         offset="0.087193"
         id="stop2517" /><stop
         style="stop-opacity:1;stop-color:#fcde5c"
         offset="0.1478"
         id="stop2519" /><stop
         style="stop-opacity:1;stop-color:#fdd937"
         offset="0.2018"
         id="stop2521" /><stop
         style="stop-opacity:1;stop-color:#fdd612"
         offset="0.2472"
         id="stop2523" /><stop
         style="stop-opacity:1;stop-color:#fdd505"
         offset="0.2784"
         id="stop2525" /><stop
         style="stop-opacity:1;stop-color:#fdd20b"
         offset="0.3882"
         id="stop2527" /><stop
         style="stop-opacity:1;stop-color:#f9c718"
         offset="0.5124"
         id="stop2529" /><stop
         style="stop-opacity:1;stop-color:#f2b61b"
         offset="0.6436"
         id="stop2531" /><stop
         style="stop-opacity:1;stop-color:#ec9e23"
         offset="0.7796"
         id="stop2533" /><stop
         style="stop-opacity:1;stop-color:#e38326"
         offset="0.918"
         id="stop2535" /><stop
         style="stop-opacity:1;stop-color:#df6f26"
         offset="1"
         id="stop2537" /></linearGradient><clipPath
       clipPathUnits="userSpaceOnUse"
       id="clipPath2569"><path
         d="M 137.773,971.958 H 260.681 V 935.407 H 137.773 Z"
         id="path2567" /></clipPath><clipPath
       clipPathUnits="userSpaceOnUse"
       id="clipPath22308"><path
         d="M -2.2440947e-6,2048 H 2048 V -1.1811023e-5 H -2.2440947e-6 Z"
         id="path22310"
         style="stroke-width:0.999998" /></clipPath><clipPath
       clipPathUnits="userSpaceOnUse"
       id="clipPath22322"><path
         d="m 164.10499,1034.036 c -8.187,-2.079 -14.83395,-6.211 -20.121,-12.883 v 0 c -5.08201,-6.545 -8.85398,-15.631 -6.69796,-24.28002 v 0 c 2.07795,-8.18602 6.21,-14.83395 12.88298,-20.12002 v 0 c 6.54398,-5.08193 15.63,-8.85398 24.279,-6.69893 v 0 c 8.21198,2.079 14.83403,6.21098 20.121,12.88395 v 0 c 5.082,6.54398 8.85398,15.62903 6.69795,24.27802 v 0 c -2.07892,8.213 -6.21097,14.835 -12.88395,20.121 v 0 c -5.25502,4.081 -12.14902,7.318 -19.14105,7.318 v 0 c -1.71397,0 -3.43395,-0.195 -5.13697,-0.619"
         id="path22324"
         style="stroke-width:0.999998" /></clipPath><clipPath
       clipPathUnits="userSpaceOnUse"
       id="clipPath22418"><path
         d="M -2.2440947e-6,2048 H 2048 V -1.1811023e-5 H -2.2440947e-6 Z"
         id="path22420"
         style="stroke-width:0.999998" /></clipPath><clipPath
       clipPathUnits="userSpaceOnUse"
       id="clipPath22428"><path
         d="M -2.2440947e-6,2048 H 2048 V -1.1811023e-5 H -2.2440947e-6 Z"
         id="path22430"
         style="stroke-width:0.999998" /></clipPath><clipPath
       clipPathUnits="userSpaceOnUse"
       id="clipPath22438"><path
         d="M -2.2440947e-6,2048 H 2048 V -1.1811023e-5 H -2.2440947e-6 Z"
         id="path22440"
         style="stroke-width:0.999998" /></clipPath><clipPath
       clipPathUnits="userSpaceOnUse"
       id="clipPath22448"><path
         d="M -2.2440947e-6,2048 H 2048 V -1.1811023e-5 H -2.2440947e-6 Z"
         id="path22450"
         style="stroke-width:0.999998" /></clipPath><clipPath
       clipPathUnits="userSpaceOnUse"
       id="clipPath22458"><path
         d="M -2.2440947e-6,2048 H 2048 V -1.1811023e-5 H -2.2440947e-6 Z"
         id="path22460"
         style="stroke-width:0.999998" /></clipPath><clipPath
       clipPathUnits="userSpaceOnUse"
       id="clipPath22468"><path
         d="M -2.2440947e-6,2048 H 2048 V -1.1811023e-5 H -2.2440947e-6 Z"
         id="path22470"
         style="stroke-width:0.999998" /></clipPath><clipPath
       clipPathUnits="userSpaceOnUse"
       id="clipPath22478"><path
         d="M -2.2440947e-6,2048 H 2048 V -1.1811023e-5 H -2.2440947e-6 Z"
         id="path22480"
         style="stroke-width:0.999998" /></clipPath><clipPath
       clipPathUnits="userSpaceOnUse"
       id="clipPath22515"><path
         d="M -2.2440947e-6,2048 H 2048 V -1.1811023e-5 H -2.2440947e-6 Z"
         id="path22517"
         style="stroke-width:0.999998" /></clipPath><clipPath
       clipPathUnits="userSpaceOnUse"
       id="clipPath23320"><path
         d="m 194.18404,938.94801 -12.34403,-3.56603 24.22695,-30.02797 -3.79897,23.586 12.345,3.59197 -24.25298,30.003 z"
         id="path23322"
         style="stroke-width:0.999998" /></clipPath><clipPath
       clipPathUnits="userSpaceOnUse"
       id="clipPath23432"><path
         d="M -161.56421,1128.7103 H 1886.4358 V -919.28971 H -161.56421 Z"
         id="path23434"
         style="stroke-width:0.999998" /></clipPath><clipPath
       clipPathUnits="userSpaceOnUse"
       id="clipPath23438"><path
         d="m -230.8584,1128.6846 h 2048 V -919.31542 h -2048 z"
         id="path23440"
         style="stroke-width:0.999998" /></clipPath><clipPath
       clipPathUnits="userSpaceOnUse"
       id="clipPath23448"><path
         d="M -2.2440947e-6,2048 H 2048 V -1.1811023e-5 H -2.2440947e-6 Z"
         id="path23450"
         style="stroke-width:0.999998" /></clipPath><clipPath
       clipPathUnits="userSpaceOnUse"
       id="clipPath23461"><path
         d="M -242.07379,1060.6993 H 1805.9262 V -987.30071 H -242.07379 Z"
         id="path23463"
         style="stroke-width:0.999998" /></clipPath><clipPath
       clipPathUnits="userSpaceOnUse"
       id="clipPath23490"><path
         d="M -175.21771,1075.0201 H 1872.7823 V -972.97991 H -175.21771 Z"
         id="path23492"
         style="stroke-width:0.999998" /></clipPath><clipPath
       clipPathUnits="userSpaceOnUse"
       id="clipPath23522"><path
         d="M -242.07379,1057.0292 H 1805.9262 V -990.97082 H -242.07379 Z"
         id="path23524"
         style="stroke-width:0.999998" /></clipPath></defs><g
     id="g26073"
     transform="translate(-268.21297,-357.48563)"><g
       id="g2337"
       transform="matrix(0.35277776,0,0,-0.35277778,220,722.48892)"
       clip-path="url(#clipPath22322)"><path
         d="m 164.105,1034.036 c -8.187,-2.079 -14.834,-6.211 -20.121,-12.883 v 0 c -5.082,-6.545 -8.854,-15.631 -6.698,-24.28 v 0 c 2.078,-8.186 6.21,-14.834 12.883,-20.12 v 0 c 6.544,-5.082 15.63,-8.854 24.279,-6.699 v 0 c 8.212,2.079 14.834,6.211 20.121,12.884 v 0 c 5.082,6.544 8.854,15.629 6.698,24.278 v 0 c -2.079,8.213 -6.211,14.835 -12.884,20.121 v 0 c -5.255,4.081 -12.149,7.318 -19.141,7.318 v 0 c -1.714,0 -3.434,-0.195 -5.137,-0.619"
         style="fill:url(#linearGradient2345);stroke:none"
         id="path2347" /></g><g
       id="g2371"
       transform="matrix(0.35277776,0,0,-0.35277778,220,722.48892)"
       clip-path="url(#clipPath22308)"><g
         clip-path="url(#clipPath2363)"
         opacity="0.399994"
         id="g2369"><g
           transform="translate(167.313,1006.0615)"
           id="g2367"><path
             d="M 0,0 C -1.976,-2.797 -6.467,-2.618 -6.236,0.898 -6.031,3.747 -4.44,7.417 -1.232,7.032 2.335,6.57 1.925,2.746 0,0"
             style="fill:#d48129;fill-opacity:1;fill-rule:nonzero;stroke:none"
             id="path2365" /></g></g></g><g
       id="g2387"
       transform="matrix(0.35277776,0,0,-0.35277778,220,722.48892)"
       clip-path="url(#clipPath22418)"><g
         clip-path="url(#clipPath2379)"
         opacity="0.5"
         id="g2385"><g
           transform="translate(155.61,987.9937)"
           id="g2383"><path
             d="M 0,0 C -0.693,-1.258 -2.643,-1.232 -2.72,0.282 -2.772,1.54 -2.207,3.08 -0.821,2.951 0.719,2.797 0.667,1.232 0,0"
             style="fill:#d48129;fill-opacity:1;fill-rule:nonzero;stroke:none"
             id="path2381" /></g></g></g><g
       id="g2403"
       transform="matrix(0.35277776,0,0,-0.35277778,220,722.48892)"
       clip-path="url(#clipPath22468)"><g
         clip-path="url(#clipPath2395)"
         opacity="0.300003"
         id="g2401"><g
           transform="translate(178.5541,1001.3906)"
           id="g2399"><path
             d="m 0,0 c -0.744,-1.052 -2.669,-0.821 -2.643,0.539 0,1.104 0.59,2.464 1.924,2.207 C 0.77,2.489 0.719,1.027 0,0"
             style="fill:#d48129;fill-opacity:1;fill-rule:nonzero;stroke:none"
             id="path2397" /></g></g></g><g
       id="g2419"
       transform="matrix(0.35277776,0,0,-0.35277778,220,722.48892)"
       clip-path="url(#clipPath22438)"><g
         clip-path="url(#clipPath2411)"
         opacity="0.300003"
         id="g2417"><g
           transform="translate(169.9052,986.9671)"
           id="g2415"><path
             d="M 0,0 C 0.924,4.004 6.801,4.902 8.546,0.796 9.958,-2.566 10.343,-7.468 5.98,-8.187 1.104,-8.983 -0.924,-3.927 0,0"
             style="fill:#d48129;fill-opacity:1;fill-rule:nonzero;stroke:none"
             id="path2413" /></g></g></g><g
       id="g2435"
       transform="matrix(0.35277776,0,0,-0.35277778,220,722.48892)"
       clip-path="url(#clipPath22448)"><g
         clip-path="url(#clipPath2427)"
         opacity="0.300003"
         id="g2433"><g
           transform="translate(173.7292,1023.9753)"
           id="g2431"><path
             d="M 0,0 C 0.257,2.002 2.849,2.823 3.721,0.667 4.414,-1.078 4.363,-3.439 2.515,-3.747 0.436,-4.106 -0.257,-1.976 0,0"
             style="fill:#d48129;fill-opacity:1;fill-rule:nonzero;stroke:none"
             id="path2429" /></g></g></g><g
       id="g2451"
       transform="matrix(0.35277776,0,0,-0.35277778,220,722.48892)"
       clip-path="url(#clipPath22428)"><g
         clip-path="url(#clipPath2443)"
         opacity="0.300003"
         id="g2449"><g
           transform="translate(188.127,1001.4162)"
           id="g2447"><path
             d="M 0,0 C 0.513,1.745 3.388,2.643 4.183,0.898 4.825,-0.513 4.697,-2.669 2.515,-3.131 0.103,-3.619 -0.513,-1.72 0,0"
             style="fill:#d48129;fill-opacity:1;fill-rule:nonzero;stroke:none"
             id="path2445" /></g></g></g><g
       id="g2467"
       transform="matrix(0.35277776,0,0,-0.35277778,220,722.48892)"
       clip-path="url(#clipPath22458)"><g
         clip-path="url(#clipPath2459)"
         opacity="0.5"
         id="g2465"><g
           transform="translate(145.2929,1012.3236)"
           id="g2463"><path
             d="M 0,0 C 0.796,3.131 5.005,4.491 5.98,1.463 6.775,-0.975 6.416,-4.363 3.49,-5.21 0.154,-6.185 -0.77,-3.028 0,0"
             style="fill:#d48129;fill-opacity:1;fill-rule:nonzero;stroke:none"
             id="path2461" /></g></g></g><g
       id="g2483"
       transform="matrix(0.35277776,0,0,-0.35277778,220,722.48892)"
       clip-path="url(#clipPath22478)"><g
         clip-path="url(#clipPath2475)"
         opacity="0.5"
         id="g2481"><g
           transform="translate(170.2131,969.7719)"
           id="g2479"><path
             d="M 0,0 C 7.622,0.488 15.142,3.644 19.839,8.444 14.295,5.98 8.033,2.746 -0.18,2.361 -8.418,2.028 -13.089,3.644 -17.76,5.236 -13.782,2.541 -7.725,-0.436 0,0"
             style="fill:#d48129;fill-opacity:1;fill-rule:nonzero;stroke:none"
             id="path2477" /></g></g></g><g
       id="g2499"
       transform="matrix(0.35277776,0,0,-0.35277778,220,722.48892)"
       clip-path="url(#clipPath22515)"><g
         clip-path="url(#clipPath2491)"
         opacity="0.5"
         id="g2497"><g
           transform="translate(143.3424,1018.8168)"
           id="g2495"><path
             d="M 0,0 C 9.137,11.421 22.354,18.145 37.855,11.677 41.679,9.958 44.964,7.597 47.659,5.03 48.634,4.491 49.558,3.927 50.482,3.362 47.248,7.135 43.039,10.779 37.676,13.192 28.95,17.221 20.737,16.04 13.859,12.884 6.981,9.573 1.412,4.26 -3.157,-3.721 -2.181,-2.387 -1.129,-1.129 0,0"
             style="fill:#ffcd0b;fill-opacity:1;fill-rule:nonzero;stroke:none"
             id="path2493" /></g></g></g><g
       id="g2511"
       transform="matrix(0.35277776,0,0,-0.35277778,220,722.48892)"
       clip-path="url(#clipPath23320)"><path
         d="m 194.184,938.948 -12.344,-3.566 24.227,-30.028 -3.799,23.586 12.345,3.592 -24.253,30.003 z"
         style="fill:url(#linearGradient2539);stroke:none"
         id="path2541" /></g><path
       d="m 0,0 c 1.437,-3.67 5.569,-5.441 9.239,-4.004 3.67,1.438 5.441,5.57 4.004,9.24 C 11.806,8.906 1.386,15.861 1.386,15.861 1.386,15.861 -1.437,3.67 0,0"
       style="fill:#2cace2;fill-opacity:1;fill-rule:nonzero;stroke:none"
       id="path2553"
       transform="matrix(0.35277776,0,0,-0.35277778,276.99626,398.18394)"
       clip-path="url(#clipPath23432)" /><path
       d="m 0,0 c 1.437,-3.67 5.569,-5.441 9.239,-4.004 3.67,1.438 5.441,5.569 4.004,9.24 C 11.806,8.906 1.386,15.861 1.386,15.861 1.386,15.861 -1.437,3.644 0,0"
       style="fill:#2cace2;fill-opacity:1;fill-rule:nonzero;stroke:none"
       id="path2557"
       transform="matrix(0.35277776,0,0,-0.35277778,301.44171,398.17487)"
       clip-path="url(#clipPath23438)" /><path
       d="m 0,0 c -3.08,0 -6.031,-0.642 -8.726,-1.745 -6.057,11.857 -18.273,20.069 -32.517,20.069 -14.244,0 -26.46,-8.212 -32.517,-20.069 -2.695,1.103 -5.62,1.745 -8.726,1.745 -12.652,0 -22.918,-10.266 -22.918,-22.918 0,-12.653 10.266,-22.919 22.918,-22.919 4.902,0 9.445,1.566 13.166,4.209 6.724,-8.11 16.733,-13.371 28.077,-13.371 11.344,0 21.353,5.261 28.077,13.371 3.721,-2.618 8.264,-4.209 13.166,-4.209 12.653,0 22.918,10.266 22.918,22.919 C 22.918,-10.266 12.653,0 0,0"
       style="fill:#bdc5d2;fill-opacity:1;fill-rule:nonzero;stroke:none"
       id="path2561"
       transform="matrix(0.35277776,0,0,-0.35277778,305.39825,372.89644)"
       clip-path="url(#clipPath23522)" /><g
       id="g2577"
       transform="matrix(0.35277776,0,0,-0.35277778,220,722.48892)"
       clip-path="url(#clipPath23448)"><g
         clip-path="url(#clipPath2569)"
         opacity="0.0500031"
         id="g2575"><g
           transform="translate(203.8593,971.1577)"
           id="g2573"><path
             d="m 0,0 c -24.689,2.49 -47.813,-0.95 -66.086,-8.649 2.284,-10.266 11.421,-17.939 22.354,-17.939 4.902,0 9.444,1.565 13.166,4.209 6.724,-8.11 16.733,-13.372 28.077,-13.372 11.343,0 21.352,5.262 28.077,13.372 3.721,-2.618 8.264,-4.209 13.165,-4.209 7.34,0 13.859,3.464 18.068,8.854 C 41.269,-8.649 21.687,-2.181 0,0"
             style="fill:#a8a9ad;fill-opacity:1;fill-rule:nonzero;stroke:none"
             id="path2571" /></g></g></g><path
       d="m 0,0 c -3.08,0 -6.031,-0.642 -8.726,-1.745 -6.082,11.857 -18.273,20.069 -32.517,20.069 -14.244,0 -26.46,-8.212 -32.517,-20.069 -2.695,1.103 -5.62,1.745 -8.726,1.745 -12.652,0 -22.918,-10.266 -22.918,-22.918 0,-12.653 10.266,-22.919 22.918,-22.919 4.902,0 9.445,1.566 13.166,4.209 6.724,-8.11 16.733,-13.371 28.077,-13.371 11.344,0 21.353,5.261 28.077,13.371 3.721,-2.618 8.264,-4.209 13.166,-4.209 12.653,0 22.918,10.266 22.918,22.919 C 22.918,-10.266 12.653,0 0,0"
       style="fill:#d3dee2;fill-opacity:1;fill-rule:nonzero;stroke:none"
       id="path2581"
       transform="matrix(0.35277776,0,0,-0.35277778,305.39825,374.19117)"
       clip-path="url(#clipPath23461)" /><path
       d="m 0,0 c 1.925,0 3.721,-0.385 5.39,-1.078 3.747,7.34 11.292,12.396 20.095,12.396 8.803,0 16.348,-5.082 20.095,-12.396 1.668,0.693 3.491,1.078 5.39,1.078 7.16,0 13.063,-5.313 14.013,-12.216 0.077,0.641 0.154,1.283 0.154,1.924 0,7.828 -6.34,14.167 -14.167,14.167 -1.899,0 -3.722,-0.385 -5.39,-1.078 C 41.833,10.138 34.288,15.193 25.485,15.193 16.682,15.193 9.137,10.112 5.39,2.797 3.721,3.49 1.925,3.875 0,3.875 c -7.828,0 -14.167,-6.339 -14.167,-14.167 0,-0.667 0.052,-1.308 0.154,-1.924 C -13.089,-5.313 -7.186,0 0,0"
       style="fill:#bdc5d2;fill-opacity:1;fill-rule:nonzero;stroke:none"
       id="path2585"
       transform="matrix(0.35277776,0,0,-0.35277778,281.81291,379.24323)"
       clip-path="url(#clipPath23490)" /></g></svg>
