<?xml version="1.0" encoding="UTF-8" standalone="no"?>
<!-- Created with Inkscape (http://www.inkscape.org/) -->

<svg
   width="45.269501mm"
   height="45.503361mm"
   viewBox="0 0 45.269501 45.503361"
   version="1.1"
   id="svg5"
   xml:space="preserve"
   xmlns="http://www.w3.org/2000/svg"
   xmlns:svg="http://www.w3.org/2000/svg"><defs
     id="defs2"><linearGradient
       x1="0"
       y1="0"
       x2="1"
       y2="0"
       gradientUnits="userSpaceOnUse"
       gradientTransform="matrix(0,-65.1334,65.1334,0,1300.5143,1334.8285)"
       spreadMethod="pad"
       id="linearGradient4729"><stop
         style="stop-opacity:1;stop-color:#fdda00"
         offset="0"
         id="stop4723" /><stop
         style="stop-opacity:1;stop-color:#e2a026"
         offset="0.7755"
         id="stop4725" /><stop
         style="stop-opacity:1;stop-color:#e2a026"
         offset="1"
         id="stop4727" /></linearGradient><clipPath
       clipPathUnits="userSpaceOnUse"
       id="clipPath4747"><path
         d="m 1281.72,1277.52 h 37.08 v -7.26 h -37.08 z"
         id="path4745" /></clipPath><clipPath
       clipPathUnits="userSpaceOnUse"
       id="clipPath4763"><path
         d="m 1272.66,1322.62 h 39.89 V 1290 h -39.89 z"
         id="path4761" /></clipPath><clipPath
       clipPathUnits="userSpaceOnUse"
       id="clipPath4779"><path
         d="m 1317.69,1315.88 h 10.65 v -9.03 h -10.65 z"
         id="path4777" /></clipPath><clipPath
       clipPathUnits="userSpaceOnUse"
       id="clipPath4795"><path
         d="m 1316.98,1321.49 h 3.85 v -3.29 h -3.85 z"
         id="path4793" /></clipPath><clipPath
       clipPathUnits="userSpaceOnUse"
       id="clipPath4811"><path
         d="m 1313.38,1307.2 h 3.86 v -3.3 h -3.86 z"
         id="path4809" /></clipPath><linearGradient
       x1="0"
       y1="0"
       x2="1"
       y2="0"
       gradientUnits="userSpaceOnUse"
       gradientTransform="matrix(0,-57.180725,57.180725,0,1329.0544,1263.0222)"
       spreadMethod="pad"
       id="linearGradient4859"><stop
         style="stop-opacity:1;stop-color:#f8f6c4"
         offset="0"
         id="stop4833" /><stop
         style="stop-opacity:1;stop-color:#f8f0b0"
         offset="0.0218679"
         id="stop4835" /><stop
         style="stop-opacity:1;stop-color:#fae584"
         offset="0.087193"
         id="stop4837" /><stop
         style="stop-opacity:1;stop-color:#fcde5c"
         offset="0.1478"
         id="stop4839" /><stop
         style="stop-opacity:1;stop-color:#fdd937"
         offset="0.2018"
         id="stop4841" /><stop
         style="stop-opacity:1;stop-color:#fdd612"
         offset="0.2472"
         id="stop4843" /><stop
         style="stop-opacity:1;stop-color:#fdd505"
         offset="0.2784"
         id="stop4845" /><stop
         style="stop-opacity:1;stop-color:#fdd20b"
         offset="0.3882"
         id="stop4847" /><stop
         style="stop-opacity:1;stop-color:#f9c718"
         offset="0.5124"
         id="stop4849" /><stop
         style="stop-opacity:1;stop-color:#f2b61b"
         offset="0.6436"
         id="stop4851" /><stop
         style="stop-opacity:1;stop-color:#ec9e23"
         offset="0.7796"
         id="stop4853" /><stop
         style="stop-opacity:1;stop-color:#e38326"
         offset="0.918"
         id="stop4855" /><stop
         style="stop-opacity:1;stop-color:#df6f26"
         offset="1"
         id="stop4857" /></linearGradient><clipPath
       clipPathUnits="userSpaceOnUse"
       id="clipPath4889"><path
         d="m 1268.6,1272.45 h 122.91 v -36.56 H 1268.6 Z"
         id="path4887" /></clipPath><linearGradient
       x1="0"
       y1="0"
       x2="1"
       y2="0"
       gradientUnits="userSpaceOnUse"
       gradientTransform="matrix(0,-14.654487,14.654487,0,1282.6658,1327.9794)"
       spreadMethod="pad"
       id="linearGradient4925"><stop
         style="stop-opacity:1;stop-color:#fdda00"
         offset="0"
         id="stop4919" /><stop
         style="stop-opacity:1;stop-color:#e2a026"
         offset="0.7755"
         id="stop4921" /><stop
         style="stop-opacity:1;stop-color:#e2a026"
         offset="1"
         id="stop4923" /></linearGradient><clipPath
       clipPathUnits="userSpaceOnUse"
       id="clipPath22562"><path
         d="M -2.2440947e-6,2048 H 2048 V -1.1811023e-5 H -2.2440947e-6 Z"
         id="path22564"
         style="stroke-width:0.999998" /></clipPath><clipPath
       clipPathUnits="userSpaceOnUse"
       id="clipPath22590"><path
         d="M -2.2440947e-6,2048 H 2048 V -1.1811023e-5 H -2.2440947e-6 Z"
         id="path22592"
         style="stroke-width:0.999998" /></clipPath><clipPath
       clipPathUnits="userSpaceOnUse"
       id="clipPath22606"><path
         d="M -2.2440947e-6,2048 H 2048 V -1.1811023e-5 H -2.2440947e-6 Z"
         id="path22608"
         style="stroke-width:0.999998" /></clipPath><clipPath
       clipPathUnits="userSpaceOnUse"
       id="clipPath22626"><path
         d="M -2.2440947e-6,2048 H 2048 V -1.1811023e-5 H -2.2440947e-6 Z"
         id="path22628"
         style="stroke-width:0.999998" /></clipPath><clipPath
       clipPathUnits="userSpaceOnUse"
       id="clipPath22651"><path
         d="m 1282.666,1324.669 -4.748,3.311 1.668,-5.544 -4.62,-3.517 5.801,-0.102 1.899,-5.492 1.925,5.492 5.774,0.102 -4.62,3.517 1.694,5.544 z"
         id="path22653"
         style="stroke-width:0.999998" /></clipPath><clipPath
       clipPathUnits="userSpaceOnUse"
       id="clipPath22658"><path
         d="m 1325.012,1239.437 -12.344,-3.568 24.227,-30.027 -3.799,23.585 12.346,3.594 -24.254,30.001 z"
         id="path22660"
         style="stroke-width:0.999998" /></clipPath><clipPath
       clipPathUnits="userSpaceOnUse"
       id="clipPath22675"><path
         d="M -2.2440947e-6,2048 H 2048 V -1.1811023e-5 H -2.2440947e-6 Z"
         id="path22677"
         style="stroke-width:0.999998" /></clipPath><clipPath
       clipPathUnits="userSpaceOnUse"
       id="clipPath22688"><path
         d="m 1312.103,1334.729 c -0.872,-0.385 -0.95,-1.643 -0.513,-3.028 v 0 -0.1551 c 2.284,-10.907 -0.719,-22.687 -9.188,-31.156 v 0 c -9.188,-9.188 -22.303,-11.9339 -33.955,-8.444 v 0 c -0.385,-0.4869 -0.564,-1.257 -0.539,-2.181 v 0 c 1.643,-3.644 3.876,-7.083 6.853,-10.0599 v 0 c 13.371,-13.3461 35.006,-13.3461 48.352,0 v 0 c 13.346,13.3449 13.346,35.0059 0,48.3509 v 0 c -1.976,1.977 -4.158,3.619 -6.442,4.979 v 0 c -1.397,1.08 -3.004,1.793 -4.014,1.793 v 0 c -0.214,0 -0.402,-0.032 -0.554,-0.099"
         id="path22690"
         style="stroke-width:0.999998" /></clipPath><clipPath
       clipPathUnits="userSpaceOnUse"
       id="clipPath22694"><path
         d="m -1292.3926,828.2225 h 2048 v -2048 h -2048 z"
         id="path22696"
         style="stroke-width:0.999998" /></clipPath><clipPath
       clipPathUnits="userSpaceOnUse"
       id="clipPath22716"><path
         d="M -1361.687,828.1969 H 686.31301 v -2048 H -1361.687 Z"
         id="path22718"
         style="stroke-width:0.999998" /></clipPath><clipPath
       clipPathUnits="userSpaceOnUse"
       id="clipPath22722"><path
         d="m -1372.9025,756.54139 h 2048 V -1291.4586 h -2048 z"
         id="path22724"
         style="stroke-width:0.999998" /></clipPath><clipPath
       clipPathUnits="userSpaceOnUse"
       id="clipPath22732"><path
         d="M -2.2440947e-6,2048 H 2048 V -1.1811023e-5 H -2.2440947e-6 Z"
         id="path22734"
         style="stroke-width:0.999998" /></clipPath><clipPath
       clipPathUnits="userSpaceOnUse"
       id="clipPath22797"><path
         d="m -1372.9025,760.21141 h 2048 V -1287.7886 h -2048 z"
         id="path22799"
         style="stroke-width:0.999998" /></clipPath><clipPath
       clipPathUnits="userSpaceOnUse"
       id="clipPath22803"><path
         d="m -1306.0461,774.53221 h 2048 V -1273.4678 h -2048 z"
         id="path22805"
         style="stroke-width:0.999998" /></clipPath></defs><g
     id="g25826"
     transform="translate(-667.14493,-251.5913)"><g
       id="g4721"
       transform="matrix(0.35277776,0,0,-0.35277778,220,722.48892)"
       clip-path="url(#clipPath22688)"><path
         d="m 1312.103,1334.729 c -0.872,-0.385 -0.95,-1.643 -0.513,-3.028 v 0 -0.155 c 2.284,-10.907 -0.719,-22.687 -9.188,-31.156 v 0 c -9.188,-9.188 -22.303,-11.934 -33.955,-8.444 v 0 c -0.385,-0.487 -0.564,-1.257 -0.539,-2.181 v 0 c 1.643,-3.644 3.876,-7.083 6.853,-10.06 v 0 c 13.371,-13.346 35.006,-13.346 48.352,0 v 0 c 13.346,13.345 13.346,35.006 0,48.351 v 0 c -1.976,1.977 -4.158,3.619 -6.442,4.979 v 0 c -1.397,1.08 -3.004,1.793 -4.014,1.793 v 0 c -0.214,0 -0.402,-0.032 -0.554,-0.099"
         style="fill:url(#linearGradient4729);stroke:none"
         id="path4731" /></g><g
       id="g4755"
       transform="matrix(0.35277776,0,0,-0.35277778,220,722.48892)"
       clip-path="url(#clipPath22606)"><g
         clip-path="url(#clipPath4747)"
         opacity="0.5"
         id="g4753"><g
           transform="translate(1302.9408,1270.4907)"
           id="g4751"><path
             d="M 0,0 C -7.263,-0.873 -15.835,0.667 -21.225,5.056 -15.707,3.157 -8.495,0.975 -0.539,1.925 7.443,2.874 11.549,4.876 15.861,7.032 12.37,4.055 7.366,0.898 0,0"
             style="fill:#d48129;fill-opacity:1;fill-rule:nonzero;stroke:none"
             id="path4749" /></g></g></g><g
       id="g4771"
       transform="matrix(0.35277776,0,0,-0.35277778,220,722.48892)"
       clip-path="url(#clipPath22590)"><g
         clip-path="url(#clipPath4763)"
         opacity="0.5"
         id="g4769"><g
           transform="translate(1272.6565,1290.8684)"
           id="g4767"><path
             d="m 0,0 c 8.444,-2.233 22.354,-0.334 30.823,7.879 8.495,8.213 9.573,20.198 8.906,23.868 C 39.113,27.743 37.342,15.63 29.566,8.803 21.969,2.104 8.367,-1.463 0,0"
             style="fill:#fcd900;fill-opacity:1;fill-rule:nonzero;stroke:none"
             id="path4765" /></g></g></g><g
       id="g4787"
       transform="matrix(0.35277776,0,0,-0.35277778,220,722.48892)"
       clip-path="url(#clipPath22626)"><g
         clip-path="url(#clipPath4779)"
         opacity="0.190002"
         id="g4785"><g
           transform="translate(1325.3716,1307.422)"
           id="g4783"><path
             d="M 0,0 C 3.593,1.36 4.235,7.135 0.18,8.161 -3.105,8.983 -7.52,8.238 -7.674,4.132 -7.828,-0.488 -3.516,-1.334 0,0"
             style="fill:#d48129;fill-opacity:1;fill-rule:nonzero;stroke:none"
             id="path4781" /></g></g></g><g
       id="g4803"
       transform="matrix(0.35277776,0,0,-0.35277778,220,722.48892)"
       clip-path="url(#clipPath22562)"><g
         clip-path="url(#clipPath4795)"
         opacity="0.190002"
         id="g4801"><g
           transform="translate(1319.7511,1318.4065)"
           id="g4799"><path
             d="M 0,0 C 1.309,0.488 1.54,2.592 0.077,2.977 -1.129,3.285 -2.72,3.003 -2.772,1.514 -2.849,-0.18 -1.283,-0.488 0,0"
             style="fill:#d48129;fill-opacity:1;fill-rule:nonzero;stroke:none"
             id="path4797" /></g></g></g><g
       id="g4819"
       transform="matrix(0.35277776,0,0,-0.35277778,220,722.48892)"
       clip-path="url(#clipPath22675)"><g
         clip-path="url(#clipPath4811)"
         opacity="0.190002"
         id="g4817"><g
           transform="translate(1316.1581,1304.1113)"
           id="g4815"><path
             d="M 0,0 C 1.309,0.488 1.54,2.592 0.077,2.977 -1.129,3.285 -2.72,3.003 -2.772,1.514 -2.875,-0.18 -1.309,-0.488 0,0"
             style="fill:#d48129;fill-opacity:1;fill-rule:nonzero;stroke:none"
             id="path4813" /></g></g></g><g
       id="g4831"
       transform="matrix(0.35277776,0,0,-0.35277778,220,722.48892)"
       clip-path="url(#clipPath22658)"><path
         d="m 1325.012,1239.437 -12.344,-3.568 24.227,-30.027 -3.799,23.585 12.346,3.594 -24.254,30.001 z"
         style="fill:url(#linearGradient4859);stroke:none"
         id="path4861" /></g><path
       d="m 0,0 c 1.437,-3.67 5.569,-5.441 9.239,-4.004 3.67,1.437 5.441,5.57 4.004,9.24 C 11.806,8.906 1.386,15.861 1.386,15.861 1.386,15.861 -1.437,3.67 0,0"
       style="fill:#2cace2;fill-opacity:1;fill-rule:nonzero;stroke:none"
       id="path4873"
       transform="matrix(0.35277776,0,0,-0.35277778,675.92737,292.17852)"
       clip-path="url(#clipPath22694)" /><path
       d="m 0,0 c 1.437,-3.67 5.569,-5.441 9.239,-4.004 3.67,1.437 5.441,5.57 4.004,9.24 C 11.806,8.906 1.386,15.861 1.386,15.861 1.386,15.861 -1.437,3.644 0,0"
       style="fill:#2cace2;fill-opacity:1;fill-rule:nonzero;stroke:none"
       id="path4877"
       transform="matrix(0.35277776,0,0,-0.35277778,700.37289,292.16949)"
       clip-path="url(#clipPath22716)" /><path
       d="m 0,0 c -3.08,0 -6.031,-0.642 -8.726,-1.745 -6.057,11.857 -18.273,20.07 -32.517,20.07 -14.244,0 -26.46,-8.213 -32.517,-20.07 -2.695,1.103 -5.621,1.745 -8.726,1.745 -12.653,0 -22.919,-10.266 -22.919,-22.918 0,-12.653 10.266,-22.919 22.919,-22.919 4.902,0 9.444,1.566 13.166,4.209 6.724,-8.11 16.733,-13.371 28.077,-13.371 11.344,0 21.353,5.261 28.077,13.371 3.721,-2.618 8.264,-4.209 13.166,-4.209 12.653,0 22.918,10.266 22.918,22.919 C 22.918,-10.266 12.653,0 0,0"
       style="fill:#bdc5d2;fill-opacity:1;fill-rule:nonzero;stroke:none"
       id="path4881"
       transform="matrix(0.35277776,0,0,-0.35277778,704.32947,266.89102)"
       clip-path="url(#clipPath22722)" /><g
       id="g4897"
       transform="matrix(0.35277776,0,0,-0.35277778,220,722.48892)"
       clip-path="url(#clipPath22732)"><g
         clip-path="url(#clipPath4889)"
         opacity="0.0500031"
         id="g4895"><g
           transform="translate(1334.6879,1271.6456)"
           id="g4893"><path
             d="m 0,0 c -24.689,2.489 -47.813,-0.95 -66.086,-8.649 2.284,-10.266 11.42,-17.94 22.353,-17.94 4.902,0 9.445,1.566 13.166,4.209 6.725,-8.11 16.734,-13.371 28.077,-13.371 11.344,0 21.354,5.261 28.078,13.371 3.721,-2.617 8.264,-4.209 13.166,-4.209 7.34,0 13.858,3.465 18.067,8.855 C 41.269,-8.649 21.687,-2.182 0,0"
             style="fill:#a8a9ad;fill-opacity:1;fill-rule:nonzero;stroke:none"
             id="path4891" /></g></g></g><path
       d="m 0,0 c -3.08,0 -6.031,-0.642 -8.726,-1.745 -6.082,11.857 -18.273,20.07 -32.517,20.07 -14.244,0 -26.46,-8.213 -32.517,-20.07 -2.695,1.103 -5.621,1.745 -8.726,1.745 -12.653,0 -22.919,-10.266 -22.919,-22.918 0,-12.653 10.266,-22.919 22.919,-22.919 4.902,0 9.444,1.566 13.166,4.209 6.724,-8.11 16.733,-13.371 28.077,-13.371 11.344,0 21.353,5.261 28.077,13.371 3.721,-2.618 8.264,-4.209 13.166,-4.209 12.653,0 22.918,10.266 22.918,22.919 C 22.918,-10.266 12.653,0 0,0"
       style="fill:#d3dee2;fill-opacity:1;fill-rule:nonzero;stroke:none"
       id="path4901"
       transform="matrix(0.35277776,0,0,-0.35277778,704.32947,268.18572)"
       clip-path="url(#clipPath22797)" /><path
       d="m 0,0 c 1.925,0 3.721,-0.385 5.39,-1.078 3.747,7.34 11.292,12.396 20.095,12.396 8.803,0 16.348,-5.082 20.095,-12.396 1.669,0.693 3.491,1.078 5.39,1.078 7.16,0 13.063,-5.313 14.013,-12.216 0.077,0.641 0.154,1.283 0.154,1.924 0,7.828 -6.339,14.167 -14.167,14.167 -1.899,0 -3.721,-0.385 -5.39,-1.078 C 41.833,10.138 34.288,15.193 25.485,15.193 16.682,15.193 9.137,10.112 5.39,2.797 3.721,3.49 1.925,3.875 0,3.875 c -7.828,0 -14.167,-6.339 -14.167,-14.167 0,-0.667 0.052,-1.308 0.154,-1.924 C -13.089,-5.313 -7.186,0 0,0"
       style="fill:#bdc5d2;fill-opacity:1;fill-rule:nonzero;stroke:none"
       id="path4905"
       transform="matrix(0.35277776,0,0,-0.35277778,680.74402,273.23778)"
       clip-path="url(#clipPath22803)" /><g
       id="g4917"
       transform="matrix(0.35277776,0,0,-0.35277778,220,722.48892)"
       clip-path="url(#clipPath22651)"><path
         d="m 1282.666,1324.669 -4.748,3.311 1.668,-5.544 -4.62,-3.517 5.801,-0.102 1.899,-5.492 1.925,5.492 5.774,0.102 -4.62,3.517 1.694,5.544 z"
         style="fill:url(#linearGradient4925);stroke:none"
         id="path4927" /></g></g></svg>
