<?xml version="1.0" encoding="UTF-8" standalone="no"?>
<!-- Created with Inkscape (http://www.inkscape.org/) -->

<svg
   width="45.27042mm"
   height="45.614517mm"
   viewBox="0 0 45.27042 45.614517"
   version="1.1"
   id="svg5"
   xml:space="preserve"
   xmlns="http://www.w3.org/2000/svg"
   xmlns:svg="http://www.w3.org/2000/svg"><defs
     id="defs2"><linearGradient
       x1="0"
       y1="0"
       x2="1"
       y2="0"
       gradientUnits="userSpaceOnUse"
       gradientTransform="matrix(10.527759,-64.088791,-64.088791,-10.527759,446.40448,1034.0894)"
       spreadMethod="pad"
       id="linearGradient2605"><stop
         style="stop-opacity:1;stop-color:#fdda00"
         offset="0"
         id="stop2599" /><stop
         style="stop-opacity:1;stop-color:#e2a026"
         offset="0.7755"
         id="stop2601" /><stop
         style="stop-opacity:1;stop-color:#e2a026"
         offset="1"
         id="stop2603" /></linearGradient><clipPath
       clipPathUnits="userSpaceOnUse"
       id="clipPath2623"><path
         d="m 443.46,1013.12 h 7.7 v -8.99 h -7.7 z"
         id="path2621" /></clipPath><clipPath
       clipPathUnits="userSpaceOnUse"
       id="clipPath2639"><path
         d="m 435.278,990.953 h 3.167 v -3.861 h -3.167 z"
         id="path2637" /></clipPath><clipPath
       clipPathUnits="userSpaceOnUse"
       id="clipPath2655"><path
         d="m 458.302,1004.17 h 3.132 v -3.44 h -3.132 z"
         id="path2653" /></clipPath><clipPath
       clipPathUnits="userSpaceOnUse"
       id="clipPath2671"><path
         d="m 452.08,990.439 h 9.726 v -11.742 h -9.726 z"
         id="path2669" /></clipPath><clipPath
       clipPathUnits="userSpaceOnUse"
       id="clipPath2687"><path
         d="m 456.07,1025.92 h 4.183 v -5.73 h -4.183 z"
         id="path2685" /></clipPath><clipPath
       clipPathUnits="userSpaceOnUse"
       id="clipPath2703"><path
         d="m 470.351,1003.26 h 4.689 v -5.053 h -4.689 z"
         id="path2701" /></clipPath><clipPath
       clipPathUnits="userSpaceOnUse"
       id="clipPath2719"><path
         d="m 427.43,1015.48 h 6.601 v -8.55 h -6.601 z"
         id="path2717" /></clipPath><clipPath
       clipPathUnits="userSpaceOnUse"
       id="clipPath2735"><path
         d="m 434.845,978.215 h 37.599 v -8.486 h -37.599 z"
         id="path2733" /></clipPath><clipPath
       clipPathUnits="userSpaceOnUse"
       id="clipPath2751"><path
         d="m 422.578,1034.58 h 53.638 v -19.48 h -53.638 z"
         id="path2749" /></clipPath><linearGradient
       x1="0"
       y1="0"
       x2="1"
       y2="0"
       gradientUnits="userSpaceOnUse"
       gradientTransform="matrix(0,-57.18055,57.18055,0,480.61795,962.53442)"
       spreadMethod="pad"
       id="linearGradient2799"><stop
         style="stop-opacity:1;stop-color:#f8f6c4"
         offset="0"
         id="stop2773" /><stop
         style="stop-opacity:1;stop-color:#f8f0b0"
         offset="0.0218679"
         id="stop2775" /><stop
         style="stop-opacity:1;stop-color:#fae584"
         offset="0.087193"
         id="stop2777" /><stop
         style="stop-opacity:1;stop-color:#fcde5c"
         offset="0.1478"
         id="stop2779" /><stop
         style="stop-opacity:1;stop-color:#fdd937"
         offset="0.2018"
         id="stop2781" /><stop
         style="stop-opacity:1;stop-color:#fdd612"
         offset="0.2472"
         id="stop2783" /><stop
         style="stop-opacity:1;stop-color:#fdd505"
         offset="0.2784"
         id="stop2785" /><stop
         style="stop-opacity:1;stop-color:#fdd20b"
         offset="0.3882"
         id="stop2787" /><stop
         style="stop-opacity:1;stop-color:#f9c718"
         offset="0.5124"
         id="stop2789" /><stop
         style="stop-opacity:1;stop-color:#f2b61b"
         offset="0.6436"
         id="stop2791" /><stop
         style="stop-opacity:1;stop-color:#ec9e23"
         offset="0.7796"
         id="stop2793" /><stop
         style="stop-opacity:1;stop-color:#e38326"
         offset="0.918"
         id="stop2795" /><stop
         style="stop-opacity:1;stop-color:#df6f26"
         offset="1"
         id="stop2797" /></linearGradient><clipPath
       clipPathUnits="userSpaceOnUse"
       id="clipPath2821"><path
         d="M 420.165,971.958 H 543.073 V 935.407 H 420.165 Z"
         id="path2819" /></clipPath><radialGradient
       fx="0"
       fy="0"
       cx="0"
       cy="0"
       r="1"
       gradientUnits="userSpaceOnUse"
       gradientTransform="matrix(8.2126465,0,0,8.2126465,511.32553,931.17242)"
       spreadMethod="pad"
       id="radialGradient2855"><stop
         style="stop-opacity:1;stop-color:#ceebfb"
         offset="0"
         id="stop2851" /><stop
         style="stop-opacity:1;stop-color:#e2f4fd"
         offset="1"
         id="stop2853" /></radialGradient><radialGradient
       fx="0"
       fy="0"
       cx="0"
       cy="0"
       r="1"
       gradientUnits="userSpaceOnUse"
       gradientTransform="matrix(8.2035427,0,0,8.2035427,450.75726,930.03571)"
       spreadMethod="pad"
       id="radialGradient2875"><stop
         style="stop-opacity:1;stop-color:#ceebfb"
         offset="0"
         id="stop2871" /><stop
         style="stop-opacity:1;stop-color:#e2f4fd"
         offset="1"
         id="stop2873" /></radialGradient><radialGradient
       fx="0"
       fy="0"
       cx="0"
       cy="0"
       r="1"
       gradientUnits="userSpaceOnUse"
       gradientTransform="matrix(6.1496391,0,0,6.1496391,466.17535,912.66827)"
       spreadMethod="pad"
       id="radialGradient2895"><stop
         style="stop-opacity:1;stop-color:#ceebfb"
         offset="0"
         id="stop2891" /><stop
         style="stop-opacity:1;stop-color:#e2f4fd"
         offset="1"
         id="stop2893" /></radialGradient><radialGradient
       fx="0"
       fy="0"
       cx="0"
       cy="0"
       r="1"
       gradientUnits="userSpaceOnUse"
       gradientTransform="matrix(6.1488953,0,0,6.1488953,501.43805,916.67194)"
       spreadMethod="pad"
       id="radialGradient2915"><stop
         style="stop-opacity:1;stop-color:#ceebfb"
         offset="0"
         id="stop2911" /><stop
         style="stop-opacity:1;stop-color:#e2f4fd"
         offset="1"
         id="stop2913" /></radialGradient><clipPath
       clipPathUnits="userSpaceOnUse"
       id="clipPath23346"><path
         d="M -2.2440947e-6,2048 H 2048 V -1.1811023e-5 H -2.2440947e-6 Z"
         id="path23348"
         style="stroke-width:0.999998" /></clipPath><clipPath
       clipPathUnits="userSpaceOnUse"
       id="clipPath23356"><path
         d="M -2.2440947e-6,2048 H 2048 V -1.1811023e-5 H -2.2440947e-6 Z"
         id="path23358"
         style="stroke-width:0.999998" /></clipPath><clipPath
       clipPathUnits="userSpaceOnUse"
       id="clipPath23366"><path
         d="M -2.2440947e-6,2048 H 2048 V -1.1811023e-5 H -2.2440947e-6 Z"
         id="path23368"
         style="stroke-width:0.999998" /></clipPath><clipPath
       clipPathUnits="userSpaceOnUse"
       id="clipPath23376"><path
         d="M -2.2440947e-6,2048 H 2048 V -1.1811023e-5 H -2.2440947e-6 Z"
         id="path23378"
         style="stroke-width:0.999998" /></clipPath><clipPath
       clipPathUnits="userSpaceOnUse"
       id="clipPath23386"><path
         d="M -2.2440947e-6,2048 H 2048 V -1.1811023e-5 H -2.2440947e-6 Z"
         id="path23388"
         style="stroke-width:0.999998" /></clipPath><clipPath
       clipPathUnits="userSpaceOnUse"
       id="clipPath23396"><path
         d="M -2.2440947e-6,2048 H 2048 V -1.1811023e-5 H -2.2440947e-6 Z"
         id="path23398"
         style="stroke-width:0.999998" /></clipPath><clipPath
       clipPathUnits="userSpaceOnUse"
       id="clipPath23406"><path
         d="M -2.2440947e-6,2048 H 2048 V -1.1811023e-5 H -2.2440947e-6 Z"
         id="path23408"
         style="stroke-width:0.999998" /></clipPath><clipPath
       clipPathUnits="userSpaceOnUse"
       id="clipPath23416"><path
         d="M -2.2440947e-6,2048 H 2048 V -1.1811023e-5 H -2.2440947e-6 Z"
         id="path23418"
         style="stroke-width:0.999998" /></clipPath><clipPath
       clipPathUnits="userSpaceOnUse"
       id="clipPath23426"><path
         d="M -2.2440947e-6,2048 H 2048 V -1.1811023e-5 H -2.2440947e-6 Z"
         id="path23428"
         style="stroke-width:0.999998" /></clipPath><clipPath
       clipPathUnits="userSpaceOnUse"
       id="clipPath23455"><path
         d="m 449.60203,937.07601 v -4.287 l -3.02798,3.02797 c -0.43605,0.43703 -1.18005,0.43703 -1.61707,0 v 0 c -0.43598,-0.435 -0.43598,-1.17997 0,-1.61602 v 0 l 3.02902,-3.02895 h -4.287 c -0.64102,0 -1.155,-0.513 -1.155,-1.15403 v 0 c 0,-0.642 0.51398,-1.155 1.155,-1.155 v 0 h 4.287 l -3.02902,-3.02902 c -0.43598,-0.43598 -0.43598,-1.17998 0,-1.61693 v 0 c 0.43702,-0.43605 1.18102,-0.43605 1.61707,0 v 0 l 3.02798,3.02895 v -4.28595 c 0,-0.642 0.51397,-1.155 1.15492,-1.155 v 0 c 0.64208,0 1.15605,0.513 1.15605,1.155 v 0 4.28595 l 3.02798,-3.02895 c 0.43605,-0.43605 1.17997,-0.43605 1.61602,0 v 0 c 0.43703,0.43695 0.43703,1.18095 0,1.61693 v 0 l -3.02805,3.02902 h 4.28603 c 0.64102,0 1.155,0.513 1.155,1.155 v 0 c 0,0.64103 -0.53895,1.15403 -1.155,1.15403 v 0 h -4.28603 l 3.02805,3.02895 c 0.43703,0.43605 0.43703,1.18102 0,1.61602 v 0 c -0.43605,0.43703 -1.17997,0.43703 -1.61602,0 v 0 l -3.02798,-3.02797 v 4.287 c 0,0.64102 -0.51397,1.15402 -1.15605,1.15402 v 0 c -0.64095,0 -1.15492,-0.513 -1.15492,-1.15402"
         id="path23457"
         style="stroke-width:0.999998" /></clipPath><clipPath
       clipPathUnits="userSpaceOnUse"
       id="clipPath23468"><path
         d="m 500.62303,921.93298 v -3.20797 l -2.28405,2.28495 c -0.333,0.33307 -0.87203,0.33307 -1.206,0 v 0 c -0.33398,-0.33398 -0.33398,-0.87293 0,-1.20698 v 0 l 2.28405,-2.28502 h -3.20805 c -0.462,0 -0.84698,-0.38393 -0.84698,-0.846 v 0 c 0,-0.46193 0.38498,-0.84698 0.84698,-0.84698 v 0 h 3.20805 l -2.28405,-2.28502 c -0.33398,-0.33195 -0.33398,-0.87195 0,-1.206 v 0 c 0.33397,-0.33293 0.873,-0.33293 1.206,0 v 0 l 2.28405,2.28502 v -3.20797 c 0,-0.46305 0.38497,-0.84698 0.84697,-0.84698 v 0 c 0.46298,0 0.84698,0.38393 0.84698,0.84698 v 0 3.183 l 2.28405,-2.28503 c 0.33397,-0.33397 0.873,-0.33397 1.20697,0 v 0 c 0.333,0.333 0.333,0.87203 0,1.206 v 0 l -2.28397,2.28405 h 3.20797 c 0.46103,0 0.846,0.38595 0.846,0.84698 v 0 c 0,0.462 -0.35902,0.87195 -0.846,0.87195 v 0 h -3.20797 l 2.28397,2.28502 c 0.333,0.33405 0.333,0.873 0,1.20698 v 0 c -0.33397,0.33307 -0.873,0.33307 -1.20697,0 v 0 l -2.28405,-2.28495 v 3.20797 c 0,0.462 -0.384,0.84705 -0.84698,0.84705 v 0 c -0.462,0 -0.84697,-0.38505 -0.84697,-0.84705"
         id="path23470"
         style="stroke-width:0.999998" /></clipPath><clipPath
       clipPathUnits="userSpaceOnUse"
       id="clipPath23478"><path
         d="M -2.2440947e-6,2048 H 2048 V -1.1811023e-5 H -2.2440947e-6 Z"
         id="path23480"
         style="stroke-width:0.999998" /></clipPath><clipPath
       clipPathUnits="userSpaceOnUse"
       id="clipPath23484"><path
         d="M -457.60969,1075.0201 H 1590.3903 V -972.97991 H -457.60969 Z"
         id="path23486"
         style="stroke-width:0.999998" /></clipPath><clipPath
       clipPathUnits="userSpaceOnUse"
       id="clipPath23497"><path
         d="m 476.576,938.94801 -12.345,-3.56603 24.228,-30.02797 -3.79897,23.586 12.34395,3.59197 -24.252,30.003 z"
         id="path23499"
         style="stroke-width:0.999998" /></clipPath><clipPath
       clipPathUnits="userSpaceOnUse"
       id="clipPath23504"><path
         d="m 446.49703,1034.036 c -8.18701,-2.079 -14.83403,-6.211 -20.12101,-12.883 v 0 c -5.082,-6.545 -8.85397,-15.631 -6.699,-24.28002 v 0 c 2.079,-8.18602 6.21098,-14.83395 12.88395,-20.12002 v 0 c 6.54405,-5.08193 15.63001,-8.85398 24.27901,-6.69893 v 0 c 8.21205,2.079 14.83402,6.21098 20.12002,12.88395 v 0 c 5.08298,6.54398 8.85503,15.62903 6.699,24.27802 v 0 c -2.079,8.213 -6.21097,14.835 -12.88297,20.121 v 0 c -5.25705,4.081 -12.15105,7.318 -19.14203,7.318 v 0 c -1.71397,0 -3.43402,-0.195 -5.13697,-0.619"
         id="path23506"
         style="stroke-width:0.999998" /></clipPath><clipPath
       clipPathUnits="userSpaceOnUse"
       id="clipPath23510"><path
         d="m -524.4658,1057.0292 h 2048 V -990.97082 h -2048 z"
         id="path23512"
         style="stroke-width:0.999998" /></clipPath><clipPath
       clipPathUnits="userSpaceOnUse"
       id="clipPath23516"><path
         d="m -524.4658,1060.6993 h 2048 V -987.30071 h -2048 z"
         id="path23518"
         style="stroke-width:0.999998" /></clipPath><clipPath
       clipPathUnits="userSpaceOnUse"
       id="clipPath23536"><path
         d="m 510.17,938.23003 v -4.28602 l -3.02797,3.02895 c -0.43605,0.43605 -1.18005,0.43605 -1.617,0 v 0 c -0.43605,-0.43695 -0.43605,-1.18095 0,-1.617 v 0 l 3.02895,-3.02895 h -4.28595 c -0.642,0 -1.155,-0.513 -1.155,-1.155 v 0 c 0,-0.64103 0.513,-1.15403 1.155,-1.15403 v 0 h 4.28595 l -3.02895,-3.02895 c -0.43605,-0.43605 -0.43605,-1.18102 0,-1.617 v 0 c 0.43695,-0.43605 1.18095,-0.43605 1.617,0 v 0 l 3.02797,3.02798 v -4.28498 c 0,-0.64207 0.51398,-1.155 1.155,-1.155 v 0 c 0.642,0 1.15598,0.51293 1.15598,1.155 v 0 4.28498 l 3.02805,-3.02798 c 0.43597,-0.43605 1.17997,-0.43605 1.617,0 v 0 c 0.43597,0.43598 0.43597,1.18095 0,1.617 v 0 l -3.02903,3.02895 h 4.28595 c 0.64208,0 1.15508,0.513 1.15508,1.15403 v 0 c 0,0.642 -0.513,1.155 -1.15508,1.155 v 0 H 514.097 l 3.02903,3.02895 c 0.43597,0.43605 0.43597,1.18005 0,1.617 v 0 c -0.43703,0.43605 -1.18103,0.43605 -1.617,0 v 0 l -3.02805,-3.02895 v 4.28602 c 0,0.642 -0.51398,1.15493 -1.15598,1.15493 v 0 c -0.64102,0 -1.155,-0.51293 -1.155,-1.15493"
         id="path23538"
         style="stroke-width:0.999998" /></clipPath><clipPath
       clipPathUnits="userSpaceOnUse"
       id="clipPath23725"><path
         d="m 465.35998,917.93001 v -3.20903 l -2.28398,2.28405 c -0.33397,0.33398 -0.87202,0.33398 -1.206,0 v 0 c -0.33397,-0.33307 -0.33397,-0.87202 0,-1.206 v 0 l 2.28398,-2.28405 H 460.895 c -0.462,0 -0.84697,-0.38497 -0.84697,-0.84697 v 0 c 0,-0.46103 0.38497,-0.84698 0.84697,-0.84698 v 0 h 3.20798 l -2.28398,-2.28405 c -0.33405,-0.33397 -0.33405,-0.873 0,-1.206 v 0 c 0.33398,-0.33397 0.87195,-0.33397 1.206,0 v 0 l 2.28398,2.28405 v -3.20805 c 0,-0.462 0.38505,-0.84697 0.84705,-0.84697 v 0 c 0.462,0 0.84697,0.38497 0.84697,0.84697 v 0 3.20805 l 2.28398,-2.28405 c 0.33397,-0.33397 0.873,-0.33397 1.206,0 v 0 c 0.33397,0.333 0.33397,0.87203 0,1.206 v 0 l -2.28398,2.28405 h 3.20798 c 0.462,0 0.84705,0.38595 0.84705,0.84698 v 0 c 0.0771,0.462 -0.33405,0.84697 -0.795,0.84697 v 0 H 468.26 l 2.28398,2.28405 c 0.33405,0.33398 0.33405,0.87293 0,1.206 v 0 c -0.333,0.33398 -0.87195,0.33398 -1.206,0 v 0 l -2.28398,-2.28405 v 3.20903 c 0,0.46102 -0.38505,0.84697 -0.84697,0.84697 v 0 c -0.462,0 -0.84705,-0.38595 -0.84705,-0.84697"
         id="path23727"
         style="stroke-width:0.999998" /></clipPath></defs><g
     id="g26130"
     transform="translate(-367.83441,-357.48563)"><g
       id="g2597"
       transform="matrix(0.35277776,0,0,-0.35277778,220,722.48892)"
       clip-path="url(#clipPath23504)"><path
         d="m 446.497,1034.036 c -8.187,-2.079 -14.834,-6.211 -20.121,-12.883 v 0 c -5.082,-6.545 -8.854,-15.631 -6.699,-24.28 v 0 c 2.079,-8.186 6.211,-14.834 12.884,-20.12 v 0 c 6.544,-5.082 15.63,-8.854 24.279,-6.699 v 0 c 8.212,2.079 14.834,6.211 20.12,12.884 v 0 c 5.083,6.544 8.855,15.629 6.699,24.278 v 0 c -2.079,8.213 -6.211,14.835 -12.883,20.121 v 0 c -5.257,4.081 -12.151,7.318 -19.142,7.318 v 0 c -1.714,0 -3.434,-0.195 -5.137,-0.619"
         style="fill:url(#linearGradient2605);stroke:none"
         id="path2607" /></g><g
       id="g2631"
       transform="matrix(0.35277776,0,0,-0.35277778,220,722.48892)"
       clip-path="url(#clipPath23346)"><g
         clip-path="url(#clipPath2623)"
         opacity="0.399994"
         id="g2629"><g
           transform="translate(449.705,1006.0615)"
           id="g2627"><path
             d="M 0,0 C -1.976,-2.797 -6.467,-2.618 -6.236,0.898 -6.031,3.747 -4.44,7.417 -1.232,7.032 2.335,6.57 1.925,2.746 0,0"
             style="fill:#d48129;fill-opacity:1;fill-rule:nonzero;stroke:none"
             id="path2625" /></g></g></g><g
       id="g2647"
       transform="matrix(0.35277776,0,0,-0.35277778,220,722.48892)"
       clip-path="url(#clipPath23356)"><g
         clip-path="url(#clipPath2639)"
         opacity="0.5"
         id="g2645"><g
           transform="translate(438.002,987.9937)"
           id="g2643"><path
             d="M 0,0 C -0.693,-1.258 -2.643,-1.232 -2.72,0.282 -2.772,1.54 -2.207,3.08 -0.821,2.951 0.719,2.797 0.667,1.232 0,0"
             style="fill:#d48129;fill-opacity:1;fill-rule:nonzero;stroke:none"
             id="path2641" /></g></g></g><g
       id="g2663"
       transform="matrix(0.35277776,0,0,-0.35277778,220,722.48892)"
       clip-path="url(#clipPath23366)"><g
         clip-path="url(#clipPath2655)"
         opacity="0.300003"
         id="g2661"><g
           transform="translate(460.9461,1001.3906)"
           id="g2659"><path
             d="m 0,0 c -0.744,-1.052 -2.669,-0.821 -2.643,0.539 0,1.104 0.59,2.464 1.924,2.207 C 0.77,2.489 0.719,1.027 0,0"
             style="fill:#d48129;fill-opacity:1;fill-rule:nonzero;stroke:none"
             id="path2657" /></g></g></g><g
       id="g2679"
       transform="matrix(0.35277776,0,0,-0.35277778,220,722.48892)"
       clip-path="url(#clipPath23406)"><g
         clip-path="url(#clipPath2671)"
         opacity="0.300003"
         id="g2677"><g
           transform="translate(452.2971,986.9671)"
           id="g2675"><path
             d="M 0,0 C 0.924,4.004 6.801,4.902 8.546,0.796 9.958,-2.566 10.343,-7.468 5.98,-8.187 1.104,-8.983 -0.924,-3.927 0,0"
             style="fill:#d48129;fill-opacity:1;fill-rule:nonzero;stroke:none"
             id="path2673" /></g></g></g><g
       id="g2695"
       transform="matrix(0.35277776,0,0,-0.35277778,220,722.48892)"
       clip-path="url(#clipPath23386)"><g
         clip-path="url(#clipPath2687)"
         opacity="0.300003"
         id="g2693"><g
           transform="translate(456.1212,1023.9753)"
           id="g2691"><path
             d="M 0,0 C 0.257,2.002 2.849,2.823 3.721,0.667 4.414,-1.078 4.363,-3.439 2.515,-3.747 0.436,-4.106 -0.257,-1.976 0,0"
             style="fill:#d48129;fill-opacity:1;fill-rule:nonzero;stroke:none"
             id="path2689" /></g></g></g><g
       id="g2711"
       transform="matrix(0.35277776,0,0,-0.35277778,220,722.48892)"
       clip-path="url(#clipPath23396)"><g
         clip-path="url(#clipPath2703)"
         opacity="0.300003"
         id="g2709"><g
           transform="translate(470.519,1001.4162)"
           id="g2707"><path
             d="M 0,0 C 0.513,1.745 3.388,2.643 4.183,0.898 4.825,-0.513 4.697,-2.669 2.515,-3.131 0.103,-3.619 -0.513,-1.719 0,0"
             style="fill:#d48129;fill-opacity:1;fill-rule:nonzero;stroke:none"
             id="path2705" /></g></g></g><g
       id="g2727"
       transform="matrix(0.35277776,0,0,-0.35277778,220,722.48892)"
       clip-path="url(#clipPath23416)"><g
         clip-path="url(#clipPath2719)"
         opacity="0.5"
         id="g2725"><g
           transform="translate(427.6849,1012.3236)"
           id="g2723"><path
             d="M 0,0 C 0.796,3.131 5.005,4.491 5.98,1.463 6.775,-0.975 6.416,-4.363 3.49,-5.21 0.154,-6.185 -0.77,-3.028 0,0"
             style="fill:#d48129;fill-opacity:1;fill-rule:nonzero;stroke:none"
             id="path2721" /></g></g></g><g
       id="g2743"
       transform="matrix(0.35277776,0,0,-0.35277778,220,722.48892)"
       clip-path="url(#clipPath23376)"><g
         clip-path="url(#clipPath2735)"
         opacity="0.5"
         id="g2741"><g
           transform="translate(452.6051,969.7719)"
           id="g2739"><path
             d="M 0,0 C 7.622,0.488 15.142,3.644 19.839,8.444 14.295,5.98 8.033,2.746 -0.18,2.361 -8.418,2.028 -13.089,3.644 -17.76,5.236 -13.782,2.541 -7.725,-0.436 0,0"
             style="fill:#d48129;fill-opacity:1;fill-rule:nonzero;stroke:none"
             id="path2737" /></g></g></g><g
       id="g2759"
       transform="matrix(0.35277776,0,0,-0.35277778,220,722.48892)"
       clip-path="url(#clipPath23426)"><g
         clip-path="url(#clipPath2751)"
         opacity="0.5"
         id="g2757"><g
           transform="translate(425.7344,1018.8168)"
           id="g2755"><path
             d="M 0,0 C 9.137,11.421 22.354,18.145 37.855,11.677 41.679,9.958 44.964,7.597 47.659,5.03 48.634,4.491 49.558,3.927 50.482,3.362 47.248,7.135 43.039,10.779 37.676,13.192 28.95,17.221 20.737,16.04 13.859,12.884 6.981,9.573 1.412,4.26 -3.157,-3.721 -2.181,-2.387 -1.129,-1.129 0,0"
             style="fill:#ffcd0b;fill-opacity:1;fill-rule:nonzero;stroke:none"
             id="path2753" /></g></g></g><g
       id="g2771"
       transform="matrix(0.35277776,0,0,-0.35277778,220,722.48892)"
       clip-path="url(#clipPath23497)"><path
         d="m 476.576,938.948 -12.345,-3.566 24.228,-30.028 -3.799,23.586 12.344,3.592 -24.252,30.003 z"
         style="fill:url(#linearGradient2799);stroke:none"
         id="path2801" /></g><path
       d="m 0,0 c -3.08,0 -6.031,-0.642 -8.726,-1.745 -6.057,11.857 -18.273,20.069 -32.517,20.069 -14.244,0 -26.46,-8.212 -32.517,-20.069 -2.695,1.103 -5.62,1.745 -8.726,1.745 -12.652,0 -22.918,-10.266 -22.918,-22.918 0,-12.653 10.266,-22.919 22.918,-22.919 4.902,0 9.445,1.566 13.166,4.209 6.724,-8.11 16.733,-13.371 28.077,-13.371 11.344,0 21.353,5.261 28.077,13.371 3.721,-2.618 8.264,-4.209 13.166,-4.209 12.653,0 22.918,10.266 22.918,22.919 C 22.918,-10.266 12.653,0 0,0"
       style="fill:#bdc5d2;fill-opacity:1;fill-rule:nonzero;stroke:none"
       id="path2813"
       transform="matrix(0.35277776,0,0,-0.35277778,405.01987,372.89644)"
       clip-path="url(#clipPath23510)" /><g
       id="g2829"
       transform="matrix(0.35277776,0,0,-0.35277778,220,722.48892)"
       clip-path="url(#clipPath23478)"><g
         clip-path="url(#clipPath2821)"
         opacity="0.0500031"
         id="g2827"><g
           transform="translate(486.2513,971.1577)"
           id="g2825"><path
             d="m 0,0 c -24.689,2.49 -47.813,-0.95 -66.086,-8.649 2.284,-10.266 11.421,-17.939 22.354,-17.939 4.902,0 9.444,1.565 13.166,4.209 6.724,-8.11 16.733,-13.372 28.077,-13.372 11.343,0 21.352,5.262 28.077,13.372 3.721,-2.618 8.263,-4.209 13.165,-4.209 7.34,0 13.859,3.464 18.068,8.854 C 41.269,-8.649 21.687,-2.181 0,0"
             style="fill:#a8a9ad;fill-opacity:1;fill-rule:nonzero;stroke:none"
             id="path2823" /></g></g></g><path
       d="m 0,0 c -3.08,0 -6.031,-0.642 -8.726,-1.745 -6.082,11.857 -18.273,20.069 -32.517,20.069 -14.244,0 -26.46,-8.212 -32.517,-20.069 -2.695,1.103 -5.62,1.745 -8.726,1.745 -12.652,0 -22.918,-10.266 -22.918,-22.918 0,-12.653 10.266,-22.919 22.918,-22.919 4.902,0 9.445,1.566 13.166,4.209 6.724,-8.11 16.733,-13.371 28.077,-13.371 11.344,0 21.353,5.261 28.077,13.371 3.721,-2.618 8.264,-4.209 13.166,-4.209 12.653,0 22.918,10.266 22.918,22.919 C 22.918,-10.266 12.653,0 0,0"
       style="fill:#d3dee2;fill-opacity:1;fill-rule:nonzero;stroke:none"
       id="path2833"
       transform="matrix(0.35277776,0,0,-0.35277778,405.01987,374.19117)"
       clip-path="url(#clipPath23516)" /><path
       d="m 0,0 c 1.925,0 3.721,-0.385 5.39,-1.078 3.747,7.34 11.292,12.396 20.095,12.396 8.803,0 16.348,-5.082 20.095,-12.396 1.668,0.693 3.491,1.078 5.39,1.078 7.16,0 13.063,-5.313 14.013,-12.216 0.077,0.641 0.154,1.283 0.154,1.924 0,7.828 -6.34,14.167 -14.167,14.167 -1.899,0 -3.722,-0.385 -5.39,-1.078 C 41.833,10.138 34.288,15.193 25.485,15.193 16.682,15.193 9.137,10.112 5.39,2.797 3.721,3.49 1.925,3.875 0,3.875 c -7.828,0 -14.167,-6.339 -14.167,-14.167 0,-0.667 0.051,-1.308 0.154,-1.924 C -13.089,-5.313 -7.186,0 0,0"
       style="fill:#bdc5d2;fill-opacity:1;fill-rule:nonzero;stroke:none"
       id="path2837"
       transform="matrix(0.35277776,0,0,-0.35277778,381.43452,379.24323)"
       clip-path="url(#clipPath23484)" /><g
       id="g2849"
       transform="matrix(0.35277776,0,0,-0.35277778,220,722.48892)"
       clip-path="url(#clipPath23536)"><path
         d="m 510.17,938.23 v -4.286 l -3.028,3.029 c -0.436,0.436 -1.18,0.436 -1.617,0 v 0 c -0.436,-0.437 -0.436,-1.181 0,-1.617 v 0 l 3.029,-3.029 h -4.286 c -0.642,0 -1.155,-0.513 -1.155,-1.155 v 0 c 0,-0.641 0.513,-1.154 1.155,-1.154 v 0 h 4.286 l -3.029,-3.029 c -0.436,-0.436 -0.436,-1.181 0,-1.617 v 0 c 0.437,-0.436 1.181,-0.436 1.617,0 v 0 l 3.028,3.028 v -4.285 c 0,-0.642 0.514,-1.155 1.155,-1.155 v 0 c 0.642,0 1.156,0.513 1.156,1.155 v 0 4.285 l 3.028,-3.028 c 0.436,-0.436 1.18,-0.436 1.617,0 v 0 c 0.436,0.436 0.436,1.181 0,1.617 v 0 l -3.029,3.029 h 4.286 c 0.642,0 1.155,0.513 1.155,1.154 v 0 c 0,0.642 -0.513,1.155 -1.155,1.155 v 0 h -4.286 l 3.029,3.029 c 0.436,0.436 0.436,1.18 0,1.617 v 0 c -0.437,0.436 -1.181,0.436 -1.617,0 v 0 l -3.028,-3.029 v 4.286 c 0,0.642 -0.514,1.155 -1.156,1.155 v 0 c -0.641,0 -1.155,-0.513 -1.155,-1.155"
         style="fill:url(#radialGradient2855);stroke:none"
         id="path2857" /></g><g
       id="g2869"
       transform="matrix(0.35277776,0,0,-0.35277778,220,722.48892)"
       clip-path="url(#clipPath23455)"><path
         d="m 449.602,937.076 v -4.287 l -3.028,3.028 c -0.436,0.437 -1.18,0.437 -1.617,0 v 0 c -0.436,-0.435 -0.436,-1.18 0,-1.616 v 0 l 3.029,-3.029 h -4.287 c -0.641,0 -1.155,-0.513 -1.155,-1.154 v 0 c 0,-0.642 0.514,-1.155 1.155,-1.155 v 0 h 4.287 l -3.029,-3.029 c -0.436,-0.436 -0.436,-1.18 0,-1.617 v 0 c 0.437,-0.436 1.181,-0.436 1.617,0 v 0 l 3.028,3.029 v -4.286 c 0,-0.642 0.514,-1.155 1.155,-1.155 v 0 c 0.642,0 1.156,0.513 1.156,1.155 v 0 4.286 l 3.028,-3.029 c 0.436,-0.436 1.18,-0.436 1.616,0 v 0 c 0.437,0.437 0.437,1.181 0,1.617 v 0 l -3.028,3.029 h 4.286 c 0.641,0 1.155,0.513 1.155,1.155 v 0 c 0,0.641 -0.539,1.154 -1.155,1.154 v 0 h -4.286 l 3.028,3.029 c 0.437,0.436 0.437,1.181 0,1.616 v 0 c -0.436,0.437 -1.18,0.437 -1.616,0 v 0 l -3.028,-3.028 v 4.287 c 0,0.641 -0.514,1.154 -1.156,1.154 v 0 c -0.641,0 -1.155,-0.513 -1.155,-1.154"
         style="fill:url(#radialGradient2875);stroke:none"
         id="path2877" /></g><g
       id="g2889"
       transform="matrix(0.35277776,0,0,-0.35277778,220,722.48892)"
       clip-path="url(#clipPath23725)"><path
         d="m 465.36,917.93 v -3.209 l -2.284,2.284 c -0.334,0.334 -0.872,0.334 -1.206,0 v 0 c -0.334,-0.333 -0.334,-0.872 0,-1.206 v 0 l 2.284,-2.284 h -3.259 c -0.462,0 -0.847,-0.385 -0.847,-0.847 v 0 c 0,-0.461 0.385,-0.847 0.847,-0.847 v 0 h 3.208 l -2.284,-2.284 c -0.334,-0.334 -0.334,-0.873 0,-1.206 v 0 c 0.334,-0.334 0.872,-0.334 1.206,0 v 0 l 2.284,2.284 v -3.208 c 0,-0.462 0.385,-0.847 0.847,-0.847 v 0 c 0.462,0 0.847,0.385 0.847,0.847 v 0 3.208 l 2.284,-2.284 c 0.334,-0.334 0.873,-0.334 1.206,0 v 0 c 0.334,0.333 0.334,0.872 0,1.206 v 0 l -2.284,2.284 h 3.208 c 0.462,0 0.847,0.386 0.847,0.847 v 0 c 0.077,0.462 -0.334,0.847 -0.795,0.847 v 0 h -3.209 l 2.284,2.284 c 0.334,0.334 0.334,0.873 0,1.206 v 0 c -0.333,0.334 -0.872,0.334 -1.206,0 v 0 l -2.284,-2.284 v 3.209 c 0,0.461 -0.385,0.847 -0.847,0.847 v 0 c -0.462,0 -0.847,-0.386 -0.847,-0.847"
         style="fill:url(#radialGradient2895);stroke:none"
         id="path2897" /></g><g
       id="g2909"
       transform="matrix(0.35277776,0,0,-0.35277778,220,722.48892)"
       clip-path="url(#clipPath23468)"><path
         d="m 500.623,921.933 v -3.208 l -2.284,2.285 c -0.333,0.333 -0.872,0.333 -1.206,0 v 0 c -0.334,-0.334 -0.334,-0.873 0,-1.207 v 0 l 2.284,-2.285 h -3.208 c -0.462,0 -0.847,-0.384 -0.847,-0.846 v 0 c 0,-0.462 0.385,-0.847 0.847,-0.847 v 0 h 3.208 l -2.284,-2.285 c -0.334,-0.332 -0.334,-0.872 0,-1.206 v 0 c 0.334,-0.333 0.873,-0.333 1.206,0 v 0 l 2.284,2.285 v -3.208 c 0,-0.463 0.385,-0.847 0.847,-0.847 v 0 c 0.463,0 0.847,0.384 0.847,0.847 v 0 3.183 l 2.284,-2.285 c 0.334,-0.334 0.873,-0.334 1.207,0 v 0 c 0.333,0.333 0.333,0.872 0,1.206 v 0 l -2.284,2.284 h 3.208 c 0.461,0 0.846,0.386 0.846,0.847 v 0 c 0,0.462 -0.359,0.872 -0.846,0.872 v 0 h -3.208 l 2.284,2.285 c 0.333,0.334 0.333,0.873 0,1.207 v 0 c -0.334,0.333 -0.873,0.333 -1.207,0 v 0 l -2.284,-2.285 v 3.208 c 0,0.462 -0.384,0.847 -0.847,0.847 v 0 c -0.462,0 -0.847,-0.385 -0.847,-0.847"
         style="fill:url(#radialGradient2915);stroke:none"
         id="path2917" /></g></g></svg>
