<?xml version="1.0" encoding="UTF-8" standalone="no"?>
<!-- Created with Inkscape (http://www.inkscape.org/) -->

<svg
   width="45.269505mm"
   height="43.43153mm"
   viewBox="0 0 45.269505 43.43153"
   version="1.1"
   id="svg5"
   xml:space="preserve"
   xmlns="http://www.w3.org/2000/svg"
   xmlns:svg="http://www.w3.org/2000/svg"><defs
     id="defs2"><linearGradient
       x1="0"
       y1="0"
       x2="1"
       y2="0"
       gradientUnits="userSpaceOnUse"
       gradientTransform="matrix(10.527528,-64.087379,64.087379,10.527528,732.85071,1330.1055)"
       spreadMethod="pad"
       id="linearGradient5351"><stop
         style="stop-opacity:1;stop-color:#fdda00"
         offset="0"
         id="stop5345" /><stop
         style="stop-opacity:1;stop-color:#e2a026"
         offset="0.7755"
         id="stop5347" /><stop
         style="stop-opacity:1;stop-color:#e2a026"
         offset="1"
         id="stop5349" /></linearGradient><clipPath
       clipPathUnits="userSpaceOnUse"
       id="clipPath5369"><path
         d="m 729.906,1309.14 h 7.7 v -9 h -7.7 z"
         id="path5367" /></clipPath><clipPath
       clipPathUnits="userSpaceOnUse"
       id="clipPath5385"><path
         d="m 721.725,1286.97 h 3.166 v -3.86 h -3.166 z"
         id="path5383" /></clipPath><clipPath
       clipPathUnits="userSpaceOnUse"
       id="clipPath5401"><path
         d="m 744.748,1300.18 h 3.132 v -3.43 h -3.132 z"
         id="path5399" /></clipPath><clipPath
       clipPathUnits="userSpaceOnUse"
       id="clipPath5417"><path
         d="m 738.526,1286.46 h 9.726 v -11.75 h -9.726 z"
         id="path5415" /></clipPath><clipPath
       clipPathUnits="userSpaceOnUse"
       id="clipPath5433"><path
         d="m 742.516,1321.93 h 4.183 v -5.73 h -4.183 z"
         id="path5431" /></clipPath><clipPath
       clipPathUnits="userSpaceOnUse"
       id="clipPath5449"><path
         d="m 756.797,1299.27 h 4.688 v -5.05 h -4.688 z"
         id="path5447" /></clipPath><clipPath
       clipPathUnits="userSpaceOnUse"
       id="clipPath5465"><path
         d="m 713.877,1311.5 h 6.601 v -8.55 h -6.601 z"
         id="path5463" /></clipPath><clipPath
       clipPathUnits="userSpaceOnUse"
       id="clipPath5481"><path
         d="m 721.292,1274.23 h 37.597 v -8.48 h -37.597 z"
         id="path5479" /></clipPath><clipPath
       clipPathUnits="userSpaceOnUse"
       id="clipPath5497"><path
         d="m 709.024,1330.59 h 53.638 v -19.48 h -53.638 z"
         id="path5495" /></clipPath><clipPath
       clipPathUnits="userSpaceOnUse"
       id="clipPath5517"><path
         d="m 706.612,1267.98 h 122.905 v -36.55 H 706.612 Z"
         id="path5515" /></clipPath><radialGradient
       fx="0"
       fy="0"
       cx="0"
       cy="0"
       r="1"
       gradientUnits="userSpaceOnUse"
       gradientTransform="matrix(8.2124662,0,0,8.2124662,800.33673,1224.6243)"
       spreadMethod="pad"
       id="radialGradient5551"><stop
         style="stop-opacity:1;stop-color:#ceebfb"
         offset="0"
         id="stop5547" /><stop
         style="stop-opacity:1;stop-color:#e2f4fd"
         offset="1"
         id="stop5549" /></radialGradient><radialGradient
       fx="0"
       fy="0"
       cx="0"
       cy="0"
       r="1"
       gradientUnits="userSpaceOnUse"
       gradientTransform="matrix(8.2033625,0,0,8.2033625,737.20343,1223.4877)"
       spreadMethod="pad"
       id="radialGradient5571"><stop
         style="stop-opacity:1;stop-color:#ceebfb"
         offset="0"
         id="stop5567" /><stop
         style="stop-opacity:1;stop-color:#e2f4fd"
         offset="1"
         id="stop5569" /></radialGradient><radialGradient
       fx="0"
       fy="0"
       cx="0"
       cy="0"
       r="1"
       gradientUnits="userSpaceOnUse"
       gradientTransform="matrix(8.2033625,0,0,8.2033625,769.79663,1215.7885)"
       spreadMethod="pad"
       id="radialGradient5591"><stop
         style="stop-opacity:1;stop-color:#ceebfb"
         offset="0"
         id="stop5587" /><stop
         style="stop-opacity:1;stop-color:#e2f4fd"
         offset="1"
         id="stop5589" /></radialGradient><clipPath
       clipPathUnits="userSpaceOnUse"
       id="clipPath22851"><path
         d="M -2.2440947e-6,2048 H 2048 V -1.1811023e-5 H -2.2440947e-6 Z"
         id="path22853"
         style="stroke-width:0.999998" /></clipPath><clipPath
       clipPathUnits="userSpaceOnUse"
       id="clipPath22910"><path
         d="M -2.2440947e-6,2048 H 2048 V -1.1811023e-5 H -2.2440947e-6 Z"
         id="path22912"
         style="stroke-width:0.999998" /></clipPath><clipPath
       clipPathUnits="userSpaceOnUse"
       id="clipPath22920"><path
         d="M -2.2440947e-6,2048 H 2048 V -1.1811023e-5 H -2.2440947e-6 Z"
         id="path22922"
         style="stroke-width:0.999998" /></clipPath><clipPath
       clipPathUnits="userSpaceOnUse"
       id="clipPath22930"><path
         d="M -2.2440947e-6,2048 H 2048 V -1.1811023e-5 H -2.2440947e-6 Z"
         id="path22932"
         style="stroke-width:0.999998" /></clipPath><clipPath
       clipPathUnits="userSpaceOnUse"
       id="clipPath22940"><path
         d="M -2.2440947e-6,2048 H 2048 V -1.1811023e-5 H -2.2440947e-6 Z"
         id="path22942"
         style="stroke-width:0.999998" /></clipPath><clipPath
       clipPathUnits="userSpaceOnUse"
       id="clipPath22946"><path
         d="m -810.9103,761.0122 h 2048 v -2048 h -2048 z"
         id="path22948"
         style="stroke-width:0.999998" /></clipPath><clipPath
       clipPathUnits="userSpaceOnUse"
       id="clipPath22956"><path
         d="M -2.2440947e-6,2048 H 2048 V -1.1811023e-5 H -2.2440947e-6 Z"
         id="path22958"
         style="stroke-width:0.999998" /></clipPath><clipPath
       clipPathUnits="userSpaceOnUse"
       id="clipPath22966"><path
         d="M -2.2440947e-6,2048 H 2048 V -1.1811023e-5 H -2.2440947e-6 Z"
         id="path22968"
         style="stroke-width:0.999998" /></clipPath><clipPath
       clipPathUnits="userSpaceOnUse"
       id="clipPath22976"><path
         d="M -2.2440947e-6,2048 H 2048 V -1.1811023e-5 H -2.2440947e-6 Z"
         id="path22978"
         style="stroke-width:0.999998" /></clipPath><clipPath
       clipPathUnits="userSpaceOnUse"
       id="clipPath22986"><path
         d="M -2.2440947e-6,2048 H 2048 V -1.1811023e-5 H -2.2440947e-6 Z"
         id="path22988"
         style="stroke-width:0.999998" /></clipPath><clipPath
       clipPathUnits="userSpaceOnUse"
       id="clipPath22996"><path
         d="M -2.2440947e-6,2048 H 2048 V -1.1811023e-5 H -2.2440947e-6 Z"
         id="path22998"
         style="stroke-width:0.999998" /></clipPath><clipPath
       clipPathUnits="userSpaceOnUse"
       id="clipPath23003"><path
         d="m 768.64102,1222.828 v -4.286 l -3.027,3.028 c -0.43703,0.436 -1.18103,0.436 -1.61798,0 v 0 c -0.43605,-0.436 -0.43605,-1.18 0,-1.616 v 0 l 3.02895,-3.029 h -4.28595 c -0.64207,0 -1.155,-0.513 -1.155,-1.155 v 0 c 0,-0.641 0.51293,-1.154 1.155,-1.154 v 0 h 4.28595 l -3.02895,-3.029 c -0.43605,-0.436 -0.43605,-1.181 0,-1.617 v 0 c 0.43695,-0.436 1.18095,-0.436 1.61798,0 v 0 l 3.027,3.028 v -4.285 c 0,-0.642 0.51397,-1.155 1.15597,-1.155 v 0 c 0.64103,0 1.155,0.513 1.155,1.155 v 0 4.285 l 3.02798,-3.028 c 0.43605,-0.436 1.18005,-0.436 1.617,0 v 0 c 0.43605,0.436 0.43605,1.181 0,1.617 v 0 l -3.02895,3.029 h 4.28595 c 0.64207,0 1.155,0.513 1.155,1.154 v 0 c 0,0.642 -0.53895,1.155 -1.155,1.155 v 0 h -4.28595 l 3.02895,3.029 c 0.43605,0.436 0.43605,1.18 0,1.616 v 0 c -0.43695,0.436 -1.18095,0.436 -1.617,0 v 0 l -3.02798,-3.028 v 4.286 c 0,0.642 -0.51397,1.155 -1.155,1.155 v 0 c -0.642,0 -1.15597,-0.513 -1.15597,-1.155"
         id="path23005"
         style="stroke-width:0.999998" /></clipPath><clipPath
       clipPathUnits="userSpaceOnUse"
       id="clipPath23017"><path
         d="m 799.18199,1231.682 v -4.286 l -3.02797,3.028 c -0.43703,0.437 -1.18103,0.437 -1.617,0 v 0 c -0.43605,-0.436 -0.43605,-1.181 0,-1.616 v 0 l 3.02797,-3.029 h -4.28602 c -0.64193,0 -1.155,-0.514 -1.155,-1.154 v 0 c 0,-0.642 0.51307,-1.155 1.155,-1.155 v 0 h 4.28602 l -3.02797,-3.029 c -0.43605,-0.436 -0.43605,-1.18 0,-1.617 v 0 c 0.43597,-0.436 1.17997,-0.436 1.617,0 v 0 l 3.02797,3.029 v -4.286 c 0,-0.642 0.513,-1.155 1.155,-1.155 v 0 c 0.64103,0 1.15403,0.513 1.15403,1.155 v 0 4.286 l 3.02895,-3.029 c 0.43605,-0.436 1.18102,-0.436 1.61707,0 v 0 c 0.43598,0.437 0.43598,1.181 0,1.617 v 0 l -3.02805,3.029 h 4.28505 c 0.64193,0 1.155,0.513 1.155,1.155 v 0 c 0,0.64 -0.51307,1.154 -1.155,1.154 v 0 h -4.28505 l 3.02805,3.029 c 0.43598,0.436 0.43598,1.18 0,1.616 v 0 c -0.43605,0.437 -1.18102,0.437 -1.61707,0 v 0 l -3.02895,-3.028 v 4.286 c 0,0.641 -0.513,1.155 -1.15403,1.155 v 0 c -0.642,0 -1.155,-0.514 -1.155,-1.155"
         id="path23019"
         style="stroke-width:0.999998" /></clipPath><clipPath
       clipPathUnits="userSpaceOnUse"
       id="clipPath23034"><path
         d="m 732.94296,1330.052 c -8.18692,-2.079 -14.83395,-6.211 -20.11995,-12.883 v 0 c -5.082,-6.545 -8.85502,-15.63 -6.69802,-24.278 v 0 c 2.07802,-8.188 6.21,-14.834 12.882,-20.121 v 0 c 6.54502,-5.081 15.63,-8.854 24.279,-6.699 v 0 c 8.21198,2.079 14.83403,6.211 20.12003,12.884 v 0 c 5.08095,6.544 8.85397,15.629 6.699,24.278 v 0 c -2.079,8.213 -6.21105,14.834 -12.88403,20.121 v 0 c -5.25502,4.08 -12.14902,7.317 -19.14,7.317 v 0 c -1.71398,0 -3.435,-0.195 -5.13803,-0.619"
         id="path23036"
         style="stroke-width:0.999998" /></clipPath><clipPath
       clipPathUnits="userSpaceOnUse"
       id="clipPath23050"><path
         d="m -810.9103,764.6823 h 2048 v -2048 h -2048 z"
         id="path23052"
         style="stroke-width:0.999998" /></clipPath><clipPath
       clipPathUnits="userSpaceOnUse"
       id="clipPath23063"><path
         d="M -744.05569,779.0027 H 1303.9443 v -2048 H -744.05569 Z"
         id="path23065"
         style="stroke-width:0.999998" /></clipPath><clipPath
       clipPathUnits="userSpaceOnUse"
       id="clipPath23159"><path
         d="m 736.04901,1230.527 v -4.286 l -3.02902,3.028 c -0.43598,0.437 -1.18103,0.437 -1.617,0 v 0 c -0.43598,-0.436 -0.43598,-1.18 0,-1.616 v 0 l 3.02797,-3.028 h -4.28497 c -0.642,0 -1.155,-0.514 -1.155,-1.155 v 0 c 0,-0.642 0.513,-1.156 1.155,-1.156 v 0 h 4.28497 l -3.02797,-3.028 c -0.43598,-0.436 -0.43598,-1.18 0,-1.617 v 0 c 0.43597,-0.436 1.18102,-0.436 1.617,0 v 0 l 3.02902,3.029 v -4.286 c 0,-0.642 0.513,-1.156 1.15395,-1.156 v 0 c 0.64208,0 1.155,0.514 1.155,1.156 v 0 4.286 l 3.02903,-3.029 c 0.43605,-0.436 1.18103,-0.436 1.61603,0 v 0 c 0.43702,0.437 0.43702,1.181 0,1.617 v 0 l -3.02805,3.028 h 4.28602 c 0.642,0 1.155,0.514 1.155,1.156 v 0 c 0,0.641 -0.53902,1.155 -1.155,1.155 v 0 h -4.28602 l 3.02805,3.028 c 0.43702,0.436 0.43702,1.18 0,1.616 v 0 c -0.435,0.437 -1.17998,0.437 -1.61603,0 v 0 l -3.02903,-3.028 v 4.286 c 0,0.641 -0.51292,1.155 -1.155,1.155 v 0 c -0.64095,0 -1.15395,-0.514 -1.15395,-1.155"
         id="path23161"
         style="stroke-width:0.999998" /></clipPath></defs><g
     id="g25929"
     transform="translate(-468.88658,-253.05776)"><g
       id="g5343"
       transform="matrix(0.35277776,0,0,-0.35277778,220,722.48892)"
       clip-path="url(#clipPath23034)"><path
         d="m 732.943,1330.052 c -8.187,-2.079 -14.834,-6.211 -20.12,-12.883 v 0 c -5.082,-6.545 -8.855,-15.63 -6.698,-24.278 v 0 c 2.078,-8.188 6.21,-14.834 12.882,-20.121 v 0 c 6.545,-5.081 15.63,-8.854 24.279,-6.699 v 0 c 8.212,2.079 14.834,6.211 20.12,12.884 v 0 c 5.081,6.544 8.854,15.629 6.699,24.278 v 0 c -2.079,8.213 -6.211,14.834 -12.884,20.121 v 0 c -5.255,4.08 -12.149,7.317 -19.14,7.317 v 0 c -1.714,0 -3.435,-0.195 -5.138,-0.619"
         style="fill:url(#linearGradient5351);stroke:none"
         id="path5353" /></g><g
       id="g5377"
       transform="matrix(0.35277776,0,0,-0.35277778,220,722.48892)"
       clip-path="url(#clipPath22851)"><g
         clip-path="url(#clipPath5369)"
         opacity="0.399994"
         id="g5375"><g
           transform="translate(736.1512,1302.0781)"
           id="g5373"><path
             d="M 0,0 C -1.976,-2.797 -6.467,-2.618 -6.236,0.898 -6.031,3.747 -4.44,7.417 -1.232,7.032 2.335,6.57 1.925,2.746 0,0"
             style="fill:#d48129;fill-opacity:1;fill-rule:nonzero;stroke:none"
             id="path5371" /></g></g></g><g
       id="g5393"
       transform="matrix(0.35277776,0,0,-0.35277778,220,722.48892)"
       clip-path="url(#clipPath22910)"><g
         clip-path="url(#clipPath5385)"
         opacity="0.5"
         id="g5391"><g
           transform="translate(724.4484,1284.0107)"
           id="g5389"><path
             d="M 0,0 C -0.693,-1.258 -2.643,-1.232 -2.72,0.282 -2.772,1.54 -2.207,3.08 -0.821,2.951 0.719,2.797 0.667,1.232 0,0"
             style="fill:#d48129;fill-opacity:1;fill-rule:nonzero;stroke:none"
             id="path5387" /></g></g></g><g
       id="g5409"
       transform="matrix(0.35277776,0,0,-0.35277778,220,722.48892)"
       clip-path="url(#clipPath22920)"><g
         clip-path="url(#clipPath5401)"
         opacity="0.300003"
         id="g5407"><g
           transform="translate(747.392,1297.4073)"
           id="g5405"><path
             d="m 0,0 c -0.744,-1.052 -2.669,-0.821 -2.643,0.539 0,1.103 0.59,2.464 1.924,2.207 C 0.77,2.489 0.719,1.026 0,0"
             style="fill:#d48129;fill-opacity:1;fill-rule:nonzero;stroke:none"
             id="path5403" /></g></g></g><g
       id="g5425"
       transform="matrix(0.35277776,0,0,-0.35277778,220,722.48892)"
       clip-path="url(#clipPath22930)"><g
         clip-path="url(#clipPath5417)"
         opacity="0.300003"
         id="g5423"><g
           transform="translate(738.7433,1282.9841)"
           id="g5421"><path
             d="M 0,0 C 0.924,4.004 6.801,4.902 8.546,0.796 9.958,-2.566 10.343,-7.468 5.98,-8.187 1.104,-8.982 -0.924,-3.927 0,0"
             style="fill:#d48129;fill-opacity:1;fill-rule:nonzero;stroke:none"
             id="path5419" /></g></g></g><g
       id="g5441"
       transform="matrix(0.35277776,0,0,-0.35277778,220,722.48892)"
       clip-path="url(#clipPath22986)"><g
         clip-path="url(#clipPath5433)"
         opacity="0.300003"
         id="g5439"><g
           transform="translate(742.5672,1319.9916)"
           id="g5437"><path
             d="M 0,0 C 0.257,2.002 2.849,2.823 3.721,0.667 4.414,-1.078 4.363,-3.439 2.515,-3.747 0.436,-4.106 -0.257,-1.976 0,0"
             style="fill:#d48129;fill-opacity:1;fill-rule:nonzero;stroke:none"
             id="path5435" /></g></g></g><g
       id="g5457"
       transform="matrix(0.35277776,0,0,-0.35277778,220,722.48892)"
       clip-path="url(#clipPath22966)"><g
         clip-path="url(#clipPath5449)"
         opacity="0.300003"
         id="g5455"><g
           transform="translate(756.9647,1297.433)"
           id="g5453"><path
             d="M 0,0 C 0.513,1.745 3.388,2.643 4.183,0.898 4.825,-0.513 4.697,-2.669 2.515,-3.131 0.103,-3.619 -0.513,-1.719 0,0"
             style="fill:#d48129;fill-opacity:1;fill-rule:nonzero;stroke:none"
             id="path5451" /></g></g></g><g
       id="g5473"
       transform="matrix(0.35277776,0,0,-0.35277778,220,722.48892)"
       clip-path="url(#clipPath22976)"><g
         clip-path="url(#clipPath5465)"
         opacity="0.5"
         id="g5471"><g
           transform="translate(714.1315,1308.3401)"
           id="g5469"><path
             d="M 0,0 C 0.796,3.131 5.004,4.491 5.98,1.463 6.775,-0.975 6.416,-4.363 3.49,-5.21 0.154,-6.185 -0.77,-3.028 0,0"
             style="fill:#d48129;fill-opacity:1;fill-rule:nonzero;stroke:none"
             id="path5467" /></g></g></g><g
       id="g5489"
       transform="matrix(0.35277776,0,0,-0.35277778,220,722.48892)"
       clip-path="url(#clipPath22940)"><g
         clip-path="url(#clipPath5481)"
         opacity="0.5"
         id="g5487"><g
           transform="translate(739.0512,1265.7893)"
           id="g5485"><path
             d="M 0,0 C 7.622,0.488 15.142,3.644 19.838,8.443 14.295,5.98 8.033,2.746 -0.18,2.361 -8.418,2.027 -13.089,3.644 -17.759,5.235 -13.781,2.541 -7.725,-0.436 0,0"
             style="fill:#d48129;fill-opacity:1;fill-rule:nonzero;stroke:none"
             id="path5483" /></g></g></g><g
       id="g5505"
       transform="matrix(0.35277776,0,0,-0.35277778,220,722.48892)"
       clip-path="url(#clipPath22996)"><g
         clip-path="url(#clipPath5497)"
         opacity="0.5"
         id="g5503"><g
           transform="translate(712.1811,1314.8331)"
           id="g5501"><path
             d="M 0,0 C 9.136,11.42 22.353,18.144 37.854,11.677 41.678,9.958 44.963,7.597 47.658,5.03 48.633,4.491 49.557,3.927 50.481,3.362 47.247,7.135 43.038,10.779 37.675,13.191 28.949,17.22 20.736,16.04 13.859,12.883 6.981,9.573 1.411,4.26 -3.157,-3.721 -2.181,-2.387 -1.129,-1.129 0,0"
             style="fill:#ffcd0b;fill-opacity:1;fill-rule:nonzero;stroke:none"
             id="path5499" /></g></g></g><path
       d="m 0,0 c -3.08,0 -6.031,-0.642 -8.726,-1.745 -6.056,11.857 -18.272,20.069 -32.516,20.069 -14.243,0 -26.459,-8.212 -32.516,-20.069 -2.695,1.103 -5.621,1.745 -8.726,1.745 -12.652,0 -22.918,-10.266 -22.918,-22.918 0,-12.652 10.266,-22.918 22.918,-22.918 4.902,0 9.444,1.566 13.166,4.209 6.724,-8.11 16.733,-13.371 28.076,-13.371 11.344,0 21.352,5.261 28.076,13.371 3.722,-2.618 8.264,-4.209 13.166,-4.209 12.652,0 22.918,10.266 22.918,22.918 C 22.918,-10.266 12.652,0 0,0"
       style="fill:#bdc5d2;fill-opacity:1;fill-rule:nonzero;stroke:none"
       id="path5509"
       transform="matrix(0.35277776,0,0,-0.35277778,506.07112,268.46822)"
       clip-path="url(#clipPath22946)" /><g
       id="g5525"
       transform="matrix(0.35277776,0,0,-0.35277778,220,722.48892)"
       clip-path="url(#clipPath22956)"><g
         clip-path="url(#clipPath5517)"
         opacity="0.0500031"
         id="g5523"><g
           transform="translate(772.6967,1267.1752)"
           id="g5521"><path
             d="m 0,0 c -24.689,2.489 -47.812,-0.95 -66.085,-8.649 2.284,-10.265 11.421,-17.939 22.354,-17.939 4.901,0 9.444,1.566 13.165,4.209 6.724,-8.11 16.733,-13.371 28.077,-13.371 11.343,0 21.352,5.261 28.076,13.371 3.721,-2.618 8.264,-4.209 13.166,-4.209 7.339,0 13.858,3.465 18.067,8.854 C 41.268,-8.649 21.686,-2.181 0,0"
             style="fill:#a8a9ad;fill-opacity:1;fill-rule:nonzero;stroke:none"
             id="path5519" /></g></g></g><path
       d="m 0,0 c -3.08,0 -6.031,-0.642 -8.726,-1.745 -6.082,11.857 -18.272,20.069 -32.516,20.069 -14.243,0 -26.459,-8.212 -32.516,-20.069 -2.695,1.103 -5.621,1.745 -8.726,1.745 -12.652,0 -22.918,-10.266 -22.918,-22.918 0,-12.652 10.266,-22.918 22.918,-22.918 4.902,0 9.444,1.566 13.166,4.209 6.724,-8.11 16.733,-13.371 28.076,-13.371 11.344,0 21.352,5.261 28.076,13.371 3.722,-2.618 8.264,-4.209 13.166,-4.209 12.652,0 22.918,10.266 22.918,22.918 C 22.918,-10.266 12.652,0 0,0"
       style="fill:#d3dee2;fill-opacity:1;fill-rule:nonzero;stroke:none"
       id="path5529"
       transform="matrix(0.35277776,0,0,-0.35277778,506.07112,269.76295)"
       clip-path="url(#clipPath23050)" /><path
       d="m 0,0 c 1.925,0 3.721,-0.385 5.389,-1.078 3.747,7.34 11.293,12.396 20.095,12.396 8.803,0 16.348,-5.082 20.095,-12.396 1.668,0.693 3.49,1.078 5.39,1.078 7.16,0 13.063,-5.312 14.012,-12.216 0.077,0.642 0.154,1.283 0.154,1.925 0,7.827 -6.339,14.166 -14.166,14.166 -1.9,0 -3.722,-0.385 -5.39,-1.078 C 41.832,10.137 34.287,15.193 25.484,15.193 16.682,15.193 9.136,10.112 5.389,2.797 3.721,3.49 1.925,3.875 0,3.875 c -7.828,0 -14.167,-6.339 -14.167,-14.166 0,-0.667 0.052,-1.309 0.154,-1.925 C -13.089,-5.312 -7.186,0 0,0"
       style="fill:#bdc5d2;fill-opacity:1;fill-rule:nonzero;stroke:none"
       id="path5533"
       transform="matrix(0.35277776,0,0,-0.35277778,482.4863,274.81487)"
       clip-path="url(#clipPath23063)" /><g
       id="g5545"
       transform="matrix(0.35277776,0,0,-0.35277778,220,722.48892)"
       clip-path="url(#clipPath23017)"><path
         d="m 799.182,1231.682 v -4.286 l -3.028,3.028 c -0.437,0.437 -1.181,0.437 -1.617,0 v 0 c -0.436,-0.436 -0.436,-1.181 0,-1.616 v 0 l 3.028,-3.029 h -4.286 c -0.642,0 -1.155,-0.514 -1.155,-1.154 v 0 c 0,-0.642 0.513,-1.155 1.155,-1.155 v 0 h 4.286 l -3.028,-3.029 c -0.436,-0.436 -0.436,-1.18 0,-1.617 v 0 c 0.436,-0.436 1.18,-0.436 1.617,0 v 0 l 3.028,3.029 v -4.286 c 0,-0.642 0.513,-1.155 1.155,-1.155 v 0 c 0.641,0 1.154,0.513 1.154,1.155 v 0 4.286 l 3.029,-3.029 c 0.436,-0.436 1.181,-0.436 1.617,0 v 0 c 0.436,0.437 0.436,1.181 0,1.617 v 0 l -3.028,3.029 h 4.285 c 0.642,0 1.155,0.513 1.155,1.155 v 0 c 0,0.64 -0.513,1.154 -1.155,1.154 v 0 h -4.285 l 3.028,3.029 c 0.436,0.436 0.436,1.18 0,1.616 v 0 c -0.436,0.437 -1.181,0.437 -1.617,0 v 0 l -3.029,-3.028 v 4.286 c 0,0.641 -0.513,1.155 -1.154,1.155 v 0 c -0.642,0 -1.155,-0.514 -1.155,-1.155"
         style="fill:url(#radialGradient5551);stroke:none"
         id="path5553" /></g><g
       id="g5565"
       transform="matrix(0.35277776,0,0,-0.35277778,220,722.48892)"
       clip-path="url(#clipPath23159)"><path
         d="m 736.049,1230.527 v -4.286 l -3.029,3.028 c -0.436,0.437 -1.181,0.437 -1.617,0 v 0 c -0.436,-0.436 -0.436,-1.18 0,-1.616 v 0 l 3.028,-3.028 h -4.285 c -0.642,0 -1.155,-0.514 -1.155,-1.155 v 0 c 0,-0.642 0.513,-1.156 1.155,-1.156 v 0 h 4.285 l -3.028,-3.028 c -0.436,-0.436 -0.436,-1.18 0,-1.617 v 0 c 0.436,-0.436 1.181,-0.436 1.617,0 v 0 l 3.029,3.029 v -4.286 c 0,-0.642 0.513,-1.156 1.154,-1.156 v 0 c 0.642,0 1.155,0.514 1.155,1.156 v 0 4.286 l 3.029,-3.029 c 0.436,-0.436 1.181,-0.436 1.616,0 v 0 c 0.437,0.437 0.437,1.181 0,1.617 v 0 l -3.028,3.028 h 4.286 c 0.642,0 1.155,0.514 1.155,1.156 v 0 c 0,0.641 -0.539,1.155 -1.155,1.155 v 0 h -4.286 l 3.028,3.028 c 0.437,0.436 0.437,1.18 0,1.616 v 0 c -0.435,0.437 -1.18,0.437 -1.616,0 v 0 l -3.029,-3.028 v 4.286 c 0,0.641 -0.513,1.155 -1.155,1.155 v 0 c -0.641,0 -1.154,-0.514 -1.154,-1.155"
         style="fill:url(#radialGradient5571);stroke:none"
         id="path5573" /></g><g
       id="g5585"
       transform="matrix(0.35277776,0,0,-0.35277778,220,722.48892)"
       clip-path="url(#clipPath23003)"><path
         d="m 768.641,1222.828 v -4.286 l -3.027,3.028 c -0.437,0.436 -1.181,0.436 -1.618,0 v 0 c -0.436,-0.436 -0.436,-1.18 0,-1.616 v 0 l 3.029,-3.029 h -4.286 c -0.642,0 -1.155,-0.513 -1.155,-1.155 v 0 c 0,-0.641 0.513,-1.154 1.155,-1.154 v 0 h 4.286 l -3.029,-3.029 c -0.436,-0.436 -0.436,-1.181 0,-1.617 v 0 c 0.437,-0.436 1.181,-0.436 1.618,0 v 0 l 3.027,3.028 v -4.285 c 0,-0.642 0.514,-1.155 1.156,-1.155 v 0 c 0.641,0 1.155,0.513 1.155,1.155 v 0 4.285 l 3.028,-3.028 c 0.436,-0.436 1.18,-0.436 1.617,0 v 0 c 0.436,0.436 0.436,1.181 0,1.617 v 0 l -3.029,3.029 h 4.286 c 0.642,0 1.155,0.513 1.155,1.154 v 0 c 0,0.642 -0.539,1.155 -1.155,1.155 v 0 h -4.286 l 3.029,3.029 c 0.436,0.436 0.436,1.18 0,1.616 v 0 c -0.437,0.436 -1.181,0.436 -1.617,0 v 0 l -3.028,-3.028 v 4.286 c 0,0.642 -0.514,1.155 -1.155,1.155 v 0 c -0.642,0 -1.156,-0.513 -1.156,-1.155"
         style="fill:url(#radialGradient5591);stroke:none"
         id="path5593" /></g></g></svg>
