<?xml version="1.0" encoding="UTF-8" standalone="no"?>
<!-- Created with Inkscape (http://www.inkscape.org/) -->

<svg
   width="45.269501mm"
   height="45.503746mm"
   viewBox="0 0 45.269501 45.503746"
   version="1.1"
   id="svg5"
   xml:space="preserve"
   xmlns="http://www.w3.org/2000/svg"
   xmlns:svg="http://www.w3.org/2000/svg"><defs
     id="defs2"><linearGradient
       x1="0"
       y1="0"
       x2="1"
       y2="0"
       gradientUnits="userSpaceOnUse"
       gradientTransform="matrix(0,-65.1334,-65.1334,0,1581.644,1034.4979)"
       spreadMethod="pad"
       id="linearGradient4107"><stop
         style="stop-opacity:1;stop-color:#fdda00"
         offset="0"
         id="stop4101" /><stop
         style="stop-opacity:1;stop-color:#e2a026"
         offset="0.7755"
         id="stop4103" /><stop
         style="stop-opacity:1;stop-color:#e2a026"
         offset="1"
         id="stop4105" /></linearGradient><clipPath
       clipPathUnits="userSpaceOnUse"
       id="clipPath4125"><path
         d="m 1562.85,977.192 h 37.08 v -7.266 h -37.08 z"
         id="path4123" /></clipPath><clipPath
       clipPathUnits="userSpaceOnUse"
       id="clipPath4141"><path
         d="m 1553.79,1022.28 h 39.89 v -32.608 h -39.89 z"
         id="path4139" /></clipPath><clipPath
       clipPathUnits="userSpaceOnUse"
       id="clipPath4157"><path
         d="m 1598.82,1015.55 h 10.65 v -9.03 h -10.65 z"
         id="path4155" /></clipPath><clipPath
       clipPathUnits="userSpaceOnUse"
       id="clipPath4173"><path
         d="m 1598.11,1021.16 h 3.85 v -3.29 h -3.85 z"
         id="path4171" /></clipPath><clipPath
       clipPathUnits="userSpaceOnUse"
       id="clipPath4189"><path
         d="m 1594.51,1006.87 h 3.86 v -3.3 h -3.86 z"
         id="path4187" /></clipPath><linearGradient
       x1="0"
       y1="0"
       x2="1"
       y2="0"
       gradientUnits="userSpaceOnUse"
       gradientTransform="matrix(0,-57.180725,-57.180725,0,1610.1842,962.69171)"
       spreadMethod="pad"
       id="linearGradient4237"><stop
         style="stop-opacity:1;stop-color:#f8f6c4"
         offset="0"
         id="stop4211" /><stop
         style="stop-opacity:1;stop-color:#f8f0b0"
         offset="0.0218679"
         id="stop4213" /><stop
         style="stop-opacity:1;stop-color:#fae584"
         offset="0.087193"
         id="stop4215" /><stop
         style="stop-opacity:1;stop-color:#fcde5c"
         offset="0.1478"
         id="stop4217" /><stop
         style="stop-opacity:1;stop-color:#fdd937"
         offset="0.2018"
         id="stop4219" /><stop
         style="stop-opacity:1;stop-color:#fdd612"
         offset="0.2472"
         id="stop4221" /><stop
         style="stop-opacity:1;stop-color:#fdd505"
         offset="0.2784"
         id="stop4223" /><stop
         style="stop-opacity:1;stop-color:#fdd20b"
         offset="0.3882"
         id="stop4225" /><stop
         style="stop-opacity:1;stop-color:#f9c718"
         offset="0.5124"
         id="stop4227" /><stop
         style="stop-opacity:1;stop-color:#f2b61b"
         offset="0.6436"
         id="stop4229" /><stop
         style="stop-opacity:1;stop-color:#ec9e23"
         offset="0.7796"
         id="stop4231" /><stop
         style="stop-opacity:1;stop-color:#e38326"
         offset="0.918"
         id="stop4233" /><stop
         style="stop-opacity:1;stop-color:#df6f26"
         offset="1"
         id="stop4235" /></linearGradient><clipPath
       clipPathUnits="userSpaceOnUse"
       id="clipPath4259"><path
         d="m 1549.73,972.115 h 122.91 v -36.551 h -122.91 z"
         id="path4257" /></clipPath><radialGradient
       fx="0"
       fy="0"
       cx="0"
       cy="0"
       r="1"
       gradientUnits="userSpaceOnUse"
       gradientTransform="matrix(8.2126722,0,0,-8.2126722,1640.892,931.32959)"
       spreadMethod="pad"
       id="radialGradient4293"><stop
         style="stop-opacity:1;stop-color:#ceebfb"
         offset="0"
         id="stop4289" /><stop
         style="stop-opacity:1;stop-color:#e2f4fd"
         offset="1"
         id="stop4291" /></radialGradient><radialGradient
       fx="0"
       fy="0"
       cx="0"
       cy="0"
       r="1"
       gradientUnits="userSpaceOnUse"
       gradientTransform="matrix(8.2035608,0,0,-8.2035608,1580.3235,930.19287)"
       spreadMethod="pad"
       id="radialGradient4313"><stop
         style="stop-opacity:1;stop-color:#ceebfb"
         offset="0"
         id="stop4309" /><stop
         style="stop-opacity:1;stop-color:#e2f4fd"
         offset="1"
         id="stop4311" /></radialGradient><radialGradient
       fx="0"
       fy="0"
       cx="0"
       cy="0"
       r="1"
       gradientUnits="userSpaceOnUse"
       gradientTransform="matrix(6.149642,0,0,-6.149642,1595.7416,912.82538)"
       spreadMethod="pad"
       id="radialGradient4333"><stop
         style="stop-opacity:1;stop-color:#ceebfb"
         offset="0"
         id="stop4329" /><stop
         style="stop-opacity:1;stop-color:#e2f4fd"
         offset="1"
         id="stop4331" /></radialGradient><radialGradient
       fx="0"
       fy="0"
       cx="0"
       cy="0"
       r="1"
       gradientUnits="userSpaceOnUse"
       gradientTransform="matrix(6.1489191,0,0,-6.1489191,1631.0044,916.8291)"
       spreadMethod="pad"
       id="radialGradient4353"><stop
         style="stop-opacity:1;stop-color:#ceebfb"
         offset="0"
         id="stop4349" /><stop
         style="stop-opacity:1;stop-color:#e2f4fd"
         offset="1"
         id="stop4351" /></radialGradient><linearGradient
       x1="0"
       y1="0"
       x2="1"
       y2="0"
       gradientUnits="userSpaceOnUse"
       gradientTransform="matrix(0,-14.654487,14.654487,0,1563.7954,1027.6488)"
       spreadMethod="pad"
       id="linearGradient4375"><stop
         style="stop-opacity:1;stop-color:#fdda00"
         offset="0"
         id="stop4369" /><stop
         style="stop-opacity:1;stop-color:#e2a026"
         offset="0.7755"
         id="stop4371" /><stop
         style="stop-opacity:1;stop-color:#e2a026"
         offset="1"
         id="stop4373" /></linearGradient><clipPath
       clipPathUnits="userSpaceOnUse"
       id="clipPath23971"><path
         d="M -2.2440947e-6,2048 H 2048 V -1.1811023e-5 H -2.2440947e-6 Z"
         id="path23973"
         style="stroke-width:0.999998" /></clipPath><clipPath
       clipPathUnits="userSpaceOnUse"
       id="clipPath23990"><path
         d="M -2.2440947e-6,2048 H 2048 V -1.1811023e-5 H -2.2440947e-6 Z"
         id="path23992"
         style="stroke-width:0.999998" /></clipPath><clipPath
       clipPathUnits="userSpaceOnUse"
       id="clipPath24027"><path
         d="M -2.2440947e-6,2048 H 2048 V -1.1811023e-5 H -2.2440947e-6 Z"
         id="path24029"
         style="stroke-width:0.999998" /></clipPath><clipPath
       clipPathUnits="userSpaceOnUse"
       id="clipPath24033"><path
         d="M -1654.0322,1056.8719 H 393.96782 V -991.12811 H -1654.0322 Z"
         id="path24035"
         style="stroke-width:0.999998" /></clipPath><clipPath
       clipPathUnits="userSpaceOnUse"
       id="clipPath24043"><path
         d="M -2.2440947e-6,2048 H 2048 V -1.1811023e-5 H -2.2440947e-6 Z"
         id="path24045"
         style="stroke-width:0.999998" /></clipPath><clipPath
       clipPathUnits="userSpaceOnUse"
       id="clipPath24075"><path
         d="M -2.2440947e-6,2048 H 2048 V -1.1811023e-5 H -2.2440947e-6 Z"
         id="path24077"
         style="stroke-width:0.999998" /></clipPath><clipPath
       clipPathUnits="userSpaceOnUse"
       id="clipPath24094"><path
         d="m 1593.233,1034.399 c -0.873,-0.385 -0.949,-1.643 -0.514,-3.029 v 0 -0.1539 c 2.284,-10.908 -0.718,-22.688 -9.188,-31.157 v 0 c -9.187,-9.18799 -22.302,-11.93404 -33.954,-8.44399 v 0 c -0.384,-0.48698 -0.565,-1.257 -0.538,-2.181 v 0 c 1.642,-3.64403 3.875,-7.083 6.851,-10.05998 v 0 c 13.372,-13.34512 35.008,-13.34512 48.353,0 v 0 c 13.346,13.34498 13.346,35.00597 0,48.35187 v 0 c -1.977,1.9761 -4.158,3.618 -6.442,4.9791 v 0 c -1.398,1.08 -3.006,1.793 -4.015,1.793 v 0 c -0.214,0 -0.401,-0.032 -0.553,-0.099"
         id="path24096"
         style="stroke-width:0.999998" /></clipPath><clipPath
       clipPathUnits="userSpaceOnUse"
       id="clipPath24110"><path
         d="M -2.2440947e-6,2048 H 2048 V -1.1811023e-5 H -2.2440947e-6 Z"
         id="path24112"
         style="stroke-width:0.999998" /></clipPath><clipPath
       clipPathUnits="userSpaceOnUse"
       id="clipPath24116"><path
         d="M -1654.0322,1060.5419 H 393.96782 V -987.45812 H -1654.0322 Z"
         id="path24118"
         style="stroke-width:0.999998" /></clipPath><clipPath
       clipPathUnits="userSpaceOnUse"
       id="clipPath24122"><path
         d="m -1587.1759,1074.8628 h 2048 V -973.13721 h -2048 z"
         id="path24124"
         style="stroke-width:0.999998" /></clipPath><clipPath
       clipPathUnits="userSpaceOnUse"
       id="clipPath24166"><path
         d="m 1639.737,938.38798 v -4.287 l -3.029,3.02903 c -0.436,0.43597 -1.18,0.43597 -1.617,0 v 0 c -0.435,-0.43598 -0.435,-1.18005 0,-1.617 v 0 l 3.029,-3.02798 h -4.286 c -0.642,0 -1.155,-0.51307 -1.155,-1.155 v 0 c 0,-0.642 0.513,-1.15605 1.155,-1.15605 v 0 h 4.286 l -3.029,-3.02797 c -0.435,-0.43598 -0.435,-1.17998 0,-1.617 v 0 c 0.437,-0.43605 1.181,-0.43605 1.617,0 v 0 l 3.029,3.02902 v -4.28602 c 0,-0.642 0.513,-1.155 1.155,-1.155 v 0 c 0.641,0 1.154,0.513 1.154,1.155 v 0 4.28602 l 3.029,-3.02902 c 0.436,-0.43605 1.181,-0.43605 1.617,0 v 0 c 0.437,0.43702 0.437,1.18102 0,1.617 v 0 l -3.028,3.02797 h 4.285 c 0.642,0 1.155,0.51405 1.155,1.15605 v 0 c 0,0.64193 -0.513,1.155 -1.155,1.155 v 0 h -4.285 l 3.028,3.02798 c 0.437,0.43695 0.437,1.18102 0,1.617 v 0 c -0.436,0.43597 -1.181,0.43597 -1.617,0 v 0 l -3.029,-3.02903 v 4.287 c 0,0.64103 -0.513,1.15403 -1.154,1.15403 v 0 c -0.642,0 -1.155,-0.513 -1.155,-1.15403"
         id="path24168"
         style="stroke-width:0.999998" /></clipPath><clipPath
       clipPathUnits="userSpaceOnUse"
       id="clipPath24183"><path
         d="m 1606.142,939.10603 -12.345,-3.56805 24.228,-30.027 -3.799,23.586 12.345,3.59303 -24.253,30.00097 z"
         id="path24185"
         style="stroke-width:0.999998" /></clipPath><clipPath
       clipPathUnits="userSpaceOnUse"
       id="clipPath24190"><path
         d="m 1579.169,937.23201 v -4.28603 l -3.029,3.02903 c -0.436,0.43597 -1.181,0.43597 -1.617,0 v 0 c -0.437,-0.43703 -0.437,-1.18103 0,-1.61798 v 0 l 3.029,-3.027 h -4.286 c -0.642,0 -1.155,-0.51405 -1.155,-1.15605 v 0 c 0,-0.64095 0.513,-1.15402 1.155,-1.15402 v 0 h 4.286 l -3.029,-3.02895 c -0.437,-0.43598 -0.437,-1.17998 0,-1.61603 v 0 c 0.436,-0.43695 1.181,-0.43695 1.617,0 v 0 l 3.029,3.02805 v -4.28602 c 0,-0.64103 0.513,-1.155 1.154,-1.155 v 0 c 0.642,0 1.155,0.51397 1.155,1.155 v 0 4.28602 l 3.029,-3.02805 c 0.436,-0.43695 1.181,-0.43695 1.617,0 v 0 c 0.436,0.43605 0.436,1.18005 0,1.61603 v 0 l -3.029,3.02895 h 4.286 c 0.642,0 1.155,0.51307 1.155,1.15402 v 0 c 0,0.642 -0.539,1.15605 -1.155,1.15605 v 0 h -4.286 l 3.029,3.027 c 0.436,0.43695 0.436,1.18095 0,1.61798 v 0 c -0.436,0.43597 -1.181,0.43597 -1.617,0 v 0 l -3.029,-3.02903 v 4.28603 c 0,0.642 -0.513,1.15597 -1.155,1.15597 v 0 c -0.641,0 -1.154,-0.51397 -1.154,-1.15597"
         id="path24192"
         style="stroke-width:0.999998" /></clipPath><clipPath
       clipPathUnits="userSpaceOnUse"
       id="clipPath24197"><path
         d="m 1563.795,1024.338 -4.748,3.311 1.669,-5.543 -4.62,-3.517 5.8,-0.1021 1.899,-5.493 1.925,5.493 5.775,0.1021 -4.62,3.517 1.694,5.543 z"
         id="path24199"
         style="stroke-width:0.999998" /></clipPath><clipPath
       clipPathUnits="userSpaceOnUse"
       id="clipPath24220"><path
         d="m 1630.19,922.09101 v -3.20903 l -2.284,2.28405 c -0.334,0.33398 -0.873,0.33398 -1.206,0 v 0 c -0.334,-0.33405 -0.334,-0.87202 0,-1.206 v 0 l 2.284,-2.28405 h -3.209 c -0.461,0 -0.847,-0.38497 -0.847,-0.84697 v 0 c 0,-0.462 0.386,-0.84698 0.847,-0.84698 v 0 h 3.209 l -2.284,-2.28405 c -0.334,-0.33397 -0.334,-0.873 0,-1.206 v 0 c 0.333,-0.33397 0.872,-0.33397 1.206,0 v 0 l 2.284,2.28405 v -3.20805 c 0,-0.462 0.385,-0.84697 0.847,-0.84697 v 0 c 0.461,0 0.847,0.38497 0.847,0.84697 v 0 3.18203 l 2.284,-2.28398 c 0.334,-0.33405 0.873,-0.33405 1.206,0 v 0 c 0.334,0.33398 0.334,0.87293 0,1.206 v 0 l -2.284,2.28398 h 3.208 c 0.462,0 0.847,0.38497 0.847,0.84697 v 0 c 0,0.46298 -0.359,0.873 -0.847,0.873 v 0 h -3.208 l 2.284,2.28405 c 0.334,0.33398 0.334,0.87195 0,1.206 v 0 c -0.333,0.33398 -0.872,0.33398 -1.206,0 v 0 l -2.284,-2.28405 v 3.20903 c 0,0.46102 -0.386,0.846 -0.847,0.846 v 0 c -0.462,0 -0.847,-0.38498 -0.847,-0.846"
         id="path24222"
         style="stroke-width:0.999998" /></clipPath><clipPath
       clipPathUnits="userSpaceOnUse"
       id="clipPath24227"><path
         d="m 1594.927,918.08601 v -3.207 l -2.284,2.28397 c -0.334,0.333 -0.873,0.333 -1.207,0 v 0 c -0.333,-0.33397 -0.333,-0.873 0,-1.20697 v 0 l 2.284,-2.28398 h -3.259 c -0.462,0 -0.847,-0.38407 -0.847,-0.84705 v 0 c 0,-0.462 0.385,-0.84697 0.847,-0.84697 v 0 h 3.208 l -2.284,-2.28398 c -0.333,-0.33307 -0.333,-0.87202 0,-1.206 v 0 c 0.333,-0.33405 0.872,-0.33405 1.206,0 v 0 l 2.285,2.28398 v -3.207 c 0,-0.46298 0.384,-0.84705 0.847,-0.84705 v 0 c 0.461,0 0.846,0.38407 0.846,0.84705 v 0 3.207 l 2.285,-2.28398 c 0.333,-0.33405 0.872,-0.33405 1.206,0 v 0 c 0.333,0.33398 0.333,0.87293 0,1.206 v 0 l -2.285,2.28398 h 3.209 c 0.462,0 0.847,0.38497 0.847,0.84697 v 0 c 0.076,0.46298 -0.334,0.84705 -0.796,0.84705 v 0 h -3.208 l 2.284,2.28398 c 0.334,0.33397 0.334,0.873 0,1.20697 v 0 c -0.334,0.333 -0.873,0.333 -1.206,0 v 0 l -2.284,-2.28397 v 3.207 c 0,0.46297 -0.386,0.84697 -0.847,0.84697 v 0 c -0.463,0 -0.847,-0.384 -0.847,-0.84697"
         id="path24229"
         style="stroke-width:0.999998" /></clipPath></defs><g
     id="g26283"
     transform="translate(-766.32123,-357.54101)"><g
       id="g4099"
       transform="matrix(0.35277776,0,0,-0.35277778,220,722.48892)"
       clip-path="url(#clipPath24094)"><path
         d="m 1593.233,1034.399 c -0.873,-0.385 -0.949,-1.643 -0.514,-3.029 v 0 -0.154 c 2.284,-10.908 -0.718,-22.688 -9.188,-31.157 v 0 c -9.187,-9.188 -22.302,-11.934 -33.954,-8.444 v 0 c -0.384,-0.487 -0.565,-1.257 -0.538,-2.181 v 0 c 1.642,-3.644 3.875,-7.083 6.851,-10.06 v 0 c 13.372,-13.345 35.008,-13.345 48.353,0 v 0 c 13.346,13.345 13.346,35.006 0,48.352 v 0 c -1.977,1.976 -4.158,3.618 -6.442,4.979 v 0 c -1.398,1.08 -3.006,1.793 -4.015,1.793 v 0 c -0.214,0 -0.401,-0.032 -0.553,-0.099"
         style="fill:url(#linearGradient4107);stroke:none"
         id="path4109" /></g><g
       id="g4133"
       transform="matrix(0.35277776,0,0,-0.35277778,220,722.48892)"
       clip-path="url(#clipPath23990)"><g
         clip-path="url(#clipPath4125)"
         opacity="0.5"
         id="g4131"><g
           transform="translate(1584.0706,970.1601)"
           id="g4129"><path
             d="M 0,0 C -7.263,-0.873 -15.835,0.667 -21.225,5.056 -15.707,3.157 -8.495,0.975 -0.539,1.925 7.443,2.874 11.549,4.876 15.861,7.032 12.37,4.055 7.366,0.898 0,0"
             style="fill:#d48129;fill-opacity:1;fill-rule:nonzero;stroke:none"
             id="path4127" /></g></g></g><g
       id="g4149"
       transform="matrix(0.35277776,0,0,-0.35277778,220,722.48892)"
       clip-path="url(#clipPath23971)"><g
         clip-path="url(#clipPath4141)"
         opacity="0.5"
         id="g4147"><g
           transform="translate(1553.7863,990.5378)"
           id="g4145"><path
             d="m 0,0 c 8.444,-2.233 22.354,-0.334 30.823,7.879 8.495,8.213 9.573,20.198 8.906,23.868 C 39.113,27.743 37.342,15.63 29.566,8.803 21.969,2.104 8.367,-1.463 0,0"
             style="fill:#fcd900;fill-opacity:1;fill-rule:nonzero;stroke:none"
             id="path4143" /></g></g></g><g
       id="g4165"
       transform="matrix(0.35277776,0,0,-0.35277778,220,722.48892)"
       clip-path="url(#clipPath24027)"><g
         clip-path="url(#clipPath4157)"
         opacity="0.190002"
         id="g4163"><g
           transform="translate(1606.5013,1007.0915)"
           id="g4161"><path
             d="M 0,0 C 3.593,1.36 4.235,7.135 0.18,8.161 -3.105,8.983 -7.52,8.238 -7.674,4.132 -7.828,-0.488 -3.516,-1.335 0,0"
             style="fill:#d48129;fill-opacity:1;fill-rule:nonzero;stroke:none"
             id="path4159" /></g></g></g><g
       id="g4181"
       transform="matrix(0.35277776,0,0,-0.35277778,220,722.48892)"
       clip-path="url(#clipPath24043)"><g
         clip-path="url(#clipPath4173)"
         opacity="0.190002"
         id="g4179"><g
           transform="translate(1600.8809,1018.0759)"
           id="g4177"><path
             d="M 0,0 C 1.309,0.488 1.54,2.592 0.077,2.977 -1.129,3.285 -2.72,3.003 -2.772,1.514 -2.849,-0.18 -1.283,-0.488 0,0"
             style="fill:#d48129;fill-opacity:1;fill-rule:nonzero;stroke:none"
             id="path4175" /></g></g></g><g
       id="g4197"
       transform="matrix(0.35277776,0,0,-0.35277778,220,722.48892)"
       clip-path="url(#clipPath24075)"><g
         clip-path="url(#clipPath4189)"
         opacity="0.190002"
         id="g4195"><g
           transform="translate(1597.2877,1003.7808)"
           id="g4193"><path
             d="M 0,0 C 1.309,0.488 1.54,2.592 0.077,2.977 -1.129,3.285 -2.72,3.003 -2.772,1.514 -2.874,-0.18 -1.309,-0.488 0,0"
             style="fill:#d48129;fill-opacity:1;fill-rule:nonzero;stroke:none"
             id="path4191" /></g></g></g><g
       id="g4209"
       transform="matrix(0.35277776,0,0,-0.35277778,220,722.48892)"
       clip-path="url(#clipPath24183)"><path
         d="m 1606.142,939.106 -12.345,-3.568 24.228,-30.027 -3.799,23.586 12.345,3.593 -24.253,30.001 z"
         style="fill:url(#linearGradient4237);stroke:none"
         id="path4239" /></g><path
       d="m 0,0 c -3.08,0 -6.031,-0.642 -8.726,-1.745 -6.057,11.857 -18.273,20.07 -32.517,20.07 -14.244,0 -26.46,-8.213 -32.517,-20.07 -2.695,1.103 -5.621,1.745 -8.726,1.745 -12.653,0 -22.919,-10.266 -22.919,-22.919 0,-12.652 10.266,-22.918 22.919,-22.918 4.902,0 9.444,1.566 13.166,4.209 6.724,-8.11 16.733,-13.371 28.077,-13.371 11.344,0 21.353,5.261 28.077,13.371 3.721,-2.618 8.264,-4.209 13.166,-4.209 12.653,0 22.918,10.266 22.918,22.918 C 22.918,-10.266 12.653,0 0,0"
       style="fill:#bdc5d2;fill-opacity:1;fill-rule:nonzero;stroke:none"
       id="path4251"
       transform="matrix(0.35277776,0,0,-0.35277778,803.50577,372.84095)"
       clip-path="url(#clipPath24033)" /><g
       id="g4267"
       transform="matrix(0.35277776,0,0,-0.35277778,220,722.48892)"
       clip-path="url(#clipPath24110)"><g
         clip-path="url(#clipPath4259)"
         opacity="0.0500031"
         id="g4265"><g
           transform="translate(1615.8176,971.315)"
           id="g4263"><path
             d="m 0,0 c -24.689,2.49 -47.813,-0.95 -66.086,-8.649 2.284,-10.266 11.42,-17.94 22.353,-17.94 4.902,0 9.445,1.566 13.166,4.209 6.725,-8.11 16.734,-13.371 28.077,-13.371 11.344,0 21.354,5.261 28.078,13.371 3.721,-2.617 8.264,-4.209 13.166,-4.209 7.34,0 13.858,3.465 18.067,8.855 C 41.269,-8.649 21.687,-2.181 0,0"
             style="fill:#a8a9ad;fill-opacity:1;fill-rule:nonzero;stroke:none"
             id="path4261" /></g></g></g><path
       d="m 0,0 c -3.08,0 -6.031,-0.642 -8.726,-1.745 -6.082,11.857 -18.273,20.07 -32.517,20.07 -14.244,0 -26.46,-8.213 -32.517,-20.07 -2.695,1.103 -5.621,1.745 -8.726,1.745 -12.653,0 -22.919,-10.266 -22.919,-22.919 0,-12.652 10.266,-22.918 22.919,-22.918 4.902,0 9.444,1.566 13.166,4.209 6.724,-8.11 16.733,-13.371 28.077,-13.371 11.344,0 21.353,5.261 28.077,13.371 3.721,-2.618 8.264,-4.209 13.166,-4.209 12.653,0 22.918,10.266 22.918,22.918 C 22.918,-10.266 12.653,0 0,0"
       style="fill:#d3dee2;fill-opacity:1;fill-rule:nonzero;stroke:none"
       id="path4271"
       transform="matrix(0.35277776,0,0,-0.35277778,803.50577,374.13564)"
       clip-path="url(#clipPath24116)" /><path
       d="m 0,0 c 1.925,0 3.721,-0.385 5.39,-1.078 3.747,7.34 11.292,12.396 20.095,12.396 8.803,0 16.348,-5.081 20.095,-12.396 1.669,0.693 3.491,1.078 5.39,1.078 7.16,0 13.063,-5.313 14.013,-12.216 0.077,0.641 0.154,1.283 0.154,1.924 0,7.828 -6.339,14.167 -14.167,14.167 -1.899,0 -3.721,-0.385 -5.39,-1.078 C 41.833,10.138 34.288,15.193 25.485,15.193 16.682,15.193 9.137,10.112 5.39,2.797 3.721,3.49 1.925,3.875 0,3.875 c -7.828,0 -14.167,-6.339 -14.167,-14.167 0,-0.667 0.052,-1.308 0.154,-1.924 C -13.089,-5.313 -7.186,0 0,0"
       style="fill:#bdc5d2;fill-opacity:1;fill-rule:nonzero;stroke:none"
       id="path4275"
       transform="matrix(0.35277776,0,0,-0.35277778,779.92036,379.18774)"
       clip-path="url(#clipPath24122)" /><g
       id="g4287"
       transform="matrix(0.35277776,0,0,-0.35277778,220,722.48892)"
       clip-path="url(#clipPath24166)"><path
         d="m 1639.737,938.388 v -4.287 l -3.029,3.029 c -0.436,0.436 -1.18,0.436 -1.617,0 v 0 c -0.435,-0.436 -0.435,-1.18 0,-1.617 v 0 l 3.029,-3.028 h -4.286 c -0.642,0 -1.155,-0.513 -1.155,-1.155 v 0 c 0,-0.642 0.513,-1.156 1.155,-1.156 v 0 h 4.286 l -3.029,-3.028 c -0.435,-0.436 -0.435,-1.18 0,-1.617 v 0 c 0.437,-0.436 1.181,-0.436 1.617,0 v 0 l 3.029,3.029 v -4.286 c 0,-0.642 0.513,-1.155 1.155,-1.155 v 0 c 0.641,0 1.154,0.513 1.154,1.155 v 0 4.286 l 3.029,-3.029 c 0.436,-0.436 1.181,-0.436 1.617,0 v 0 c 0.437,0.437 0.437,1.181 0,1.617 v 0 l -3.028,3.028 h 4.285 c 0.642,0 1.155,0.514 1.155,1.156 v 0 c 0,0.642 -0.513,1.155 -1.155,1.155 v 0 h -4.285 l 3.028,3.028 c 0.437,0.437 0.437,1.181 0,1.617 v 0 c -0.436,0.436 -1.181,0.436 -1.617,0 v 0 l -3.029,-3.029 v 4.287 c 0,0.641 -0.513,1.154 -1.154,1.154 v 0 c -0.642,0 -1.155,-0.513 -1.155,-1.154"
         style="fill:url(#radialGradient4293);stroke:none"
         id="path4295" /></g><g
       id="g4307"
       transform="matrix(0.35277776,0,0,-0.35277778,220,722.48892)"
       clip-path="url(#clipPath24190)"><path
         d="m 1579.169,937.232 v -4.286 l -3.029,3.029 c -0.436,0.436 -1.181,0.436 -1.617,0 v 0 c -0.437,-0.437 -0.437,-1.181 0,-1.618 v 0 l 3.029,-3.027 h -4.286 c -0.642,0 -1.155,-0.514 -1.155,-1.156 v 0 c 0,-0.641 0.513,-1.154 1.155,-1.154 v 0 h 4.286 l -3.029,-3.029 c -0.437,-0.436 -0.437,-1.18 0,-1.616 v 0 c 0.436,-0.437 1.181,-0.437 1.617,0 v 0 l 3.029,3.028 v -4.286 c 0,-0.641 0.513,-1.155 1.154,-1.155 v 0 c 0.642,0 1.155,0.514 1.155,1.155 v 0 4.286 l 3.029,-3.028 c 0.436,-0.437 1.181,-0.437 1.617,0 v 0 c 0.436,0.436 0.436,1.18 0,1.616 v 0 l -3.029,3.029 h 4.286 c 0.642,0 1.155,0.513 1.155,1.154 v 0 c 0,0.642 -0.539,1.156 -1.155,1.156 v 0 h -4.286 l 3.029,3.027 c 0.436,0.437 0.436,1.181 0,1.618 v 0 c -0.436,0.436 -1.181,0.436 -1.617,0 v 0 l -3.029,-3.029 v 4.286 c 0,0.642 -0.513,1.156 -1.155,1.156 v 0 c -0.641,0 -1.154,-0.514 -1.154,-1.156"
         style="fill:url(#radialGradient4313);stroke:none"
         id="path4315" /></g><g
       id="g4327"
       transform="matrix(0.35277776,0,0,-0.35277778,220,722.48892)"
       clip-path="url(#clipPath24227)"><path
         d="m 1594.927,918.086 v -3.207 l -2.284,2.284 c -0.334,0.333 -0.873,0.333 -1.207,0 v 0 c -0.333,-0.334 -0.333,-0.873 0,-1.207 v 0 l 2.284,-2.284 h -3.259 c -0.462,0 -0.847,-0.384 -0.847,-0.847 v 0 c 0,-0.462 0.385,-0.847 0.847,-0.847 v 0 h 3.208 l -2.284,-2.284 c -0.333,-0.333 -0.333,-0.872 0,-1.206 v 0 c 0.333,-0.334 0.872,-0.334 1.206,0 v 0 l 2.285,2.284 v -3.207 c 0,-0.463 0.384,-0.847 0.847,-0.847 v 0 c 0.461,0 0.846,0.384 0.846,0.847 v 0 3.207 l 2.285,-2.284 c 0.333,-0.334 0.872,-0.334 1.206,0 v 0 c 0.333,0.334 0.333,0.873 0,1.206 v 0 l -2.285,2.284 h 3.209 c 0.462,0 0.847,0.385 0.847,0.847 v 0 c 0.076,0.463 -0.334,0.847 -0.796,0.847 v 0 h -3.208 l 2.284,2.284 c 0.334,0.334 0.334,0.873 0,1.207 v 0 c -0.334,0.333 -0.873,0.333 -1.206,0 v 0 l -2.284,-2.284 v 3.207 c 0,0.463 -0.386,0.847 -0.847,0.847 v 0 c -0.463,0 -0.847,-0.384 -0.847,-0.847"
         style="fill:url(#radialGradient4333);stroke:none"
         id="path4335" /></g><g
       id="g4347"
       transform="matrix(0.35277776,0,0,-0.35277778,220,722.48892)"
       clip-path="url(#clipPath24220)"><path
         d="m 1630.19,922.091 v -3.209 l -2.284,2.284 c -0.334,0.334 -0.873,0.334 -1.206,0 v 0 c -0.334,-0.334 -0.334,-0.872 0,-1.206 v 0 l 2.284,-2.284 h -3.209 c -0.461,0 -0.847,-0.385 -0.847,-0.847 v 0 c 0,-0.462 0.386,-0.847 0.847,-0.847 v 0 h 3.209 l -2.284,-2.284 c -0.334,-0.334 -0.334,-0.873 0,-1.206 v 0 c 0.333,-0.334 0.872,-0.334 1.206,0 v 0 l 2.284,2.284 v -3.208 c 0,-0.462 0.385,-0.847 0.847,-0.847 v 0 c 0.461,0 0.847,0.385 0.847,0.847 v 0 3.182 l 2.284,-2.284 c 0.334,-0.334 0.873,-0.334 1.206,0 v 0 c 0.334,0.334 0.334,0.873 0,1.206 v 0 l -2.284,2.284 h 3.208 c 0.462,0 0.847,0.385 0.847,0.847 v 0 c 0,0.463 -0.359,0.873 -0.847,0.873 v 0 h -3.208 l 2.284,2.284 c 0.334,0.334 0.334,0.872 0,1.206 v 0 c -0.333,0.334 -0.872,0.334 -1.206,0 v 0 l -2.284,-2.284 v 3.209 c 0,0.461 -0.386,0.846 -0.847,0.846 v 0 c -0.462,0 -0.847,-0.385 -0.847,-0.846"
         style="fill:url(#radialGradient4353);stroke:none"
         id="path4355" /></g><g
       id="g4367"
       transform="matrix(0.35277776,0,0,-0.35277778,220,722.48892)"
       clip-path="url(#clipPath24197)"><path
         d="m 1563.795,1024.338 -4.748,3.311 1.669,-5.543 -4.62,-3.517 5.8,-0.102 1.899,-5.493 1.925,5.493 5.775,0.102 -4.62,3.517 1.694,5.543 z"
         style="fill:url(#linearGradient4375);stroke:none"
         id="path4377" /></g></g></svg>
