<?xml version="1.0" encoding="UTF-8" standalone="no"?>
<!-- Created with Inkscape (http://www.inkscape.org/) -->

<svg
   width="45.272964mm"
   height="45.215961mm"
   viewBox="0 0 45.272964 45.215961"
   version="1.1"
   id="svg5"
   xml:space="preserve"
   xmlns="http://www.w3.org/2000/svg"
   xmlns:svg="http://www.w3.org/2000/svg"><defs
     id="defs2"><linearGradient
       x1="0"
       y1="0"
       x2="1"
       y2="0"
       gradientUnits="userSpaceOnUse"
       gradientTransform="matrix(0,-128.17101,128.17101,0,1048.0052,1034.09)"
       spreadMethod="pad"
       id="linearGradient2937"><stop
         style="stop-opacity:1;stop-color:#fcd900"
         offset="0"
         id="stop2931" /><stop
         style="stop-opacity:1;stop-color:#e3a026"
         offset="0.7755"
         id="stop2933" /><stop
         style="stop-opacity:1;stop-color:#e3a026"
         offset="1"
         id="stop2935" /></linearGradient><clipPath
       clipPathUnits="userSpaceOnUse"
       id="clipPath2955"><path
         d="m 1012.07,921.359 h 72.99 v -14.258 h -72.99 z"
         id="path2953" /></clipPath><clipPath
       clipPathUnits="userSpaceOnUse"
       id="clipPath2971"><path
         d="m 1024.38,1010.08 h 78.49 v -64.154 h -78.49 z"
         id="path2969" /></clipPath><clipPath
       clipPathUnits="userSpaceOnUse"
       id="clipPath2987"><path
         d="m 994.286,986.749 h 20.904 v -17.766 h -20.904 z"
         id="path2985" /></clipPath><clipPath
       clipPathUnits="userSpaceOnUse"
       id="clipPath3003"><path
         d="m 1009.06,997.77 h 7.63 v -6.485 h -7.63 z"
         id="path3001" /></clipPath><clipPath
       clipPathUnits="userSpaceOnUse"
       id="clipPath3019"><path
         d="m 1016.17,969.667 h 7.63 v -6.485 h -7.63 z"
         id="path3017" /></clipPath><clipPath
       clipPathUnits="userSpaceOnUse"
       id="clipPath23529"><path
         d="m 1016.227,1030.562 c -4.517,-2.669 -8.777,-5.928 -12.678,-9.804 v 0 c -26.28002,-26.28097 -26.28002,-68.85802 0,-95.13899 v 0 c 26.254,-26.25398 68.832,-26.28 95.112,0 v 0 c 5.904,5.877 10.318,12.654 13.5,19.81395 v 0 c 0.077,1.84807 -0.2571,3.36105 -1.001,4.33702 v 0 c -22.918,-6.87795 -48.737,-1.46295 -66.831,16.63005 v 0 c -16.656,16.65698 -22.584,39.83197 -18.067,61.28797 v 0 c 0,0.102 -0.025,0.1789 -0.025,0.282 v 0 c 0.847,2.72 0.692,5.2091 -1.002,5.9282 v 0 c -0.304,0.1301 -0.674,0.1919 -1.095,0.1919 v 0 c -1.994,0 -5.137,-1.3879 -7.913,-3.528"
         id="path23531"
         style="stroke-width:0.999998" /></clipPath><clipPath
       clipPathUnits="userSpaceOnUse"
       id="clipPath23546"><path
         d="M -2.2440947e-6,2048 H 2048 V -1.1811023e-5 H -2.2440947e-6 Z"
         id="path23548"
         style="stroke-width:0.999998" /></clipPath><clipPath
       clipPathUnits="userSpaceOnUse"
       id="clipPath23556"><path
         d="M -2.2440947e-6,2048 H 2048 V -1.1811023e-5 H -2.2440947e-6 Z"
         id="path23558"
         style="stroke-width:0.999998" /></clipPath><clipPath
       clipPathUnits="userSpaceOnUse"
       id="clipPath23572"><path
         d="M -2.2440947e-6,2048 H 2048 V -1.1811023e-5 H -2.2440947e-6 Z"
         id="path23574"
         style="stroke-width:0.999998" /></clipPath><clipPath
       clipPathUnits="userSpaceOnUse"
       id="clipPath23582"><path
         d="M -2.2440947e-6,2048 H 2048 V -1.1811023e-5 H -2.2440947e-6 Z"
         id="path23584"
         style="stroke-width:0.999998" /></clipPath><clipPath
       clipPathUnits="userSpaceOnUse"
       id="clipPath23603"><path
         d="M -2.2440947e-6,2048 H 2048 V -1.1811023e-5 H -2.2440947e-6 Z"
         id="path23605"
         style="stroke-width:0.999998" /></clipPath></defs><g
     id="g26201"
     transform="translate(-567.07652,-357.68495)"><g
       id="g2929"
       transform="matrix(0.35277776,0,0,-0.35277778,220,722.48892)"
       clip-path="url(#clipPath23529)"><path
         d="m 1016.227,1030.562 c -4.517,-2.669 -8.777,-5.928 -12.678,-9.804 v 0 c -26.28,-26.281 -26.28,-68.858 0,-95.139 v 0 c 26.254,-26.254 68.832,-26.28 95.112,0 v 0 c 5.904,5.877 10.318,12.654 13.5,19.814 v 0 c 0.077,1.848 -0.257,3.361 -1.001,4.337 v 0 c -22.918,-6.878 -48.737,-1.463 -66.831,16.63 v 0 c -16.656,16.657 -22.584,39.832 -18.067,61.288 v 0 c 0,0.102 -0.025,0.179 -0.025,0.282 v 0 c 0.847,2.72 0.692,5.209 -1.002,5.928 v 0 c -0.304,0.13 -0.674,0.192 -1.095,0.192 v 0 c -1.994,0 -5.137,-1.388 -7.913,-3.528"
         style="fill:url(#linearGradient2937);stroke:none"
         id="path2939" /></g><g
       id="g2963"
       transform="matrix(0.35277776,0,0,-0.35277778,220,722.48892)"
       clip-path="url(#clipPath23546)"><g
         clip-path="url(#clipPath2955)"
         opacity="0.5"
         id="g2961"><g
           transform="translate(1043.2776,907.5518)"
           id="g2959"><path
             d="M 0,0 C 14.269,-1.694 31.157,1.335 41.782,9.932 30.926,6.185 16.759,1.899 1.052,3.773 -14.629,5.646 -22.739,9.599 -31.208,13.808 -24.356,7.956 -14.475,1.745 0,0"
             style="fill:#d48129;fill-opacity:1;fill-rule:nonzero;stroke:none"
             id="path2957" /></g></g></g><g
       id="g2979"
       transform="matrix(0.35277776,0,0,-0.35277778,220,722.48892)"
       clip-path="url(#clipPath23582)"><g
         clip-path="url(#clipPath2971)"
         opacity="0.5"
         id="g2977"><g
           transform="translate(1102.8706,947.6398)"
           id="g2975"><path
             d="M 0,0 C -16.605,-4.414 -43.963,-0.667 -60.671,15.501 -77.353,31.67 -79.483,55.23 -78.174,62.442 -76.968,54.537 -73.478,30.72 -58.207,17.298 -43.245,4.132 -16.477,-2.9 0,0"
             style="fill:#fcd900;fill-opacity:1;fill-rule:nonzero;stroke:none"
             id="path2973" /></g></g></g><g
       id="g2995"
       transform="matrix(0.35277776,0,0,-0.35277778,220,722.48892)"
       clip-path="url(#clipPath23572)"><g
         clip-path="url(#clipPath2987)"
         opacity="0.240005"
         id="g2993"><g
           transform="translate(1000.1355,970.1219)"
           id="g2991"><path
             d="M 0,0 C -7.083,2.695 -8.341,14.039 -0.385,16.04 6.108,17.657 14.757,16.22 15.039,8.084 15.399,-0.975 6.929,-2.643 0,0"
             style="fill:#d48129;fill-opacity:1;fill-rule:nonzero;stroke:none"
             id="path2989" /></g></g></g><g
       id="g3011"
       transform="matrix(0.35277776,0,0,-0.35277778,220,722.48892)"
       clip-path="url(#clipPath23556)"><g
         clip-path="url(#clipPath3003)"
         opacity="0.240005"
         id="g3009"><g
           transform="translate(1011.1969,991.7058)"
           id="g3007"><path
             d="M 0,0 C -2.592,0.975 -3.054,5.107 -0.128,5.852 2.233,6.442 5.39,5.903 5.492,2.951 5.621,-0.359 2.541,-0.975 0,0"
             style="fill:#d48129;fill-opacity:1;fill-rule:nonzero;stroke:none"
             id="path3005" /></g></g></g><g
       id="g3027"
       transform="matrix(0.35277776,0,0,-0.35277778,220,722.48892)"
       clip-path="url(#clipPath23603)"><g
         clip-path="url(#clipPath3019)"
         opacity="0.240005"
         id="g3025"><g
           transform="translate(1018.306,963.6031)"
           id="g3023"><path
             d="M 0,0 C -2.592,0.975 -3.054,5.107 -0.128,5.852 2.233,6.442 5.39,5.903 5.492,2.951 5.621,-0.359 2.515,-0.975 0,0"
             style="fill:#d48129;fill-opacity:1;fill-rule:nonzero;stroke:none"
             id="path3021" /></g></g></g></g></svg>
