<?xml version="1.0" encoding="UTF-8" standalone="no"?>
<!-- Created with Inkscape (http://www.inkscape.org/) -->

<svg
   width="45.269501mm"
   height="35.997055mm"
   viewBox="0 0 45.269501 35.997055"
   version="1.1"
   id="svg5"
   xml:space="preserve"
   xmlns="http://www.w3.org/2000/svg"
   xmlns:svg="http://www.w3.org/2000/svg"><defs
     id="defs2"><linearGradient
       x1="0"
       y1="0"
       x2="1"
       y2="0"
       gradientUnits="userSpaceOnUse"
       gradientTransform="matrix(0,-65.1334,-65.1334,0,1864.036,1021.024)"
       spreadMethod="pad"
       id="linearGradient4397"><stop
         style="stop-opacity:1;stop-color:#fdda00"
         offset="0"
         id="stop4391" /><stop
         style="stop-opacity:1;stop-color:#e2a026"
         offset="0.7755"
         id="stop4393" /><stop
         style="stop-opacity:1;stop-color:#e2a026"
         offset="1"
         id="stop4395" /></linearGradient><clipPath
       clipPathUnits="userSpaceOnUse"
       id="clipPath4415"><path
         d="m 1845.24,963.718 h 37.08 v -7.266 h -37.08 z"
         id="path4413" /></clipPath><clipPath
       clipPathUnits="userSpaceOnUse"
       id="clipPath4431"><path
         d="m 1836.18,1008.81 h 39.89 v -32.612 h -39.89 z"
         id="path4429" /></clipPath><clipPath
       clipPathUnits="userSpaceOnUse"
       id="clipPath4447"><path
         d="m 1881.22,1002.08 h 10.64 v -9.036 h -10.64 z"
         id="path4445" /></clipPath><clipPath
       clipPathUnits="userSpaceOnUse"
       id="clipPath4463"><path
         d="m 1880.5,1007.69 h 3.85 v -3.3 h -3.85 z"
         id="path4461" /></clipPath><clipPath
       clipPathUnits="userSpaceOnUse"
       id="clipPath4479"><path
         d="m 1876.9,993.395 h 3.86 v -3.298 h -3.86 z"
         id="path4477" /></clipPath><clipPath
       clipPathUnits="userSpaceOnUse"
       id="clipPath4499"><path
         d="m 1832.12,958.641 h 122.91 V 922.09 h -122.91 z"
         id="path4497" /></clipPath><linearGradient
       x1="0"
       y1="0"
       x2="1"
       y2="0"
       gradientUnits="userSpaceOnUse"
       gradientTransform="matrix(0,-14.654487,14.654487,0,1846.1875,1014.1749)"
       spreadMethod="pad"
       id="linearGradient4535"><stop
         style="stop-opacity:1;stop-color:#fdda00"
         offset="0"
         id="stop4529" /><stop
         style="stop-opacity:1;stop-color:#e2a026"
         offset="0.7755"
         id="stop4531" /><stop
         style="stop-opacity:1;stop-color:#e2a026"
         offset="1"
         id="stop4533" /></linearGradient><clipPath
       clipPathUnits="userSpaceOnUse"
       id="clipPath22495"><path
         d="m 1846.187,1010.864 -4.747,3.311 1.667,-5.544 -4.619,-3.516 5.8,-0.102 1.899,-5.49312 1.925,5.49312 5.775,0.102 -4.62,3.516 1.694,5.544 z"
         id="path22497"
         style="stroke-width:0.999998" /></clipPath><clipPath
       clipPathUnits="userSpaceOnUse"
       id="clipPath24129"><path
         d="m 1875.624,1020.925 c -0.872,-0.385 -0.949,-1.643 -0.513,-3.029 v 0 -0.1539 c 2.285,-10.908 -0.718,-22.68802 -9.188,-31.15709 v 0 c -9.187,-9.18795 -22.302,-11.934 -33.954,-8.4429 v 0 c -0.384,-0.48803 -0.564,-1.25805 -0.538,-2.18205 v 0 c 1.642,-3.64395 3.874,-7.083 6.851,-10.05998 v 0 c 13.372,-13.34497 35.008,-13.34497 48.353,0 v 0 c 13.345,13.34498 13.345,35.00592 0,48.35202 v 0 c -1.977,1.976 -4.158,3.618 -6.442,4.979 v 0 c -1.398,1.08 -3.006,1.793 -4.016,1.793 v 0 c -0.2129,0 -0.4,-0.032 -0.553,-0.099"
         id="path24131"
         style="stroke-width:0.999998" /></clipPath><clipPath
       clipPathUnits="userSpaceOnUse"
       id="clipPath24139"><path
         d="M -2.2440947e-6,2048 H 2048 V -1.1811023e-5 H -2.2440947e-6 Z"
         id="path24141"
         style="stroke-width:0.999998" /></clipPath><clipPath
       clipPathUnits="userSpaceOnUse"
       id="clipPath24149"><path
         d="M -2.2440947e-6,2048 H 2048 V -1.1811023e-5 H -2.2440947e-6 Z"
         id="path24151"
         style="stroke-width:0.999998" /></clipPath><clipPath
       clipPathUnits="userSpaceOnUse"
       id="clipPath24159"><path
         d="M -2.2440947e-6,2048 H 2048 V -1.1811023e-5 H -2.2440947e-6 Z"
         id="path24161"
         style="stroke-width:0.999998" /></clipPath><clipPath
       clipPathUnits="userSpaceOnUse"
       id="clipPath24176"><path
         d="M -2.2440947e-6,2048 H 2048 V -1.1811023e-5 H -2.2440947e-6 Z"
         id="path24178"
         style="stroke-width:0.999998" /></clipPath><clipPath
       clipPathUnits="userSpaceOnUse"
       id="clipPath24207"><path
         d="M -2.2440947e-6,2048 H 2048 V -1.1811023e-5 H -2.2440947e-6 Z"
         id="path24209"
         style="stroke-width:0.999998" /></clipPath><clipPath
       clipPathUnits="userSpaceOnUse"
       id="clipPath24213"><path
         d="M -1936.4242,1074.0159 H 111.57581 V -973.98412 H -1936.4242 Z"
         id="path24215"
         style="stroke-width:0.999998" /></clipPath><clipPath
       clipPathUnits="userSpaceOnUse"
       id="clipPath24233"><path
         d="M -1936.4242,1070.3458 H 111.57581 V -977.65422 H -1936.4242 Z"
         id="path24235"
         style="stroke-width:0.999998" /></clipPath><clipPath
       clipPathUnits="userSpaceOnUse"
       id="clipPath24243"><path
         d="M -2.2440947e-6,2048 H 2048 V -1.1811023e-5 H -2.2440947e-6 Z"
         id="path24245"
         style="stroke-width:0.999998" /></clipPath><clipPath
       clipPathUnits="userSpaceOnUse"
       id="clipPath24249"><path
         d="M -1869.5679,1088.3367 H 178.43209 V -959.66332 H -1869.5679 Z"
         id="path24251"
         style="stroke-width:0.999998" /></clipPath></defs><g
     id="g26316"
     transform="translate(-865.94285,-362.29434)"><g
       id="g4389"
       transform="matrix(0.35277776,0,0,-0.35277778,220,722.48892)"
       clip-path="url(#clipPath24129)"><path
         d="m 1875.624,1020.925 c -0.872,-0.385 -0.949,-1.643 -0.513,-3.029 v 0 -0.154 c 2.285,-10.908 -0.718,-22.688 -9.188,-31.157 v 0 c -9.187,-9.188 -22.302,-11.934 -33.954,-8.443 v 0 c -0.384,-0.488 -0.564,-1.258 -0.538,-2.182 v 0 c 1.642,-3.644 3.874,-7.083 6.851,-10.06 v 0 c 13.372,-13.345 35.008,-13.345 48.353,0 v 0 c 13.345,13.345 13.345,35.006 0,48.352 v 0 c -1.977,1.976 -4.158,3.618 -6.442,4.979 v 0 c -1.398,1.08 -3.006,1.793 -4.016,1.793 v 0 c -0.213,0 -0.4,-0.032 -0.553,-0.099"
         style="fill:url(#linearGradient4397);stroke:none"
         id="path4399" /></g><g
       id="g4423"
       transform="matrix(0.35277776,0,0,-0.35277778,220,722.48892)"
       clip-path="url(#clipPath24139)"><g
         clip-path="url(#clipPath4415)"
         opacity="0.5"
         id="g4421"><g
           transform="translate(1866.4625,956.6862)"
           id="g4419"><path
             d="M 0,0 C -7.263,-0.873 -15.835,0.667 -21.225,5.056 -15.707,3.157 -8.495,0.975 -0.539,1.925 7.443,2.874 11.549,4.876 15.861,7.032 12.37,4.055 7.366,0.898 0,0"
             style="fill:#d48129;fill-opacity:1;fill-rule:nonzero;stroke:none"
             id="path4417" /></g></g></g><g
       id="g4439"
       transform="matrix(0.35277776,0,0,-0.35277778,220,722.48892)"
       clip-path="url(#clipPath24159)"><g
         clip-path="url(#clipPath4431)"
         opacity="0.5"
         id="g4437"><g
           transform="translate(1836.1782,977.0639)"
           id="g4435"><path
             d="m 0,0 c 8.444,-2.233 22.354,-0.334 30.823,7.879 8.495,8.213 9.573,20.198 8.906,23.868 C 39.113,27.743 37.342,15.63 29.566,8.803 21.969,2.104 8.367,-1.463 0,0"
             style="fill:#fcd900;fill-opacity:1;fill-rule:nonzero;stroke:none"
             id="path4433" /></g></g></g><g
       id="g4455"
       transform="matrix(0.35277776,0,0,-0.35277778,220,722.48892)"
       clip-path="url(#clipPath24207)"><g
         clip-path="url(#clipPath4447)"
         opacity="0.190002"
         id="g4453"><g
           transform="translate(1888.8933,993.6176)"
           id="g4451"><path
             d="M 0,0 C 3.593,1.36 4.235,7.135 0.18,8.161 -3.105,8.983 -7.52,8.238 -7.674,4.132 -7.828,-0.488 -3.516,-1.335 0,0"
             style="fill:#d48129;fill-opacity:1;fill-rule:nonzero;stroke:none"
             id="path4449" /></g></g></g><g
       id="g4471"
       transform="matrix(0.35277776,0,0,-0.35277778,220,722.48892)"
       clip-path="url(#clipPath24149)"><g
         clip-path="url(#clipPath4463)"
         opacity="0.190002"
         id="g4469"><g
           transform="translate(1883.2728,1004.602)"
           id="g4467"><path
             d="M 0,0 C 1.309,0.488 1.54,2.592 0.077,2.977 -1.129,3.285 -2.72,3.003 -2.772,1.514 -2.849,-0.18 -1.283,-0.488 0,0"
             style="fill:#d48129;fill-opacity:1;fill-rule:nonzero;stroke:none"
             id="path4465" /></g></g></g><g
       id="g4487"
       transform="matrix(0.35277776,0,0,-0.35277778,220,722.48892)"
       clip-path="url(#clipPath24176)"><g
         clip-path="url(#clipPath4479)"
         opacity="0.190002"
         id="g4485"><g
           transform="translate(1879.6798,990.3068)"
           id="g4483"><path
             d="M 0,0 C 1.309,0.488 1.54,2.592 0.077,2.977 -1.129,3.285 -2.72,3.003 -2.772,1.514 -2.875,-0.18 -1.309,-0.488 0,0"
             style="fill:#d48129;fill-opacity:1;fill-rule:nonzero;stroke:none"
             id="path4481" /></g></g></g><path
       d="m 0,0 c -3.08,0 -6.031,-0.642 -8.726,-1.745 -6.057,11.857 -18.273,20.07 -32.517,20.07 -14.244,0 -26.46,-8.213 -32.517,-20.07 -2.695,1.103 -5.621,1.745 -8.726,1.745 -12.653,0 -22.919,-10.266 -22.919,-22.919 0,-12.652 10.266,-22.918 22.919,-22.918 4.902,0 9.444,1.566 13.166,4.209 6.724,-8.11 16.733,-13.371 28.077,-13.371 11.344,0 21.353,5.261 28.077,13.371 3.721,-2.618 8.264,-4.209 13.166,-4.209 12.653,0 22.918,10.266 22.918,22.918 C 22.918,-10.266 12.653,0 0,0"
       style="fill:#bdc5d2;fill-opacity:1;fill-rule:nonzero;stroke:none"
       id="path4491"
       transform="matrix(0.35277776,0,0,-0.35277778,903.12739,377.59424)"
       clip-path="url(#clipPath24233)" /><g
       id="g4507"
       transform="matrix(0.35277776,0,0,-0.35277778,220,722.48892)"
       clip-path="url(#clipPath24243)"><g
         clip-path="url(#clipPath4499)"
         opacity="0.0500031"
         id="g4505"><g
           transform="translate(1898.2096,957.8411)"
           id="g4503"><path
             d="m 0,0 c -24.689,2.489 -47.813,-0.95 -66.086,-8.649 2.284,-10.266 11.42,-17.94 22.353,-17.94 4.902,0 9.445,1.566 13.166,4.209 6.725,-8.11 16.734,-13.371 28.077,-13.371 11.344,0 21.354,5.261 28.078,13.371 3.721,-2.617 8.264,-4.209 13.166,-4.209 7.34,0 13.858,3.465 18.067,8.855 C 41.269,-8.649 21.687,-2.182 0,0"
             style="fill:#a8a9ad;fill-opacity:1;fill-rule:nonzero;stroke:none"
             id="path4501" /></g></g></g><path
       d="m 0,0 c -3.08,0 -6.031,-0.642 -8.726,-1.745 -6.082,11.857 -18.273,20.07 -32.517,20.07 -14.244,0 -26.46,-8.213 -32.517,-20.07 -2.695,1.103 -5.621,1.745 -8.726,1.745 -12.653,0 -22.919,-10.266 -22.919,-22.918 0,-12.653 10.266,-22.919 22.919,-22.919 4.902,0 9.444,1.566 13.166,4.209 6.724,-8.11 16.733,-13.371 28.077,-13.371 11.344,0 21.353,5.261 28.077,13.371 3.721,-2.618 8.264,-4.209 13.166,-4.209 12.653,0 22.918,10.266 22.918,22.919 C 22.918,-10.266 12.653,0 0,0"
       style="fill:#d3dee2;fill-opacity:1;fill-rule:nonzero;stroke:none"
       id="path4511"
       transform="matrix(0.35277776,0,0,-0.35277778,903.12739,378.88897)"
       clip-path="url(#clipPath24213)" /><path
       d="m 0,0 c 1.925,0 3.721,-0.385 5.39,-1.078 3.747,7.34 11.292,12.396 20.095,12.396 8.803,0 16.348,-5.081 20.095,-12.396 1.669,0.693 3.491,1.078 5.39,1.078 7.16,0 13.063,-5.313 14.013,-12.216 0.077,0.641 0.154,1.283 0.154,1.924 0,7.828 -6.339,14.167 -14.167,14.167 -1.899,0 -3.721,-0.385 -5.39,-1.078 C 41.833,10.138 34.288,15.193 25.485,15.193 16.682,15.193 9.137,10.112 5.39,2.797 3.721,3.49 1.925,3.875 0,3.875 c -7.828,0 -14.167,-6.339 -14.167,-14.167 0,-0.667 0.052,-1.308 0.154,-1.924 C -13.089,-5.313 -7.186,0 0,0"
       style="fill:#bdc5d2;fill-opacity:1;fill-rule:nonzero;stroke:none"
       id="path4515"
       transform="matrix(0.35277776,0,0,-0.35277778,879.54198,383.94103)"
       clip-path="url(#clipPath24249)" /><g
       id="g4527"
       transform="matrix(0.35277776,0,0,-0.35277778,220,722.48892)"
       clip-path="url(#clipPath22495)"><path
         d="m 1846.187,1010.864 -4.747,3.311 1.667,-5.544 -4.619,-3.516 5.8,-0.102 1.899,-5.493 1.925,5.493 5.775,0.102 -4.62,3.516 1.694,5.544 z"
         style="fill:url(#linearGradient4535);stroke:none"
         id="path4537" /></g></g></svg>
