<?xml version="1.0" encoding="UTF-8" standalone="no"?>
<!-- Created with Inkscape (http://www.inkscape.org/) -->

<svg
   width="45.28735mm"
   height="27.261181mm"
   viewBox="0 0 45.28735 27.261181"
   version="1.1"
   id="svg5"
   xml:space="preserve"
   xmlns="http://www.w3.org/2000/svg"
   xmlns:svg="http://www.w3.org/2000/svg"><defs
     id="defs2"><clipPath
       clipPathUnits="userSpaceOnUse"
       id="clipPath3039"><path
         d="m 766.198,296.622 h 55.513 v -16.48 h -55.513 z"
         id="path3037" /></clipPath><clipPath
       clipPathUnits="userSpaceOnUse"
       id="clipPath3067"><path
         d="m 696.134,296.622 h 55.513 v -16.48 h -55.513 z"
         id="path3065" /></clipPath><clipPath
       clipPathUnits="userSpaceOnUse"
       id="clipPath3095"><path
         d="M 696.391,275.861 H 819.298 V 239.31 H 696.391 Z"
         id="path3093" /></clipPath><clipPath
       clipPathUnits="userSpaceOnUse"
       id="clipPath23562"><path
         d="m -813.2672,1744.4518 h 2048 V -303.54821 h -2048 z"
         id="path23564"
         style="stroke-width:0.999998" /></clipPath><clipPath
       clipPathUnits="userSpaceOnUse"
       id="clipPath23588"><path
         d="m -813.2672,1742.7836 h 2048 v -2048 h -2048 z"
         id="path23590"
         style="stroke-width:0.999998" /></clipPath><clipPath
       clipPathUnits="userSpaceOnUse"
       id="clipPath23609"><path
         d="m -783.0857,1750.9193 h 2048 V -297.08071 h -2048 z"
         id="path23611"
         style="stroke-width:0.999998" /></clipPath><clipPath
       clipPathUnits="userSpaceOnUse"
       id="clipPath23615"><path
         d="M -743.20309,1742.7836 H 1304.7969 v -2048 H -743.20309 Z"
         id="path23617"
         style="stroke-width:0.999998" /></clipPath><clipPath
       clipPathUnits="userSpaceOnUse"
       id="clipPath23654"><path
         d="M -743.20309,1744.4518 H 1304.7969 V -303.54821 H -743.20309 Z"
         id="path23656"
         style="stroke-width:0.999998" /></clipPath><clipPath
       clipPathUnits="userSpaceOnUse"
       id="clipPath23676"><path
         d="M -733.83549,1771.1172 H 1314.1645 V -276.88281 H -733.83549 Z"
         id="path23678"
         style="stroke-width:0.999998" /></clipPath><clipPath
       clipPathUnits="userSpaceOnUse"
       id="clipPath23700"><path
         d="M -713.02151,1750.9193 H 1334.9785 V -297.08071 H -713.02151 Z"
         id="path23702"
         style="stroke-width:0.999998" /></clipPath><clipPath
       clipPathUnits="userSpaceOnUse"
       id="clipPath23706"><path
         d="m -800.6916,1753.1264 h 2048 v -2048 h -2048 z"
         id="path23708"
         style="stroke-width:0.999998" /></clipPath><clipPath
       clipPathUnits="userSpaceOnUse"
       id="clipPath23712"><path
         d="m -800.6916,1756.7964 h 2048 V -291.20361 h -2048 z"
         id="path23714"
         style="stroke-width:0.999998" /></clipPath></defs><g
     id="g27172"
     transform="translate(-465.282,-611.9)"><path
       d="m 0,0 c -1.386,0 -2.72,-0.282 -3.927,-0.796 -2.746,5.364 -8.238,9.06 -14.68,9.06 -6.416,0 -11.934,-3.696 -14.68,-9.06 -1.206,0.488 -2.541,0.796 -3.927,0.796 -5.723,0 -10.342,-4.645 -10.342,-10.343 0,-5.697 4.645,-10.343 10.342,-10.343 2.208,0 4.261,0.719 5.955,1.9 3.028,-3.67 7.545,-6.032 12.678,-6.032 5.107,0 9.65,2.387 12.678,6.032 1.668,-1.181 3.721,-1.9 5.954,-1.9 5.723,0 10.343,4.646 10.343,10.343 C 10.394,-4.645 5.698,0 0,0"
       style="fill:#bdc5d2;fill-opacity:1;fill-rule:nonzero;stroke:none"
       id="path3031"
       transform="matrix(0.35277776,0,0,-0.35277778,506.90258,614.81536)"
       clip-path="url(#clipPath23588)" /><g
       id="g3047"
       transform="matrix(0.35277776,0,0,-0.35277778,220,722.48892)"><g
         clip-path="url(#clipPath3039)"
         opacity="0.0500031"
         id="g3045"><g
           transform="translate(796.0206,296.2595)"
           id="g3043"><path
             d="m 0,0 c -11.138,1.129 -21.584,-0.436 -29.822,-3.901 1.026,-4.645 5.158,-8.084 10.086,-8.084 2.207,0 4.26,0.718 5.954,1.899 3.029,-3.67 7.546,-6.031 12.678,-6.031 5.108,0 9.65,2.387 12.679,6.031 1.668,-1.181 3.721,-1.899 5.954,-1.899 3.311,0 6.262,1.565 8.161,4.003 C 18.632,-3.901 9.778,-0.975 0,0"
             style="fill:#a8a9ad;fill-opacity:1;fill-rule:nonzero;stroke:none"
             id="path3041" /></g></g></g><path
       d="m 0,0 c -1.386,0 -2.72,-0.282 -3.927,-0.796 -2.746,5.364 -8.238,9.06 -14.68,9.06 -6.416,0 -11.934,-3.696 -14.68,-9.06 -1.206,0.488 -2.541,0.796 -3.927,0.796 -5.723,0 -10.342,-4.645 -10.342,-10.343 0,-5.697 4.645,-10.343 10.342,-10.343 2.208,0 4.261,0.719 5.955,1.9 3.028,-3.67 7.545,-6.032 12.678,-6.032 5.107,0 9.65,2.387 12.678,6.032 1.668,-1.181 3.721,-1.9 5.954,-1.9 5.723,0 10.343,4.646 10.343,10.343 C 10.394,-4.645 5.698,0 0,0"
       style="fill:#d3dee2;fill-opacity:1;fill-rule:nonzero;stroke:none"
       id="path3051"
       transform="matrix(0.35277776,0,0,-0.35277778,506.90258,615.40386)"
       clip-path="url(#clipPath23562)" /><path
       d="m 0,0 c 0.873,0 1.668,-0.18 2.438,-0.488 1.694,3.311 5.107,5.595 9.06,5.595 3.978,0 7.365,-2.284 9.059,-5.595 C 21.302,-0.18 22.123,0 22.995,0 c 3.234,0 5.903,-2.387 6.314,-5.518 0.026,0.282 0.077,0.59 0.077,0.873 0,3.541 -2.849,6.39 -6.391,6.39 -0.847,0 -1.668,-0.179 -2.438,-0.487 C 18.863,4.568 15.45,6.852 11.498,6.852 7.52,6.852 4.132,4.568 2.438,1.258 1.694,1.566 0.873,1.745 0,1.745 c -3.542,0 -6.39,-2.849 -6.39,-6.39 0,-0.308 0.025,-0.591 0.077,-0.873 C -5.903,-2.387 -3.234,0 0,0"
       style="fill:#bdc5d2;fill-opacity:1;fill-rule:nonzero;stroke:none"
       id="path3055"
       transform="matrix(0.35277776,0,0,-0.35277778,496.25522,617.68545)"
       clip-path="url(#clipPath23609)" /><path
       d="m 0,0 c -1.386,0 -2.72,-0.282 -3.927,-0.796 -2.746,5.364 -8.238,9.06 -14.68,9.06 -6.442,0 -11.934,-3.696 -14.68,-9.06 -1.206,0.488 -2.541,0.796 -3.927,0.796 -5.723,0 -10.342,-4.645 -10.342,-10.343 0,-5.697 4.645,-10.343 10.342,-10.343 2.208,0 4.261,0.719 5.955,1.9 3.028,-3.67 7.545,-6.032 12.678,-6.032 5.133,0 9.65,2.387 12.678,6.032 1.668,-1.181 3.721,-1.9 5.954,-1.9 5.723,0 10.343,4.646 10.343,10.343 C 10.394,-4.645 5.698,0 0,0"
       style="fill:#bdc5d2;fill-opacity:1;fill-rule:nonzero;stroke:none"
       id="path3059"
       transform="matrix(0.35277776,0,0,-0.35277778,482.18552,614.81536)"
       clip-path="url(#clipPath23615)" /><g
       id="g3075"
       transform="matrix(0.35277776,0,0,-0.35277778,220,722.48892)"><g
         clip-path="url(#clipPath3067)"
         opacity="0.0500031"
         id="g3073"><g
           transform="translate(725.9565,296.2595)"
           id="g3071"><path
             d="m 0,0 c -11.138,1.129 -21.584,-0.436 -29.822,-3.901 1.026,-4.645 5.158,-8.084 10.086,-8.084 2.207,0 4.26,0.718 5.954,1.899 3.029,-3.67 7.546,-6.031 12.678,-6.031 5.133,0 9.65,2.387 12.679,6.031 1.668,-1.181 3.721,-1.899 5.954,-1.899 3.311,0 6.262,1.565 8.161,4.003 C 18.607,-3.901 9.778,-0.975 0,0"
             style="fill:#a8a9ad;fill-opacity:1;fill-rule:nonzero;stroke:none"
             id="path3069" /></g></g></g><path
       d="m 0,0 c -1.386,0 -2.72,-0.282 -3.927,-0.796 -2.746,5.364 -8.238,9.06 -14.68,9.06 -6.442,0 -11.934,-3.696 -14.68,-9.06 -1.206,0.488 -2.541,0.796 -3.927,0.796 -5.723,0 -10.342,-4.645 -10.342,-10.343 0,-5.697 4.645,-10.343 10.342,-10.343 2.208,0 4.261,0.719 5.955,1.9 3.028,-3.67 7.545,-6.032 12.678,-6.032 5.133,0 9.65,2.387 12.678,6.032 1.668,-1.181 3.721,-1.9 5.954,-1.9 5.723,0 10.343,4.646 10.343,10.343 C 10.394,-4.645 5.698,0 0,0"
       style="fill:#d3dee2;fill-opacity:1;fill-rule:nonzero;stroke:none"
       id="path3079"
       transform="matrix(0.35277776,0,0,-0.35277778,482.18552,615.40386)"
       clip-path="url(#clipPath23654)" /><path
       d="m 0,0 c 0.873,0 1.668,-0.18 2.438,-0.488 1.694,3.311 5.107,5.595 9.06,5.595 3.952,0 7.365,-2.284 9.059,-5.595 C 21.302,-0.18 22.123,0 22.995,0 c 3.234,0 5.903,-2.387 6.314,-5.518 0.026,0.282 0.077,0.59 0.077,0.873 0,3.541 -2.849,6.39 -6.391,6.39 -0.847,0 -1.668,-0.179 -2.438,-0.487 C 18.863,4.568 15.45,6.852 11.498,6.852 7.545,6.852 4.132,4.568 2.438,1.258 1.694,1.566 0.873,1.745 0,1.745 c -3.542,0 -6.39,-2.849 -6.39,-6.39 0,-0.308 0.025,-0.591 0.077,-0.873 C -5.903,-2.387 -3.234,0 0,0"
       style="fill:#bdc5d2;fill-opacity:1;fill-rule:nonzero;stroke:none"
       id="path3083"
       transform="matrix(0.35277776,0,0,-0.35277778,471.53813,617.68545)"
       clip-path="url(#clipPath23700)" /><path
       d="m 0,0 c -3.08,0 -6.031,-0.642 -8.726,-1.745 -6.057,11.857 -18.273,20.069 -32.517,20.069 -14.244,0 -26.46,-8.212 -32.517,-20.069 -2.695,1.103 -5.62,1.745 -8.726,1.745 -12.652,0 -22.918,-10.266 -22.918,-22.918 0,-12.653 10.266,-22.919 22.918,-22.919 4.902,0 9.445,1.566 13.166,4.209 6.724,-8.11 16.733,-13.371 28.077,-13.371 11.344,0 21.353,5.261 28.077,13.371 3.721,-2.618 8.264,-4.209 13.166,-4.209 12.653,0 22.918,10.266 22.918,22.919 C 22.918,-10.266 12.653,0 0,0"
       style="fill:#bdc5d2;fill-opacity:1;fill-rule:nonzero;stroke:none"
       id="path3087"
       transform="matrix(0.35277776,0,0,-0.35277778,502.46619,618.46407)"
       clip-path="url(#clipPath23706)" /><g
       id="g3103"
       transform="matrix(0.35277776,0,0,-0.35277778,220,722.48892)"><g
         clip-path="url(#clipPath3095)"
         opacity="0.0500031"
         id="g3101"><g
           transform="translate(762.4771,275.0606)"
           id="g3099"><path
             d="m 0,0 c -24.689,2.489 -47.813,-0.95 -66.086,-8.649 2.284,-10.266 11.421,-17.939 22.354,-17.939 4.902,0 9.444,1.565 13.166,4.209 6.724,-8.11 16.733,-13.372 28.077,-13.372 11.343,0 21.352,5.262 28.077,13.372 3.721,-2.618 8.264,-4.209 13.165,-4.209 7.34,0 13.859,3.464 18.068,8.854 C 41.269,-8.649 21.687,-2.181 0,0"
             style="fill:#a8a9ad;fill-opacity:1;fill-rule:nonzero;stroke:none"
             id="path3097" /></g></g></g><path
       d="m 0,0 c -3.08,0 -6.031,-0.642 -8.726,-1.745 -6.082,11.857 -18.273,20.069 -32.517,20.069 -14.244,0 -26.46,-8.212 -32.517,-20.069 -2.695,1.103 -5.62,1.745 -8.726,1.745 -12.652,0 -22.918,-10.266 -22.918,-22.918 0,-12.653 10.266,-22.919 22.918,-22.919 4.902,0 9.445,1.566 13.166,4.209 6.724,-8.11 16.733,-13.371 28.077,-13.371 11.344,0 21.353,5.261 28.077,13.371 3.721,-2.618 8.264,-4.209 13.166,-4.209 12.653,0 22.918,10.266 22.918,22.919 C 22.918,-10.266 12.653,0 0,0"
       style="fill:#d3dee2;fill-opacity:1;fill-rule:nonzero;stroke:none"
       id="path3107"
       transform="matrix(0.35277776,0,0,-0.35277778,502.46619,619.75876)"
       clip-path="url(#clipPath23712)" /><path
       d="m 0,0 c 1.925,0 3.721,-0.385 5.39,-1.078 3.747,7.34 11.292,12.396 20.095,12.396 8.803,0 16.348,-5.082 20.095,-12.396 1.668,0.693 3.491,1.078 5.39,1.078 7.16,0 13.063,-5.313 14.013,-12.216 0.077,0.641 0.154,1.283 0.154,1.925 0,7.827 -6.34,14.166 -14.167,14.166 -1.899,0 -3.722,-0.385 -5.39,-1.078 C 41.833,10.137 34.288,15.193 25.485,15.193 16.682,15.193 9.137,10.112 5.39,2.797 3.721,3.49 1.925,3.875 0,3.875 c -7.828,0 -14.167,-6.339 -14.167,-14.166 0,-0.668 0.052,-1.309 0.154,-1.925 C -13.089,-5.313 -7.186,0 0,0"
       style="fill:#bdc5d2;fill-opacity:1;fill-rule:nonzero;stroke:none"
       id="path3111"
       transform="matrix(0.35277776,0,0,-0.35277778,478.88084,624.81082)"
       clip-path="url(#clipPath23676)" /></g></svg>
