<?xml version="1.0" encoding="UTF-8" standalone="no"?>
<!-- Created with Inkscape (http://www.inkscape.org/) -->

<svg
   width="45.269146mm"
   height="36.66827mm"
   viewBox="0 0 45.269146 36.66827"
   version="1.1"
   id="svg5"
   xml:space="preserve"
   xmlns="http://www.w3.org/2000/svg"
   xmlns:svg="http://www.w3.org/2000/svg"><defs
     id="defs2"><linearGradient
       x1="0"
       y1="0"
       x2="1"
       y2="0"
       gradientUnits="userSpaceOnUse"
       gradientTransform="matrix(0,-57.18055,57.18055,0,473.84882,280.05234)"
       spreadMethod="pad"
       id="linearGradient3191"><stop
         style="stop-opacity:1;stop-color:#f8f6c4"
         offset="0"
         id="stop3165" /><stop
         style="stop-opacity:1;stop-color:#f8f0b0"
         offset="0.0218679"
         id="stop3167" /><stop
         style="stop-opacity:1;stop-color:#fae584"
         offset="0.087193"
         id="stop3169" /><stop
         style="stop-opacity:1;stop-color:#fcde5c"
         offset="0.1478"
         id="stop3171" /><stop
         style="stop-opacity:1;stop-color:#fdd937"
         offset="0.2018"
         id="stop3173" /><stop
         style="stop-opacity:1;stop-color:#fdd612"
         offset="0.2472"
         id="stop3175" /><stop
         style="stop-opacity:1;stop-color:#fdd505"
         offset="0.2784"
         id="stop3177" /><stop
         style="stop-opacity:1;stop-color:#fdd20b"
         offset="0.3882"
         id="stop3179" /><stop
         style="stop-opacity:1;stop-color:#f9c718"
         offset="0.5124"
         id="stop3181" /><stop
         style="stop-opacity:1;stop-color:#f2b61b"
         offset="0.6436"
         id="stop3183" /><stop
         style="stop-opacity:1;stop-color:#ec9e23"
         offset="0.7796"
         id="stop3185" /><stop
         style="stop-opacity:1;stop-color:#e38326"
         offset="0.918"
         id="stop3187" /><stop
         style="stop-opacity:1;stop-color:#df6f26"
         offset="1"
         id="stop3189" /></linearGradient><clipPath
       clipPathUnits="userSpaceOnUse"
       id="clipPath3221"><path
         d="M 413.396,289.476 H 536.303 V 252.925 H 413.396 Z"
         id="path3219" /></clipPath><clipPath
       clipPathUnits="userSpaceOnUse"
       id="clipPath23642"><path
         d="m -437.187,1811.1924 h 2048 V -236.80761 h -2048 z"
         id="path23644"
         style="stroke-width:0.999998" /></clipPath><clipPath
       clipPathUnits="userSpaceOnUse"
       id="clipPath23648"><path
         d="m -517.6967,1739.5114 h 2048 v -2048 h -2048 z"
         id="path23650"
         style="stroke-width:0.999998" /></clipPath><clipPath
       clipPathUnits="userSpaceOnUse"
       id="clipPath23732"><path
         d="m 469.80598,256.46699 -12.34395,-3.56798 24.22695,-30.02797 -3.798,23.58697 12.34402,3.59303 -24.25297,30.00097 z"
         id="path23734"
         style="stroke-width:0.999998" /></clipPath><clipPath
       clipPathUnits="userSpaceOnUse"
       id="clipPath23738"><path
         d="M -506.48131,1811.1667 H 1541.5187 V -236.83332 H -506.48131 Z"
         id="path23740"
         style="stroke-width:0.999998" /></clipPath><clipPath
       clipPathUnits="userSpaceOnUse"
       id="clipPath23751"><path
         d="M -450.84061,1757.5022 H 1597.1594 V -290.49781 H -450.84061 Z"
         id="path23753"
         style="stroke-width:0.999998" /></clipPath><clipPath
       clipPathUnits="userSpaceOnUse"
       id="clipPath23782"><path
         d="m -517.6967,1743.1814 h 2048 V -304.81861 h -2048 z"
         id="path23784"
         style="stroke-width:0.999998" /></clipPath></defs><g
     id="g27194"
     transform="translate(-365.44769,-607.1967)"><g
       id="g3163"
       transform="matrix(0.35277776,0,0,-0.35277778,220,722.48892)"
       clip-path="url(#clipPath23732)"><path
         d="m 469.806,256.467 -12.344,-3.568 24.227,-30.028 -3.798,23.587 12.344,3.593 -24.253,30.001 z"
         style="fill:url(#linearGradient3191);stroke:none"
         id="path3193" /></g><path
       d="m 0,0 c 1.437,-3.67 5.569,-5.441 9.239,-4.004 3.67,1.438 5.441,5.57 4.004,9.24 C 11.806,8.906 1.386,15.861 1.386,15.861 1.386,15.861 -1.437,3.67 0,0"
       style="fill:#2cace2;fill-opacity:1;fill-rule:nonzero;stroke:none"
       id="path3205"
       transform="matrix(0.35277776,0,0,-0.35277778,374.22985,638.94846)"
       clip-path="url(#clipPath23642)" /><path
       d="m 0,0 c 1.437,-3.67 5.569,-5.441 9.239,-4.004 3.67,1.438 5.441,5.57 4.004,9.24 C 11.806,8.906 1.386,15.861 1.386,15.861 1.386,15.861 -1.437,3.644 0,0"
       style="fill:#2cace2;fill-opacity:1;fill-rule:nonzero;stroke:none"
       id="path3209"
       transform="matrix(0.35277776,0,0,-0.35277778,398.67534,638.93939)"
       clip-path="url(#clipPath23738)" /><path
       d="m 0,0 c -3.08,0 -6.031,-0.642 -8.726,-1.745 -6.057,11.857 -18.273,20.069 -32.517,20.069 -14.244,0 -26.46,-8.212 -32.517,-20.069 -2.695,1.103 -5.62,1.745 -8.726,1.745 -12.652,0 -22.918,-10.266 -22.918,-22.918 0,-12.653 10.266,-22.919 22.918,-22.919 4.902,0 9.445,1.566 13.166,4.209 6.724,-8.11 16.733,-13.371 28.077,-13.371 11.344,0 21.353,5.261 28.077,13.371 3.721,-2.618 8.264,-4.209 13.166,-4.209 12.653,0 22.918,10.266 22.918,22.919 C 22.918,-10.266 12.653,0 0,0"
       style="fill:#bdc5d2;fill-opacity:1;fill-rule:nonzero;stroke:none"
       id="path3213"
       transform="matrix(0.35277776,0,0,-0.35277778,402.63188,613.661)"
       clip-path="url(#clipPath23648)" /><g
       id="g3229"
       transform="matrix(0.35277776,0,0,-0.35277778,220,722.48892)"><g
         clip-path="url(#clipPath3221)"
         opacity="0.0500031"
         id="g3227"><g
           transform="translate(479.4822,288.6756)"
           id="g3225"><path
             d="m 0,0 c -24.689,2.489 -47.813,-0.95 -66.086,-8.649 2.284,-10.266 11.421,-17.939 22.354,-17.939 4.902,0 9.444,1.565 13.166,4.209 6.724,-8.11 16.733,-13.372 28.077,-13.372 11.343,0 21.352,5.262 28.077,13.372 3.721,-2.618 8.264,-4.209 13.165,-4.209 7.341,0 13.859,3.464 18.068,8.854 C 41.269,-8.649 21.687,-2.181 0,0"
             style="fill:#a8a9ad;fill-opacity:1;fill-rule:nonzero;stroke:none"
             id="path3223" /></g></g></g><path
       d="m 0,0 c -3.08,0 -6.031,-0.642 -8.726,-1.745 -6.082,11.857 -18.273,20.069 -32.517,20.069 -14.244,0 -26.46,-8.212 -32.517,-20.069 -2.695,1.103 -5.62,1.745 -8.726,1.745 -12.652,0 -22.918,-10.266 -22.918,-22.918 0,-12.653 10.266,-22.919 22.918,-22.919 4.902,0 9.445,1.566 13.166,4.209 6.724,-8.11 16.733,-13.371 28.077,-13.371 11.344,0 21.353,5.261 28.077,13.371 3.721,-2.618 8.264,-4.209 13.166,-4.209 12.653,0 22.918,10.266 22.918,22.919 C 22.918,-10.266 12.653,0 0,0"
       style="fill:#d3dee2;fill-opacity:1;fill-rule:nonzero;stroke:none"
       id="path3233"
       transform="matrix(0.35277776,0,0,-0.35277778,402.63188,614.95569)"
       clip-path="url(#clipPath23782)" /><path
       d="m 0,0 c 1.925,0 3.721,-0.385 5.39,-1.078 3.747,7.34 11.292,12.396 20.095,12.396 8.803,0 16.348,-5.082 20.095,-12.396 1.668,0.693 3.491,1.078 5.39,1.078 7.16,0 13.063,-5.313 14.013,-12.216 0.077,0.641 0.154,1.283 0.154,1.925 0,7.827 -6.34,14.166 -14.167,14.166 -1.899,0 -3.722,-0.385 -5.39,-1.078 C 41.833,10.137 34.288,15.193 25.485,15.193 16.682,15.193 9.137,10.112 5.39,2.797 3.721,3.49 1.925,3.875 0,3.875 c -7.828,0 -14.167,-6.339 -14.167,-14.166 0,-0.668 0.052,-1.309 0.154,-1.925 C -13.089,-5.313 -7.186,0 0,0"
       style="fill:#bdc5d2;fill-opacity:1;fill-rule:nonzero;stroke:none"
       id="path3237"
       transform="matrix(0.35277776,0,0,-0.35277778,379.04654,620.00775)"
       clip-path="url(#clipPath23751)" /></g></svg>
