<?xml version="1.0" encoding="UTF-8" standalone="no"?>
<!-- Created with Inkscape (http://www.inkscape.org/) -->

<svg
   width="45.269146mm"
   height="35.280048mm"
   viewBox="0 0 45.269146 35.280048"
   version="1.1"
   id="svg5"
   xml:space="preserve"
   xmlns="http://www.w3.org/2000/svg"
   xmlns:svg="http://www.w3.org/2000/svg"><defs
     id="defs2"><clipPath
       clipPathUnits="userSpaceOnUse"
       id="clipPath3123"><path
         d="M 133.771,510.387 H 256.679 V 473.836 H 133.771 Z"
         id="path3121" /></clipPath><clipPath
       clipPathUnits="userSpaceOnUse"
       id="clipPath23626"><path
         d="M -192.62019,1595.9532 H 1855.3798 V -452.04682 H -192.62019 Z"
         id="path23628"
         style="stroke-width:0.999998" /></clipPath><clipPath
       clipPathUnits="userSpaceOnUse"
       id="clipPath23636"><path
         d="M -2.2440947e-6,2048 H 2048 V -1.1811023e-5 H -2.2440947e-6 Z"
         id="path23638"
         style="stroke-width:0.999998" /></clipPath><clipPath
       clipPathUnits="userSpaceOnUse"
       id="clipPath23665"><path
         d="m -238.0721,1518.6003 h 2048 V -529.39971 h -2048 z"
         id="path23667"
         style="stroke-width:0.999998" /></clipPath><clipPath
       clipPathUnits="userSpaceOnUse"
       id="clipPath23682"><path
         d="m -238.0721,1522.2704 h 2048 V -525.72961 h -2048 z"
         id="path23684"
         style="stroke-width:0.999998" /></clipPath><clipPath
       clipPathUnits="userSpaceOnUse"
       id="clipPath23688"><path
         d="M -171.21601,1536.5912 H 1876.784 V -511.40881 H -171.21601 Z"
         id="path23690"
         style="stroke-width:0.999998" /></clipPath><clipPath
       clipPathUnits="userSpaceOnUse"
       id="clipPath23694"><path
         d="M -223.57161,1590.8203 H 1824.4284 V -457.17971 H -223.57161 Z"
         id="path23696"
         style="stroke-width:0.999998" /></clipPath><clipPath
       clipPathUnits="userSpaceOnUse"
       id="clipPath23718"><path
         d="M -161.66881,1590.8203 H 1886.3312 V -457.17971 H -161.66881 Z"
         id="path23720"
         style="stroke-width:0.999998" /></clipPath></defs><g
     id="g27206"
     transform="translate(-266.80235,-529.26417)"><path
       d="m 0,0 c -3.08,0 -6.031,-0.642 -8.726,-1.745 -6.057,11.857 -18.273,20.069 -32.517,20.069 -14.244,0 -26.46,-8.212 -32.517,-20.069 -2.695,1.103 -5.62,1.745 -8.726,1.745 -12.652,0 -22.918,-10.266 -22.918,-22.918 0,-12.653 10.266,-22.919 22.918,-22.919 4.902,0 9.445,1.566 13.166,4.209 6.724,-8.11 16.733,-13.371 28.077,-13.371 11.344,0 21.353,5.261 28.077,13.371 3.721,-2.618 8.264,-4.209 13.166,-4.209 12.653,0 22.918,10.266 22.918,22.919 C 22.918,-10.266 12.653,0 0,0"
       style="fill:#bdc5d2;fill-opacity:1;fill-rule:nonzero;stroke:none"
       id="path3115"
       transform="matrix(0.35277776,0,0,-0.35277778,303.98654,535.72847)"
       clip-path="url(#clipPath23665)" /><g
       id="g3131"
       transform="matrix(0.35277776,0,0,-0.35277778,220,722.48892)"
       clip-path="url(#clipPath23636)"><g
         clip-path="url(#clipPath3123)"
         opacity="0.0500031"
         id="g3129"><g
           transform="translate(199.8576,509.5867)"
           id="g3127"><path
             d="m 0,0 c -24.689,2.489 -47.813,-0.95 -66.086,-8.649 2.284,-10.266 11.421,-17.939 22.354,-17.939 4.902,0 9.444,1.565 13.166,4.209 6.724,-8.11 16.733,-13.372 28.077,-13.372 11.343,0 21.352,5.262 28.077,13.372 3.721,-2.618 8.264,-4.209 13.165,-4.209 7.34,0 13.859,3.464 18.068,8.854 C 41.269,-8.649 21.687,-2.181 0,0"
             style="fill:#a8a9ad;fill-opacity:1;fill-rule:nonzero;stroke:none"
             id="path3125" /></g></g></g><path
       d="m 0,0 c -3.08,0 -6.031,-0.642 -8.726,-1.745 -6.082,11.857 -18.273,20.07 -32.517,20.07 -14.244,0 -26.46,-8.213 -32.517,-20.07 -2.695,1.103 -5.62,1.745 -8.726,1.745 -12.652,0 -22.918,-10.266 -22.918,-22.918 0,-12.653 10.266,-22.919 22.918,-22.919 4.902,0 9.445,1.566 13.166,4.209 6.724,-8.11 16.733,-13.371 28.077,-13.371 11.344,0 21.353,5.261 28.077,13.371 3.721,-2.618 8.264,-4.209 13.166,-4.209 12.653,0 22.918,10.266 22.918,22.919 C 22.918,-10.266 12.653,0 0,0"
       style="fill:#d3dee2;fill-opacity:1;fill-rule:nonzero;stroke:none"
       id="path3135"
       transform="matrix(0.35277776,0,0,-0.35277778,303.98654,537.0232)"
       clip-path="url(#clipPath23682)" /><path
       d="m 0,0 c 1.925,0 3.721,-0.385 5.39,-1.078 3.747,7.34 11.292,12.396 20.095,12.396 8.803,0 16.348,-5.082 20.095,-12.396 1.668,0.693 3.491,1.078 5.39,1.078 7.16,0 13.063,-5.313 14.013,-12.216 0.077,0.641 0.154,1.283 0.154,1.925 0,7.827 -6.34,14.166 -14.167,14.166 -1.899,0 -3.722,-0.385 -5.39,-1.078 C 41.833,10.137 34.288,15.193 25.485,15.193 16.682,15.193 9.137,10.112 5.39,2.797 3.721,3.49 1.925,3.875 0,3.875 c -7.828,0 -14.167,-6.339 -14.167,-14.166 0,-0.668 0.052,-1.309 0.154,-1.925 C -13.089,-5.313 -7.186,0 0,0"
       style="fill:#bdc5d2;fill-opacity:1;fill-rule:nonzero;stroke:none"
       id="path3139"
       transform="matrix(0.35277776,0,0,-0.35277778,280.4012,542.07526)"
       clip-path="url(#clipPath23688)" /><path
       d="m 0,0 c 1.386,-3.516 5.364,-5.236 8.88,-3.85 3.516,1.386 5.235,5.364 3.85,8.88 C 11.344,8.546 1.335,15.245 1.335,15.245 1.335,15.245 -1.386,3.516 0,0"
       style="fill:#2aabe2;fill-opacity:1;fill-rule:nonzero;stroke:none"
       id="path3143"
       transform="matrix(0.35277776,0,0,-0.35277778,298.87109,561.20608)"
       clip-path="url(#clipPath23694)" /><path
       d="m 0,0 c 1.386,-3.516 5.364,-5.236 8.88,-3.85 3.516,1.386 5.235,5.364 3.85,8.88 C 11.344,8.546 1.335,15.245 1.335,15.245 1.335,15.245 -1.386,3.516 0,0"
       style="fill:#2aabe2;fill-opacity:1;fill-rule:nonzero;stroke:none"
       id="path3147"
       transform="matrix(0.35277776,0,0,-0.35277778,277.03316,561.20608)"
       clip-path="url(#clipPath23718)" /><path
       d="m 0,0 c 1.386,-3.516 5.364,-5.236 8.88,-3.85 3.516,1.386 5.235,5.364 3.85,8.88 C 11.344,8.546 1.335,15.245 1.335,15.245 1.335,15.245 -1.386,3.516 0,0"
       style="fill:#2aabe2;fill-opacity:1;fill-rule:nonzero;stroke:none"
       id="path3151"
       transform="matrix(0.35277776,0,0,-0.35277778,287.95212,563.01685)"
       clip-path="url(#clipPath23626)" /></g></svg>
