<?xml version="1.0" encoding="UTF-8" standalone="no"?>
<!-- Created with Inkscape (http://www.inkscape.org/) -->

<svg
   width="45.269501mm"
   height="34.233669mm"
   viewBox="0 0 45.269501 34.233669"
   version="1.1"
   id="svg5"
   xml:space="preserve"
   xmlns="http://www.w3.org/2000/svg"
   xmlns:svg="http://www.w3.org/2000/svg"><defs
     id="defs2"><clipPath
       clipPathUnits="userSpaceOnUse"
       id="clipPath5837"><path
         d="M 697.586,511.2 H 820.493 V 474.649 H 697.586 Z"
         id="path5835" /></clipPath><radialGradient
       fx="0"
       fy="0"
       cx="0"
       cy="0"
       r="1"
       gradientUnits="userSpaceOnUse"
       gradientTransform="matrix(8.2126722,0,0,8.2126722,791.31262,467.8483)"
       spreadMethod="pad"
       id="radialGradient5871"><stop
         style="stop-opacity:1;stop-color:#ceebfb"
         offset="0"
         id="stop5867" /><stop
         style="stop-opacity:1;stop-color:#e2f4fd"
         offset="1"
         id="stop5869" /></radialGradient><radialGradient
       fx="0"
       fy="0"
       cx="0"
       cy="0"
       r="1"
       gradientUnits="userSpaceOnUse"
       gradientTransform="matrix(8.2035685,0,0,8.2035685,728.17773,466.71161)"
       spreadMethod="pad"
       id="radialGradient5891"><stop
         style="stop-opacity:1;stop-color:#ceebfb"
         offset="0"
         id="stop5887" /><stop
         style="stop-opacity:1;stop-color:#e2f4fd"
         offset="1"
         id="stop5889" /></radialGradient><clipPath
       clipPathUnits="userSpaceOnUse"
       id="clipPath23089"><path
         d="M -801.88649,1517.7867 H 1246.1135 V -530.21331 H -801.88649 Z"
         id="path23091"
         style="stroke-width:0.999998" /></clipPath><clipPath
       clipPathUnits="userSpaceOnUse"
       id="clipPath23102"><path
         d="M -801.88649,1521.4568 H 1246.1135 V -526.54321 H -801.88649 Z"
         id="path23104"
         style="stroke-width:0.999998" /></clipPath><clipPath
       clipPathUnits="userSpaceOnUse"
       id="clipPath23140"><path
         d="m 790.15799,474.90599 v -4.28595 l -3.02895,3.02797 c -0.43605,0.43695 -1.18102,0.43695 -1.61602,0 v 0 c -0.43703,-0.43597 -0.43703,-1.18005 0,-1.61602 v 0 l 3.027,-3.02798 h -4.28505 c -0.642,0 -1.155,-0.51405 -1.155,-1.15597 v 0 c 0,-0.64103 0.513,-1.155 1.155,-1.155 v 0 h 4.28505 l -3.027,-3.02805 c -0.43703,-0.43598 -0.43703,-1.17998 0,-1.617 v 0 c 0.435,-0.43598 1.17997,-0.43598 1.61602,0 v 0 l 3.02895,3.02902 v -4.287 c 0,-0.64102 0.513,-1.155 1.15403,-1.155 v 0 c 0.642,0 1.155,0.51398 1.155,1.155 v 0 4.287 l 3.02902,-3.02902 c 0.43598,-0.43598 1.17998,-0.43598 1.61693,0 v 0 c 0.43605,0.43702 0.43605,1.18102 0,1.617 v 0 l -3.02895,3.02805 h 4.28595 c 0.642,0 1.155,0.51397 1.155,1.155 v 0 c 0,0.64192 -0.513,1.15597 -1.155,1.15597 v 0 h -4.28595 l 3.02895,3.02798 c 0.43605,0.43597 0.43605,1.18005 0,1.61602 v 0 c -0.43695,0.43695 -1.18095,0.43695 -1.61693,0 v 0 l -3.02902,-3.02797 v 4.28595 c 0,0.64102 -0.513,1.155 -1.155,1.155 v 0 c -0.64103,0 -1.15403,-0.51398 -1.15403,-1.155"
         id="path23142"
         style="stroke-width:0.999998" /></clipPath><clipPath
       clipPathUnits="userSpaceOnUse"
       id="clipPath23165"><path
         d="m -769.2081,1593.1873 h 2048 v -2048 h -2048 z"
         id="path23167"
         style="stroke-width:0.999998" /></clipPath><clipPath
       clipPathUnits="userSpaceOnUse"
       id="clipPath23171"><path
         d="M -735.03021,1535.7776 H 1312.9698 V -512.22241 H -735.03021 Z"
         id="path23173"
         style="stroke-width:0.999998" /></clipPath><clipPath
       clipPathUnits="userSpaceOnUse"
       id="clipPath23206"><path
         d="m 727.02299,473.75099 v -4.28595 l -3.02903,3.02895 c -0.43597,0.43605 -1.18095,0.43605 -1.61595,0 v 0 c -0.43702,-0.43695 -0.43702,-1.18103 0,-1.61798 v 0 l 3.02798,-3.02797 h -4.28595 c -0.64208,0 -1.15508,-0.51308 -1.15508,-1.155 v 0 c 0,-0.642 0.513,-1.15508 1.15508,-1.15508 v 0 h 4.28595 l -3.02798,-3.02797 c -0.43702,-0.43695 -0.43702,-1.18095 0,-1.61603 v 0 c 0.435,-0.43695 1.17998,-0.43695 1.61595,0 v 0 l 3.02903,3.02708 v -4.28603 c 0,-0.64102 0.513,-1.15402 1.15402,-1.15402 v 0 c 0.642,0 1.15598,0.513 1.15598,1.15402 v 0 4.28603 l 3.02797,-3.02708 c 0.43605,-0.43695 1.18005,-0.43695 1.617,0 v 0 c 0.43605,0.43508 0.43605,1.17908 0,1.61603 v 0 l -3.02895,3.02797 h 4.28603 c 0.64192,0 1.15597,0.51308 1.15597,1.15508 v 0 c 0,0.64192 -0.53902,1.155 -1.15597,1.155 v 0 h -4.28603 l 3.02895,3.02797 c 0.43605,0.43695 0.43605,1.18103 0,1.61798 v 0 c -0.43695,0.43605 -1.18095,0.43605 -1.617,0 v 0 l -3.02797,-3.02895 v 4.28595 c 0,0.642 -0.51398,1.155 -1.15598,1.155 v 0 c -0.64102,0 -1.15402,-0.513 -1.15402,-1.155"
         id="path23208"
         style="stroke-width:0.999998" /></clipPath><clipPath
       clipPathUnits="userSpaceOnUse"
       id="clipPath23257"><path
         d="m -743.5435,1593.1873 h 2048 v -2048 h -2048 z"
         id="path23259"
         style="stroke-width:0.999998" /></clipPath></defs><g
     id="g27149"
     transform="translate(-465.70318,-528.9768)"><path
       d="M 0,0 C 1.052,-2.695 4.106,-4.004 6.801,-2.951 9.496,-1.899 10.805,1.155 9.753,3.85 8.7,6.544 1.027,11.677 1.027,11.677 1.027,11.677 -1.052,2.695 0,0"
       style="fill:#2aabe2;fill-opacity:1;fill-rule:nonzero;stroke:none"
       id="path5825"
       transform="matrix(0.35277776,0,0,-0.35277778,491.35951,562.04111)"
       clip-path="url(#clipPath23165)" /><path
       d="m 0,0 c -3.08,0 -6.031,-0.642 -8.726,-1.745 -6.057,11.857 -18.273,20.07 -32.517,20.07 -14.244,0 -26.46,-8.213 -32.517,-20.07 -2.695,1.103 -5.621,1.745 -8.726,1.745 -12.653,0 -22.919,-10.266 -22.919,-22.918 0,-12.653 10.266,-22.919 22.919,-22.919 4.902,0 9.444,1.566 13.166,4.209 6.724,-8.11 16.733,-13.371 28.077,-13.371 11.344,0 21.353,5.261 28.077,13.371 3.721,-2.618 8.264,-4.209 13.166,-4.209 12.653,0 22.918,10.266 22.918,22.919 C 22.918,-10.266 12.653,0 0,0"
       style="fill:#bdc5d2;fill-opacity:1;fill-rule:nonzero;stroke:none"
       id="path5829"
       transform="matrix(0.35277776,0,0,-0.35277778,502.88772,535.44145)"
       clip-path="url(#clipPath23089)" /><g
       id="g5845"
       transform="matrix(0.35277776,0,0,-0.35277778,220,722.48892)"><g
         clip-path="url(#clipPath5837)"
         opacity="0.0500031"
         id="g5843"><g
           transform="translate(763.6719,510.4002)"
           id="g5841"><path
             d="m 0,0 c -24.689,2.489 -47.813,-0.95 -66.086,-8.649 2.284,-10.266 11.42,-17.94 22.354,-17.94 4.901,0 9.444,1.566 13.165,4.209 6.725,-8.11 16.734,-13.371 28.077,-13.371 11.344,0 21.353,5.261 28.078,13.371 3.721,-2.617 8.264,-4.209 13.166,-4.209 7.34,0 13.858,3.465 18.067,8.855 C 41.269,-8.649 21.687,-2.181 0,0"
             style="fill:#a8a9ad;fill-opacity:1;fill-rule:nonzero;stroke:none"
             id="path5839" /></g></g></g><path
       d="m 0,0 c -3.08,0 -6.031,-0.642 -8.726,-1.745 -6.083,11.857 -18.273,20.07 -32.517,20.07 -14.244,0 -26.46,-8.213 -32.517,-20.07 -2.695,1.103 -5.621,1.745 -8.726,1.745 -12.653,0 -22.919,-10.266 -22.919,-22.918 0,-12.653 10.266,-22.919 22.919,-22.919 4.902,0 9.444,1.566 13.166,4.209 6.724,-8.11 16.733,-13.371 28.077,-13.371 11.344,0 21.353,5.261 28.077,13.371 3.721,-2.618 8.264,-4.209 13.166,-4.209 12.653,0 22.918,10.266 22.918,22.919 C 22.918,-10.266 12.653,0 0,0"
       style="fill:#d3dee2;fill-opacity:1;fill-rule:nonzero;stroke:none"
       id="path5849"
       transform="matrix(0.35277776,0,0,-0.35277778,502.88772,536.73618)"
       clip-path="url(#clipPath23102)" /><path
       d="m 0,0 c 1.925,0 3.721,-0.385 5.39,-1.078 3.747,7.34 11.292,12.396 20.095,12.396 8.803,0 16.348,-5.081 20.095,-12.396 1.669,0.693 3.491,1.078 5.39,1.078 7.16,0 13.063,-5.313 14.013,-12.216 0.077,0.641 0.154,1.283 0.154,1.925 0,7.827 -6.339,14.166 -14.167,14.166 -1.899,0 -3.721,-0.385 -5.39,-1.078 C 41.833,10.138 34.288,15.193 25.485,15.193 16.682,15.193 9.137,10.112 5.39,2.797 3.721,3.49 1.925,3.875 0,3.875 c -7.828,0 -14.167,-6.339 -14.167,-14.166 0,-0.668 0.051,-1.309 0.154,-1.925 C -13.089,-5.313 -7.186,0 0,0"
       style="fill:#bdc5d2;fill-opacity:1;fill-rule:nonzero;stroke:none"
       id="path5853"
       transform="matrix(0.35277776,0,0,-0.35277778,479.30231,541.78824)"
       clip-path="url(#clipPath23171)" /><g
       id="g5865"
       transform="matrix(0.35277776,0,0,-0.35277778,220,722.48892)"
       clip-path="url(#clipPath23140)"><path
         d="m 790.158,474.906 v -4.286 l -3.029,3.028 c -0.436,0.437 -1.181,0.437 -1.616,0 v 0 c -0.437,-0.436 -0.437,-1.18 0,-1.616 v 0 l 3.027,-3.028 h -4.285 c -0.642,0 -1.155,-0.514 -1.155,-1.156 v 0 c 0,-0.641 0.513,-1.155 1.155,-1.155 v 0 h 4.285 l -3.027,-3.028 c -0.437,-0.436 -0.437,-1.18 0,-1.617 v 0 c 0.435,-0.436 1.18,-0.436 1.616,0 v 0 l 3.029,3.029 v -4.287 c 0,-0.641 0.513,-1.155 1.154,-1.155 v 0 c 0.642,0 1.155,0.514 1.155,1.155 v 0 4.287 l 3.029,-3.029 c 0.436,-0.436 1.18,-0.436 1.617,0 v 0 c 0.436,0.437 0.436,1.181 0,1.617 v 0 l -3.029,3.028 h 4.286 c 0.642,0 1.155,0.514 1.155,1.155 v 0 c 0,0.642 -0.513,1.156 -1.155,1.156 v 0 h -4.286 l 3.029,3.028 c 0.436,0.436 0.436,1.18 0,1.616 v 0 c -0.437,0.437 -1.181,0.437 -1.617,0 v 0 l -3.029,-3.028 v 4.286 c 0,0.641 -0.513,1.155 -1.155,1.155 v 0 c -0.641,0 -1.154,-0.514 -1.154,-1.155"
         style="fill:url(#radialGradient5871);stroke:none"
         id="path5873" /></g><g
       id="g5885"
       transform="matrix(0.35277776,0,0,-0.35277778,220,722.48892)"
       clip-path="url(#clipPath23206)"><path
         d="m 727.023,473.751 v -4.286 l -3.029,3.029 c -0.436,0.436 -1.181,0.436 -1.616,0 v 0 c -0.437,-0.437 -0.437,-1.181 0,-1.618 v 0 l 3.028,-3.028 h -4.286 c -0.642,0 -1.155,-0.513 -1.155,-1.155 v 0 c 0,-0.642 0.513,-1.155 1.155,-1.155 v 0 h 4.286 l -3.028,-3.028 c -0.437,-0.437 -0.437,-1.181 0,-1.616 v 0 c 0.435,-0.437 1.18,-0.437 1.616,0 v 0 l 3.029,3.027 v -4.286 c 0,-0.641 0.513,-1.154 1.154,-1.154 v 0 c 0.642,0 1.156,0.513 1.156,1.154 v 0 4.286 l 3.028,-3.027 c 0.436,-0.437 1.18,-0.437 1.617,0 v 0 c 0.436,0.435 0.436,1.179 0,1.616 v 0 l -3.029,3.028 h 4.286 c 0.642,0 1.156,0.513 1.156,1.155 v 0 c 0,0.642 -0.539,1.155 -1.156,1.155 v 0 h -4.286 l 3.029,3.028 c 0.436,0.437 0.436,1.181 0,1.618 v 0 c -0.437,0.436 -1.181,0.436 -1.617,0 v 0 l -3.028,-3.029 v 4.286 c 0,0.642 -0.514,1.155 -1.156,1.155 v 0 c -0.641,0 -1.154,-0.513 -1.154,-1.155"
         style="fill:url(#radialGradient5891);stroke:none"
         id="path5893" /></g><path
       d="M 0,0 C 1.052,-2.695 4.106,-4.004 6.801,-2.951 9.496,-1.899 10.805,1.155 9.753,3.85 8.7,6.544 1.027,11.677 1.027,11.677 1.027,11.677 -1.052,2.695 0,0"
       style="fill:#2aabe2;fill-opacity:1;fill-rule:nonzero;stroke:none"
       id="path5905"
       transform="matrix(0.35277776,0,0,-0.35277778,482.30561,562.04111)"
       clip-path="url(#clipPath23257)" /></g></svg>
