<?xml version="1.0" encoding="UTF-8" standalone="no"?>
<!-- Created with Inkscape (http://www.inkscape.org/) -->

<svg
   width="45.269501mm"
   height="34.486675mm"
   viewBox="0 0 45.269501 34.486675"
   version="1.1"
   id="svg5"
   xml:space="preserve"
   xmlns="http://www.w3.org/2000/svg"
   xmlns:svg="http://www.w3.org/2000/svg"><defs
     id="defs2"><clipPath
       clipPathUnits="userSpaceOnUse"
       id="clipPath4947"><path
         d="M 982.982,511.559 H 1105.89 V 475.008 H 982.982 Z"
         id="path4945" /></clipPath><radialGradient
       fx="0"
       fy="0"
       cx="0"
       cy="0"
       r="1"
       gradientUnits="userSpaceOnUse"
       gradientTransform="matrix(8.2126722,0,0,8.2126722,1076.7096,468.20657)"
       spreadMethod="pad"
       id="radialGradient4981"><stop
         style="stop-opacity:1;stop-color:#ceebfb"
         offset="0"
         id="stop4977" /><stop
         style="stop-opacity:1;stop-color:#e2f4fd"
         offset="1"
         id="stop4979" /></radialGradient><radialGradient
       fx="0"
       fy="0"
       cx="0"
       cy="0"
       r="1"
       gradientUnits="userSpaceOnUse"
       gradientTransform="matrix(8.2035685,0,0,8.2035685,1013.5747,467.06989)"
       spreadMethod="pad"
       id="radialGradient5001"><stop
         style="stop-opacity:1;stop-color:#ceebfb"
         offset="0"
         id="stop4997" /><stop
         style="stop-opacity:1;stop-color:#e2f4fd"
         offset="1"
         id="stop4999" /></radialGradient><radialGradient
       fx="0"
       fy="0"
       cx="0"
       cy="0"
       r="1"
       gradientUnits="userSpaceOnUse"
       gradientTransform="matrix(8.2035685,0,0,8.2035685,1046.1687,459.37048)"
       spreadMethod="pad"
       id="radialGradient5021"><stop
         style="stop-opacity:1;stop-color:#ceebfb"
         offset="0"
         id="stop5017" /><stop
         style="stop-opacity:1;stop-color:#e2f4fd"
         offset="1"
         id="stop5019" /></radialGradient><clipPath
       clipPathUnits="userSpaceOnUse"
       id="clipPath22644"><path
         d="M -1087.2834,1517.4285 H 960.71661 V -530.57152 H -1087.2834 Z"
         id="path22646"
         style="stroke-width:0.999998" /></clipPath><clipPath
       clipPathUnits="userSpaceOnUse"
       id="clipPath22681"><path
         d="M -1087.2834,1521.0985 H 960.71661 V -526.90151 H -1087.2834 Z"
         id="path22683"
         style="stroke-width:0.999998" /></clipPath><clipPath
       clipPathUnits="userSpaceOnUse"
       id="clipPath22704"><path
         d="M -2.2440947e-6,2048 H 2048 V -1.1811023e-5 H -2.2440947e-6 Z"
         id="path22706"
         style="stroke-width:0.999998" /></clipPath><clipPath
       clipPathUnits="userSpaceOnUse"
       id="clipPath22710"><path
         d="m -1020.4271,1535.4194 h 2048 V -512.58062 h -2048 z"
         id="path22712"
         style="stroke-width:0.999998" /></clipPath><clipPath
       clipPathUnits="userSpaceOnUse"
       id="clipPath22739"><path
         d="m 1075.555,475.26404 v -4.28603 l -3.029,3.02903 c -0.436,0.43597 -1.18,0.43597 -1.617,0 v 0 c -0.435,-0.43703 -0.435,-1.18103 0,-1.617 v 0 l 3.029,-3.02805 h -4.286 c -0.642,0 -1.155,-0.51398 -1.155,-1.155 v 0 c 0,-0.642 0.513,-1.15598 1.155,-1.15598 v 0 h 4.286 l -3.029,-3.02805 c -0.435,-0.43597 -0.435,-1.17997 0,-1.617 v 0 c 0.437,-0.43597 1.181,-0.43597 1.617,0 v 0 l 3.029,3.02903 v -4.28595 c 0,-0.64103 0.513,-1.15508 1.155,-1.15508 v 0 c 0.641,0 1.154,0.51405 1.154,1.15508 v 0 4.28595 l 3.029,-3.02903 c 0.436,-0.43597 1.181,-0.43597 1.617,0 v 0 c 0.436,0.43703 0.436,1.18103 0,1.617 v 0 l -3.028,3.02805 h 4.285 c 0.642,0 1.155,0.51398 1.155,1.15598 v 0 c 0,0.64102 -0.513,1.155 -1.155,1.155 v 0 h -4.285 l 3.028,3.02805 c 0.436,0.43597 0.436,1.17997 0,1.617 v 0 c -0.436,0.43597 -1.181,0.43597 -1.617,0 v 0 l -3.029,-3.02903 v 4.28603 c 0,0.64192 -0.513,1.155 -1.154,1.155 v 0 c -0.642,0 -1.155,-0.51308 -1.155,-1.155"
         id="path22741"
         style="stroke-width:0.999998" /></clipPath><clipPath
       clipPathUnits="userSpaceOnUse"
       id="clipPath22753"><path
         d="m 1045.013,466.40999 v -4.28595 l -3.028,3.02797 c -0.436,0.43695 -1.18,0.43695 -1.617,0 v 0 c -0.436,-0.43597 -0.436,-1.18005 0,-1.61602 v 0 l 3.029,-3.02798 h -4.286 c -0.642,0 -1.155,-0.51405 -1.155,-1.15597 v 0 c 0,-0.64103 0.513,-1.155 1.155,-1.155 v 0 h 4.286 l -3.029,-3.02805 c -0.436,-0.43695 -0.436,-1.17998 0,-1.617 v 0 c 0.437,-0.43598 1.181,-0.43598 1.617,0 v 0 l 3.028,3.02902 v -4.287 c 0,-0.64102 0.514,-1.155 1.156,-1.155 v 0 c 0.642,0 1.155,0.51398 1.155,1.155 v 0 4.287 l 3.028,-3.02902 c 0.437,-0.43598 1.181,-0.43598 1.617,0 v 0 c 0.436,0.43702 0.436,1.18102 0,1.617 v 0 l -3.029,3.02805 h 4.287 c 0.641,0 1.154,0.51397 1.154,1.155 v 0 c 0,0.64192 -0.539,1.15597 -1.154,1.15597 v 0 h -4.287 l 3.029,3.02798 c 0.436,0.43597 0.436,1.18005 0,1.61602 v 0 c -0.436,0.43695 -1.18,0.43695 -1.617,0 v 0 l -3.028,-3.02797 v 4.28595 c 0,0.64102 -0.513,1.155 -1.155,1.155 v 0 c -0.642,0 -1.156,-0.51398 -1.156,-1.155"
         id="path22755"
         style="stroke-width:0.999998" /></clipPath><clipPath
       clipPathUnits="userSpaceOnUse"
       id="clipPath22817"><path
         d="m 1012.42,474.10904 v -4.28603 l -3.029,3.02903 c -0.436,0.43597 -1.18,0.43597 -1.617,0 v 0 c -0.435,-0.43703 -0.435,-1.18103 0,-1.617 v 0 l 3.029,-3.02805 h -4.286 c -0.642,0 -1.155,-0.51398 -1.155,-1.15598 v 0 c 0,-0.64102 0.513,-1.15402 1.155,-1.15402 v 0 h 4.286 l -3.029,-3.02895 c -0.435,-0.43605 -0.435,-1.18103 0,-1.61603 v 0 c 0.437,-0.43702 1.181,-0.43702 1.617,0 v 0 l 3.029,3.02798 v -4.28603 c 0,-0.64192 0.513,-1.155 1.155,-1.155 v 0 c 0.641,0 1.154,0.51308 1.154,1.155 v 0 4.28603 l 3.029,-3.02798 c 0.436,-0.43702 1.181,-0.43702 1.617,0 v 0 c 0.436,0.435 0.436,1.17998 0,1.61603 v 0 l -3.028,3.02895 h 4.285 c 0.642,0 1.155,0.513 1.155,1.15402 v 0 c 0,0.642 -0.539,1.15598 -1.155,1.15598 v 0 h -4.285 l 3.028,3.02805 c 0.436,0.43597 0.436,1.17997 0,1.617 v 0 c -0.436,0.43597 -1.181,0.43597 -1.617,0 v 0 l -3.029,-3.02903 v 4.28603 c 0,0.64192 -0.513,1.155 -1.154,1.155 v 0 c -0.642,0 -1.155,-0.51308 -1.155,-1.155"
         id="path22819"
         style="stroke-width:0.999998" /></clipPath></defs><g
     id="g26399"
     transform="translate(-566.38486,-528.85043)"><path
       d="m 0,0 c -3.08,0 -6.031,-0.642 -8.726,-1.745 -6.057,11.857 -18.273,20.07 -32.517,20.07 -14.244,0 -26.46,-8.213 -32.517,-20.07 -2.695,1.103 -5.621,1.745 -8.726,1.745 -12.653,0 -22.919,-10.266 -22.919,-22.918 0,-12.653 10.266,-22.919 22.919,-22.919 4.902,0 9.444,1.566 13.166,4.209 6.724,-8.11 16.733,-13.371 28.077,-13.371 11.344,0 21.353,5.261 28.077,13.371 3.721,-2.618 8.264,-4.209 13.166,-4.209 12.653,0 22.918,10.266 22.918,22.919 C 22.918,-10.266 12.653,0 0,0"
       style="fill:#bdc5d2;fill-opacity:1;fill-rule:nonzero;stroke:none"
       id="path4939"
       transform="matrix(0.35277776,0,0,-0.35277778,603.5694,535.31508)"
       clip-path="url(#clipPath22644)" /><g
       id="g4955"
       transform="matrix(0.35277776,0,0,-0.35277778,220,722.48892)"
       clip-path="url(#clipPath22704)"><g
         clip-path="url(#clipPath4947)"
         opacity="0.0500031"
         id="g4953"><g
           transform="translate(1049.0688,510.7585)"
           id="g4951"><path
             d="m 0,0 c -24.689,2.489 -47.813,-0.95 -66.086,-8.649 2.284,-10.266 11.42,-17.94 22.354,-17.94 4.901,0 9.444,1.566 13.165,4.209 6.725,-8.11 16.734,-13.371 28.077,-13.371 11.344,0 21.353,5.261 28.078,13.371 3.721,-2.617 8.264,-4.209 13.166,-4.209 7.34,0 13.858,3.465 18.067,8.855 C 41.269,-8.649 21.687,-2.181 0,0"
             style="fill:#a8a9ad;fill-opacity:1;fill-rule:nonzero;stroke:none"
             id="path4949" /></g></g></g><path
       d="m 0,0 c -3.08,0 -6.031,-0.642 -8.726,-1.745 -6.082,11.857 -18.273,20.07 -32.517,20.07 -14.244,0 -26.46,-8.213 -32.517,-20.07 -2.695,1.103 -5.621,1.745 -8.726,1.745 -12.653,0 -22.919,-10.266 -22.919,-22.918 0,-12.653 10.266,-22.919 22.919,-22.919 4.902,0 9.444,1.566 13.166,4.209 6.724,-8.11 16.733,-13.371 28.077,-13.371 11.344,0 21.353,5.261 28.077,13.371 3.721,-2.618 8.264,-4.209 13.166,-4.209 12.653,0 22.918,10.266 22.918,22.919 C 22.918,-10.266 12.653,0 0,0"
       style="fill:#d3dee2;fill-opacity:1;fill-rule:nonzero;stroke:none"
       id="path4959"
       transform="matrix(0.35277776,0,0,-0.35277778,603.5694,536.60978)"
       clip-path="url(#clipPath22681)" /><path
       d="m 0,0 c 1.925,0 3.721,-0.385 5.39,-1.078 3.747,7.34 11.292,12.396 20.095,12.396 8.803,0 16.348,-5.081 20.095,-12.396 1.669,0.693 3.491,1.078 5.39,1.078 7.16,0 13.063,-5.313 14.013,-12.216 0.077,0.641 0.154,1.283 0.154,1.925 0,7.827 -6.339,14.166 -14.167,14.166 -1.899,0 -3.721,-0.385 -5.39,-1.078 C 41.833,10.138 34.288,15.193 25.485,15.193 16.682,15.193 9.137,10.112 5.39,2.797 3.721,3.49 1.925,3.875 0,3.875 c -7.828,0 -14.167,-6.339 -14.167,-14.166 0,-0.668 0.051,-1.309 0.154,-1.925 C -13.089,-5.313 -7.186,0 0,0"
       style="fill:#bdc5d2;fill-opacity:1;fill-rule:nonzero;stroke:none"
       id="path4963"
       transform="matrix(0.35277776,0,0,-0.35277778,579.98399,541.66187)"
       clip-path="url(#clipPath22710)" /><g
       id="g4975"
       transform="matrix(0.35277776,0,0,-0.35277778,220,722.48892)"
       clip-path="url(#clipPath22739)"><path
         d="m 1075.555,475.264 v -4.286 l -3.029,3.029 c -0.436,0.436 -1.18,0.436 -1.617,0 v 0 c -0.435,-0.437 -0.435,-1.181 0,-1.617 v 0 l 3.029,-3.028 h -4.286 c -0.642,0 -1.155,-0.514 -1.155,-1.155 v 0 c 0,-0.642 0.513,-1.156 1.155,-1.156 v 0 h 4.286 l -3.029,-3.028 c -0.435,-0.436 -0.435,-1.18 0,-1.617 v 0 c 0.437,-0.436 1.181,-0.436 1.617,0 v 0 l 3.029,3.029 v -4.286 c 0,-0.641 0.513,-1.155 1.155,-1.155 v 0 c 0.641,0 1.154,0.514 1.154,1.155 v 0 4.286 l 3.029,-3.029 c 0.436,-0.436 1.181,-0.436 1.617,0 v 0 c 0.436,0.437 0.436,1.181 0,1.617 v 0 l -3.028,3.028 h 4.285 c 0.642,0 1.155,0.514 1.155,1.156 v 0 c 0,0.641 -0.513,1.155 -1.155,1.155 v 0 h -4.285 l 3.028,3.028 c 0.436,0.436 0.436,1.18 0,1.617 v 0 c -0.436,0.436 -1.181,0.436 -1.617,0 v 0 l -3.029,-3.029 v 4.286 c 0,0.642 -0.513,1.155 -1.154,1.155 v 0 c -0.642,0 -1.155,-0.513 -1.155,-1.155"
         style="fill:url(#radialGradient4981);stroke:none"
         id="path4983" /></g><g
       id="g4995"
       transform="matrix(0.35277776,0,0,-0.35277778,220,722.48892)"
       clip-path="url(#clipPath22817)"><path
         d="m 1012.42,474.109 v -4.286 l -3.029,3.029 c -0.436,0.436 -1.18,0.436 -1.617,0 v 0 c -0.435,-0.437 -0.435,-1.181 0,-1.617 v 0 l 3.029,-3.028 h -4.286 c -0.642,0 -1.155,-0.514 -1.155,-1.156 v 0 c 0,-0.641 0.513,-1.154 1.155,-1.154 v 0 h 4.286 l -3.029,-3.029 c -0.435,-0.436 -0.435,-1.181 0,-1.616 v 0 c 0.437,-0.437 1.181,-0.437 1.617,0 v 0 l 3.029,3.028 v -4.286 c 0,-0.642 0.513,-1.155 1.155,-1.155 v 0 c 0.641,0 1.154,0.513 1.154,1.155 v 0 4.286 l 3.029,-3.028 c 0.436,-0.437 1.181,-0.437 1.617,0 v 0 c 0.436,0.435 0.436,1.18 0,1.616 v 0 l -3.028,3.029 h 4.285 c 0.642,0 1.155,0.513 1.155,1.154 v 0 c 0,0.642 -0.539,1.156 -1.155,1.156 v 0 h -4.285 l 3.028,3.028 c 0.436,0.436 0.436,1.18 0,1.617 v 0 c -0.436,0.436 -1.181,0.436 -1.617,0 v 0 l -3.029,-3.029 v 4.286 c 0,0.642 -0.513,1.155 -1.154,1.155 v 0 c -0.642,0 -1.155,-0.513 -1.155,-1.155"
         style="fill:url(#radialGradient5001);stroke:none"
         id="path5003" /></g><g
       id="g5015"
       transform="matrix(0.35277776,0,0,-0.35277778,220,722.48892)"
       clip-path="url(#clipPath22753)"><path
         d="m 1045.013,466.41 v -4.286 l -3.028,3.028 c -0.436,0.437 -1.18,0.437 -1.617,0 v 0 c -0.436,-0.436 -0.436,-1.18 0,-1.616 v 0 l 3.029,-3.028 h -4.286 c -0.642,0 -1.155,-0.514 -1.155,-1.156 v 0 c 0,-0.641 0.513,-1.155 1.155,-1.155 v 0 h 4.286 l -3.029,-3.028 c -0.436,-0.437 -0.436,-1.18 0,-1.617 v 0 c 0.437,-0.436 1.181,-0.436 1.617,0 v 0 l 3.028,3.029 v -4.287 c 0,-0.641 0.514,-1.155 1.156,-1.155 v 0 c 0.642,0 1.155,0.514 1.155,1.155 v 0 4.287 l 3.028,-3.029 c 0.437,-0.436 1.181,-0.436 1.617,0 v 0 c 0.436,0.437 0.436,1.181 0,1.617 v 0 l -3.029,3.028 h 4.287 c 0.641,0 1.154,0.514 1.154,1.155 v 0 c 0,0.642 -0.539,1.156 -1.154,1.156 v 0 h -4.287 l 3.029,3.028 c 0.436,0.436 0.436,1.18 0,1.616 v 0 c -0.436,0.437 -1.18,0.437 -1.617,0 v 0 l -3.028,-3.028 v 4.286 c 0,0.641 -0.513,1.155 -1.155,1.155 v 0 c -0.642,0 -1.156,-0.514 -1.156,-1.155"
         style="fill:url(#radialGradient5021);stroke:none"
         id="path5023" /></g></g></svg>
