<?xml version="1.0" encoding="UTF-8" standalone="no"?>
<!-- Created with Inkscape (http://www.inkscape.org/) -->

<svg
   width="45.269146mm"
   height="36.668102mm"
   viewBox="0 0 45.269146 36.668102"
   version="1.1"
   id="svg5"
   xml:space="preserve"
   xmlns="http://www.w3.org/2000/svg"
   xmlns:svg="http://www.w3.org/2000/svg"><defs
     id="defs2"><linearGradient
       x1="0"
       y1="0"
       x2="1"
       y2="0"
       gradientUnits="userSpaceOnUse"
       gradientTransform="matrix(0,-57.18055,-57.18055,0,1603.7599,502.93076)"
       spreadMethod="pad"
       id="linearGradient3277"><stop
         style="stop-opacity:1;stop-color:#f8f6c4"
         offset="0"
         id="stop3251" /><stop
         style="stop-opacity:1;stop-color:#f8f0b0"
         offset="0.0218679"
         id="stop3253" /><stop
         style="stop-opacity:1;stop-color:#fae584"
         offset="0.087193"
         id="stop3255" /><stop
         style="stop-opacity:1;stop-color:#fcde5c"
         offset="0.1478"
         id="stop3257" /><stop
         style="stop-opacity:1;stop-color:#fdd937"
         offset="0.2018"
         id="stop3259" /><stop
         style="stop-opacity:1;stop-color:#fdd612"
         offset="0.2472"
         id="stop3261" /><stop
         style="stop-opacity:1;stop-color:#fdd505"
         offset="0.2784"
         id="stop3263" /><stop
         style="stop-opacity:1;stop-color:#fdd20b"
         offset="0.3882"
         id="stop3265" /><stop
         style="stop-opacity:1;stop-color:#f9c718"
         offset="0.5124"
         id="stop3267" /><stop
         style="stop-opacity:1;stop-color:#f2b61b"
         offset="0.6436"
         id="stop3269" /><stop
         style="stop-opacity:1;stop-color:#ec9e23"
         offset="0.7796"
         id="stop3271" /><stop
         style="stop-opacity:1;stop-color:#e38326"
         offset="0.918"
         id="stop3273" /><stop
         style="stop-opacity:1;stop-color:#df6f26"
         offset="1"
         id="stop3275" /></linearGradient><clipPath
       clipPathUnits="userSpaceOnUse"
       id="clipPath3299"><path
         d="m 1543.31,512.354 h 122.9 v -36.551 h -122.9 z"
         id="path3297" /></clipPath><radialGradient
       fx="0"
       fy="0"
       cx="0"
       cy="0"
       r="1"
       gradientUnits="userSpaceOnUse"
       gradientTransform="matrix(8.2126465,0,0,-8.2126465,1634.4675,471.56873)"
       spreadMethod="pad"
       id="radialGradient3333"><stop
         style="stop-opacity:1;stop-color:#ceebfb"
         offset="0"
         id="stop3329" /><stop
         style="stop-opacity:1;stop-color:#e2f4fd"
         offset="1"
         id="stop3331" /></radialGradient><radialGradient
       fx="0"
       fy="0"
       cx="0"
       cy="0"
       r="1"
       gradientUnits="userSpaceOnUse"
       gradientTransform="matrix(8.203536,0,0,-8.203536,1573.8993,470.43204)"
       spreadMethod="pad"
       id="radialGradient3353"><stop
         style="stop-opacity:1;stop-color:#ceebfb"
         offset="0"
         id="stop3349" /><stop
         style="stop-opacity:1;stop-color:#e2f4fd"
         offset="1"
         id="stop3351" /></radialGradient><radialGradient
       fx="0"
       fy="0"
       cx="0"
       cy="0"
       r="1"
       gradientUnits="userSpaceOnUse"
       gradientTransform="matrix(6.1496229,0,0,-6.1496229,1589.3174,453.06458)"
       spreadMethod="pad"
       id="radialGradient3373"><stop
         style="stop-opacity:1;stop-color:#ceebfb"
         offset="0"
         id="stop3369" /><stop
         style="stop-opacity:1;stop-color:#e2f4fd"
         offset="1"
         id="stop3371" /></radialGradient><radialGradient
       fx="0"
       fy="0"
       cx="0"
       cy="0"
       r="1"
       gradientUnits="userSpaceOnUse"
       gradientTransform="matrix(6.1489005,0,0,-6.1489005,1624.5801,457.06827)"
       spreadMethod="pad"
       id="radialGradient3393"><stop
         style="stop-opacity:1;stop-color:#ceebfb"
         offset="0"
         id="stop3389" /><stop
         style="stop-opacity:1;stop-color:#e2f4fd"
         offset="1"
         id="stop3391" /></radialGradient><clipPath
       clipPathUnits="userSpaceOnUse"
       id="clipPath23745"><path
         d="m 1572.745,477.47196 v -4.28595 l -3.029,3.02798 c -0.436,0.43605 -1.181,0.43605 -1.617,0 v 0 c -0.437,-0.43598 -0.437,-1.17998 0,-1.617 v 0 l 3.028,-3.02903 h -4.286 c -0.641,0 -1.154,-0.51195 -1.154,-1.15395 v 0 c 0,-0.642 0.513,-1.155 1.154,-1.155 v 0 h 4.286 l -3.028,-3.02797 c -0.437,-0.43703 -0.437,-1.18103 0,-1.61805 v 0 c 0.436,-0.435 1.181,-0.435 1.617,0 v 0 l 3.029,3.02902 v -4.28602 c 0,-0.642 0.513,-1.155 1.154,-1.155 v 0 c 0.642,0 1.155,0.513 1.155,1.155 v 0 4.28602 l 3.029,-3.02902 c 0.436,-0.435 1.18,-0.435 1.617,0 v 0 c 0.435,0.43702 0.435,1.18102 0,1.61805 v 0 l -3.029,3.02797 h 4.286 c 0.642,0 1.155,0.513 1.155,1.155 v 0 c 0,0.642 -0.539,1.15395 -1.155,1.15395 v 0 h -4.286 l 3.029,3.02903 c 0.435,0.43702 0.435,1.18102 0,1.617 v 0 c -0.437,0.43605 -1.181,0.43605 -1.617,0 v 0 l -3.029,-3.02798 v 4.28595 c 0,0.64103 -0.513,1.15403 -1.155,1.15403 v 0 c -0.641,0 -1.154,-0.513 -1.154,-1.15403"
         id="path23747"
         style="stroke-width:0.999998" /></clipPath><clipPath
       clipPathUnits="userSpaceOnUse"
       id="clipPath23757"><path
         d="M -1580.7517,1534.6238 H 467.24832 V -513.37622 H -1580.7517 Z"
         id="path23759"
         style="stroke-width:0.999998" /></clipPath><clipPath
       clipPathUnits="userSpaceOnUse"
       id="clipPath23764"><path
         d="m 1588.503,458.32604 v -3.20903 l -2.284,2.28495 c -0.334,0.33405 -0.874,0.33405 -1.207,0 v 0 c -0.333,-0.33292 -0.333,-0.87195 0,-1.206 v 0 l 2.284,-2.28495 h -3.259 c -0.462,0 -0.847,-0.38497 -0.847,-0.84705 v 0 c 0,-0.46095 0.385,-0.846 0.847,-0.846 v 0 h 3.208 l -2.285,-2.28495 c -0.333,-0.33397 -0.333,-0.87202 0,-1.206 v 0 c 0.334,-0.33397 0.873,-0.33397 1.207,0 v 0 l 2.284,2.28495 v -3.20895 c 0,-0.462 0.385,-0.84697 0.847,-0.84697 v 0 c 0.462,0 0.847,0.38497 0.847,0.84697 v 0 3.20895 l 2.284,-2.28495 c 0.333,-0.33397 0.873,-0.33397 1.206,0 v 0 c 0.333,0.33398 0.333,0.87203 0,1.206 v 0 l -2.284,2.28495 h 3.208 c 0.462,0 0.847,0.38505 0.847,0.846 v 0 c 0.077,0.46208 -0.333,0.84705 -0.796,0.84705 v 0 h -3.208 l 2.285,2.28495 c 0.334,0.33405 0.334,0.87308 0,1.206 v 0 c -0.334,0.33405 -0.873,0.33405 -1.206,0 v 0 l -2.284,-2.28495 v 3.20903 c 0,0.46192 -0.386,0.84697 -0.847,0.84697 v 0 c -0.463,0 -0.847,-0.38505 -0.847,-0.84697"
         id="path23766"
         style="stroke-width:0.999998" /></clipPath><clipPath
       clipPathUnits="userSpaceOnUse"
       id="clipPath23776"><path
         d="m -1647.6078,1520.303 h 2048 V -527.69702 h -2048 z"
         id="path23778"
         style="stroke-width:0.999998" /></clipPath><clipPath
       clipPathUnits="userSpaceOnUse"
       id="clipPath23805"><path
         d="m -1647.6078,1516.6329 h 2048 V -531.36712 h -2048 z"
         id="path23807"
         style="stroke-width:0.999998" /></clipPath><clipPath
       clipPathUnits="userSpaceOnUse"
       id="clipPath23815"><path
         d="M -2.2440947e-6,2048 H 2048 V -1.1811023e-5 H -2.2440947e-6 Z"
         id="path23817"
         style="stroke-width:0.999998" /></clipPath><clipPath
       clipPathUnits="userSpaceOnUse"
       id="clipPath23822"><path
         d="m 1599.718,479.34501 -12.345,-3.567 24.227,-30.02797 -3.798,23.58592 12.345,3.59303 -24.254,30.00202 z"
         id="path23824"
         style="stroke-width:0.999998" /></clipPath><clipPath
       clipPathUnits="userSpaceOnUse"
       id="clipPath23829"><path
         d="m 1633.313,478.62599 v -4.28603 l -3.029,3.02903 c -0.436,0.43702 -1.18,0.43702 -1.617,0 v 0 c -0.436,-0.43703 -0.436,-1.18095 0,-1.617 v 0 l 3.028,-3.02895 h -4.285 c -0.642,0 -1.155,-0.513 -1.155,-1.15508 v 0 c 0,-0.64095 0.513,-1.15395 1.155,-1.15395 v 0 h 4.285 l -3.028,-3.02902 c -0.436,-0.43598 -0.436,-1.18103 0,-1.61603 v 0 c 0.437,-0.43695 1.181,-0.43695 1.617,0 v 0 l 3.029,3.02805 v -4.28602 c 0,-0.642 0.513,-1.155 1.155,-1.155 v 0 c 0.641,0 1.154,0.513 1.154,1.155 v 0 4.28602 l 3.029,-3.02805 c 0.436,-0.43695 1.18,-0.43695 1.617,0 v 0 c 0.436,0.435 0.436,1.18005 0,1.61603 v 0 l -3.028,3.02902 h 4.285 c 0.642,0 1.155,0.513 1.155,1.15395 v 0 c 0,0.64208 -0.513,1.15508 -1.155,1.15508 v 0 h -4.285 l 3.028,3.02895 c 0.436,0.43605 0.436,1.17997 0,1.617 v 0 c -0.437,0.43702 -1.181,0.43702 -1.617,0 v 0 l -3.029,-3.02903 v 4.28603 c 0,0.642 -0.513,1.155 -1.154,1.155 v 0 c -0.642,0 -1.155,-0.513 -1.155,-1.155"
         id="path23831"
         style="stroke-width:0.999998" /></clipPath><clipPath
       clipPathUnits="userSpaceOnUse"
       id="clipPath23843"><path
         d="m 1623.766,462.32901 v -3.20797 l -2.285,2.28495 c -0.334,0.33397 -0.873,0.33397 -1.206,0 v 0 c -0.333,-0.33398 -0.333,-0.873 0,-1.206 v 0 l 2.285,-2.28495 h -3.209 c -0.462,0 -0.847,-0.38505 -0.847,-0.846 v 0 c 0,-0.46305 0.385,-0.84705 0.847,-0.84705 v 0 h 3.209 l -2.285,-2.28495 c -0.333,-0.33308 -0.333,-0.87308 0,-1.206 v 0 c 0.333,-0.33308 0.872,-0.33308 1.206,0 v 0 l 2.285,2.28397 v -3.20797 c 0,-0.462 0.385,-0.84705 0.846,-0.84705 v 0 c 0.462,0 0.847,0.38505 0.847,0.84705 v 0 3.18292 l 2.285,-2.28495 c 0.333,-0.33397 0.872,-0.33397 1.206,0 v 0 c 0.333,0.33398 0.333,0.87203 0,1.206 v 0 l -2.285,2.28495 h 3.209 c 0.462,0 0.847,0.38505 0.847,0.84705 v 0 c 0,0.46103 -0.36,0.87203 -0.847,0.87203 v 0 h -3.209 l 2.285,2.28495 c 0.333,0.333 0.333,0.87202 0,1.206 v 0 c -0.334,0.33397 -0.873,0.33397 -1.206,0 v 0 l -2.285,-2.28495 v 3.20797 c 0,0.46298 -0.385,0.84698 -0.847,0.84698 v 0 c -0.461,0 -0.846,-0.384 -0.846,-0.84698"
         id="path23845"
         style="stroke-width:0.999998" /></clipPath></defs><g
     id="g26373"
     transform="translate(-764.0552,-528.57011)"><g
       id="g3249"
       transform="matrix(0.35277776,0,0,-0.35277778,220,722.48892)"
       clip-path="url(#clipPath23822)"><path
         d="m 1599.718,479.345 -12.345,-3.567 24.227,-30.028 -3.798,23.586 12.345,3.593 -24.254,30.002 z"
         style="fill:url(#linearGradient3277);stroke:none"
         id="path3279" /></g><path
       d="m 0,0 c -3.08,0 -6.031,-0.642 -8.726,-1.745 -6.057,11.857 -18.273,20.069 -32.517,20.069 -14.244,0 -26.46,-8.212 -32.517,-20.069 -2.695,1.103 -5.62,1.745 -8.726,1.745 -12.652,0 -22.918,-10.266 -22.918,-22.918 0,-12.653 10.266,-22.919 22.918,-22.919 4.902,0 9.445,1.566 13.166,4.209 6.724,-8.11 16.733,-13.371 28.077,-13.371 11.344,0 21.353,5.261 28.077,13.371 3.721,-2.618 8.264,-4.209 13.166,-4.209 12.653,0 22.918,10.266 22.918,22.919 C 22.918,-10.266 12.653,0 0,0"
       style="fill:#bdc5d2;fill-opacity:1;fill-rule:nonzero;stroke:none"
       id="path3291"
       transform="matrix(0.35277776,0,0,-0.35277778,801.23939,535.03441)"
       clip-path="url(#clipPath23805)" /><g
       id="g3307"
       transform="matrix(0.35277776,0,0,-0.35277778,220,722.48892)"
       clip-path="url(#clipPath23815)"><g
         clip-path="url(#clipPath3299)"
         opacity="0.0500031"
         id="g3305"><g
           transform="translate(1609.3933,511.554)"
           id="g3303"><path
             d="m 0,0 c -24.689,2.489 -47.813,-0.95 -66.086,-8.649 2.284,-10.266 11.421,-17.939 22.354,-17.939 4.902,0 9.444,1.565 13.166,4.209 6.724,-8.11 16.733,-13.372 28.076,-13.372 11.344,0 21.353,5.262 28.078,13.372 3.721,-2.618 8.263,-4.209 13.165,-4.209 7.341,0 13.859,3.464 18.068,8.854 C 41.269,-8.649 21.687,-2.181 0,0"
             style="fill:#a8a9ad;fill-opacity:1;fill-rule:nonzero;stroke:none"
             id="path3301" /></g></g></g><path
       d="m 0,0 c -3.08,0 -6.031,-0.642 -8.726,-1.745 -6.082,11.857 -18.273,20.069 -32.517,20.069 -14.244,0 -26.46,-8.212 -32.517,-20.069 -2.695,1.103 -5.62,1.745 -8.726,1.745 -12.652,0 -22.918,-10.266 -22.918,-22.918 0,-12.653 10.266,-22.919 22.918,-22.919 4.902,0 9.445,1.566 13.166,4.209 6.724,-8.11 16.733,-13.371 28.077,-13.371 11.344,0 21.353,5.261 28.077,13.371 3.721,-2.618 8.264,-4.209 13.166,-4.209 12.653,0 22.918,10.266 22.918,22.919 C 22.918,-10.266 12.653,0 0,0"
       style="fill:#d3dee2;fill-opacity:1;fill-rule:nonzero;stroke:none"
       id="path3311"
       transform="matrix(0.35277776,0,0,-0.35277778,801.23939,536.32914)"
       clip-path="url(#clipPath23776)" /><path
       d="m 0,0 c 1.925,0 3.721,-0.385 5.39,-1.078 3.747,7.34 11.292,12.396 20.095,12.396 8.803,0 16.348,-5.082 20.095,-12.396 1.668,0.693 3.491,1.078 5.39,1.078 7.16,0 13.063,-5.313 14.013,-12.216 0.077,0.641 0.153,1.283 0.153,1.925 0,7.827 -6.339,14.166 -14.166,14.166 -1.899,0 -3.722,-0.385 -5.39,-1.078 C 41.833,10.137 34.288,15.193 25.485,15.193 16.682,15.193 9.137,10.112 5.39,2.797 3.721,3.49 1.925,3.875 0,3.875 c -7.828,0 -14.167,-6.339 -14.167,-14.166 0,-0.668 0.052,-1.309 0.154,-1.925 C -13.089,-5.313 -7.186,0 0,0"
       style="fill:#bdc5d2;fill-opacity:1;fill-rule:nonzero;stroke:none"
       id="path3315"
       transform="matrix(0.35277776,0,0,-0.35277778,777.65404,541.3812)"
       clip-path="url(#clipPath23757)" /><g
       id="g3327"
       transform="matrix(0.35277776,0,0,-0.35277778,220,722.48892)"
       clip-path="url(#clipPath23829)"><path
         d="m 1633.313,478.626 v -4.286 l -3.029,3.029 c -0.436,0.437 -1.18,0.437 -1.617,0 v 0 c -0.436,-0.437 -0.436,-1.181 0,-1.617 v 0 l 3.028,-3.029 h -4.285 c -0.642,0 -1.155,-0.513 -1.155,-1.155 v 0 c 0,-0.641 0.513,-1.154 1.155,-1.154 v 0 h 4.285 l -3.028,-3.029 c -0.436,-0.436 -0.436,-1.181 0,-1.616 v 0 c 0.437,-0.437 1.181,-0.437 1.617,0 v 0 l 3.029,3.028 v -4.286 c 0,-0.642 0.513,-1.155 1.155,-1.155 v 0 c 0.641,0 1.154,0.513 1.154,1.155 v 0 4.286 l 3.029,-3.028 c 0.436,-0.437 1.18,-0.437 1.617,0 v 0 c 0.436,0.435 0.436,1.18 0,1.616 v 0 l -3.028,3.029 h 4.285 c 0.642,0 1.155,0.513 1.155,1.154 v 0 c 0,0.642 -0.513,1.155 -1.155,1.155 v 0 h -4.285 l 3.028,3.029 c 0.436,0.436 0.436,1.18 0,1.617 v 0 c -0.437,0.437 -1.181,0.437 -1.617,0 v 0 l -3.029,-3.029 v 4.286 c 0,0.642 -0.513,1.155 -1.154,1.155 v 0 c -0.642,0 -1.155,-0.513 -1.155,-1.155"
         style="fill:url(#radialGradient3333);stroke:none"
         id="path3335" /></g><g
       id="g3347"
       transform="matrix(0.35277776,0,0,-0.35277778,220,722.48892)"
       clip-path="url(#clipPath23745)"><path
         d="m 1572.745,477.472 v -4.286 l -3.029,3.028 c -0.436,0.436 -1.181,0.436 -1.617,0 v 0 c -0.437,-0.436 -0.437,-1.18 0,-1.617 v 0 l 3.028,-3.029 h -4.286 c -0.641,0 -1.154,-0.512 -1.154,-1.154 v 0 c 0,-0.642 0.513,-1.155 1.154,-1.155 v 0 h 4.286 l -3.028,-3.028 c -0.437,-0.437 -0.437,-1.181 0,-1.618 v 0 c 0.436,-0.435 1.181,-0.435 1.617,0 v 0 l 3.029,3.029 v -4.286 c 0,-0.642 0.513,-1.155 1.154,-1.155 v 0 c 0.642,0 1.155,0.513 1.155,1.155 v 0 4.286 l 3.029,-3.029 c 0.436,-0.435 1.18,-0.435 1.617,0 v 0 c 0.435,0.437 0.435,1.181 0,1.618 v 0 l -3.029,3.028 h 4.286 c 0.642,0 1.155,0.513 1.155,1.155 v 0 c 0,0.642 -0.539,1.154 -1.155,1.154 v 0 h -4.286 l 3.029,3.029 c 0.435,0.437 0.435,1.181 0,1.617 v 0 c -0.437,0.436 -1.181,0.436 -1.617,0 v 0 l -3.029,-3.028 v 4.286 c 0,0.641 -0.513,1.154 -1.155,1.154 v 0 c -0.641,0 -1.154,-0.513 -1.154,-1.154"
         style="fill:url(#radialGradient3353);stroke:none"
         id="path3355" /></g><g
       id="g3367"
       transform="matrix(0.35277776,0,0,-0.35277778,220,722.48892)"
       clip-path="url(#clipPath23764)"><path
         d="m 1588.503,458.326 v -3.209 l -2.284,2.285 c -0.334,0.334 -0.874,0.334 -1.207,0 v 0 c -0.333,-0.333 -0.333,-0.872 0,-1.206 v 0 l 2.284,-2.285 h -3.259 c -0.462,0 -0.847,-0.385 -0.847,-0.847 v 0 c 0,-0.461 0.385,-0.846 0.847,-0.846 v 0 h 3.208 l -2.285,-2.285 c -0.333,-0.334 -0.333,-0.872 0,-1.206 v 0 c 0.334,-0.334 0.873,-0.334 1.207,0 v 0 l 2.284,2.285 v -3.209 c 0,-0.462 0.385,-0.847 0.847,-0.847 v 0 c 0.462,0 0.847,0.385 0.847,0.847 v 0 3.209 l 2.284,-2.285 c 0.333,-0.334 0.873,-0.334 1.206,0 v 0 c 0.333,0.334 0.333,0.872 0,1.206 v 0 l -2.284,2.285 h 3.208 c 0.462,0 0.847,0.385 0.847,0.846 v 0 c 0.077,0.462 -0.333,0.847 -0.796,0.847 v 0 h -3.208 l 2.285,2.285 c 0.334,0.334 0.334,0.873 0,1.206 v 0 c -0.334,0.334 -0.873,0.334 -1.206,0 v 0 l -2.284,-2.285 v 3.209 c 0,0.462 -0.386,0.847 -0.847,0.847 v 0 c -0.463,0 -0.847,-0.385 -0.847,-0.847"
         style="fill:url(#radialGradient3373);stroke:none"
         id="path3375" /></g><g
       id="g3387"
       transform="matrix(0.35277776,0,0,-0.35277778,220,722.48892)"
       clip-path="url(#clipPath23843)"><path
         d="m 1623.766,462.329 v -3.208 l -2.285,2.285 c -0.334,0.334 -0.873,0.334 -1.206,0 v 0 c -0.333,-0.334 -0.333,-0.873 0,-1.206 v 0 l 2.285,-2.285 h -3.209 c -0.462,0 -0.847,-0.385 -0.847,-0.846 v 0 c 0,-0.463 0.385,-0.847 0.847,-0.847 v 0 h 3.209 l -2.285,-2.285 c -0.333,-0.333 -0.333,-0.873 0,-1.206 v 0 c 0.333,-0.333 0.872,-0.333 1.206,0 v 0 l 2.285,2.284 v -3.208 c 0,-0.462 0.385,-0.847 0.846,-0.847 v 0 c 0.462,0 0.847,0.385 0.847,0.847 v 0 3.183 l 2.285,-2.285 c 0.333,-0.334 0.872,-0.334 1.206,0 v 0 c 0.333,0.334 0.333,0.872 0,1.206 v 0 l -2.285,2.285 h 3.209 c 0.462,0 0.847,0.385 0.847,0.847 v 0 c 0,0.461 -0.36,0.872 -0.847,0.872 v 0 h -3.209 l 2.285,2.285 c 0.333,0.333 0.333,0.872 0,1.206 v 0 c -0.334,0.334 -0.873,0.334 -1.206,0 v 0 l -2.285,-2.285 v 3.208 c 0,0.463 -0.385,0.847 -0.847,0.847 v 0 c -0.461,0 -0.846,-0.384 -0.846,-0.847"
         style="fill:url(#radialGradient3393);stroke:none"
         id="path3395" /></g></g></svg>
