<?xml version="1.0" encoding="UTF-8" standalone="no"?>
<!-- Created with Inkscape (http://www.inkscape.org/) -->

<svg
   width="45.269146mm"
   height="36.66827mm"
   viewBox="0 0 45.269146 36.66827"
   version="1.1"
   id="svg5"
   xml:space="preserve"
   xmlns="http://www.w3.org/2000/svg"
   xmlns:svg="http://www.w3.org/2000/svg"><defs
     id="defs2"><linearGradient
       x1="0"
       y1="0"
       x2="1"
       y2="0"
       gradientUnits="userSpaceOnUse"
       gradientTransform="matrix(0,-38.702095,38.702095,0,1292.1388,278.51242)"
       spreadMethod="pad"
       id="linearGradient3435"><stop
         style="stop-opacity:1;stop-color:#f8f6c4"
         offset="0"
         id="stop3409" /><stop
         style="stop-opacity:1;stop-color:#f8f0b0"
         offset="0.0218679"
         id="stop3411" /><stop
         style="stop-opacity:1;stop-color:#fae584"
         offset="0.087193"
         id="stop3413" /><stop
         style="stop-opacity:1;stop-color:#fcde5c"
         offset="0.1478"
         id="stop3415" /><stop
         style="stop-opacity:1;stop-color:#fdd937"
         offset="0.2018"
         id="stop3417" /><stop
         style="stop-opacity:1;stop-color:#fdd612"
         offset="0.2472"
         id="stop3419" /><stop
         style="stop-opacity:1;stop-color:#fdd505"
         offset="0.2784"
         id="stop3421" /><stop
         style="stop-opacity:1;stop-color:#fdd20b"
         offset="0.3882"
         id="stop3423" /><stop
         style="stop-opacity:1;stop-color:#f9c718"
         offset="0.5124"
         id="stop3425" /><stop
         style="stop-opacity:1;stop-color:#f2b61b"
         offset="0.6436"
         id="stop3427" /><stop
         style="stop-opacity:1;stop-color:#ec9e23"
         offset="0.7796"
         id="stop3429" /><stop
         style="stop-opacity:1;stop-color:#e38326"
         offset="0.918"
         id="stop3431" /><stop
         style="stop-opacity:1;stop-color:#df6f26"
         offset="1"
         id="stop3433" /></linearGradient><linearGradient
       x1="0"
       y1="0"
       x2="1"
       y2="0"
       gradientUnits="userSpaceOnUse"
       gradientTransform="matrix(0,-38.702095,-38.702095,0,1358.8922,278.51242)"
       spreadMethod="pad"
       id="linearGradient3477"><stop
         style="stop-opacity:1;stop-color:#f8f6c4"
         offset="0"
         id="stop3451" /><stop
         style="stop-opacity:1;stop-color:#f8f0b0"
         offset="0.0218679"
         id="stop3453" /><stop
         style="stop-opacity:1;stop-color:#fae584"
         offset="0.087193"
         id="stop3455" /><stop
         style="stop-opacity:1;stop-color:#fcde5c"
         offset="0.1478"
         id="stop3457" /><stop
         style="stop-opacity:1;stop-color:#fdd937"
         offset="0.2018"
         id="stop3459" /><stop
         style="stop-opacity:1;stop-color:#fdd612"
         offset="0.2472"
         id="stop3461" /><stop
         style="stop-opacity:1;stop-color:#fdd505"
         offset="0.2784"
         id="stop3463" /><stop
         style="stop-opacity:1;stop-color:#fdd20b"
         offset="0.3882"
         id="stop3465" /><stop
         style="stop-opacity:1;stop-color:#f9c718"
         offset="0.5124"
         id="stop3467" /><stop
         style="stop-opacity:1;stop-color:#f2b61b"
         offset="0.6436"
         id="stop3469" /><stop
         style="stop-opacity:1;stop-color:#ec9e23"
         offset="0.7796"
         id="stop3471" /><stop
         style="stop-opacity:1;stop-color:#e38326"
         offset="0.918"
         id="stop3473" /><stop
         style="stop-opacity:1;stop-color:#df6f26"
         offset="1"
         id="stop3475" /></linearGradient><linearGradient
       x1="0"
       y1="0"
       x2="1"
       y2="0"
       gradientUnits="userSpaceOnUse"
       gradientTransform="matrix(0,-57.18055,57.18055,0,1322.9106,280.05231)"
       spreadMethod="pad"
       id="linearGradient3519"><stop
         style="stop-opacity:1;stop-color:#f8f6c4"
         offset="0"
         id="stop3493" /><stop
         style="stop-opacity:1;stop-color:#f8f0b0"
         offset="0.0218679"
         id="stop3495" /><stop
         style="stop-opacity:1;stop-color:#fae584"
         offset="0.087193"
         id="stop3497" /><stop
         style="stop-opacity:1;stop-color:#fcde5c"
         offset="0.1478"
         id="stop3499" /><stop
         style="stop-opacity:1;stop-color:#fdd937"
         offset="0.2018"
         id="stop3501" /><stop
         style="stop-opacity:1;stop-color:#fdd612"
         offset="0.2472"
         id="stop3503" /><stop
         style="stop-opacity:1;stop-color:#fdd505"
         offset="0.2784"
         id="stop3505" /><stop
         style="stop-opacity:1;stop-color:#fdd20b"
         offset="0.3882"
         id="stop3507" /><stop
         style="stop-opacity:1;stop-color:#f9c718"
         offset="0.5124"
         id="stop3509" /><stop
         style="stop-opacity:1;stop-color:#f2b61b"
         offset="0.6436"
         id="stop3511" /><stop
         style="stop-opacity:1;stop-color:#ec9e23"
         offset="0.7796"
         id="stop3513" /><stop
         style="stop-opacity:1;stop-color:#e38326"
         offset="0.918"
         id="stop3515" /><stop
         style="stop-opacity:1;stop-color:#df6f26"
         offset="1"
         id="stop3517" /></linearGradient><clipPath
       clipPathUnits="userSpaceOnUse"
       id="clipPath3541"><path
         d="m 1262.46,289.476 h 122.91 v -36.551 h -122.91 z"
         id="path3539" /></clipPath><clipPath
       clipPathUnits="userSpaceOnUse"
       id="clipPath23770"><path
         d="m -1366.7584,1739.5114 h 2048 v -2048 h -2048 z"
         id="path23772"
         style="stroke-width:0.999998" /></clipPath><clipPath
       clipPathUnits="userSpaceOnUse"
       id="clipPath23789"><path
         d="m 1318.868,256.46699 -12.344,-3.56798 24.227,-30.02797 -3.798,23.58697 12.344,3.59303 -24.253,30.00097 z"
         id="path23791"
         style="stroke-width:0.999998" /></clipPath><clipPath
       clipPathUnits="userSpaceOnUse"
       id="clipPath23799"><path
         d="M -2.2440947e-6,2048 H 2048 V -1.1811023e-5 H -2.2440947e-6 Z"
         id="path23801"
         style="stroke-width:0.999998" /></clipPath><clipPath
       clipPathUnits="userSpaceOnUse"
       id="clipPath23836"><path
         d="m 1289.406,262.54896 -8.367,-2.412 16.399,-20.32695 -2.566,15.96398 8.367,2.43802 -16.425,20.30003 z"
         id="path23838"
         style="stroke-width:0.999998" /></clipPath><clipPath
       clipPathUnits="userSpaceOnUse"
       id="clipPath23850"><path
         d="m 1347.792,258.21201 8.367,-2.43802 -2.566,-15.96398 16.4,20.32695 -8.368,2.412 2.592,15.96308 z"
         id="path23852"
         style="stroke-width:0.999998" /></clipPath><clipPath
       clipPathUnits="userSpaceOnUse"
       id="clipPath23904"><path
         d="m -1366.7584,1743.1814 h 2048 V -304.81861 h -2048 z"
         id="path23906"
         style="stroke-width:0.999998" /></clipPath><clipPath
       clipPathUnits="userSpaceOnUse"
       id="clipPath23916"><path
         d="M -1299.9023,1757.5022 H 748.09771 V -290.49781 H -1299.9023 Z"
         id="path23918"
         style="stroke-width:0.999998" /></clipPath></defs><g
     id="g27123"
     transform="translate(-664.97778,-607.1967)"><g
       id="g3407"
       transform="matrix(0.35277776,0,0,-0.35277778,220,722.48892)"
       clip-path="url(#clipPath23836)"><path
         d="m 1289.406,262.549 -8.367,-2.412 16.399,-20.327 -2.566,15.964 8.367,2.438 -16.425,20.3 z"
         style="fill:url(#linearGradient3435);stroke:none"
         id="path3437" /></g><g
       id="g3449"
       transform="matrix(0.35277776,0,0,-0.35277778,220,722.48892)"
       clip-path="url(#clipPath23850)"><path
         d="m 1347.792,258.212 8.367,-2.438 -2.566,-15.964 16.4,20.327 -8.368,2.412 2.592,15.963 z"
         style="fill:url(#linearGradient3477);stroke:none"
         id="path3479" /></g><g
       id="g3491"
       transform="matrix(0.35277776,0,0,-0.35277778,220,722.48892)"
       clip-path="url(#clipPath23789)"><path
         d="m 1318.868,256.467 -12.344,-3.568 24.227,-30.028 -3.798,23.587 12.344,3.593 -24.253,30.001 z"
         style="fill:url(#linearGradient3519);stroke:none"
         id="path3521" /></g><path
       d="m 0,0 c -3.08,0 -6.031,-0.642 -8.726,-1.745 -6.057,11.857 -18.273,20.069 -32.517,20.069 -14.244,0 -26.46,-8.212 -32.517,-20.069 -2.695,1.103 -5.62,1.745 -8.726,1.745 -12.652,0 -22.918,-10.266 -22.918,-22.918 0,-12.653 10.266,-22.919 22.918,-22.919 4.902,0 9.445,1.566 13.166,4.209 6.724,-8.11 16.733,-13.371 28.077,-13.371 11.344,0 21.353,5.261 28.077,13.371 3.721,-2.618 8.264,-4.209 13.166,-4.209 12.653,0 22.918,10.266 22.918,22.919 C 22.918,-10.266 12.653,0 0,0"
       style="fill:#bdc5d2;fill-opacity:1;fill-rule:nonzero;stroke:none"
       id="path3533"
       transform="matrix(0.35277776,0,0,-0.35277778,702.16197,613.661)"
       clip-path="url(#clipPath23770)" /><g
       id="g3549"
       transform="matrix(0.35277776,0,0,-0.35277778,220,722.48892)"
       clip-path="url(#clipPath23799)"><g
         clip-path="url(#clipPath3541)"
         opacity="0.0500031"
         id="g3547"><g
           transform="translate(1328.5439,288.6756)"
           id="g3545"><path
             d="m 0,0 c -24.689,2.489 -47.813,-0.95 -66.086,-8.649 2.284,-10.266 11.421,-17.939 22.354,-17.939 4.902,0 9.444,1.565 13.166,4.209 6.724,-8.11 16.733,-13.372 28.076,-13.372 11.344,0 21.353,5.262 28.078,13.372 3.721,-2.618 8.263,-4.209 13.165,-4.209 7.341,0 13.859,3.464 18.068,8.854 C 41.269,-8.649 21.687,-2.181 0,0"
             style="fill:#a8a9ad;fill-opacity:1;fill-rule:nonzero;stroke:none"
             id="path3543" /></g></g></g><path
       d="m 0,0 c -3.08,0 -6.031,-0.642 -8.726,-1.745 -6.082,11.857 -18.273,20.069 -32.517,20.069 -14.244,0 -26.46,-8.212 -32.517,-20.069 -2.695,1.103 -5.62,1.745 -8.726,1.745 -12.652,0 -22.918,-10.266 -22.918,-22.918 0,-12.653 10.266,-22.919 22.918,-22.919 4.902,0 9.445,1.566 13.166,4.209 6.724,-8.11 16.733,-13.371 28.077,-13.371 11.344,0 21.353,5.261 28.077,13.371 3.721,-2.618 8.264,-4.209 13.166,-4.209 12.653,0 22.918,10.266 22.918,22.919 C 22.918,-10.266 12.653,0 0,0"
       style="fill:#d3dee2;fill-opacity:1;fill-rule:nonzero;stroke:none"
       id="path3553"
       transform="matrix(0.35277776,0,0,-0.35277778,702.16197,614.95569)"
       clip-path="url(#clipPath23904)" /><path
       d="m 0,0 c 1.925,0 3.721,-0.385 5.39,-1.078 3.747,7.34 11.292,12.396 20.095,12.396 8.803,0 16.348,-5.082 20.095,-12.396 1.668,0.693 3.491,1.078 5.39,1.078 7.16,0 13.063,-5.313 14.013,-12.216 0.077,0.641 0.154,1.283 0.154,1.925 0,7.827 -6.34,14.166 -14.167,14.166 -1.899,0 -3.722,-0.385 -5.39,-1.078 C 41.833,10.137 34.288,15.193 25.485,15.193 16.682,15.193 9.137,10.112 5.39,2.797 3.721,3.49 1.925,3.875 0,3.875 c -7.828,0 -14.167,-6.339 -14.167,-14.166 0,-0.668 0.052,-1.309 0.154,-1.925 C -13.089,-5.313 -7.186,0 0,0"
       style="fill:#bdc5d2;fill-opacity:1;fill-rule:nonzero;stroke:none"
       id="path3557"
       transform="matrix(0.35277776,0,0,-0.35277778,678.57662,620.00775)"
       clip-path="url(#clipPath23916)" /></g></svg>
