<?xml version="1.0" encoding="UTF-8" standalone="no"?>
<!-- Created with Inkscape (http://www.inkscape.org/) -->

<svg
   width="45.269146mm"
   height="34.042419mm"
   viewBox="0 0 45.269146 34.042419"
   version="1.1"
   id="svg5"
   xml:space="preserve"
   xmlns="http://www.w3.org/2000/svg"
   xmlns:svg="http://www.w3.org/2000/svg"><defs
     id="defs2"><clipPath
       clipPathUnits="userSpaceOnUse"
       id="clipPath4063"><path
         d="m 1261.4,508.633 h 122.91 V 472.082 H 1261.4 Z"
         id="path4061" /></clipPath><clipPath
       clipPathUnits="userSpaceOnUse"
       id="clipPath24049"><path
         d="M -1365.7007,1520.3543 H 682.29932 V -527.64572 H -1365.7007 Z"
         id="path24051"
         style="stroke-width:0.999998" /></clipPath><clipPath
       clipPathUnits="userSpaceOnUse"
       id="clipPath24059"><path
         d="M -2.2440947e-6,2048 H 2048 V -1.1811023e-5 H -2.2440947e-6 Z"
         id="path24061"
         style="stroke-width:0.999998" /></clipPath><clipPath
       clipPathUnits="userSpaceOnUse"
       id="clipPath24065"><path
         d="M -1274.2065,1585.5935 H 773.79352 V -462.40652 H -1274.2065 Z"
         id="path24067"
         style="stroke-width:0.999998" /></clipPath><clipPath
       clipPathUnits="userSpaceOnUse"
       id="clipPath24081"><path
         d="m -1374.7089,1585.5935 h 2048 V -462.40652 h -2048 z"
         id="path24083"
         style="stroke-width:0.999998" /></clipPath><clipPath
       clipPathUnits="userSpaceOnUse"
       id="clipPath24087"><path
         d="M -1298.8445,1538.3452 H 749.15552 V -509.65481 H -1298.8445 Z"
         id="path24089"
         style="stroke-width:0.999998" /></clipPath><clipPath
       clipPathUnits="userSpaceOnUse"
       id="clipPath24100"><path
         d="M -1365.7007,1524.0244 H 682.29932 V -523.97561 H -1365.7007 Z"
         id="path24102"
         style="stroke-width:0.999998" /></clipPath></defs><g
     id="g26384"
     transform="translate(-664.60464,-529.88294)"><path
       d="m 0,0 c -3.08,0 -6.031,-0.642 -8.726,-1.745 -6.057,11.857 -18.273,20.069 -32.517,20.069 -14.244,0 -26.46,-8.212 -32.517,-20.069 -2.695,1.103 -5.62,1.745 -8.726,1.745 -12.652,0 -22.918,-10.266 -22.918,-22.918 0,-12.653 10.266,-22.919 22.918,-22.919 4.902,0 9.445,1.566 13.166,4.209 6.724,-8.11 16.733,-13.371 28.077,-13.371 11.344,0 21.353,5.261 28.077,13.371 3.721,-2.618 8.264,-4.209 13.166,-4.209 12.653,0 22.918,10.266 22.918,22.919 C 22.918,-10.266 12.653,0 0,0"
       style="fill:#bdc5d2;fill-opacity:1;fill-rule:nonzero;stroke:none"
       id="path4055"
       transform="matrix(0.35277776,0,0,-0.35277778,701.78883,536.34724)"
       clip-path="url(#clipPath24049)" /><g
       id="g4071"
       transform="matrix(0.35277776,0,0,-0.35277778,220,722.48892)"
       clip-path="url(#clipPath24059)"><g
         clip-path="url(#clipPath4063)"
         opacity="0.0500031"
         id="g4069"><g
           transform="translate(1327.4862,507.8327)"
           id="g4067"><path
             d="m 0,0 c -24.689,2.489 -47.813,-0.95 -66.086,-8.649 2.284,-10.266 11.42,-17.939 22.354,-17.939 4.902,0 9.444,1.565 13.165,4.209 6.725,-8.11 16.734,-13.372 28.077,-13.372 11.344,0 21.353,5.262 28.077,13.372 3.722,-2.618 8.264,-4.209 13.166,-4.209 7.34,0 13.859,3.464 18.068,8.854 C 41.269,-8.649 21.686,-2.181 0,0"
             style="fill:#a8a9ad;fill-opacity:1;fill-rule:nonzero;stroke:none"
             id="path4065" /></g></g></g><path
       d="m 0,0 c -3.08,0 -6.031,-0.642 -8.726,-1.745 -6.082,11.857 -18.273,20.069 -32.517,20.069 -14.244,0 -26.46,-8.212 -32.517,-20.069 -2.695,1.103 -5.62,1.745 -8.726,1.745 -12.652,0 -22.918,-10.266 -22.918,-22.918 0,-12.653 10.266,-22.919 22.918,-22.919 4.902,0 9.445,1.566 13.166,4.209 6.724,-8.11 16.733,-13.371 28.077,-13.371 11.344,0 21.353,5.261 28.077,13.371 3.721,-2.618 8.264,-4.209 13.166,-4.209 12.653,0 22.918,10.266 22.918,22.919 C 22.918,-10.266 12.653,0 0,0"
       style="fill:#d3dee2;fill-opacity:1;fill-rule:nonzero;stroke:none"
       id="path4075"
       transform="matrix(0.35277776,0,0,-0.35277778,701.78883,537.64197)"
       clip-path="url(#clipPath24100)" /><path
       d="m 0,0 c 1.925,0 3.721,-0.385 5.39,-1.078 3.747,7.34 11.292,12.396 20.095,12.396 8.803,0 16.348,-5.081 20.095,-12.396 1.668,0.693 3.491,1.078 5.39,1.078 7.16,0 13.063,-5.313 14.013,-12.216 0.077,0.641 0.154,1.283 0.154,1.925 0,7.827 -6.34,14.166 -14.167,14.166 -1.899,0 -3.722,-0.385 -5.39,-1.078 C 41.833,10.138 34.288,15.193 25.485,15.193 16.682,15.193 9.137,10.112 5.39,2.797 3.721,3.49 1.925,3.875 0,3.875 c -7.828,0 -14.167,-6.339 -14.167,-14.166 0,-0.668 0.052,-1.309 0.154,-1.925 C -13.089,-5.313 -7.186,0 0,0"
       style="fill:#bdc5d2;fill-opacity:1;fill-rule:nonzero;stroke:none"
       id="path4079"
       transform="matrix(0.35277776,0,0,-0.35277778,678.20345,542.69403)"
       clip-path="url(#clipPath24087)" /><path
       d="m 0,0 -0.051,-12.832 12.781,-0.103 -3.311,3.311 c 0,0 17.067,9.521 7.776,22.841 C 16.862,10.599 13.166,-1.591 3.157,-3.105 Z"
       style="fill:#d3dee2;fill-opacity:1;fill-rule:nonzero;stroke:none"
       id="path4083"
       transform="matrix(0.35277776,0,0,-0.35277778,669.51171,559.36218)"
       clip-path="url(#clipPath24065)" /><path
       d="M 0,0 -3.131,-3.131 C -13.14,-1.617 -16.862,10.599 -17.17,13.192 -26.486,-0.103 -9.393,-9.65 -9.393,-9.65 l -3.337,-3.285 12.781,0.103 z"
       style="fill:#d3dee2;fill-opacity:1;fill-rule:nonzero;stroke:none"
       id="path4087"
       transform="matrix(0.35277776,0,0,-0.35277778,704.96673,559.36218)"
       clip-path="url(#clipPath24081)" /></g></svg>
